<svg width="25" height="21" viewBox="0 0 25 21" fill="none" xmlns="http://www.w3.org/2000/svg">
<path d="M9.375 0.5H3.82812C3.00781 0.5 2.30469 1.04688 2.07031 1.78906L0.078125 7.72656C0.0390625 7.80469 0.0390625 7.92188 0.0390625 8H9.375V0.5ZM18.5547 3.70312L17.8906 1.78906C17.6562 1.04688 16.9531 0.5 16.1328 0.5H10.625V6.67188C12.3047 4.79688 14.7656 3.625 17.5 3.625C17.8516 3.625 18.2031 3.66406 18.5547 3.70312ZM8.125 13C8.125 11.6719 8.39844 10.4219 8.90625 9.25H0V18.625C0 19.6797 0.820312 20.5 1.875 20.5H11.875C9.60938 18.8203 8.125 16.0859 8.125 13ZM17.5 5.5C13.3594 5.5 10 8.85938 10 13C10 17.1406 13.3594 20.5 17.5 20.5C21.6406 20.5 25 17.1406 25 13C25 8.85938 21.6406 5.5 17.5 5.5ZM21.9531 11.2812L16.8359 16.3594C16.6406 16.5547 16.3672 16.5547 16.2109 16.3594L13.2422 13.3906C13.0859 13.2344 13.0859 12.9609 13.2422 12.7656L14.2578 11.75C14.4531 11.5938 14.7266 11.5938 14.8828 11.7891L16.5234 13.4297L20.3125 9.67969C20.5078 9.48438 20.7812 9.48438 20.9375 9.67969L21.9531 10.6953C22.1094 10.8516 22.1094 11.125 21.9531 11.2812Z" fill="url(#paint0_linear)"/>
<defs>
<linearGradient id="paint0_linear" x1="12.5" y1="0" x2="12.5" y2="20" gradientUnits="userSpaceOnUse">
<stop stop-color="#ACDB47"/>
<stop offset="1" stop-color="#89BA21"/>
</linearGradient>
</defs>
</svg>
