<svg width="40" height="35" viewBox="0 0 40 35" fill="none" xmlns="http://www.w3.org/2000/svg">
<g clip-path="url(#clip0)">
<path d="M24.5334 19.3977C24.5334 19.3977 32.3334 20.9977 34.6667 18.5977C35.8667 21.331 29.6001 25.131 29.6001 25.131L24.5334 19.3977Z" fill="#3D56A6"/>
<path d="M29.6001 25.3987C29.5334 25.3987 29.4667 25.332 29.4001 25.332L24.3334 19.5987C24.2667 19.532 24.2667 19.3987 24.3334 19.2654C24.4001 19.132 24.5334 19.132 24.6667 19.132C24.7334 19.132 32.3334 20.6654 34.5334 18.4654C34.6001 18.3987 34.6667 18.332 34.8001 18.3987C34.8667 18.3987 35.0001 18.4654 35.0001 18.5987C36.2667 21.532 30.0667 25.332 29.8001 25.4654C29.6667 25.3987 29.6001 25.3987 29.6001 25.3987ZM25.2667 19.7987L29.6001 24.732C31.2667 23.6654 34.7334 21.0654 34.4667 19.132C32.2667 20.732 27.2667 20.132 25.2667 19.7987Z" fill="#3D56A6"/>
<path d="M22.5334 31.5328C22.5334 31.5328 28.6001 35.3328 32.0667 33.3995C35.5334 31.4661 39.7334 29.1995 39.7334 29.1995L29.5334 23.1328L22.5334 31.5328Z" fill="#3D56A6"/>
<path d="M29.6667 34.2677C26.3334 34.2677 22.5334 31.9344 22.3334 31.8011C22.2667 31.7344 22.2001 31.6678 22.2001 31.6011C22.2001 31.5344 22.2001 31.4011 22.2667 31.4011L29.2667 23.0011C29.3334 22.8677 29.5334 22.8677 29.6667 22.9344L39.8667 29.0011C39.9334 29.0677 40.0001 29.1344 40.0001 29.2677C40.0001 29.4011 39.9334 29.4677 39.8667 29.5344L32.2001 33.7344C31.4667 34.0677 30.6001 34.2677 29.6667 34.2677ZM22.9334 31.4677C24.1334 32.2011 29.0001 34.7344 31.9334 33.2011L39.1334 29.2011L29.6001 23.5344L22.9334 31.4677Z" fill="#3D56A6"/>
<path d="M8.66666 21.3307L13.3333 18.6641V21.2641L8.66666 23.9307V21.3307Z" fill="#3D56A6"/>
<path d="M8.66663 24.1982C8.59996 24.1982 8.5333 24.1982 8.5333 24.1315C8.46663 24.0648 8.39996 23.9982 8.39996 23.8648V21.2648C8.39996 21.1315 8.46663 21.0648 8.5333 20.9982L13.2 18.2648C13.2666 18.1982 13.4 18.1982 13.4666 18.2648C13.5333 18.3315 13.6 18.3982 13.6 18.5315V21.1315C13.6 21.2648 13.5333 21.3315 13.4666 21.3982L8.79996 24.1315C8.79996 24.1982 8.7333 24.1982 8.66663 24.1982ZM8.99996 21.5315V23.4648L13.0666 21.1315V19.1982L8.99996 21.5315Z" fill="#3D56A6"/>
<path d="M0.333328 2.99896L5 0.265625L13.4 5.13229L8.73333 7.79896L0.333328 2.99896Z" fill="#E8EDFC"/>
<path d="M8.7333 8.13333C8.66663 8.13333 8.59997 8.13333 8.59997 8.06667L0.199968 3.26667C0.133302 3.2 0.0666351 3.06667 0.0666351 3C0.0666351 2.86667 0.133302 2.8 0.199968 2.73333L4.86663 0C4.9333 0 5.06663 0 5.1333 0.0666667L13.5333 4.93333C13.6 5 13.6666 5.06667 13.6666 5.2C13.6666 5.33333 13.6 5.4 13.5333 5.46667L8.86663 8.2C8.79997 8.13333 8.79997 8.13333 8.7333 8.13333ZM0.933302 3L8.7333 7.53333L12.8 5.2L4.99997 0.6L0.933302 3Z" fill="#3D56A6"/>
<path d="M8.73336 7.8V9.66667L8.66669 21.3333V23.9333L0.266693 19.1333L0.33336 3L8.73336 7.8Z" fill="#E8EDFC"/>
<path d="M8.66667 24.2003C8.6 24.2003 8.53333 24.2003 8.53333 24.1336L0.133333 19.3336C0.0666667 19.3336 0 19.2003 0 19.0669L0.0666667 3.00026C0.0666667 2.86693 0.133333 2.80026 0.2 2.73359C0.266667 2.66693 0.4 2.66693 0.466667 2.73359L8.86667 7.60026C8.93333 7.66693 9 7.73359 9 7.86693L8.93333 24.0003C8.93333 24.1336 8.86667 24.2003 8.8 24.2669C8.8 24.2003 8.73333 24.2003 8.66667 24.2003ZM0.6 18.9336L8.4 23.4669V8.00026L0.6 3.46693V18.9336Z" fill="#3D56A6"/>
<path d="M8.73329 7.79948L13.4 5.13281L13.3333 6.93281L8.73329 9.66615V7.79948Z" fill="#3D56A6"/>
<path d="M8.73327 9.93333C8.6666 9.93333 8.59993 9.93333 8.59993 9.86667C8.53327 9.8 8.4666 9.73333 8.4666 9.6V7.8C8.4666 7.66667 8.53327 7.6 8.59993 7.53333L13.2666 4.8C13.3333 4.73333 13.4666 4.73333 13.5333 4.8C13.5999 4.86667 13.6666 4.93333 13.6666 5.06667V6.86667C13.6666 7 13.5999 7.06667 13.5333 7.13333L8.8666 9.86667C8.79993 9.93333 8.73327 9.93333 8.73327 9.93333ZM8.99993 8V9.13333L13.0666 6.8V5.66667L8.99993 8Z" fill="#3D56A6"/>
<path d="M24.0666 2.3344L19.4 5.06773C19.5333 5.00106 19.6666 5.00106 19.8666 5.1344L24.5333 2.40106C24.3333 2.26773 24.2 2.20106 24.0666 2.3344Z" fill="#3D56A6"/>
<path d="M19.8667 5.33359C19.8 5.33359 19.7333 5.33359 19.7333 5.26693C19.6667 5.20026 19.6 5.20026 19.5333 5.20026C19.4 5.26693 19.2 5.26693 19.1333 5.06693C19.0667 4.93359 19.0667 4.73359 19.2667 4.66693L23.9333 1.93359C24 2.00026 24.2667 1.86693 24.6667 2.06693C24.7333 2.13359 24.8 2.20026 24.8 2.33359C24.8 2.46693 24.7333 2.53359 24.6667 2.60026L20 5.33359C19.9333 5.33359 19.9333 5.33359 19.8667 5.33359Z" fill="#3D56A6"/>
<path d="M9.06664 9.33307L13.7333 6.59974C14.2666 6.33307 15.2666 5.99974 16.8666 6.93307C18.0666 7.59974 19.6666 7.39974 21 6.59974L16.3333 9.33307C15 10.1331 13.4 10.3331 12.2 9.66641C10.6666 8.73307 9.59997 9.06641 9.06664 9.33307Z" fill="white"/>
<path d="M13.9333 10.4C13.2667 10.4 12.6667 10.2667 12.1333 9.93333C10.6 9.06667 9.66665 9.33333 9.26665 9.6C9.13332 9.66667 8.93332 9.66667 8.86665 9.46667C8.79999 9.33333 8.79999 9.13333 8.99999 9.06667L13.6667 6.33333C14.2 6 15.3333 5.66667 17.1333 6.66667C18.1333 7.26667 19.6 7.13333 21 6.33333C21.1333 6.26667 21.3333 6.26667 21.4 6.46667C21.4667 6.6 21.4667 6.8 21.2667 6.86667L16.6 9.6C15.6667 10.1333 14.7333 10.4 13.9333 10.4ZM10.6 8.8C11.1333 8.86667 11.6667 9.06667 12.4 9.46667C13.4 10.0667 14.9333 9.93333 16.2667 9.13333L18.7333 7.73333C18 7.73333 17.3333 7.6 16.8 7.26667C15.2667 6.4 14.3333 6.66667 13.9333 6.93333L10.6 8.8Z" fill="#3D56A6"/>
<path d="M9.06664 9.33307L13.7333 6.59974C14.2666 6.33307 15.2666 5.99974 16.8666 6.93307C18.0666 7.59974 19.6666 7.39974 21 6.59974L16.3333 9.33307C15 10.1331 13.4 10.3331 12.2 9.66641C10.6666 8.73307 9.59997 9.06641 9.06664 9.33307Z" fill="white"/>
<path d="M13.9333 10.4C13.2667 10.4 12.6667 10.2667 12.1333 9.93333C10.6 9.06667 9.66665 9.33333 9.26665 9.6C9.13332 9.66667 8.93332 9.66667 8.86665 9.46667C8.79999 9.33333 8.79999 9.13333 8.99999 9.06667L13.6667 6.33333C14.2 6 15.3333 5.66667 17.1333 6.66667C18.1333 7.26667 19.6 7.13333 21 6.33333C21.1333 6.26667 21.3333 6.26667 21.4 6.46667C21.4667 6.6 21.4667 6.8 21.2667 6.86667L16.6 9.6C15.6667 10.1333 14.7333 10.4 13.9333 10.4ZM10.6 8.8C11.1333 8.86667 11.6667 9.06667 12.4 9.46667C13.4 10.0667 14.9333 9.93333 16.2667 9.13333L18.7333 7.73333C18 7.73333 17.3333 7.6 16.8 7.26667C15.2667 6.4 14.3333 6.66667 13.9333 6.93333L10.6 8.8Z" fill="#3D56A6"/>
<path d="M29.1334 29.4651L24.4667 32.1984C24.7334 32.0651 25 31.6651 25.2 31.1318C25.3334 30.8651 25 30.2651 25.0667 29.9318C25.2 29.3984 25.8 28.9984 25.8667 28.3318C25.9334 27.7318 25.6 26.7984 25.6667 26.1318C25.7334 25.5318 26.2 25.1318 26.2 24.5318C26.2 23.9318 25.7334 22.9984 25.7334 22.3984C25.7334 21.9984 26.1334 21.7984 26.0667 21.3984C26 20.8651 25.9334 20.3318 25.8 19.8651C25.5334 18.7318 24.0667 17.5984 22.5334 16.7318C21.1334 15.9318 19.7334 15.3318 19.2667 15.1318L23.9334 12.3984C24.4667 12.5984 25.8667 13.1984 27.2 13.9984C28.7334 14.8651 30.2 15.9984 30.4667 17.1318C30.6 17.5984 30.6667 18.1318 30.7334 18.6651C30.8 19.0651 30.4 19.1984 30.4 19.6651C30.4667 20.2651 30.8667 21.1318 30.8667 21.7984C30.8667 22.3984 30.4 22.7984 30.3334 23.3984C30.2667 24.0651 30.6667 24.9984 30.5334 25.5984C30.4 26.2651 29.8667 26.6651 29.7334 27.1984C29.6 27.5318 29.9334 28.1318 29.8667 28.3984C29.6667 28.9318 29.4 29.3318 29.1334 29.4651Z" fill="#E8EDFC"/>
<path d="M24.5334 32.4648C24.4001 32.4648 24.3334 32.3982 24.2667 32.3315C24.2001 32.1982 24.2001 31.9982 24.4001 31.9315C24.5334 31.8648 24.7334 31.6648 25.0001 30.9982C25.0001 30.9315 25.0001 30.7315 24.9334 30.5982C24.8667 30.3315 24.8001 30.0648 24.8667 29.7982C24.9334 29.5315 25.1334 29.2648 25.2667 29.0648C25.4667 28.7982 25.6001 28.5315 25.6667 28.2648C25.7334 27.9982 25.6667 27.5982 25.6001 27.1982C25.5334 26.7982 25.4667 26.3982 25.4667 26.0648C25.4667 25.7315 25.6001 25.4648 25.7334 25.1982C25.8667 24.9315 25.9334 24.7315 25.9334 24.4648C25.9334 24.1982 25.8001 23.7982 25.6667 23.3982C25.5334 23.0648 25.4667 22.6648 25.4001 22.3982C25.4001 22.0648 25.5334 21.8648 25.6001 21.7315C25.6667 21.5982 25.7334 21.5315 25.7334 21.4648C25.6667 20.9315 25.6001 20.3982 25.4667 19.9982C25.2667 19.1315 24.2001 18.1315 22.3334 17.0648C21.0001 16.2648 19.6001 15.7315 19.0667 15.5315C18.9334 15.4648 18.8667 15.3982 18.8667 15.2648C18.8667 15.1315 18.9334 15.0648 19.0001 14.9982L23.6667 12.2648C23.7334 12.1982 23.8667 12.1982 23.9334 12.2648C24.4667 12.4648 25.8667 13.0648 27.2667 13.8648C29.2667 14.9982 30.4001 16.1315 30.6667 17.1982C30.8001 17.6648 30.8667 18.1982 30.9334 18.7315C31.0001 19.0648 30.8667 19.2648 30.7334 19.3982C30.6667 19.5315 30.6001 19.5982 30.6001 19.7315C30.6001 19.9982 30.7334 20.2648 30.8001 20.5982C30.9334 20.9982 31.0667 21.4648 31.0667 21.8648C31.0667 22.2648 30.9334 22.5982 30.8001 22.8648C30.6667 23.0648 30.6001 23.2648 30.6001 23.5315C30.6001 23.7982 30.6667 24.1982 30.7334 24.5315C30.8001 24.9315 30.8667 25.3982 30.8001 25.7982C30.7334 26.2648 30.4667 26.5982 30.2667 26.8648C30.1334 27.0648 30.0001 27.2648 29.9334 27.4648C29.9334 27.5982 29.9334 27.7982 30.0001 27.9315C30.0667 28.1982 30.1334 28.4648 30.0001 28.6648C29.7334 29.2648 29.4667 29.6648 29.1334 29.8648L24.4667 32.5982C24.6001 32.4648 24.5334 32.4648 24.5334 32.4648ZM19.9334 15.0648C20.6001 15.3315 21.6667 15.8648 22.7334 16.4648C24.7334 17.5982 25.8667 18.7315 26.1334 19.7982C26.2667 20.2648 26.3334 20.7982 26.4001 21.3315C26.4667 21.6648 26.3334 21.8648 26.2001 21.9982C26.1334 22.1315 26.0667 22.1982 26.0667 22.3315C26.0667 22.5982 26.2001 22.8648 26.2667 23.1982C26.4001 23.5982 26.5334 24.0648 26.5334 24.4648C26.5334 24.8648 26.4001 25.1982 26.2667 25.4648C26.1334 25.6648 26.0667 25.8648 26.0667 26.1315C26.0667 26.3982 26.1334 26.7982 26.2001 27.1315C26.2667 27.5315 26.3334 27.9982 26.2667 28.3982C26.2001 28.8648 25.9334 29.1982 25.7334 29.4648C25.6001 29.6648 25.4667 29.8648 25.4001 30.0648C25.4001 30.1982 25.4001 30.3982 25.4667 30.5315C25.5334 30.7982 25.6001 31.0648 25.4667 31.2648L29.0001 29.1982C29.1334 29.1315 29.3334 28.9315 29.6001 28.2648C29.6001 28.1982 29.6001 27.9982 29.5334 27.8648C29.4667 27.5982 29.4001 27.3315 29.4667 27.0648C29.5334 26.7982 29.7334 26.5315 29.8667 26.3315C30.0667 26.0648 30.2001 25.7982 30.2667 25.5315C30.3334 25.2648 30.2667 24.8648 30.2001 24.4648C30.1334 24.0648 30.0667 23.6648 30.0667 23.3315C30.0667 22.9982 30.2001 22.7315 30.3334 22.4648C30.4667 22.1982 30.5334 21.9982 30.5334 21.7315C30.5334 21.4648 30.4001 21.0648 30.2667 20.6648C30.1334 20.3315 30.0667 19.9315 30.0001 19.6648C30.0001 19.3315 30.1334 19.1315 30.2001 18.9982C30.2667 18.8648 30.3334 18.7982 30.3334 18.7315C30.2667 18.1982 30.2001 17.6648 30.0667 17.2648C29.8667 16.3982 28.8001 15.3982 26.9334 14.3315C25.6667 13.5982 24.4001 13.0648 23.8001 12.7982L19.9334 15.0648Z" fill="#3D56A6"/>
<path d="M19.3333 15.1318L24 12.3984C24.5333 12.5984 25.9333 13.1984 27.2667 13.9984C28.8 14.8651 30.2667 15.9984 30.5333 17.1318C30.6667 17.5984 30.7333 18.1318 30.8 18.6651C30.8667 19.0651 30.4667 19.1984 30.4667 19.6651C30.5333 20.2651 30.9333 21.1318 30.9333 21.7984C30.9333 22.3984 30.4667 22.7984 30.4 23.3984C30.3333 24.0651 30.7333 24.9984 30.6 25.5984C30.4667 26.2651 29.9333 26.6651 29.8 27.1984C29.6667 27.5318 30 28.1318 29.9333 28.3984C29.7333 28.9318 29.4667 29.2651 29.2 29.4651L24.5333 32.1984C24.8 32.0651 25.0667 31.6651 25.2667 31.1318C25.4 30.8651 25.0667 30.2651 25.1333 29.9318C25.2667 29.3984 25.8667 28.9984 25.9333 28.3318C26 27.7318 25.6667 26.7984 25.7333 26.1318C25.8 25.5318 26.2667 25.1318 26.2667 24.5318C26.2667 23.9318 25.8 22.9984 25.8 22.3984C25.8 21.9984 26.2 21.7984 26.1333 21.3984C26.0667 20.8651 26 20.3318 25.8667 19.8651C25.6 18.7318 24.1333 17.5984 22.6 16.7318C21.2 15.9318 19.8 15.3318 19.3333 15.1318Z" fill="#E8EDFC"/>
<path d="M24.5334 32.4648C24.4001 32.4648 24.3334 32.3982 24.2667 32.3315C24.2001 32.1982 24.2001 31.9982 24.4001 31.9315C24.5334 31.8648 24.7334 31.6648 25.0001 30.9982C25.0001 30.9315 25.0001 30.7315 24.9334 30.5982C24.8667 30.3315 24.8001 30.0648 24.8667 29.7982C24.9334 29.5315 25.1334 29.2648 25.2667 29.0648C25.4667 28.7982 25.6001 28.5315 25.6667 28.2648C25.7334 27.9982 25.6667 27.5982 25.6001 27.1982C25.5334 26.7982 25.4667 26.3982 25.4667 26.0648C25.4667 25.7315 25.6001 25.4648 25.7334 25.1982C25.8667 24.9315 25.9334 24.7315 25.9334 24.4648C25.9334 24.1982 25.8001 23.7982 25.6667 23.3982C25.5334 23.0648 25.4667 22.6648 25.4001 22.3982C25.4001 22.0648 25.5334 21.8648 25.6001 21.7315C25.6667 21.5982 25.7334 21.5315 25.7334 21.4648C25.6667 20.9315 25.6001 20.3982 25.4667 19.9982C25.2667 19.1315 24.2001 18.1315 22.3334 17.0648C21.0001 16.2648 19.6001 15.7315 19.0667 15.5315C18.9334 15.4648 18.8667 15.3982 18.8667 15.2648C18.8667 15.1315 18.9334 15.0648 19.0001 14.9982L23.6667 12.2648C23.7334 12.1982 23.8667 12.1982 23.9334 12.2648C24.4667 12.4648 25.8667 13.0648 27.2667 13.8648C29.2667 14.9982 30.4001 16.1315 30.6667 17.1982C30.8001 17.6648 30.8667 18.1982 30.9334 18.7315C31.0001 19.0648 30.8667 19.2648 30.7334 19.3982C30.6667 19.5315 30.6001 19.5982 30.6001 19.7315C30.6001 19.9982 30.7334 20.2648 30.8001 20.5982C30.9334 20.9982 31.0667 21.4648 31.0667 21.8648C31.0667 22.2648 30.9334 22.5982 30.8001 22.8648C30.6667 23.0648 30.6001 23.2648 30.6001 23.5315C30.6001 23.7982 30.6667 24.1982 30.7334 24.5315C30.8001 24.9315 30.8667 25.3982 30.8001 25.7982C30.7334 26.2648 30.4667 26.5982 30.2667 26.8648C30.1334 27.0648 30.0001 27.2648 29.9334 27.4648C29.9334 27.5982 29.9334 27.7982 30.0001 27.9315C30.0667 28.1982 30.1334 28.4648 30.0001 28.6648C29.7334 29.2648 29.4667 29.6648 29.1334 29.8648L24.4667 32.5982C24.6001 32.4648 24.5334 32.4648 24.5334 32.4648ZM19.9334 15.0648C20.6001 15.3315 21.6667 15.8648 22.7334 16.4648C24.7334 17.5982 25.8667 18.7315 26.1334 19.7982C26.2667 20.2648 26.3334 20.7982 26.4001 21.3315C26.4667 21.6648 26.3334 21.8648 26.2001 21.9982C26.1334 22.1315 26.0667 22.1982 26.0667 22.3315C26.0667 22.5982 26.2001 22.8648 26.2667 23.1982C26.4001 23.5982 26.5334 24.0648 26.5334 24.4648C26.5334 24.8648 26.4001 25.1982 26.2667 25.4648C26.1334 25.6648 26.0667 25.8648 26.0667 26.1315C26.0667 26.3982 26.1334 26.7982 26.2001 27.1315C26.2667 27.5315 26.3334 27.9982 26.2667 28.3982C26.2001 28.8648 25.9334 29.1982 25.7334 29.4648C25.6001 29.6648 25.4667 29.8648 25.4001 30.0648C25.4001 30.1982 25.4001 30.3982 25.4667 30.5315C25.5334 30.7982 25.6001 31.0648 25.4667 31.2648L29.0001 29.1982C29.1334 29.1315 29.3334 28.9315 29.6001 28.2648C29.6001 28.1982 29.6001 27.9982 29.5334 27.8648C29.4667 27.5982 29.4001 27.3315 29.4667 27.0648C29.5334 26.7982 29.7334 26.5315 29.8667 26.3315C30.0667 26.0648 30.2001 25.7982 30.2667 25.5315C30.3334 25.2648 30.2667 24.8648 30.2001 24.4648C30.1334 24.0648 30.0667 23.6648 30.0667 23.3315C30.0667 22.9982 30.2001 22.7315 30.3334 22.4648C30.4667 22.1982 30.5334 21.9982 30.5334 21.7315C30.5334 21.4648 30.4001 21.0648 30.2667 20.6648C30.1334 20.3315 30.0667 19.9315 30.0001 19.6648C30.0001 19.3315 30.1334 19.1315 30.2001 18.9982C30.2667 18.8648 30.3334 18.7982 30.3334 18.7315C30.2667 18.1982 30.2001 17.6648 30.0667 17.2648C29.8667 16.3982 28.8001 15.3982 26.9334 14.3315C25.6667 13.5982 24.4001 13.0648 23.8001 12.7982L19.9334 15.0648Z" fill="#3D56A6"/>
<path d="M19.8667 5.06838C20.8667 5.66838 22.2667 9.13505 21.1333 12.0017C20.1333 14.6017 19.5333 15.135 19.2667 15.2017C19.8 15.4017 21.2 16.0017 22.5333 16.8017C24.0667 17.6684 25.5333 18.8017 25.8 19.935C25.9333 20.4017 26 20.935 26.0667 21.4684C26.1333 21.8684 25.7333 22.0017 25.7333 22.4684C25.8 23.0684 26.2 23.935 26.2 24.6017C26.2 25.2017 25.7333 25.6017 25.6667 26.2017C25.6 26.8684 26 27.8017 25.8667 28.4017C25.7333 29.0684 25.2 29.4684 25.0667 30.0017C24.9333 30.335 25.2667 30.935 25.2 31.2017C24.8667 32.0684 24.4 32.4684 24 32.2684C23.1333 31.935 19.8 30.4017 16.4 28.4684C12.8 26.335 9.19999 23.735 8.66666 21.335V9.60172C8.73332 9.53505 9.79999 8.26838 12.2 9.66838C14.6 11.0684 18.4667 8.80172 18.9333 5.80172C19.1333 5.00172 19.4667 4.80172 19.8667 5.06838Z" fill="white"/>
<path d="M24.2 32.5336C24.0666 32.5336 24 32.5336 23.8666 32.4669C22.6666 31.9336 19.4666 30.5336 16.2666 28.6669C11.4666 25.9336 8.79996 23.4669 8.39996 21.4002V21.3336L8.46663 9.60025C8.46663 9.53358 8.46663 9.46692 8.5333 9.40025C8.66663 9.26692 9.9333 7.93358 12.4666 9.40025C13.4 9.93358 14.6666 9.86692 15.9333 9.26692C17.4666 8.53358 18.5333 7.13358 18.7333 5.73358C18.8 5.13358 19 4.80025 19.3333 4.66692C19.4666 4.66692 19.6666 4.60025 20 4.80025C21.1333 5.46692 22.6 9.06692 21.4 12.0669C20.7333 13.8003 20.2666 14.6669 19.8666 15.0669C20.5333 15.3336 21.6666 15.8669 22.7333 16.4669C24.7333 17.6003 25.8666 18.7336 26.1333 19.8003C26.2666 20.2669 26.3333 20.8003 26.4 21.3336C26.4666 21.6669 26.3333 21.8669 26.2 22.0003C26.1333 22.1336 26.0666 22.2003 26.0666 22.3336C26.0666 22.6003 26.2 22.8669 26.2666 23.2003C26.4 23.6003 26.5333 24.0669 26.5333 24.4669C26.5333 24.8669 26.4 25.2003 26.2666 25.4669C26.1333 25.6669 26.0666 25.8669 26.0666 26.1336C26.0666 26.4002 26.1333 26.8003 26.2 27.1336C26.2666 27.5336 26.3333 28.0002 26.2666 28.4002C26.2 28.8669 25.9333 29.2003 25.7333 29.4669C25.6 29.6669 25.4666 29.8669 25.4 30.0669C25.4 30.2002 25.4 30.4002 25.4666 30.5336C25.5333 30.8002 25.6 31.0669 25.4666 31.2669C25.2 31.9336 24.8666 32.4002 24.4666 32.5336C24.4 32.5336 24.3333 32.5336 24.2 32.5336ZM8.99996 21.3336C9.39996 23.2003 12.0666 25.5336 16.6 28.2002C19.7333 30.0002 22.9333 31.4669 24.1333 32.0002C24.2 32.0002 24.2666 32.0002 24.3333 32.0002C24.4 31.9336 24.6666 31.8002 25 31.0669C25 31.0002 25 30.8002 24.9333 30.6669C24.8666 30.4002 24.8 30.1336 24.8666 29.8669C24.9333 29.6003 25.1333 29.3336 25.2666 29.1336C25.4666 28.8669 25.6 28.6003 25.6666 28.3336C25.7333 28.0669 25.6666 27.6669 25.6 27.2669C25.5333 26.8669 25.4666 26.4669 25.4666 26.1336C25.4666 25.8003 25.6 25.5336 25.7333 25.2669C25.8666 25.0003 25.9333 24.8003 25.9333 24.5336C25.9333 24.2669 25.8 23.8669 25.6666 23.4669C25.5333 23.1336 25.4666 22.7336 25.4 22.4669C25.4 22.1336 25.5333 21.9336 25.6 21.8003C25.6666 21.6669 25.7333 21.6003 25.7333 21.5336C25.6666 21.0002 25.6 20.4669 25.4666 20.0669C25.2666 19.2003 24.2 18.2003 22.3333 17.1336C21 16.3336 19.6 15.8003 19.0666 15.6003C18.9333 15.5336 18.8666 15.4002 18.8666 15.2669C18.8666 15.1336 19 15.0002 19.1333 15.0002C19.1333 15.0002 19.6666 14.8669 20.7333 12.0002C21.8 9.26692 20.4666 5.93358 19.6 5.46692C19.5333 5.46692 19.4666 5.40025 19.4 5.40025C19.3333 5.46692 19.2 5.60025 19.1333 6.06692C18.8666 7.66692 17.6666 9.20025 16 10.0002C14.5333 10.6669 13.0666 10.7336 12 10.0669C10.1333 9.00025 9.1333 9.66692 8.86663 9.86692L8.99996 21.3336Z" fill="#3D56A6"/>
<path d="M24.0666 12.3987L19.4 15.132C19.7333 14.932 20.2666 14.2654 21.1333 11.9987C22.2666 9.13203 20.8666 5.66536 19.8666 5.06536L24.5333 2.33203C25.5333 2.93203 26.9333 6.3987 25.8 9.26536C24.9333 11.532 24.4 12.1987 24.0666 12.3987Z" fill="#E8EDFC"/>
<path d="M19.4666 15.399C19.3333 15.399 19.2666 15.3323 19.2 15.2656C19.1333 15.1323 19.1333 14.9323 19.3333 14.8656C19.5333 14.799 20 14.2656 20.9333 11.8656C22 9.13229 20.6666 5.79896 19.8 5.33229C19.7333 5.26562 19.6666 5.19896 19.6666 5.06562C19.6666 4.93229 19.7333 4.86562 19.8 4.79896L24.4666 2.06563C24.5333 1.99896 24.6666 1.99896 24.7333 2.06563C25.8666 2.73229 27.3333 6.33229 26.1333 9.33229C25.4 11.2656 24.8 12.3323 24.2666 12.599L19.6 15.3323C19.5333 15.399 19.4666 15.399 19.4666 15.399ZM20.3333 5.06562C21.4 6.19896 22.4 9.33229 21.4 12.0656C21.0666 12.9323 20.8 13.599 20.4666 14.1323L23.8666 12.1323C24.0666 12.0656 24.5333 11.5323 25.4666 9.13229C26.5333 6.53229 25.3333 3.39896 24.4666 2.66563L20.3333 5.06562Z" fill="#3D56A6"/>
<path d="M19.8666 5.06536L24.5333 2.33203C25.5333 2.93203 26.9333 6.3987 25.8 9.26536C24.9333 11.532 24.4 12.1987 24.0666 12.3987L19.4 15.132C19.7333 14.932 20.2666 14.2654 21.1333 11.9987C22.2666 9.06536 20.8666 5.66536 19.8666 5.06536Z" fill="#E8EDFC"/>
<path d="M19.4666 15.399C19.3333 15.399 19.2666 15.3323 19.2 15.2656C19.1333 15.1323 19.1333 14.9323 19.3333 14.8656C19.5333 14.799 20 14.2656 20.9333 11.8656C22 9.13229 20.6666 5.79896 19.8 5.33229C19.7333 5.26562 19.6666 5.19896 19.6666 5.06562C19.6666 4.93229 19.7333 4.86562 19.8 4.79896L24.4666 2.06563C24.5333 1.99896 24.6666 1.99896 24.7333 2.06563C25.8666 2.73229 27.3333 6.33229 26.1333 9.33229C25.4 11.2656 24.8 12.3323 24.2666 12.599L19.6 15.3323C19.5333 15.399 19.4666 15.399 19.4666 15.399ZM20.3333 5.06562C21.4 6.19896 22.4 9.33229 21.4 12.0656C21.0666 12.9323 20.8 13.599 20.4666 14.1323L23.8666 12.1323C24.0666 12.0656 24.5333 11.5323 25.4666 9.13229C26.5333 6.53229 25.3333 3.39896 24.4666 2.66563L20.3333 5.06562Z" fill="#3D56A6"/>
</g>
<defs>
<clipPath id="clip0">
<rect width="40" height="34.2667" fill="white"/>
</clipPath>
</defs>
</svg>
