<svg width="50" height="50" viewBox="0 0 50 50" fill="none" xmlns="http://www.w3.org/2000/svg">
<rect x="0.5" y="0.5" width="49" height="49" rx="9.5" fill="white" stroke="#EBEBF0"/>
<path d="M21.3195 14.9453H15.7726C14.9523 14.9453 14.2491 15.4922 14.0148 16.2344L12.0226 22.1719C11.9835 22.25 11.9835 22.3672 11.9835 22.4453H21.3195V14.9453ZM30.4991 18.1484L29.8351 16.2344C29.6007 15.4922 28.8976 14.9453 28.0773 14.9453H22.5695V21.1172C24.2491 19.2422 26.7101 18.0703 29.4445 18.0703C29.796 18.0703 30.1476 18.1094 30.4991 18.1484ZM20.0695 27.4453C20.0695 26.1172 20.3429 24.8672 20.8507 23.6953H11.9445V33.0703C11.9445 34.125 12.7648 34.9453 13.8195 34.9453H23.8195C21.5538 33.2656 20.0695 30.5312 20.0695 27.4453ZM29.4445 19.9453C25.3038 19.9453 21.9445 23.3047 21.9445 27.4453C21.9445 31.5859 25.3038 34.9453 29.4445 34.9453C33.5851 34.9453 36.9445 31.5859 36.9445 27.4453C36.9445 23.3047 33.5851 19.9453 29.4445 19.9453ZM33.8976 25.7266L28.7804 30.8047C28.5851 31 28.3116 31 28.1554 30.8047L25.1866 27.8359C25.0304 27.6797 25.0304 27.4062 25.1866 27.2109L26.2023 26.1953C26.3976 26.0391 26.671 26.0391 26.8273 26.2344L28.4679 27.875L32.257 24.125C32.4523 23.9297 32.7257 23.9297 32.882 24.125L33.8976 25.1406C34.0538 25.2969 34.0538 25.5703 33.8976 25.7266Z" fill="url(#paint0_linear)"/>
<defs>
<linearGradient id="paint0_linear" x1="24.4445" y1="14.4453" x2="24.4445" y2="34.4453" gradientUnits="userSpaceOnUse">
<stop stop-color="#ACDB47"/>
<stop offset="1" stop-color="#89BA21"/>
</linearGradient>
</defs>
</svg>
