<svg width="50" height="50" viewBox="0 0 50 50" fill="none" xmlns="http://www.w3.org/2000/svg">
<rect x="0.5" y="0.5" width="49" height="49" rx="9.5" fill="white" stroke="#EBEBF0"/>
<path d="M24.4444 15.2578C19.0929 15.2578 14.7569 19.6328 14.7569 24.9453C14.7569 30.2969 19.0929 34.6328 24.4444 34.6328C29.7569 34.6328 34.1319 30.2969 34.1319 24.9453C34.1319 19.6328 29.7569 15.2578 24.4444 15.2578ZM29.5226 19.8672C32.0616 22.4453 32.2569 26.3516 30.3038 29.0859L20.3038 19.0859C23.0382 17.1328 26.9444 17.3281 29.5226 19.8672ZM19.3273 30.0625C16.7882 27.4844 16.5929 23.5781 18.546 20.8438L28.546 30.8438C25.8116 32.7969 21.9054 32.6016 19.3273 30.0625Z" fill="url(#paint0_linear)"/>
<defs>
<linearGradient id="paint0_linear" x1="24.4444" y1="14.4453" x2="24.4444" y2="34.4453" gradientUnits="userSpaceOnUse">
<stop stop-color="#F97F7F"/>
<stop offset="1" stop-color="#DB3E3E"/>
</linearGradient>
</defs>
</svg>
