<svg width="50" height="50" viewBox="0 0 50 50" fill="none" xmlns="http://www.w3.org/2000/svg">
<rect x="0.5" y="0.5" width="49" height="49" rx="9.5" fill="white" stroke="#EBEBF0"/>
<path d="M27.1007 19.0078L29.4445 19.9453L30.382 22.2891C30.4601 22.4062 30.5773 22.4844 30.6945 22.4844C30.7726 22.4844 30.8898 22.4062 30.9679 22.2891L31.9445 19.9453L34.2491 19.0078C34.3663 18.9297 34.4445 18.8125 34.4445 18.6953C34.4445 18.6172 34.3663 18.5 34.2491 18.4219L31.9445 17.4453L30.9679 15.1406C30.8898 15.0234 30.7726 14.9453 30.6945 14.9453C30.5773 14.9453 30.4601 15.0234 30.382 15.1406L29.4445 17.4453L27.1007 18.4219C26.9835 18.5 26.9054 18.6172 26.9054 18.6953C26.9054 18.8125 26.9835 18.9297 27.1007 19.0078ZM34.2491 30.9219L31.9445 29.9453L30.9679 27.6406C30.8898 27.5234 30.7726 27.4453 30.6945 27.4453C30.5773 27.4453 30.4601 27.5234 30.382 27.6406L29.4445 29.9453L27.1007 30.9219C26.9835 31 26.9054 31.1172 26.9054 31.1953C26.9054 31.3125 26.9835 31.4297 27.1007 31.5078L29.4445 32.4453L30.382 34.7891C30.4601 34.9062 30.5773 34.9844 30.6945 34.9844C30.7726 34.9844 30.8898 34.9062 30.9679 34.7891L31.9445 32.4453L34.2491 31.5078C34.3663 31.4297 34.4445 31.3125 34.4445 31.1953C34.4445 31.1172 34.3663 31 34.2491 30.9219ZM29.4445 24.9453C29.4054 24.75 29.2882 24.4766 29.0929 24.3984L24.6788 22.1719L22.4913 17.7969C22.257 17.3672 21.5929 17.3672 21.3585 17.7969L19.171 22.1719L14.757 24.3984C14.5616 24.4766 14.4054 24.75 14.4054 24.9453C14.4054 25.1797 14.5616 25.4141 14.757 25.4922L19.171 27.7188L21.3585 32.1328C21.4757 32.3281 21.7101 32.4453 21.9445 32.4453C22.1398 32.4453 22.3741 32.3281 22.4913 32.1328L24.6788 27.7188L29.0929 25.4922C29.2882 25.4141 29.4445 25.1797 29.4445 24.9453Z" fill="url(#paint0_linear)"/>
<defs>
<linearGradient id="paint0_linear" x1="24.4445" y1="14.4453" x2="24.4445" y2="34.4453" gradientUnits="userSpaceOnUse">
<stop stop-color="#85CFFA"/>
<stop offset="1" stop-color="#2D9CDB"/>
</linearGradient>
</defs>
</svg>
