<svg width="22" height="22" viewBox="0 0 22 22" fill="none" xmlns="http://www.w3.org/2000/svg">
<g clip-path="url(#clip0_6982_93889)">
<path d="M21.9893 17.456C21.5414 14.4292 20.3696 11.4521 17.6006 10.4929C18.6774 9.82332 19.3923 8.62888 19.3923 7.27156C19.3923 5.17676 17.6911 3.47559 15.5963 3.47559C13.5015 3.47559 11.8003 5.17676 11.8003 7.27156C11.8003 8.63341 12.5152 9.82332 13.592 10.4929C12.8681 10.7418 12.2528 11.1309 11.7325 11.624C11.9813 11.9453 12.2121 12.2936 12.4247 12.6692C13.117 13.9043 13.6056 15.4607 13.8771 17.2976C13.9404 17.7229 13.8635 18.1527 13.6689 18.5238H21.0663C21.6319 18.5238 22.0753 18.0215 21.9893 17.456ZM15.5963 6.03187C14.9131 6.03187 14.3612 6.58838 14.3612 7.26704C14.3612 7.57922 14.1078 7.83259 13.7956 7.83259C13.4834 7.83259 13.2301 7.57922 13.2301 7.26704C13.2301 5.95948 14.2933 4.89625 15.6008 4.89625C15.913 4.89625 16.1664 5.14962 16.1664 5.4618C16.1619 5.77851 15.9085 6.03187 15.5963 6.03187ZM8.40705 10.4929C9.48385 9.82332 10.1987 8.62888 10.1987 7.27156C10.1987 5.17676 8.49754 3.47559 6.40274 3.47559C4.30794 3.47559 2.60676 5.17676 2.60676 7.27156C2.60676 8.63341 3.32162 9.82332 4.39843 10.4929C1.62949 11.4521 0.457671 14.4292 0.00975547 17.456C-0.0716838 18.0215 0.367183 18.5238 0.937258 18.5238H11.8682C12.4383 18.5238 12.8817 18.017 12.7957 17.456C12.3523 14.4292 11.176 11.4521 8.40705 10.4929ZM6.40274 6.03187C5.71955 6.03187 5.16757 6.58838 5.16757 7.26704C5.16757 7.57922 4.91421 7.83259 4.60202 7.83259C4.28984 7.83259 4.03647 7.57922 4.03647 7.26704C4.03647 5.95948 5.09971 4.89625 6.40726 4.89625C6.71944 4.89625 6.97281 5.14962 6.97281 5.4618C6.96829 5.77851 6.71492 6.03187 6.40274 6.03187Z" fill="#3D56A6"/>
</g>
<defs>
<clipPath id="clip0_6982_93889">
<rect width="22" height="22" fill="white"/>
</clipPath>
</defs>
</svg>
