<svg width="50" height="50" viewBox="0 0 50 50" fill="none" xmlns="http://www.w3.org/2000/svg">
<rect x="0.5" y="0.5" width="49" height="49" rx="9.5" fill="white" stroke="#EBEBF0"/>
<path d="M17.5695 24.9453H31.3195C31.632 24.9453 31.9445 24.6719 31.9445 24.3203V15.5703C31.9445 15.2578 31.632 14.9453 31.3195 14.9453H26.9445V19.9453L24.4445 18.6953L21.9445 19.9453V14.9453H17.5695C17.2179 14.9453 16.9445 15.2578 16.9445 15.5703V24.3203C16.9445 24.6719 17.2179 24.9453 17.5695 24.9453ZM33.1945 27.4453H15.6945C13.6241 27.4453 11.9445 29.125 11.9445 31.1953C11.9445 33.2656 13.6241 34.9453 15.6945 34.9453H33.1945C35.2648 34.9453 36.9445 33.2656 36.9445 31.1953C36.9445 29.125 35.2648 27.4453 33.1945 27.4453ZM16.9445 32.4453C16.2413 32.4453 15.6945 31.8984 15.6945 31.1953C15.6945 30.5312 16.2413 29.9453 16.9445 29.9453C17.6085 29.9453 18.1945 30.5312 18.1945 31.1953C18.1945 31.8984 17.6085 32.4453 16.9445 32.4453ZM24.4445 32.4453C23.7413 32.4453 23.1945 31.8984 23.1945 31.1953C23.1945 30.5312 23.7413 29.9453 24.4445 29.9453C25.1085 29.9453 25.6945 30.5312 25.6945 31.1953C25.6945 31.8984 25.1085 32.4453 24.4445 32.4453ZM31.9445 32.4453C31.2413 32.4453 30.6945 31.8984 30.6945 31.1953C30.6945 30.5312 31.2413 29.9453 31.9445 29.9453C32.6085 29.9453 33.1945 30.5312 33.1945 31.1953C33.1945 31.8984 32.6085 32.4453 31.9445 32.4453Z" fill="url(#paint0_linear)"/>
<defs>
<linearGradient id="paint0_linear" x1="24.4445" y1="14.4453" x2="24.4445" y2="34.4453" gradientUnits="userSpaceOnUse">
<stop stop-color="#FFB263"/>
<stop offset="1" stop-color="#F19536"/>
</linearGradient>
</defs>
</svg>
