<svg width="173" height="160" viewBox="0 0 173 160" fill="none" xmlns="http://www.w3.org/2000/svg">
<path d="M21.3652 109.083C20.5109 112.697 15.1878 114.603 9.40474 113.223C3.62166 111.843 -0.321349 107.834 0.53297 104.22C1.38729 100.605 6.71035 98.6994 12.4934 100.079C18.2765 101.46 22.2195 105.468 21.3652 109.083Z" fill="url(#paint0_radial)"/>
<path d="M46.4696 57.5024L43.0523 55.4652L66.6447 18.0723L70.1276 20.1095L46.4696 57.5024Z" fill="#3D56A6"/>
<path d="M65.7913 18.4007L62.3083 16.4292L78.7376 0L82.1548 2.03722L65.7913 18.4007Z" fill="#3D56A6"/>
<path d="M8.68371 107.836L5.20071 105.799L28.9245 45.668L32.3418 47.6395L8.68371 107.836Z" fill="#3D56A6"/>
<path d="M65.7905 18.3928L82.154 2.0293L79.2624 23.5844L74.7937 21.8758L46.0097 67.3518L33.3921 58.6115L13.8084 108.359L8.68253 107.833L32.3406 47.6368L46.4697 57.4943L70.1278 20.1014L65.7905 18.3928Z" fill="#6B86E4"/>
<path opacity="0.3" d="M49.5585 101.209C48.2442 106.926 39.7667 109.818 30.7635 107.715C21.6946 105.612 15.4515 99.2373 16.8315 93.5199C18.1458 87.8026 26.6233 84.911 35.6265 87.014C44.6955 89.1169 50.9386 95.4915 49.5585 101.209Z" fill="url(#paint1_radial)"/>
<path opacity="0.3" d="M60.4666 94.1776C59.1523 99.8949 50.6748 102.786 41.6716 100.684C32.6027 98.5806 26.3596 92.2718 27.6739 86.4887C28.9883 80.7713 37.4657 77.8798 46.4689 79.9827C55.5379 82.1514 61.781 88.4602 60.4666 94.1776Z" fill="url(#paint2_radial)"/>
<path opacity="0.3" d="M71.6386 87.9354C70.3243 93.6527 61.8468 96.5443 52.8436 94.4413C43.7747 92.3384 37.5316 85.9639 38.9116 80.2465C40.226 74.5291 48.7034 71.6376 57.7066 73.7405C66.7098 75.8435 72.953 82.218 71.6386 87.9354Z" fill="url(#paint3_radial)"/>
<path d="M83.7967 80.5701C82.4824 86.2875 74.0049 89.179 65.0017 87.0761C55.9328 84.9732 49.6897 78.5986 51.0698 72.8813C52.3841 67.1639 60.8616 64.2724 69.8648 66.3753C78.868 68.4782 85.1111 74.8528 83.7967 80.5701Z" fill="url(#paint4_radial)"/>
<path d="M56.197 36.0156L56.1313 75.6429C56.1313 77.0887 57.117 78.6002 59.0228 79.7173C62.9001 81.9517 69.1432 81.9517 72.9548 79.7173C74.8606 78.6002 75.8463 77.1544 75.8463 75.7086L75.9121 36.0813C75.9121 37.5271 74.9263 38.9729 73.0205 40.0901C69.2089 42.3244 62.9658 42.3244 59.0885 40.0901C57.117 38.9072 56.197 37.4614 56.197 36.0156Z" fill="url(#paint5_linear)"/>
<path d="M72.9551 32.0156C69.0778 29.7813 62.8347 29.7813 59.0232 32.0156C55.2116 34.25 55.2116 37.8644 59.0889 40.0988C62.9662 42.3332 69.2093 42.3332 73.0208 40.0988C76.8324 37.8644 76.8324 34.25 72.9551 32.0156Z" fill="#F7FAFF"/>
<path d="M43.7113 61.5078L43.6456 82.7344C43.6456 84.1801 44.6314 85.6916 46.5372 86.8088C50.4145 89.0432 56.6576 89.0432 60.4691 86.8088C62.3749 85.6916 63.3607 84.2458 63.3607 82.8001L63.4264 61.5735C63.4264 63.0193 62.4407 64.4651 60.5349 65.5823C56.7233 67.8166 50.4802 67.8166 46.6029 65.5823C44.6314 64.4651 43.7113 62.9536 43.7113 61.5078Z" fill="url(#paint6_linear)"/>
<path d="M60.4695 57.5078C56.5922 55.2734 50.3491 55.2734 46.5375 57.5078C42.7259 59.7422 42.7259 63.3566 46.6032 65.591C50.4805 67.8254 56.7236 67.8254 60.5352 65.591C64.3468 63.3566 64.3468 59.7422 60.4695 57.5078Z" fill="#F7FAFF"/>
<path d="M32.0122 59.8652L31.9465 89.3721C31.9465 90.8179 32.9323 92.3294 34.838 93.4466C38.7153 95.6809 44.9584 95.6809 48.77 93.4466C50.6758 92.3294 51.6616 90.8836 51.6616 89.4378L51.7273 59.931C51.7273 61.3767 50.7415 62.8225 48.8357 63.9397C45.0242 66.1741 38.7811 66.1741 34.9038 63.9397C32.998 62.8225 32.0122 61.311 32.0122 59.8652Z" fill="url(#paint7_linear)"/>
<path d="M48.8352 55.8652C44.9579 53.6309 38.7148 53.6309 34.9032 55.8652C31.0259 58.0996 31.0916 61.714 34.9032 63.9484C38.7805 66.1828 45.0236 66.1828 48.8352 63.9484C52.7125 61.714 52.6468 58.0996 48.8352 55.8652Z" fill="#F7FAFF"/>
<path d="M21.8272 82.6836L21.7615 95.5641C21.7615 97.0099 22.7472 98.5213 24.653 99.6385C28.5303 101.873 34.7734 101.873 38.585 99.6385C40.4908 98.5213 41.4765 97.0756 41.4765 95.6298L41.5422 82.7493C41.5422 84.1951 40.5565 85.6409 38.6507 86.758C34.8391 88.9924 28.596 88.9924 24.7187 86.758C22.8129 85.6409 21.8272 84.1951 21.8272 82.6836Z" fill="url(#paint8_linear)"/>
<path d="M38.6493 78.7383C34.772 76.5039 28.5289 76.5039 24.7173 78.7383C20.9058 80.9727 20.9058 84.5871 24.7831 86.8215C28.6604 89.0558 34.9035 89.0558 38.715 86.8215C42.5266 84.5214 42.5266 80.9069 38.6493 78.7383Z" fill="#F7FAFF"/>
<path d="M170.939 130.178C168.967 138.721 156.35 143.058 142.812 139.904C129.274 136.749 119.942 127.22 121.98 118.677C123.951 110.134 136.569 105.797 150.106 108.951C163.644 112.105 172.976 121.634 170.939 130.178Z" fill="url(#paint9_radial)"/>
<path d="M160.817 120.781V122.293C160.817 124.921 159.109 127.55 155.626 129.587C148.725 133.596 137.553 133.596 130.719 129.587C127.302 127.616 125.593 124.987 125.593 122.424V120.913C125.593 123.476 127.302 126.104 130.719 128.076C137.553 132.085 148.725 132.085 155.626 128.076C159.043 126.039 160.817 123.41 160.817 120.781Z" fill="url(#paint10_linear)"/>
<path d="M130.785 113.62C137.685 109.611 148.857 109.611 155.692 113.62C162.526 117.629 162.526 124.069 155.626 128.078C148.726 132.086 137.554 132.086 130.719 128.078C123.819 124.069 123.885 117.629 130.785 113.62Z" fill="#F2F4F8"/>
<path d="M151.025 117.358L143.139 104.148L135.188 117.423C135.056 117.62 134.925 117.883 134.793 118.08V118.146C134.07 119.789 134.793 121.629 137.028 122.943C140.379 124.915 145.899 124.915 149.251 122.943C151.88 121.432 152.471 119.198 151.025 117.358Z" fill="url(#paint11_linear)"/>
<path d="M140.839 91.3937C142.153 90.6708 144.256 90.6708 145.505 91.3937C146.819 92.1166 146.753 93.3652 145.505 94.0881C144.19 94.811 142.087 94.811 140.839 94.0881C139.525 93.3652 139.525 92.1823 140.839 91.3937Z" fill="#435EBE"/>
<path d="M145.505 94.1533C144.191 94.8761 142.088 94.8761 140.839 94.1533C140.511 93.9561 140.313 93.759 140.116 93.5618L143.139 98.622L146.228 93.4961C146.096 93.759 145.834 93.9561 145.505 94.1533Z" fill="url(#paint12_linear)"/>
<path d="M143.205 98.6289C143.205 98.6289 143.27 100.009 143.336 101.389C143.336 101.718 143.402 102.046 143.402 102.375C143.402 102.703 143.402 103.032 143.336 103.229C143.336 103.492 143.27 103.689 143.27 103.886C143.27 104.018 143.205 104.149 143.205 104.149C143.205 104.149 143.205 104.083 143.139 103.886C143.139 103.755 143.073 103.492 143.073 103.229C143.073 102.966 143.007 102.638 143.007 102.375C143.007 102.046 143.007 101.718 143.073 101.389C143.073 100.009 143.139 98.6289 143.205 98.6289Z" fill="#435EBE"/>
<path opacity="0.5" d="M156.611 115.45L144.979 101.19C144.256 100.335 144.256 99.0211 144.914 98.1668L158.32 80.5547L143.139 87.7835L127.959 80.5547L141.365 98.1668C142.022 99.0211 142.022 100.335 141.299 101.19L129.47 115.647C126.381 118.999 127.236 123.336 132.099 126.162C138.079 129.645 147.871 129.645 153.917 126.162C159.108 123.271 159.963 118.868 156.611 115.45Z" fill="url(#paint13_linear)"/>
<path opacity="0.6" d="M138.737 94.6898L140.38 96.7927L136.897 84.8323L133.085 82.9922L138.737 94.6898Z" fill="white"/>
<path opacity="0.6" d="M147.609 94.6898L145.966 96.7927L149.449 84.8323L153.26 82.9922L147.609 94.6898Z" fill="#F1F2F2"/>
<path d="M160.817 76.6797V78.1912C160.817 80.8198 159.109 83.4485 155.626 85.4858C148.725 89.4945 137.553 89.4945 130.719 85.4858C127.302 83.5142 125.593 80.8856 125.593 78.3226V76.8111C125.593 79.3741 127.302 82.0028 130.719 83.9743C137.553 87.983 148.725 87.983 155.626 83.9743C159.043 81.937 160.817 79.3084 160.817 76.6797Z" fill="url(#paint14_linear)"/>
<path d="M130.785 69.5202C137.685 65.5115 148.857 65.5115 155.692 69.5202C162.526 73.5289 162.526 79.9692 155.626 83.9779C148.726 87.9866 137.554 87.9866 130.719 83.9779C123.819 79.9692 123.885 73.4632 130.785 69.5202Z" fill="#F2F4F8"/>
<path opacity="0.6" d="M141.233 101.398L139.722 103.239L128.747 123.019C129.47 124.202 130.653 125.254 132.23 126.174C133.019 126.634 133.939 127.028 134.859 127.357L141.233 101.398Z" fill="white"/>
<path opacity="0.6" d="M145.112 101.398L146.624 103.239L157.598 123.019C156.875 124.202 155.693 125.254 154.115 126.174C153.327 126.634 152.407 127.028 151.487 127.357L145.112 101.398Z" fill="#F1F2F2"/>
<path opacity="0.5" d="M155.693 113.609C155.693 113.609 155.89 113.74 156.284 114.003C156.678 114.266 157.27 114.594 157.861 115.186C158.519 115.777 159.241 116.5 159.899 117.552C160.49 118.603 160.95 119.917 160.819 121.429C160.687 122.94 159.899 124.452 158.781 125.635C157.599 126.883 156.087 127.935 154.444 128.724C151.093 130.301 147.15 131.089 143.207 131.089C139.264 131.089 135.321 130.301 131.969 128.724C130.326 127.935 128.815 126.883 127.632 125.635C126.449 124.386 125.726 122.875 125.66 121.363C125.529 119.852 125.989 118.537 126.646 117.486C127.303 116.435 128.026 115.712 128.683 115.12C129.34 114.529 129.932 114.2 130.326 113.937C130.72 113.674 130.917 113.543 130.917 113.543C130.917 113.543 130.72 113.674 130.326 113.937C129.932 114.2 129.34 114.594 128.749 115.12C128.092 115.712 127.369 116.435 126.712 117.486C126.12 118.537 125.66 119.852 125.792 121.298C125.923 122.743 126.646 124.255 127.763 125.503C128.88 126.752 130.392 127.804 132.035 128.592C135.386 130.169 139.329 130.892 143.272 130.892C147.215 130.892 151.158 130.169 154.51 128.592C156.153 127.804 157.664 126.818 158.847 125.569C160.03 124.321 160.753 122.875 160.884 121.363C161.016 119.917 160.621 118.537 160.03 117.486C159.439 116.435 158.716 115.712 158.059 115.12C157.401 114.529 156.876 114.2 156.481 113.937C155.89 113.74 155.693 113.609 155.693 113.609Z" fill="white"/>
<path opacity="0.5" d="M155.693 69.5306C155.693 69.5306 155.89 69.662 156.284 69.9249C156.678 70.1877 157.27 70.5163 157.861 71.1078C158.519 71.6992 159.241 72.4221 159.899 73.4736C160.49 74.525 160.95 75.8394 160.819 77.3509C160.687 78.8624 159.899 80.3738 158.781 81.5567C157.599 82.8054 156.087 83.8568 154.444 84.6454C151.093 86.2226 147.15 87.0112 143.207 87.0112C139.264 87.0112 135.321 86.2226 131.969 84.6454C130.326 83.8568 128.815 82.8054 127.632 81.5567C126.449 80.3081 125.726 78.7966 125.66 77.2852C125.529 75.7737 125.989 74.4593 126.646 73.4079C127.303 72.3564 128.026 71.6335 128.683 71.0421C129.34 70.4506 129.932 70.122 130.326 69.8591C130.72 69.5963 130.917 69.4648 130.917 69.4648C130.917 69.4648 130.72 69.5963 130.326 69.8591C129.932 70.122 129.34 70.5163 128.749 71.0421C128.092 71.6335 127.369 72.3564 126.712 73.4079C126.12 74.4593 125.66 75.7737 125.792 77.2194C125.923 78.6652 126.646 80.1767 127.763 81.4253C128.88 82.6739 130.392 83.7254 132.035 84.514C135.386 86.0912 139.329 86.8141 143.272 86.8141C147.215 86.8141 151.158 86.0255 154.51 84.514C156.153 83.7254 157.664 82.7396 158.847 81.491C160.03 80.2424 160.753 78.7966 160.884 77.2852C161.016 75.8394 160.621 74.4593 160.03 73.4079C159.439 72.3564 158.716 71.6335 158.059 71.0421C157.401 70.4506 156.876 70.122 156.481 69.8591C155.89 69.662 155.693 69.5306 155.693 69.5306Z" fill="white"/>
<mask id="mask0" style="mask-type:alpha" maskUnits="userSpaceOnUse" x="62" y="98" width="74" height="48">
<path d="M62.6371 101.001C59.4827 106.455 73.2175 120.321 93.3926 131.953C113.502 143.585 132.363 148.58 135.517 143.125C138.672 137.671 124.937 123.804 104.762 112.173C84.718 100.475 65.7915 95.5462 62.6371 101.001Z" fill="url(#paint15_radial)"/>
</mask>
<g mask="url(#mask0)">
<path d="M62.6371 101.001C59.4827 106.455 73.2175 120.321 93.3926 131.953C113.502 143.585 132.363 148.58 135.517 143.125C138.672 137.671 124.937 123.804 104.762 112.173C84.718 100.475 65.7915 95.5462 62.6371 101.001Z" fill="url(#paint16_radial)"/>
</g>
<path d="M108.771 94.6214C108.771 103.756 102.265 107.502 94.3134 102.902C86.3617 98.3015 79.9214 87.1296 79.9214 77.995C79.9214 68.8604 86.4274 65.1145 94.3791 69.7147C102.331 74.3149 108.771 85.421 108.771 94.6214ZM94.3134 95.41C98.7164 97.9072 102.265 95.9357 102.265 90.8755C102.265 85.881 98.7164 79.7036 94.3791 77.2064C89.9761 74.7092 86.4274 76.6807 86.4274 81.7409C86.4274 86.7353 89.9104 92.847 94.3134 95.41Z" fill="white"/>
<path d="M94.3777 77.2156C89.9747 74.7184 86.426 76.6899 86.426 81.7501C86.426 86.8102 89.9747 92.9219 94.312 95.4192C98.715 97.9164 102.264 95.9449 102.264 90.8847C102.264 85.8245 98.715 79.7128 94.3777 77.2156Z" fill="#3D56A6"/>
<path d="M115.277 98.3775C115.211 111.652 105.814 117.041 94.2477 110.338C82.6815 103.635 73.3497 87.4685 73.3497 74.1937C73.4154 60.9189 82.813 55.5301 94.3791 62.2332C105.945 68.9364 115.343 85.1027 115.277 98.3775ZM94.3134 102.846C102.265 107.446 108.771 103.766 108.771 94.5659C108.771 85.4313 102.331 74.2594 94.3791 69.6592C86.4274 65.0591 79.9214 68.7392 79.9214 77.9396C79.8557 87.1399 86.296 98.2461 94.3134 102.846Z" fill="#3D56A6"/>
<path d="M121.783 102.121C121.718 119.536 109.429 126.567 94.248 117.827C79.0674 109.087 66.8441 87.8601 66.9098 70.4451C66.9755 53.0301 79.2646 45.9984 94.4452 54.7388C109.56 63.4791 121.849 84.7057 121.783 102.121ZM94.248 110.335C105.814 117.038 115.212 111.65 115.277 98.3748C115.343 85.1 105.946 68.9336 94.3795 62.2305C82.8133 55.5274 73.4158 60.9162 73.3501 74.191C73.3501 87.4658 82.6819 103.698 94.248 110.335Z" fill="white"/>
<path d="M100.292 43.8952C90.8292 38.4407 82.286 37.915 76.1086 41.5294L70.2598 44.8809C76.4372 41.3322 84.9804 41.7923 94.4436 47.2468C113.173 58.09 128.354 84.3111 128.288 105.866C128.288 116.578 124.476 124.135 118.365 127.684L124.213 124.333C130.325 120.784 134.071 113.226 134.137 102.515C134.202 80.9595 119.022 54.7385 100.292 43.8952Z" fill="url(#paint17_linear)"/>
<path d="M128.288 105.864C128.222 127.419 112.976 136.094 94.2467 125.316C75.5174 114.538 60.3368 88.2517 60.4025 66.6966C60.4682 45.1415 75.7145 36.4668 94.4438 47.3101C113.173 58.1534 128.354 84.3744 128.288 105.864ZM94.2467 117.824C109.427 126.565 121.716 119.533 121.782 102.118C121.848 84.703 109.559 63.4765 94.4438 54.7361C79.3289 45.9958 66.9742 53.0275 66.9085 70.4425C66.8427 87.8574 79.0661 109.084 94.2467 117.824Z" fill="#3D56A6"/>
<path opacity="0.5" d="M94.2477 125.307C94.2477 125.307 94.7734 125.57 95.6935 126.096C96.1535 126.359 96.7449 126.622 97.4678 126.95C97.7964 127.147 98.1907 127.279 98.585 127.476C98.9793 127.673 99.4393 127.87 99.8993 128.002C101.739 128.724 104.105 129.447 106.865 129.776C107.062 129.776 107.194 129.842 107.391 129.842C107.588 129.842 107.72 129.842 107.917 129.842C108.245 129.842 108.64 129.907 109.034 129.907C109.428 129.907 109.757 129.907 110.151 129.907C110.545 129.907 110.94 129.842 111.334 129.842C112.911 129.71 114.488 129.316 116.131 128.725C117.709 128.133 119.286 127.213 120.732 125.964C122.112 124.781 123.426 123.27 124.412 121.627C126.449 118.276 127.632 114.201 128.092 109.929C128.486 105.658 128.223 101.189 127.435 96.7204C127.238 95.6032 126.975 94.486 126.778 93.3688C126.515 92.2516 126.252 91.1345 125.923 90.083C125.266 87.9143 124.543 85.7457 123.689 83.577C122.835 81.4741 121.914 79.3711 120.929 77.2682C119.943 75.231 118.826 73.1938 117.643 71.288C116.46 69.3822 115.277 67.4764 113.963 65.702C113.306 64.782 112.648 63.9277 111.991 63.0734C111.334 62.219 110.611 61.3647 109.954 60.5761C107.194 57.2903 104.171 54.3987 101.148 51.9015C98.0593 49.4042 94.9706 47.367 91.8819 45.8555C90.3704 45.0669 88.7932 44.4755 87.3474 43.9497C86.6245 43.7526 85.9016 43.4897 85.1788 43.2926C84.8502 43.2269 84.4559 43.0954 84.1273 43.0297C83.7987 42.964 83.4044 42.8983 83.0758 42.8326C80.3157 42.3725 77.8185 42.4383 75.9127 42.8326C73.9412 43.1611 72.4297 43.7526 71.5097 44.2783C71.0496 44.4755 70.6553 44.7383 70.4582 44.8698C70.1953 45.0012 70.0639 45.0669 70.0639 45.0669C70.0639 45.0669 70.1953 45.0012 70.4582 44.8698C70.7211 44.7383 71.0496 44.5412 71.5097 44.2783C72.4954 43.8183 73.9412 43.2269 75.9127 42.8326C77.8842 42.504 80.3814 42.3725 83.1415 42.8326C83.4701 42.8983 83.8644 42.964 84.193 43.0297C84.5216 43.0954 84.9159 43.2269 85.2445 43.2926C85.9674 43.424 86.6903 43.6869 87.4789 43.9497C88.9903 44.4755 90.5018 45.0669 92.0133 45.8555C95.102 47.367 98.2564 49.4042 101.345 51.8358C104.434 54.333 107.391 57.2246 110.217 60.5104C110.94 61.299 111.597 62.1533 112.254 63.0076C112.911 63.862 113.568 64.7163 114.226 65.6363C115.54 67.4107 116.723 69.3165 117.906 71.2222C119.089 73.128 120.14 75.1653 121.192 77.2025C122.243 79.2397 123.163 81.3426 123.952 83.5113C124.806 85.6142 125.529 87.8486 126.12 90.0173C126.449 91.1345 126.712 92.2516 126.975 93.3031C127.238 94.4203 127.435 95.5375 127.632 96.6547C128.42 101.123 128.618 105.592 128.223 109.864C127.763 114.135 126.646 118.21 124.543 121.627C123.492 123.336 122.243 124.781 120.797 125.964C119.352 127.147 117.774 128.067 116.197 128.725C114.62 129.382 112.977 129.71 111.4 129.842C111.005 129.842 110.611 129.907 110.217 129.907C109.823 129.907 109.428 129.907 109.1 129.907C108.705 129.907 108.377 129.842 107.983 129.842C107.785 129.842 107.654 129.842 107.457 129.776C107.26 129.776 107.128 129.71 106.931 129.71C104.171 129.382 101.805 128.659 99.9651 127.936C99.505 127.739 99.045 127.542 98.6507 127.41C98.2564 127.213 97.8621 127.082 97.5335 126.884C96.8106 126.556 96.2192 126.293 95.7592 125.964C94.7077 125.57 94.2477 125.307 94.2477 125.307Z" fill="white"/>
<path opacity="0.1" d="M89.5803 122.294C91.0918 123.411 92.6033 124.397 94.1805 125.317C95.9548 126.303 97.6635 127.157 99.3064 127.814L94.2462 86.2812L89.5803 122.294Z" fill="url(#paint18_linear)"/>
<path d="M45.7491 112.773L20.5138 126.771C20.5138 126.771 14.3364 124.931 18.3452 121.251C21.8282 118.425 35.4315 113.693 45.7491 112.773Z" fill="url(#paint19_linear)"/>
<path d="M18.4102 121.448C16.9644 122.762 16.833 123.814 17.2273 124.668C16.7016 123.814 16.7016 122.631 18.2788 121.251C21.8275 118.425 35.3652 113.693 45.6827 112.773L45.2227 113.036C35.0366 114.088 21.8932 118.688 18.4102 121.448Z" fill="#435EBE"/>
<path d="M23.2719 126.294C24.3233 125.637 25.572 124.848 27.0177 123.994C28.4635 123.074 30.0407 122.088 31.8151 120.971C33.5894 119.854 35.4952 118.605 37.5324 117.356C39.5696 116.042 41.6726 114.662 43.8412 113.282C45.3527 112.296 47.0614 111.508 48.6386 110.456C7.23695 101.781 21.1032 124.06 23.1404 126.425C23.1404 126.36 23.2061 126.36 23.2719 126.294Z" fill="#7492FB"/>
<path d="M23.3383 126.223C23.2726 126.223 23.2726 126.289 23.2068 126.289C23.1411 126.354 23.1411 126.354 23.0754 126.42C21.4982 124.58 12.8893 110.977 27.9384 108.742C13.7436 111.042 21.5639 123.988 23.3383 126.223Z" fill="#1993FF"/>
<path d="M92.6051 88.0556L94.3137 86.2812L91.9479 86.9384L80.3161 93.9044L81.0389 95.0216L92.6051 88.0556Z" fill="url(#paint20_linear)"/>
<path d="M47.3254 115.727L22.5502 130.579C22.5502 130.579 21.0387 136.887 26.2303 135.179C30.5019 133.602 41.3452 124.204 47.3254 115.727Z" fill="url(#paint21_linear)"/>
<path d="M26.2297 135.253C24.1924 135.91 23.2067 135.319 22.7467 134.464C23.2724 135.253 24.2582 135.647 26.0982 135.056C30.2384 133.413 40.7531 124.41 46.799 116.064L47.2591 115.801C41.3446 124.213 30.5013 133.61 26.2297 135.253Z" fill="#435EBE"/>
<path d="M68.7488 99.0207C68.3545 98.8235 68.0259 98.7578 67.6973 98.7578L20.3155 126.819C19.9869 127.016 19.8555 127.345 19.8555 127.87C19.8555 128.922 20.5784 130.236 21.5641 130.762C22.0898 131.091 22.5499 131.025 22.8784 130.762C22.8784 130.762 22.8127 130.762 22.8127 130.828L70.5889 103.621C70.786 103.358 70.8517 103.029 70.8517 102.569C70.8517 101.321 69.9317 99.6778 68.7488 99.0207Z" fill="#5D7CE9"/>
<path d="M80.9737 91.9382C80.3822 91.6096 79.8565 91.5439 79.4622 91.8067L67.6989 98.7727C68.0274 98.7727 68.356 98.8384 68.7503 99.0356C69.9332 99.6927 70.8533 101.336 70.8533 102.716C70.8533 103.176 70.7218 103.504 70.5904 103.767L82.5509 96.9984C82.9452 96.8012 83.1423 96.2755 83.208 95.6183C83.0766 94.2383 82.1566 92.5953 80.9737 91.9382Z" fill="url(#paint22_linear)"/>
<path d="M24.3908 128.399C25.4423 127.807 48.6403 114.401 50.2832 113.547C37.0741 153.766 25.2451 131.488 24.1936 128.465C24.2594 128.465 24.3251 128.465 24.3908 128.399Z" fill="#4C6BDA"/>
<path d="M25.3775 130.83C28.9919 136.745 38.9152 146.405 49.8242 113.81C50.0213 113.678 50.2185 113.613 50.2842 113.547C39.0466 147.785 28.7948 136.745 25.3775 130.83Z" fill="#1993FF"/>
<path opacity="0.0323" d="M71.8367 147.187C75.5826 147.187 79.0656 146.333 81.6943 144.822C84.0601 143.442 85.3744 141.733 85.3744 139.893C85.3744 138.119 84.0601 136.41 81.76 135.03C79.1313 133.518 75.6483 132.664 71.9024 132.664C68.1566 132.664 64.6736 133.518 62.0449 135.03C59.6791 136.41 58.3648 138.119 58.3648 139.959C58.3648 141.733 59.6791 143.442 61.9792 144.822C64.6079 146.333 68.1566 147.187 71.8367 147.187Z" fill="#FCFDFE"/>
<path opacity="0.0645" d="M71.8368 147.128C75.5827 147.128 79 146.273 81.6286 144.828C83.9944 143.448 85.3088 141.739 85.3088 139.965C85.3088 138.19 84.0602 136.482 81.6944 135.167C79.1314 133.656 75.6484 132.867 71.9683 132.867C68.2224 132.867 64.8051 133.722 62.1765 135.167C59.8106 136.547 58.4963 138.256 58.4963 140.03C58.4963 141.805 59.7449 143.513 62.1107 144.828C64.608 146.273 68.091 147.128 71.8368 147.128Z" fill="#FAFBFD"/>
<path opacity="0.0968" d="M71.7698 146.988C75.45 146.988 78.933 146.199 81.4959 144.688C83.8617 143.308 85.1103 141.599 85.1103 139.89C85.1103 138.116 83.8617 136.473 81.5616 135.093C78.9987 133.582 75.5814 132.793 71.9013 132.793C68.2211 132.793 64.7381 133.582 62.1752 135.093C59.8094 136.473 58.5607 138.182 58.5607 139.89C58.5607 141.665 59.8094 143.308 62.1094 144.688C64.6067 146.133 68.0897 146.988 71.7698 146.988Z" fill="#F7F9FC"/>
<path opacity="0.129" d="M71.7041 146.867C75.3842 146.867 78.8015 146.079 81.3645 144.567C83.6646 143.253 84.9789 141.544 84.9789 139.77C84.9789 138.061 83.7303 136.353 81.4302 135.038C78.8672 133.593 75.45 132.738 71.8355 132.738C68.1554 132.738 64.7381 133.527 62.1752 135.038C59.8751 136.353 58.5607 138.061 58.5607 139.836C58.5607 141.544 59.8094 143.253 62.1094 144.567C64.6067 146.079 68.024 146.867 71.7041 146.867Z" fill="#F4F6FA"/>
<path opacity="0.1613" d="M71.6384 146.802C75.2528 146.802 78.6701 146.013 81.233 144.502C83.5331 143.187 84.7818 141.479 84.7818 139.77C84.7818 138.061 83.5331 136.353 81.233 135.038C78.7358 133.593 75.3185 132.738 71.7041 132.738C68.0897 132.738 64.6724 133.527 62.1094 135.038C59.8094 136.353 58.5607 138.061 58.5607 139.77C58.5607 141.479 59.8094 143.187 62.1094 144.502C64.6067 145.947 68.024 146.802 71.6384 146.802Z" fill="#F2F4F9"/>
<path opacity="0.1935" d="M71.5741 146.659C75.1885 146.659 78.5401 145.871 81.0373 144.425C83.3374 143.111 84.586 141.402 84.586 139.693C84.586 137.985 83.3374 136.342 81.103 135.027C78.6058 133.582 75.2542 132.793 71.6398 132.793C68.0254 132.793 64.6738 133.582 62.1766 135.027C59.8765 136.342 58.6279 138.05 58.6279 139.759C58.6279 141.468 59.8765 143.111 62.1109 144.425C64.6081 145.871 67.9597 146.659 71.5741 146.659Z" fill="#EFF2F8"/>
<path opacity="0.2258" d="M71.5084 146.602C75.0571 146.602 78.4086 145.813 80.9059 144.368C83.206 143.053 84.4546 141.41 84.4546 139.702C84.4546 137.993 83.206 136.35 80.9716 135.102C78.4744 133.656 75.1885 132.867 71.5741 132.867C68.0254 132.867 64.6738 133.656 62.1766 135.102C59.8765 136.416 58.6279 138.059 58.6279 139.767C58.6279 141.476 59.8765 143.119 62.1109 144.368C64.6081 145.748 67.9597 146.602 71.5084 146.602Z" fill="#ECF0F7"/>
<path opacity="0.2581" d="M71.4413 146.473C74.99 146.473 78.2759 145.685 80.7731 144.239C83.0075 142.924 84.2561 141.281 84.2561 139.573C84.2561 137.93 83.0075 136.287 80.8388 134.973C78.4073 133.527 75.0558 132.738 71.507 132.738C67.9583 132.738 64.6725 133.527 62.1753 134.973C59.9409 136.287 58.6923 137.93 58.6923 139.639C58.6923 141.281 59.9409 142.924 62.1095 144.239C64.6068 145.685 67.8926 146.473 71.4413 146.473Z" fill="#EAEEF6"/>
<path opacity="0.2903" d="M71.377 146.339C74.86 146.339 78.2116 145.551 80.6431 144.17C82.8775 142.856 84.1261 141.279 84.1261 139.57C84.1261 137.927 82.9432 136.284 80.7088 135.036C78.2773 133.59 74.9915 132.867 71.5085 132.867C68.0255 132.867 64.6739 133.656 62.2424 135.036C60.008 136.35 58.7594 137.927 58.7594 139.636C58.7594 141.279 59.9423 142.922 62.1767 144.17C64.6082 145.551 67.894 146.339 71.377 146.339Z" fill="#E7ECF5"/>
<path opacity="0.3226" d="M71.31 146.273C74.793 146.273 78.0789 145.485 80.5104 144.105C82.7447 142.856 83.9277 141.213 83.9277 139.57C83.9277 137.927 82.7448 136.284 80.5761 135.036C78.1446 133.656 74.9244 132.867 71.4415 132.867C67.9585 132.867 64.6726 133.656 62.2411 135.036C60.0067 136.284 58.8238 137.927 58.8238 139.57C58.8238 141.213 60.0067 142.856 62.1754 144.105C64.6069 145.485 67.827 146.273 71.31 146.273Z" fill="#E5EAF3"/>
<path opacity="0.3548" d="M71.2443 146.133C74.7273 146.133 77.9474 145.345 80.3789 143.965C82.5476 142.716 83.7962 141.073 83.7962 139.43C83.7962 137.787 82.6133 136.21 80.4447 134.962C78.0131 133.582 74.793 132.793 71.3757 132.793C67.8927 132.793 64.6726 133.582 62.2411 134.962C60.0724 136.21 58.8238 137.853 58.8238 139.496C58.8238 141.139 60.0067 142.716 62.1754 143.965C64.6069 145.345 67.827 146.133 71.2443 146.133Z" fill="#E2E8F2"/>
<path opacity="0.3871" d="M71.1786 146.068C74.5959 146.068 77.816 145.279 80.1818 143.899C82.3504 142.65 83.5334 141.073 83.5334 139.43C83.5334 137.787 82.3504 136.21 80.1818 134.962C77.816 133.582 74.5959 132.793 71.1786 132.793C67.7613 132.793 64.5412 133.582 62.1754 134.962C60.0067 136.21 58.8238 137.787 58.8238 139.43C58.8238 141.073 60.0067 142.65 62.1754 143.899C64.6069 145.279 67.7613 146.068 71.1786 146.068Z" fill="#DFE5F1"/>
<path opacity="0.4194" d="M71.1787 145.945C74.596 145.945 77.7504 145.156 80.1162 143.842C82.2848 142.593 83.4677 141.016 83.4677 139.373C83.4677 137.796 82.2848 136.219 80.1819 134.97C77.8161 133.59 74.6617 132.867 71.2444 132.867C67.8271 132.867 64.6727 133.656 62.3069 134.97C60.1383 136.219 58.9554 137.796 58.9554 139.439C58.9554 141.016 60.1383 142.593 62.2412 143.842C64.607 145.156 67.7614 145.945 71.1787 145.945Z" fill="#DDE3F0"/>
<path opacity="0.4516" d="M71.113 145.805C74.4645 145.805 77.6189 145.082 79.9847 143.702C82.1534 142.453 83.3363 140.876 83.3363 139.299C83.3363 137.722 82.1534 136.145 80.0505 134.896C77.6847 133.516 74.596 132.793 71.1787 132.793C67.8271 132.793 64.6727 133.516 62.3069 134.896C60.1383 136.145 58.9554 137.722 58.9554 139.299C58.9554 140.876 60.1383 142.453 62.2412 143.702C64.607 145.082 67.6957 145.805 71.113 145.805Z" fill="#DAE1EF"/>
<path opacity="0.4839" d="M71.0487 145.739C74.4002 145.739 77.4889 145.016 79.8547 143.636C81.9577 142.388 83.1406 140.876 83.1406 139.233C83.1406 137.656 82.0234 136.145 79.9205 134.896C77.6204 133.516 74.466 132.793 71.1144 132.793C67.7628 132.793 64.6741 133.516 62.3083 134.896C60.2054 136.145 59.0225 137.656 59.0225 139.299C59.0225 140.876 60.1397 142.388 62.2426 143.636C64.5427 144.951 67.6971 145.739 71.0487 145.739Z" fill="#D7DFEE"/>
<path opacity="0.5161" d="M70.9817 145.608C74.2675 145.608 77.4219 144.885 79.722 143.505C81.8249 142.256 83.0078 140.745 83.0078 139.167C83.0078 137.59 81.8907 136.079 79.7877 134.896C77.4876 133.582 74.3989 132.793 71.1131 132.793C67.8273 132.793 64.6728 133.516 62.3728 134.896C60.2698 136.145 59.0869 137.656 59.0869 139.233C59.0869 140.81 60.2041 142.322 62.307 143.505C64.5414 144.885 67.6301 145.608 70.9817 145.608Z" fill="#D5DDEC"/>
<path opacity="0.5484" d="M70.9173 145.54C74.2032 145.54 77.2919 144.817 79.592 143.502C81.6949 142.319 82.8121 140.742 82.8121 139.231C82.8121 137.653 81.6949 136.142 79.6577 134.959C77.3576 133.645 74.3346 132.922 71.0488 132.922C67.7629 132.922 64.6742 133.645 62.3741 134.959C60.2712 136.142 59.154 137.719 59.154 139.231C59.154 140.808 60.2712 142.319 62.3084 143.502C64.5428 144.751 67.6315 145.54 70.9173 145.54Z" fill="#D2DBEB"/>
<path opacity="0.5806" d="M70.8516 145.419C74.1375 145.419 77.1604 144.696 79.4605 143.382C81.5635 142.199 82.6807 140.687 82.6807 139.11C82.6807 137.599 81.5635 136.087 79.5263 134.904C77.2919 133.59 74.2032 132.867 70.9831 132.867C67.6972 132.867 64.6742 133.59 62.3741 134.904C60.2712 136.087 59.154 137.599 59.154 139.176C59.154 140.687 60.2712 142.199 62.3084 143.382C64.5428 144.696 67.6315 145.419 70.8516 145.419Z" fill="#CFD9EA"/>
<path opacity="0.6129" d="M70.7859 145.279C74.006 145.279 77.029 144.556 79.2634 143.242C81.3006 142.059 82.4178 140.548 82.4178 139.036C82.4178 137.525 81.3006 136.013 79.2634 134.83C77.029 133.516 74.006 132.793 70.7859 132.793C67.5658 132.793 64.5428 133.516 62.3084 134.83C60.2712 136.013 59.154 137.525 59.154 139.036C59.154 140.548 60.2712 142.059 62.3084 143.242C64.5428 144.556 67.5658 145.279 70.7859 145.279Z" fill="#CDD7E9"/>
<path opacity="0.6452" d="M70.7189 145.211C73.939 145.211 76.8963 144.488 79.1306 143.239C81.1679 142.057 82.2851 140.545 82.2851 139.034C82.2851 137.522 81.1679 136.076 79.1964 134.893C76.962 133.579 74.0047 132.922 70.7846 132.922C67.5645 132.922 64.6072 133.645 62.3729 134.893C60.3356 136.076 59.2184 137.588 59.2184 139.099C59.2184 140.611 60.3356 142.057 62.3071 143.239C64.5415 144.488 67.5645 145.211 70.7189 145.211Z" fill="#CAD4E8"/>
<path opacity="0.6774" d="M70.6532 145.091C73.8076 145.091 76.7648 144.368 78.9992 143.119C81.0364 141.936 82.1536 140.49 82.1536 138.979C82.1536 137.467 81.0364 136.022 79.0649 134.839C76.8963 133.59 73.8733 132.867 70.7189 132.867C67.5645 132.867 64.6072 133.59 62.3729 134.839C60.3356 136.022 59.2184 137.467 59.2184 138.979C59.2184 140.49 60.3356 141.936 62.3071 143.119C64.5415 144.368 67.4988 145.091 70.6532 145.091Z" fill="#C7D2E7"/>
<path opacity="0.7097" d="M70.5889 145.025C73.7433 145.025 76.7005 144.302 78.8692 143.053C80.8407 141.87 81.9579 140.425 81.9579 138.913C81.9579 137.402 80.9064 135.956 78.9349 134.839C76.7663 133.59 73.809 132.867 70.6546 132.867C67.5002 132.867 64.5429 133.59 62.3743 134.839C60.4028 136.022 59.2856 137.467 59.2856 138.979C59.2856 140.49 60.3371 141.936 62.3086 143.053C64.5429 144.302 67.5002 145.025 70.5889 145.025Z" fill="#C5D0E5"/>
<path opacity="0.7419" d="M70.589 144.893C73.6777 144.893 76.6349 144.17 78.8036 142.922C80.7751 141.805 81.8923 140.359 81.8923 138.847C81.8923 137.402 80.8408 135.956 78.8693 134.839C76.7006 133.59 73.8091 132.867 70.7204 132.867C67.6317 132.867 64.6745 133.59 62.5058 134.839C60.5343 135.956 59.4171 137.402 59.4171 138.913C59.4171 140.359 60.4686 141.805 62.4401 142.922C64.543 144.17 67.4346 144.893 70.589 144.893Z" fill="#C2CEE4"/>
<path opacity="0.7742" d="M70.5233 144.751C73.612 144.751 76.5035 144.094 78.6722 142.845C80.6437 141.728 81.6951 140.282 81.6951 138.836C81.6951 137.391 80.6437 135.945 78.6722 134.828C76.5035 133.579 73.6777 132.922 70.589 132.922C67.5003 132.922 64.6087 133.579 62.4401 134.828C60.4686 135.945 59.4171 137.391 59.4171 138.836C59.4171 140.282 60.4686 141.728 62.4401 142.845C64.543 144.094 67.4346 144.751 70.5233 144.751Z" fill="#C0CCE3"/>
<path opacity="0.8065" d="M70.4563 144.685C73.5449 144.685 76.3708 144.028 78.5394 142.779C80.5109 141.662 81.5624 140.216 81.5624 138.771C81.5624 137.325 80.5109 135.945 78.6051 134.828C76.5022 133.579 73.6107 132.922 70.5877 132.922C67.499 132.922 64.6732 133.579 62.5045 134.828C60.533 135.945 59.4815 137.391 59.4815 138.836C59.4815 140.282 60.533 141.662 62.4388 142.779C64.5417 143.962 67.3676 144.685 70.4563 144.685Z" fill="#BDCAE2"/>
<path opacity="0.8387" d="M70.3905 144.565C73.4135 144.565 76.2393 143.908 78.3423 142.659C80.2481 141.542 81.2995 140.162 81.2995 138.716C81.2995 137.27 80.2481 135.89 78.3423 134.773C76.2393 133.524 73.4135 132.867 70.3905 132.867C67.3676 132.867 64.5417 133.524 62.4388 134.773C60.533 135.89 59.4815 137.27 59.4815 138.716C59.4815 140.162 60.533 141.542 62.4388 142.659C64.5417 143.908 67.3676 144.565 70.3905 144.565Z" fill="#BAC8E1"/>
<path opacity="0.871" d="M70.3262 144.425C73.3492 144.425 76.1093 143.768 78.2122 142.519C80.118 141.402 81.1695 140.022 81.1695 138.576C81.1695 137.13 80.118 135.75 78.2779 134.699C76.175 133.516 73.4149 132.793 70.3919 132.793C67.3689 132.793 64.6088 133.45 62.5059 134.699C60.6001 135.816 59.5486 137.196 59.5486 138.642C59.5486 140.088 60.6001 141.468 62.4402 142.519C64.5431 143.768 67.3032 144.425 70.3262 144.425Z" fill="#B8C6E0"/>
<path opacity="0.9032" d="M70.2605 144.357C73.2177 144.357 76.0436 143.699 78.0808 142.517C79.9866 141.399 81.0381 140.019 81.0381 138.639C81.0381 137.259 79.9866 135.879 78.1465 134.762C76.1093 133.579 73.2835 132.922 70.3262 132.922C67.369 132.922 64.5431 133.579 62.5059 134.762C60.6001 135.879 59.5486 137.259 59.5486 138.639C59.5486 140.019 60.6001 141.399 62.4402 142.517C64.5431 143.699 67.3032 144.357 70.2605 144.357Z" fill="#B5C3DE"/>
<path opacity="0.9355" d="M70.1935 144.236C73.1507 144.236 75.9108 143.579 77.9481 142.396C79.7881 141.345 80.8396 139.965 80.8396 138.519C80.8396 137.139 79.8539 135.759 78.0138 134.707C75.9766 133.524 73.2165 132.867 70.2592 132.867C67.3019 132.867 64.5418 133.524 62.5046 134.707C60.6645 135.759 59.6131 137.139 59.6131 138.585C59.6131 139.965 60.5988 141.345 62.4389 142.396C64.5418 143.579 67.2362 144.236 70.1935 144.236Z" fill="#B2C1DD"/>
<path opacity="0.9677" d="M70.1292 144.17C73.0207 144.17 75.7808 143.513 77.8181 142.33C79.6581 141.279 80.7096 139.899 80.7096 138.519C80.7096 137.139 79.7238 135.824 77.8838 134.707C75.8465 133.524 73.1522 132.867 70.2606 132.867C67.3691 132.867 64.609 133.524 62.5717 134.707C60.7317 135.759 59.6802 137.139 59.6802 138.519C59.6802 139.899 60.666 141.213 62.506 142.33C64.5433 143.513 67.2376 144.17 70.1292 144.17Z" fill="#B0BFDC"/>
<path d="M70.0635 144.037C72.955 144.037 75.6494 143.379 77.6866 142.262C79.5267 141.211 80.5124 139.831 80.5124 138.516C80.5124 137.136 79.5267 135.822 77.6866 134.77C75.7151 133.588 73.0207 132.996 70.1292 132.996C67.2376 132.996 64.5433 133.653 62.506 134.77C60.666 135.822 59.6802 137.202 59.6802 138.516C59.6802 139.896 60.666 141.211 62.506 142.262C64.4775 143.379 67.1719 144.037 70.0635 144.037Z" fill="#ADBDDB"/>
<path d="M63.359 133.112C66.9734 131.009 72.8879 131.009 76.5024 133.112C80.1168 135.215 80.1168 138.633 76.4366 140.736C72.8222 142.838 66.9077 142.838 63.2933 140.736C59.7446 138.633 59.7446 135.215 63.359 133.112Z" fill="#EBEEF5"/>
<path d="M63.6868 140.861C60.0724 138.758 60.0724 135.341 63.7526 133.238C66.907 131.398 71.8357 131.201 75.3844 132.515C71.77 131.003 66.6441 131.135 63.3583 133.041C59.7438 135.144 59.6781 138.561 63.2925 140.664C63.7526 140.927 64.2783 141.189 64.804 141.387C64.4097 141.255 64.0811 141.124 63.6868 140.861Z" fill="#E6E9F0"/>
<path d="M74.6629 135.735C74.9915 135.801 75.3201 135.932 75.6487 136.129C76.043 136.392 76.3716 136.655 76.503 136.918C76.6344 137.181 76.7001 137.509 76.6344 137.838C76.5687 138.166 76.3716 138.495 76.043 138.758C75.8458 138.955 75.583 139.152 75.3201 139.349L76.1087 139.809L74.7944 140.598L73.8743 140.204C72.9543 140.598 72.1 140.861 71.1799 140.927C69.997 140.992 68.9456 140.795 67.8941 140.204L69.537 139.284C69.8656 139.415 70.1285 139.547 70.457 139.612C70.7856 139.678 71.1142 139.678 71.4428 139.612C71.7714 139.547 72.1 139.481 72.4286 139.415H72.4943L69.9313 137.904C69.6684 137.969 69.4056 138.101 69.2084 138.166C68.6827 138.298 68.2227 138.429 67.7627 138.495C67.3026 138.561 66.8426 138.561 66.4483 138.561C66.054 138.495 65.594 138.429 65.1997 138.232C65.0683 138.101 64.9368 138.101 64.8711 138.035C64.7397 137.969 64.674 137.904 64.6082 137.838C64.2797 137.641 64.0825 137.378 63.9511 137.115C63.8196 136.852 63.8196 136.589 63.8854 136.326C63.9511 136.064 64.1482 135.735 64.4111 135.472C64.5425 135.341 64.7397 135.143 64.9368 135.012L63.9511 134.421L65.3311 133.632L66.3169 134.223C66.5798 134.092 66.9083 133.961 67.1712 133.895C67.6969 133.698 68.2884 133.632 68.8141 133.566C69.3399 133.501 69.8656 133.566 70.3913 133.632C70.9171 133.698 71.3771 133.895 71.8371 134.092L70.1942 135.078C69.4056 134.683 68.617 134.683 67.7627 135.012L70.0627 136.326C70.1942 136.261 70.3913 136.195 70.5228 136.129C70.9171 135.998 71.2456 135.866 71.64 135.801C71.9685 135.735 72.3628 135.604 72.6914 135.604C73.02 135.538 73.3486 135.538 73.7429 135.538C74.0058 135.538 74.3343 135.604 74.6629 135.735ZM74.4658 137.509C74.4001 137.378 74.2686 137.246 74.0715 137.115C73.8743 136.984 73.7429 136.984 73.48 136.918C73.2829 136.918 73.02 136.918 72.7571 136.918C72.4943 136.984 72.2314 137.049 71.9028 137.115C71.7714 137.115 71.7057 137.181 71.5742 137.246L73.8743 138.561C73.94 138.495 74.0058 138.429 74.0715 138.364C74.2686 138.166 74.4001 138.035 74.4001 137.904C74.5315 137.772 74.5315 137.641 74.4658 137.509ZM68.3541 136.918L66.3826 135.801H66.3169C66.1855 135.932 66.054 136.129 65.9883 136.261C65.9226 136.392 65.9226 136.524 65.9883 136.655C66.054 136.786 66.1855 136.918 66.3169 136.984C66.4483 137.049 66.6455 137.115 66.8426 137.181C67.0398 137.181 67.2369 137.181 67.4341 137.181C67.6969 137.115 68.0255 137.049 68.3541 136.918Z" fill="#31C7ED"/>
<path d="M74.5314 135.486C74.86 135.551 75.1886 135.683 75.5171 135.88C75.9114 136.143 76.24 136.406 76.3715 136.669C76.5029 136.931 76.5686 137.26 76.5029 137.589C76.4372 137.917 76.24 138.246 75.9114 138.509C75.7143 138.706 75.4514 138.903 75.1886 139.1L75.9772 139.56L74.6628 140.349L73.8085 139.889C72.8885 140.283 72.0341 140.546 71.1141 140.612C69.9312 140.677 68.8797 140.48 67.8283 139.889L69.4712 138.969C69.7998 139.1 70.0626 139.231 70.3912 139.297C70.7198 139.363 71.0484 139.363 71.377 139.297C71.7056 139.231 72.0341 139.166 72.3627 139.1H72.4284L69.8655 137.589C69.6026 137.654 69.3397 137.786 69.1426 137.851C68.6169 137.983 68.1568 138.114 67.6968 138.18C67.2368 138.246 66.7768 138.246 66.3825 138.246C65.9882 138.18 65.5282 138.114 65.1339 137.917C64.9367 137.917 64.871 137.851 64.7396 137.851C64.6081 137.786 64.5424 137.72 64.4767 137.654C64.1481 137.457 63.951 137.194 63.8195 136.931C63.6881 136.669 63.6881 136.406 63.7538 136.143C63.8195 135.88 64.0167 135.551 64.2795 135.288C64.411 135.157 64.6081 134.96 64.8053 134.828L63.8195 134.237L65.1339 133.448L66.1196 134.04C66.3825 133.908 66.7111 133.777 66.9739 133.711C67.4997 133.514 68.0911 133.448 68.6169 133.383C69.1426 133.317 69.6683 133.383 70.1941 133.448C70.7198 133.514 71.1798 133.711 71.6398 133.908L69.9969 134.828C69.2083 134.434 68.4197 134.434 67.5654 134.763L69.8655 136.077C69.9969 136.011 70.1941 135.946 70.3255 135.88C70.7198 135.748 71.0484 135.617 71.377 135.551C71.7056 135.486 72.0999 135.354 72.4284 135.354C72.757 135.288 73.0856 135.288 73.4799 135.288C73.8742 135.354 74.2028 135.42 74.5314 135.486ZM74.3342 137.326C74.2685 137.194 74.1371 137.063 73.9399 136.931C73.7428 136.8 73.6113 136.8 73.3485 136.734C73.1513 136.734 72.8885 136.734 72.6256 136.734C72.3627 136.734 72.0999 136.866 71.7713 136.931C71.6398 136.931 71.5741 136.997 71.4427 137.063L73.7428 138.377C73.8085 138.311 73.8742 138.246 73.9399 138.18C74.1371 137.983 74.2685 137.851 74.2685 137.72C74.4 137.589 74.4 137.457 74.3342 137.326ZM68.2226 136.734L66.2511 135.617H66.1853C66.0539 135.748 65.9225 135.946 65.8568 136.077C65.791 136.209 65.791 136.34 65.8568 136.471C65.9225 136.603 66.0539 136.734 66.1853 136.8C66.3168 136.866 66.5139 136.931 66.7111 136.997C66.9082 136.997 67.1054 136.997 67.3025 136.997C67.6311 136.931 67.894 136.866 68.2226 136.734Z" fill="#3D56A6"/>
<path d="M80.5122 136.926V138.766C80.5122 140.343 79.4608 141.92 77.4235 143.103C73.2834 145.469 66.5803 145.469 62.5058 143.103C60.4686 141.92 59.4171 140.343 59.4171 138.832V136.991C59.4171 138.569 60.4686 140.08 62.5058 141.263C66.646 143.629 73.2834 143.629 77.4235 141.263C79.4608 140.08 80.5122 138.503 80.5122 136.926Z" fill="url(#paint23_linear)"/>
<path d="M62.505 132.591C66.6451 130.225 73.3483 130.225 77.4227 132.591C81.5629 134.957 81.4972 138.834 77.357 141.265C73.2168 143.631 66.5137 143.631 62.4393 141.265C58.3648 138.9 58.3648 135.022 62.505 132.591ZM76.5027 140.74C80.1171 138.637 80.1828 135.219 76.5684 133.116C72.954 131.014 67.0394 131.014 63.425 133.116C59.8106 135.219 59.7449 138.637 63.3593 140.74C66.9737 142.843 72.8225 142.843 76.5027 140.74Z" fill="#F6F8FC"/>
<path opacity="0.0312" d="M136.106 150.24C135.383 150.634 134.923 151.226 134.923 151.686C134.923 152.146 135.383 152.672 136.106 153.066C137.092 153.592 138.406 153.92 139.852 153.92C141.232 153.92 142.612 153.592 143.598 153.066C144.32 152.672 144.78 152.08 144.78 151.62C144.78 151.16 144.32 150.634 143.598 150.24C142.612 149.714 141.297 149.386 139.852 149.386C138.472 149.32 137.092 149.649 136.106 150.24ZM136.763 158.783L135.974 157.14L133.149 158.06C133.017 158.126 132.82 158.06 132.689 157.995L128.877 155.76C128.548 155.563 128.483 155.103 128.745 154.84L129.666 153.92C129.666 153.92 127.628 153.592 127.563 153.592C127.3 153.526 127.037 153.263 127.037 153V149.517C127.037 149.254 127.234 148.991 127.563 148.926L129.666 148.597L128.285 147.086L133.017 144.326L136.04 145.311L137.026 143.34H142.612L143.598 145.311L146.686 144.326L151.418 147.086L149.972 148.597L152.009 148.926C152.338 148.991 152.535 149.254 152.535 149.583V153C152.535 153.329 152.338 153.592 152.009 153.592L149.972 153.92L150.826 154.84C151.089 155.169 151.024 155.629 150.695 155.826L146.883 157.995C146.752 158.06 146.555 158.126 146.358 158.06L143.532 157.14L142.677 158.783C142.546 158.98 142.349 159.112 142.152 159.112H137.289C137.026 159.112 136.829 158.98 136.763 158.783Z" fill="#FDFDFE"/>
<path opacity="0.0625" d="M136.041 150.109C135.318 150.569 134.858 151.094 134.858 151.554C134.858 152.014 135.318 152.54 136.041 153C137.027 153.592 138.407 153.855 139.787 153.855C141.233 153.855 142.547 153.526 143.533 153C144.321 152.54 144.716 152.014 144.716 151.554C144.716 151.094 144.256 150.569 143.533 150.109C142.547 149.517 141.233 149.254 139.787 149.254C138.407 149.254 137.027 149.583 136.041 150.109ZM136.764 158.718L135.975 157.075C135.975 157.075 133.215 157.929 133.15 157.995C133.018 158.06 132.821 157.995 132.69 157.929L128.944 155.76C128.615 155.563 128.549 155.103 128.812 154.84L129.732 153.92C129.732 153.92 127.695 153.592 127.629 153.526C127.366 153.46 127.104 153.197 127.104 152.935V149.517C127.104 149.254 127.301 148.991 127.629 148.926L129.732 148.597L128.286 147.086L132.952 144.391L135.975 145.377L137.027 143.34H142.547C142.547 143.34 143.533 145.311 143.533 145.377L146.621 144.391L151.287 147.086L149.842 148.597L151.945 148.926C152.273 148.991 152.47 149.254 152.47 149.583V152.935C152.47 153.263 152.273 153.526 151.945 153.526L149.842 153.855L150.696 154.775C150.959 155.103 150.893 155.563 150.564 155.76L146.819 157.929C146.687 157.995 146.49 158.06 146.293 157.995C146.227 157.995 143.467 157.075 143.467 157.075L142.613 158.718C142.481 158.915 142.284 159.046 142.087 159.046H137.29C137.027 159.046 136.83 158.915 136.764 158.718Z" fill="#FBFCFC"/>
<path opacity="0.0938" d="M135.974 150.034C135.186 150.494 134.726 151.02 134.726 151.546C134.726 152.006 135.186 152.597 135.909 152.992C136.894 153.583 138.274 153.912 139.655 153.912C141.1 153.912 142.48 153.583 143.466 152.992C144.255 152.532 144.715 152.006 144.715 151.48C144.715 151.02 144.255 150.429 143.532 150.034C142.546 149.443 141.166 149.18 139.786 149.114C138.34 149.18 136.96 149.509 135.974 150.034ZM136.763 158.643L135.974 157C135.974 157 133.214 157.855 133.083 157.92C132.951 157.986 132.754 157.92 132.623 157.855L128.943 155.686C128.614 155.489 128.548 155.029 128.811 154.766L129.731 153.78C129.731 153.78 127.694 153.452 127.563 153.386C127.3 153.32 127.037 153.057 127.037 152.795V149.443C127.037 149.18 127.234 148.917 127.563 148.852L129.731 148.523L128.285 147.011L132.886 144.317L135.974 145.303L137.026 143.266H142.48C142.48 143.266 143.466 145.303 143.532 145.303L146.62 144.317L151.221 147.011L149.775 148.523L151.878 148.852C152.206 148.917 152.404 149.18 152.404 149.509V152.795C152.404 153.123 152.206 153.386 151.878 153.386L149.775 153.715C149.775 153.715 150.629 154.635 150.629 154.7C150.892 155.029 150.826 155.489 150.498 155.686L146.818 157.789C146.686 157.855 146.489 157.92 146.292 157.855C146.226 157.855 143.466 156.935 143.466 156.935L142.612 158.578C142.48 158.775 142.283 158.906 142.086 158.906H137.354C137.026 158.972 136.829 158.841 136.763 158.643Z" fill="#F8FAFB"/>
<path opacity="0.125" d="M135.976 149.977C135.187 150.437 134.727 151.029 134.727 151.489C134.727 152.014 135.187 152.54 135.976 153C136.962 153.592 138.342 153.92 139.788 153.92C141.233 153.92 142.613 153.592 143.599 153C144.388 152.54 144.848 151.949 144.848 151.489C144.848 150.963 144.388 150.437 143.599 149.977C142.613 149.386 141.233 149.057 139.788 149.057C138.342 149.057 136.962 149.386 135.976 149.977ZM136.699 158.586L135.91 156.943C135.91 156.943 133.15 157.798 133.019 157.863C132.887 157.929 132.69 157.863 132.559 157.798L128.879 155.695C128.55 155.497 128.484 155.037 128.747 154.775L129.667 153.789C129.667 153.789 127.63 153.395 127.499 153.395C127.236 153.329 126.973 153.066 126.973 152.803V149.517C126.973 149.254 127.17 148.991 127.499 148.926L129.667 148.597L128.221 147.02L132.756 144.391L135.845 145.377L136.896 143.34H142.285C142.285 143.34 143.271 145.377 143.336 145.377L146.425 144.391L150.96 147.02C150.96 147.02 149.514 148.531 149.514 148.597L151.617 148.926C151.945 148.991 152.142 149.254 152.142 149.583V152.803C152.142 153.132 151.945 153.395 151.617 153.395L149.448 153.723C149.448 153.723 150.237 154.643 150.302 154.709C150.565 155.037 150.499 155.497 150.171 155.695L146.688 157.732C146.556 157.798 146.359 157.863 146.162 157.798C146.031 157.798 143.336 156.878 143.271 156.878L142.416 158.52C142.285 158.718 142.088 158.849 141.891 158.849H137.225C137.028 158.915 136.83 158.783 136.699 158.586Z" fill="#F6F8FA"/>
<path opacity="0.1562" d="M135.91 149.912C135.122 150.372 134.662 150.963 134.662 151.489C134.662 152.014 135.122 152.606 135.91 153.066C136.896 153.657 138.276 153.986 139.722 153.986C141.168 153.986 142.548 153.657 143.533 153.066C144.322 152.606 144.782 152.014 144.782 151.489C144.782 150.963 144.322 150.372 143.533 149.912C142.548 149.32 141.168 148.991 139.722 148.991C138.276 148.991 136.896 149.32 135.91 149.912ZM136.699 158.52L135.91 156.878C135.91 156.878 133.15 157.732 133.019 157.798C132.887 157.863 132.69 157.798 132.559 157.732L128.944 155.629C128.616 155.432 128.55 154.972 128.813 154.709L129.733 153.723C129.733 153.723 127.63 153.329 127.499 153.329C127.236 153.263 126.973 153 126.973 152.737V149.517C126.973 149.254 127.17 148.991 127.499 148.926L129.733 148.531L128.287 146.954L132.756 144.391L135.845 145.377L136.896 143.34H142.285L143.336 145.377L146.425 144.391L150.894 147.02L149.448 148.597L151.617 148.926C151.945 148.991 152.142 149.254 152.142 149.583V152.737C152.142 153.066 151.945 153.329 151.617 153.329L149.448 153.657C149.448 153.657 150.237 154.577 150.368 154.643C150.631 154.972 150.565 155.432 150.237 155.629L146.688 157.666C146.491 157.732 146.294 157.798 146.162 157.732C146.031 157.666 143.271 156.812 143.271 156.812L142.416 158.455C142.285 158.652 142.088 158.783 141.891 158.783H137.29C137.028 158.849 136.83 158.718 136.699 158.52Z" fill="#F4F7F8"/>
<path opacity="0.1875" d="M135.844 149.846C135.055 150.306 134.53 150.897 134.53 151.423C134.53 151.949 134.99 152.54 135.778 153C136.764 153.592 138.144 153.92 139.59 153.92C141.036 153.92 142.416 153.592 143.467 153C144.256 152.54 144.781 151.949 144.781 151.423C144.781 150.897 144.321 150.306 143.533 149.846C142.547 149.254 141.167 148.926 139.721 148.926C138.275 148.926 136.83 149.254 135.844 149.846ZM136.698 158.455L135.91 156.812C135.91 156.812 133.15 157.666 132.952 157.732C132.821 157.798 132.624 157.732 132.492 157.666L129.009 155.563C128.681 155.366 128.615 154.906 128.878 154.643L129.864 153.657C129.864 153.657 127.761 153.263 127.629 153.263C127.366 153.197 127.104 152.935 127.104 152.672V149.517C127.104 149.254 127.301 148.991 127.629 148.926L129.864 148.531L128.418 146.954L132.821 144.391L135.91 145.377L137.027 143.34H142.35L143.401 145.377L146.49 144.391L150.893 146.954L149.447 148.531L151.616 148.926C151.945 148.991 152.142 149.254 152.142 149.583V152.672C152.142 153 151.945 153.263 151.616 153.263L149.382 153.657C149.382 153.657 150.17 154.577 150.302 154.643C150.564 154.972 150.499 155.432 150.17 155.629L146.687 157.666C146.556 157.732 146.359 157.798 146.161 157.732C146.03 157.666 143.27 156.812 143.27 156.812L142.416 158.455C142.284 158.652 142.087 158.783 141.89 158.783H137.29C137.027 158.783 136.83 158.652 136.698 158.455Z" fill="#F2F5F7"/>
<path opacity="0.2188" d="M135.777 149.706C134.923 150.166 134.463 150.823 134.463 151.349C134.463 151.875 134.923 152.466 135.711 152.992C136.697 153.583 138.143 153.912 139.589 153.912C141.035 153.912 142.415 153.583 143.466 152.992C144.32 152.532 144.78 151.875 144.78 151.349C144.78 150.823 144.32 150.232 143.532 149.706C142.546 149.114 141.1 148.786 139.655 148.786C138.209 148.786 136.829 149.114 135.777 149.706ZM136.697 158.315L135.909 156.672C135.909 156.672 133.149 157.526 132.951 157.592C132.82 157.658 132.623 157.592 132.491 157.526L129.008 155.489C128.68 155.292 128.614 154.832 128.877 154.569L129.863 153.583C129.863 153.583 127.76 153.189 127.563 153.123C127.3 153.057 127.037 152.795 127.037 152.532V149.443C127.037 149.18 127.234 148.917 127.563 148.852L129.863 148.457L128.417 146.814L132.82 144.317L135.909 145.303C135.974 145.303 137.026 143.266 137.026 143.266H142.283C142.283 143.266 143.335 145.303 143.4 145.303L146.489 144.317L150.826 146.814C150.826 146.814 149.381 148.392 149.381 148.457L151.615 148.852C151.944 148.917 152.141 149.18 152.141 149.509V152.532C152.141 152.86 151.944 153.123 151.615 153.123L149.381 153.517C149.381 153.517 150.169 154.438 150.301 154.569C150.563 154.898 150.498 155.358 150.169 155.555L146.752 157.526C146.62 157.592 146.423 157.658 146.226 157.592C146.029 157.526 143.335 156.672 143.335 156.738L142.48 158.381C142.349 158.578 142.152 158.709 141.955 158.709H137.42C137.026 158.709 136.829 158.578 136.697 158.315Z" fill="#EFF3F6"/>
<path opacity="0.25" d="M135.713 149.649C134.859 150.109 134.399 150.766 134.399 151.357C134.399 151.949 134.859 152.54 135.713 153C136.699 153.592 138.145 153.92 139.59 153.92C141.036 153.92 142.482 153.592 143.468 153C144.322 152.54 144.782 151.883 144.782 151.292C144.782 150.7 144.322 150.109 143.468 149.649C142.482 149.057 141.036 148.729 139.59 148.729C138.145 148.729 136.765 149.057 135.713 149.649ZM136.699 158.258L135.91 156.615C135.844 156.615 133.15 157.469 132.953 157.535C132.822 157.6 132.624 157.535 132.493 157.469L129.076 155.497C128.747 155.3 128.681 154.84 128.944 154.577L129.93 153.592C129.93 153.592 127.827 153.197 127.564 153.132C127.301 153.066 127.038 152.803 127.104 152.54V149.517C127.104 149.254 127.301 148.991 127.63 148.926L129.93 148.531L128.484 146.889L132.822 144.391L135.91 145.377C135.976 145.377 137.027 143.34 137.027 143.34H142.153C142.153 143.34 143.205 145.377 143.27 145.377L146.359 144.391L150.631 146.889L149.185 148.531L151.419 148.926C151.748 148.991 151.945 149.254 151.945 149.583V152.54C151.945 152.869 151.748 153.132 151.419 153.132L149.119 153.526C149.119 153.526 149.908 154.446 150.039 154.577C150.302 154.906 150.236 155.366 149.908 155.563L146.491 157.535C146.359 157.6 146.162 157.666 145.965 157.6C145.768 157.535 143.073 156.68 143.008 156.746L142.153 158.455C142.022 158.652 141.825 158.783 141.628 158.783H137.159C137.027 158.586 136.83 158.455 136.699 158.258Z" fill="#EDF2F4"/>
<path opacity="0.2812" d="M135.647 149.583C134.792 150.109 134.267 150.7 134.332 151.292C134.332 151.883 134.792 152.474 135.647 153C136.698 153.592 138.078 153.92 139.524 153.92C140.97 153.92 142.416 153.592 143.467 153C144.321 152.474 144.847 151.883 144.847 151.292C144.847 150.7 144.387 150.109 143.533 149.583C142.481 148.991 141.101 148.663 139.656 148.663C138.144 148.663 136.698 148.991 135.647 149.583ZM136.698 158.192L135.91 156.549C135.844 156.549 133.15 157.403 132.952 157.403C132.821 157.469 132.624 157.403 132.492 157.338L129.141 155.366C128.812 155.169 128.747 154.709 129.009 154.446L129.995 153.395C129.995 153.395 127.892 153 127.629 152.935C127.366 152.869 127.104 152.606 127.169 152.343V149.452C127.169 149.189 127.366 148.926 127.695 148.86L129.995 148.466L128.549 146.823L132.821 144.391L135.91 145.377C135.975 145.377 137.027 143.34 137.027 143.34H142.153C142.153 143.34 143.204 145.377 143.27 145.377L146.359 144.391L150.565 146.823C150.565 146.823 149.053 148.466 149.119 148.466L151.419 148.86C151.747 148.926 151.945 149.189 151.945 149.517V152.343C151.945 152.672 151.747 152.935 151.419 152.935L149.119 153.329C149.119 153.329 149.907 154.249 150.039 154.38C150.302 154.709 150.236 155.169 149.907 155.366L146.556 157.272C146.424 157.338 146.227 157.403 146.03 157.338C145.833 157.272 143.073 156.417 143.073 156.483L142.218 158.192C142.087 158.389 141.89 158.52 141.693 158.52H137.29C137.027 158.52 136.83 158.389 136.698 158.192Z" fill="#EBF0F3"/>
<path opacity="0.3125" d="M135.581 149.517C134.727 150.043 134.201 150.7 134.201 151.292C134.201 151.883 134.661 152.54 135.515 153C136.567 153.592 137.947 153.92 139.458 153.92C140.904 153.92 142.35 153.592 143.401 153C144.256 152.474 144.781 151.817 144.781 151.226C144.781 150.634 144.321 149.977 143.467 149.517C142.416 148.926 141.036 148.597 139.524 148.597C138.078 148.531 136.633 148.86 135.581 149.517ZM136.698 158.126L135.91 156.483C135.844 156.483 133.15 157.272 132.887 157.338C132.755 157.403 132.558 157.338 132.427 157.272L129.141 155.366C128.812 155.169 128.747 154.709 129.009 154.446L129.995 153.395C129.995 153.395 127.892 153 127.564 152.935C127.301 152.869 127.104 152.606 127.104 152.343V149.517C127.104 149.254 127.301 148.991 127.629 148.926L129.995 148.531L128.549 146.823L132.755 144.391L135.844 145.377C135.91 145.377 137.027 143.34 137.027 143.34H142.153C142.153 143.34 143.204 145.377 143.27 145.377L146.359 144.391L150.499 146.823C150.499 146.823 148.987 148.466 149.053 148.531L151.353 148.926C151.682 148.991 151.879 149.254 151.879 149.583V152.343C151.879 152.672 151.682 152.935 151.353 152.935L149.053 153.329C149.053 153.329 149.842 154.249 149.973 154.446C150.236 154.775 150.17 155.235 149.842 155.432L146.556 157.338C146.424 157.403 146.227 157.469 146.03 157.403C145.767 157.338 143.073 156.483 143.073 156.549L142.153 158.126C142.021 158.323 141.824 158.455 141.627 158.455H137.29C137.027 158.455 136.83 158.323 136.698 158.126Z" fill="#E9EEF2"/>
<path opacity="0.3438" d="M135.581 149.383C134.661 149.909 134.201 150.566 134.201 151.158C134.201 151.749 134.661 152.406 135.581 152.932C136.632 153.523 138.078 153.852 139.524 153.852C140.969 153.852 142.415 153.523 143.467 152.932C144.321 152.472 144.781 151.815 144.781 151.158C144.781 150.566 144.321 149.909 143.401 149.383C142.349 148.792 140.904 148.463 139.458 148.463C138.012 148.463 136.632 148.792 135.581 149.383ZM136.698 158.058L135.909 156.415C135.843 156.415 133.149 157.204 132.886 157.269C132.755 157.335 132.558 157.269 132.426 157.204L129.206 155.364C128.877 155.166 128.812 154.706 129.075 154.443L130.06 153.392C130.06 153.392 127.957 152.998 127.629 152.932C127.366 152.866 127.169 152.603 127.169 152.341V149.58C127.169 149.318 127.366 149.055 127.695 148.989L130.06 148.595C130.06 148.529 128.615 146.886 128.615 146.886L132.755 144.52L135.843 145.506C135.909 145.506 137.026 143.469 137.026 143.469H142.087C142.087 143.469 143.204 145.506 143.269 145.506L146.358 144.52L150.433 146.886C150.433 146.886 148.921 148.529 148.987 148.595L151.353 148.989C151.681 149.055 151.878 149.318 151.878 149.646V152.341C151.878 152.669 151.681 152.932 151.353 152.932L148.987 153.326C148.987 153.326 149.775 154.246 149.907 154.443C150.17 154.772 150.104 155.232 149.775 155.429L146.555 157.269C146.424 157.335 146.227 157.401 146.03 157.335C145.767 157.269 143.072 156.415 143.007 156.481L142.152 158.189C142.021 158.386 141.824 158.518 141.627 158.518H137.289C137.026 158.386 136.763 158.255 136.698 158.058Z" fill="#E7EDF0"/>
<path opacity="0.375" d="M135.516 149.32C134.596 149.846 134.136 150.503 134.136 151.16C134.136 151.752 134.596 152.409 135.516 152.935C136.568 153.526 138.013 153.855 139.459 153.855C140.905 153.855 142.351 153.526 143.402 152.935C144.322 152.409 144.848 151.752 144.782 151.094C144.782 150.503 144.322 149.846 143.402 149.32C142.351 148.729 140.905 148.4 139.459 148.4C138.013 148.4 136.568 148.729 135.516 149.32ZM136.699 157.995L135.911 156.286C135.845 156.286 133.15 157.075 132.888 157.14C132.756 157.206 132.559 157.14 132.428 157.075L129.273 155.235C128.945 155.037 128.879 154.577 129.142 154.315L130.193 153.263C130.193 153.263 128.09 152.869 127.696 152.737C127.433 152.672 127.236 152.409 127.236 152.146V149.452C127.236 149.189 127.433 148.926 127.762 148.86L130.193 148.466C130.193 148.4 128.747 146.757 128.747 146.757L132.822 144.391L135.911 145.377C135.976 145.377 137.093 143.34 137.093 143.34H142.088C142.088 143.34 143.205 145.377 143.271 145.377L146.36 144.391L150.368 146.757L148.857 148.466L151.223 148.86C151.551 148.926 151.748 149.189 151.748 149.517V152.146C151.748 152.474 151.551 152.737 151.223 152.737L148.725 153.197C148.725 153.197 149.514 154.117 149.645 154.315C149.908 154.643 149.843 155.103 149.514 155.3L146.36 157.14C146.228 157.206 146.031 157.272 145.834 157.206C145.505 157.14 142.877 156.286 142.811 156.352L141.957 158.06C141.825 158.258 141.628 158.389 141.431 158.389H137.159C137.028 158.323 136.765 158.192 136.699 157.995Z" fill="#E4EBEF"/>
<path opacity="0.4062" d="M135.449 149.243C134.529 149.769 134.003 150.492 134.003 151.083C134.003 151.741 134.529 152.398 135.383 152.923C136.435 153.515 137.881 153.844 139.392 153.844C140.904 153.844 142.349 153.515 143.401 152.923C144.321 152.398 144.847 151.675 144.847 151.083C144.847 150.426 144.321 149.769 143.467 149.243C142.415 148.652 140.969 148.323 139.458 148.323C137.946 148.323 136.501 148.652 135.449 149.243ZM136.698 157.918L135.909 156.209C135.843 156.209 133.149 156.998 132.82 157.064C132.689 157.129 132.492 157.064 132.36 156.998L129.272 155.224C128.943 155.026 128.877 154.566 129.14 154.304L130.192 153.252C130.192 153.252 128.089 152.792 127.629 152.726C127.366 152.661 127.169 152.398 127.169 152.135V149.506C127.169 149.243 127.366 148.98 127.695 148.915L130.126 148.52C130.126 148.455 128.68 146.746 128.68 146.746L132.689 144.446L135.778 145.432C135.843 145.432 136.961 143.395 136.961 143.395H141.889C141.889 143.395 143.007 145.432 143.072 145.432L146.161 144.446L150.104 146.746C150.104 146.746 148.592 148.455 148.592 148.52L151.024 148.915C151.353 148.98 151.55 149.243 151.55 149.572V152.135C151.55 152.463 151.353 152.726 151.024 152.726L148.592 153.121C148.592 153.121 149.381 154.041 149.578 154.304C149.841 154.632 149.775 155.092 149.447 155.289L146.358 157.064C146.227 157.129 146.03 157.195 145.832 157.129C145.504 157.064 142.809 156.209 142.809 156.275L141.955 157.984C141.824 158.181 141.627 158.312 141.429 158.312H137.223C136.961 158.247 136.763 158.115 136.698 157.918Z" fill="#E2E9EE"/>
<path opacity="0.4375" d="M135.385 149.189C134.465 149.714 133.939 150.437 133.939 151.094C133.939 151.752 134.465 152.409 135.385 152.935C136.436 153.526 137.882 153.855 139.394 153.855C140.905 153.855 142.351 153.526 143.402 152.935C144.322 152.409 144.848 151.686 144.848 151.029C144.848 150.372 144.322 149.714 143.402 149.189C142.351 148.597 140.905 148.269 139.394 148.269C137.948 148.203 136.436 148.531 135.385 149.189ZM136.699 157.863L135.911 156.155C135.845 156.155 133.15 156.943 132.822 157.009C132.69 157.075 132.493 157.009 132.362 156.943L129.339 155.169C129.01 154.972 128.945 154.512 129.207 154.249L130.259 153.132C130.259 153.132 128.09 152.672 127.696 152.606C127.433 152.54 127.236 152.277 127.236 152.014V149.452C127.236 149.189 127.433 148.926 127.762 148.86L130.259 148.466C130.259 148.4 128.813 146.691 128.813 146.691L132.756 144.391L135.845 145.377C135.911 145.377 137.093 143.34 137.093 143.34H141.957C141.957 143.34 143.074 145.377 143.139 145.377L146.228 144.391L150.171 146.691C150.171 146.691 148.66 148.4 148.66 148.466L151.091 148.86C151.42 148.926 151.617 149.189 151.617 149.517V152.014C151.617 152.343 151.42 152.606 151.091 152.606L148.66 153C148.66 153 149.383 153.92 149.645 154.183C149.908 154.512 149.843 154.972 149.514 155.169L146.491 156.943C146.36 157.009 146.162 157.075 145.965 157.009C145.637 156.878 142.942 156.089 142.877 156.155L142.022 157.863C141.891 158.06 141.694 158.192 141.496 158.192H137.356C136.962 158.192 136.765 158.06 136.699 157.863Z" fill="#E0E8EC"/>
<path opacity="0.4688" d="M135.319 149.046C134.333 149.572 133.873 150.295 133.873 150.952C133.873 151.609 134.399 152.332 135.319 152.858C136.371 153.449 137.882 153.844 139.328 153.844C140.839 153.844 142.285 153.515 143.337 152.858C144.322 152.332 144.782 151.609 144.782 150.886C144.782 150.229 144.257 149.506 143.337 148.98C142.285 148.389 140.839 147.995 139.328 147.995C137.882 148.126 136.436 148.455 135.319 149.046ZM136.699 157.787L135.911 156.078C135.845 156.078 133.15 156.866 132.822 156.932C132.69 156.998 132.493 156.932 132.362 156.866L129.405 155.158C129.076 154.961 129.01 154.501 129.273 154.238L130.325 153.121C130.325 153.055 128.156 152.661 127.696 152.595C127.433 152.529 127.236 152.266 127.236 152.003V149.506C127.236 149.243 127.433 148.98 127.762 148.915L130.259 148.52C130.259 148.455 128.747 146.746 128.747 146.746L132.625 144.512L135.713 145.497C135.779 145.497 136.962 143.395 136.962 143.395H141.825C141.825 143.395 142.942 145.432 143.074 145.497L146.228 144.512L150.105 146.746C150.105 146.746 148.594 148.455 148.594 148.52L151.091 148.915C151.42 148.98 151.617 149.243 151.617 149.572V152.003C151.617 152.332 151.42 152.595 151.091 152.595L148.594 152.989C148.594 152.989 149.317 153.909 149.58 154.172C149.843 154.501 149.777 154.961 149.448 155.158L146.491 156.866C146.36 156.932 146.162 156.998 145.965 156.932C145.571 156.801 142.942 156.078 142.877 156.078L142.022 157.787C141.891 157.984 141.694 158.115 141.496 158.115H137.422C136.962 158.115 136.765 157.984 136.699 157.787Z" fill="#DEE6EB"/>
<path opacity="0.5" d="M135.253 148.98C134.268 149.572 133.742 150.295 133.742 150.952C133.742 151.609 134.268 152.332 135.188 152.923C136.239 153.581 137.751 153.909 139.262 153.909C140.774 153.909 142.219 153.581 143.337 152.923C144.322 152.332 144.848 151.609 144.848 150.952C144.848 150.295 144.322 149.572 143.402 148.98C142.351 148.323 140.839 147.995 139.394 147.995C137.816 148.06 136.371 148.389 135.253 148.98ZM136.699 157.721L135.911 156.012C135.845 156.012 133.15 156.801 132.756 156.866C132.625 156.932 132.428 156.866 132.296 156.801L129.405 155.092C129.076 154.895 129.01 154.435 129.273 154.172L130.325 153.055C130.325 152.989 128.156 152.595 127.696 152.529C127.433 152.463 127.236 152.201 127.236 151.938V149.506C127.236 149.243 127.433 148.98 127.762 148.915L130.325 148.52C130.325 148.455 128.813 146.68 128.813 146.68L132.625 144.512L135.713 145.497C135.779 145.497 136.962 143.395 136.962 143.395H141.759C141.759 143.395 142.877 145.432 143.008 145.497L146.162 144.512L149.974 146.68C149.974 146.68 148.462 148.455 148.462 148.52L150.96 148.915C151.288 148.98 151.485 149.243 151.485 149.572V151.938C151.485 152.266 151.288 152.529 150.96 152.529L148.462 152.923C148.462 152.923 149.185 153.844 149.448 154.172C149.711 154.501 149.645 154.961 149.317 155.158L146.425 156.866C146.294 156.932 146.097 156.998 145.9 156.932C145.505 156.801 142.877 156.078 142.811 156.078L141.759 157.721C141.628 157.918 141.431 158.049 141.234 158.049H137.159C136.962 158.049 136.765 157.918 136.699 157.721Z" fill="#DCE4EA"/>
<path opacity="0.5312" d="M135.253 148.926C134.268 149.517 133.742 150.24 133.742 150.963C133.742 151.686 134.268 152.409 135.253 152.935C136.371 153.592 137.816 153.92 139.328 153.92C140.839 153.92 142.285 153.592 143.402 152.935C144.388 152.343 144.914 151.62 144.914 150.897C144.914 150.174 144.388 149.452 143.402 148.926C142.285 148.269 140.839 147.94 139.328 147.94C137.816 147.94 136.305 148.269 135.253 148.926ZM136.633 157.6L135.845 155.892C135.779 155.892 133.085 156.615 132.69 156.746C132.559 156.812 132.362 156.746 132.23 156.68L129.405 155.037C129.076 154.84 129.01 154.38 129.273 154.117L130.39 153C130.39 152.935 128.222 152.54 127.696 152.409C127.433 152.343 127.236 152.08 127.236 151.817V149.452C127.236 149.189 127.433 148.926 127.762 148.86L130.325 148.466C130.39 148.4 128.813 146.626 128.813 146.626L132.559 144.457L135.713 145.443C135.779 145.443 136.962 143.34 136.962 143.34H141.694C141.694 143.34 142.877 145.377 142.942 145.443L146.097 144.457L149.843 146.626C149.843 146.626 148.331 148.4 148.331 148.466L150.894 148.86C151.223 148.926 151.42 149.189 151.42 149.517V151.817C151.42 152.146 151.223 152.409 150.894 152.409L148.331 152.803C148.331 152.869 149.054 153.723 149.317 154.052C149.58 154.38 149.514 154.84 149.12 155.037L146.294 156.68C146.162 156.746 145.965 156.812 145.768 156.746C145.308 156.615 142.679 155.892 142.614 155.892L141.759 157.6C141.628 157.798 141.431 157.929 141.234 157.929H137.225C136.962 157.995 136.765 157.863 136.633 157.6Z" fill="#D9E3E8"/>
<path opacity="0.5625" d="M135.186 148.858C134.201 149.449 133.675 150.172 133.675 150.895C133.675 151.618 134.201 152.341 135.186 152.932C136.304 153.589 137.749 153.918 139.261 153.918C140.772 153.918 142.284 153.589 143.335 152.932C144.321 152.341 144.847 151.618 144.847 150.895C144.847 150.172 144.321 149.449 143.335 148.858C142.218 148.2 140.772 147.872 139.261 147.872C137.749 147.872 136.304 148.2 135.186 148.858ZM136.632 157.532L135.844 155.824C135.778 155.824 133.083 156.546 132.689 156.678C132.558 156.744 132.361 156.678 132.229 156.612L129.469 154.969C129.14 154.772 129.075 154.312 129.338 154.049L130.455 152.932C130.455 152.866 128.286 152.472 127.76 152.341C127.498 152.275 127.3 152.012 127.3 151.749V149.449C127.3 149.186 127.498 148.923 127.826 148.858L130.455 148.398C130.52 148.332 128.943 146.557 128.943 146.557L132.623 144.454L135.581 145.572C135.646 145.572 136.895 143.469 136.895 143.469H141.561C141.561 143.469 142.744 145.506 142.81 145.572L145.964 144.586L149.644 146.689C149.644 146.689 148.067 148.463 148.133 148.529L150.696 148.923C151.024 148.989 151.221 149.252 151.221 149.58V151.815C151.221 152.143 151.024 152.406 150.696 152.406L148.133 152.801C148.133 152.866 148.855 153.721 149.118 154.049C149.381 154.378 149.316 154.838 148.921 155.035L146.161 156.612C146.03 156.678 145.833 156.744 145.635 156.678C145.175 156.546 142.547 155.824 142.481 155.824L141.627 157.532C141.495 157.729 141.298 157.861 141.101 157.861H137.158C136.961 157.861 136.764 157.729 136.632 157.532Z" fill="#D7E1E7"/>
<path opacity="0.5938" d="M135.122 148.792C134.07 149.383 133.545 150.172 133.545 150.895C133.545 151.618 134.07 152.341 135.056 152.932C136.173 153.589 137.619 153.918 139.131 153.918C140.642 153.918 142.154 153.589 143.271 152.932C144.322 152.341 144.848 151.552 144.848 150.829C144.848 150.106 144.322 149.383 143.337 148.792C142.219 148.135 140.774 147.806 139.262 147.806C137.751 147.806 136.239 148.135 135.122 148.792ZM136.633 157.466L135.845 155.758C135.779 155.758 133.085 156.481 132.625 156.612C132.493 156.678 132.296 156.612 132.165 156.546L129.47 154.969C129.142 154.772 129.076 154.312 129.339 154.049L130.456 152.932C130.39 152.866 128.287 152.472 127.696 152.341C127.433 152.275 127.236 152.012 127.236 151.749V149.515C127.236 149.252 127.433 148.989 127.762 148.923L130.39 148.463C130.456 148.398 128.879 146.557 128.879 146.557L132.428 144.586L135.582 145.572C135.713 145.572 136.896 143.469 136.896 143.469H141.496C141.496 143.469 142.679 145.506 142.811 145.572L145.965 144.586L149.58 146.689C149.58 146.689 148.002 148.529 148.068 148.529L150.631 148.989C150.96 149.055 151.157 149.318 151.157 149.646V151.815C151.157 152.143 150.96 152.406 150.631 152.406L148.002 152.866C148.002 152.932 148.725 153.786 148.988 154.181C149.251 154.509 149.185 154.969 148.791 155.166L146.097 156.744C145.965 156.809 145.768 156.875 145.637 156.809C145.177 156.678 142.548 155.955 142.482 155.955L141.628 157.664C141.496 157.861 141.299 157.992 141.102 157.992H137.225C136.962 157.795 136.765 157.664 136.633 157.466Z" fill="#D5E0E5"/>
<path opacity="0.625" d="M135.055 148.66C134.003 149.252 133.478 150.04 133.478 150.763C133.478 151.486 134.003 152.275 135.055 152.866C136.172 153.523 137.683 153.852 139.195 153.852C140.706 153.852 142.218 153.523 143.335 152.866C144.387 152.275 144.912 151.486 144.912 150.763C144.912 150.04 144.387 149.252 143.335 148.66C142.218 148.003 140.706 147.675 139.195 147.675C137.683 147.675 136.172 148.003 135.055 148.66ZM136.632 157.401L135.778 155.692C135.712 155.692 133.083 156.415 132.558 156.546C132.426 156.612 132.229 156.546 132.098 156.481L129.469 154.969C129.14 154.772 129.075 154.312 129.337 154.049L130.455 152.866C130.389 152.801 128.286 152.406 127.629 152.275C127.366 152.209 127.169 151.946 127.169 151.683V149.515C127.169 149.252 127.366 148.989 127.695 148.923L130.389 148.463C130.455 148.398 128.877 146.557 128.877 146.557L132.426 144.586L135.581 145.572C135.712 145.572 136.895 143.469 136.895 143.469H141.495C141.495 143.469 142.678 145.572 142.809 145.572L145.898 144.586L149.447 146.623C149.447 146.623 147.87 148.463 147.935 148.529L150.564 148.989C150.893 149.055 151.09 149.318 151.09 149.646V151.749C151.09 152.078 150.893 152.341 150.564 152.341L147.935 152.801C147.935 152.866 148.658 153.721 148.921 154.115C149.184 154.443 149.118 154.903 148.724 155.101L146.03 156.612C145.898 156.678 145.701 156.744 145.57 156.678C145.044 156.546 142.481 155.824 142.349 155.824L141.495 157.532C141.429 157.598 141.232 157.729 141.035 157.729H137.223C136.961 157.729 136.763 157.598 136.632 157.401Z" fill="#D3DEE4"/>
<path opacity="0.6562" d="M134.991 148.595C133.939 149.186 133.413 149.975 133.413 150.763C133.413 151.486 133.939 152.275 134.991 152.866C136.108 153.523 137.619 153.852 139.131 153.852C140.642 153.852 142.154 153.523 143.271 152.866C144.322 152.275 144.848 151.486 144.848 150.698C144.848 149.975 144.322 149.186 143.271 148.595C142.154 147.938 140.642 147.609 139.131 147.609C137.619 147.609 136.108 147.938 134.991 148.595ZM136.633 157.335L135.779 155.626C135.713 155.626 133.085 156.349 132.559 156.481C132.428 156.546 132.23 156.481 132.099 156.415L129.536 154.903C129.207 154.706 129.142 154.246 129.405 153.983L130.522 152.801C130.456 152.735 128.353 152.341 127.696 152.209C127.433 152.143 127.236 151.881 127.236 151.618V149.515C127.236 149.252 127.433 148.989 127.762 148.923L130.456 148.463C130.522 148.398 128.945 146.557 128.945 146.557L132.428 144.586L135.582 145.572C135.713 145.572 136.896 143.469 136.896 143.469H141.431C141.431 143.469 142.614 145.572 142.745 145.572L145.9 144.586L149.383 146.623C149.383 146.623 147.805 148.463 147.871 148.529L150.5 148.989C150.828 149.055 151.025 149.318 151.025 149.646V151.618C151.025 151.946 150.828 152.209 150.5 152.209L147.805 152.669C147.805 152.735 148.528 153.589 148.857 153.983C149.12 154.312 149.054 154.772 148.66 154.969L146.031 156.481C145.9 156.546 145.702 156.612 145.571 156.546C145.045 156.415 142.417 155.692 142.351 155.692L141.496 157.401C141.365 157.598 141.168 157.729 140.971 157.729H137.159C136.962 157.664 136.765 157.532 136.633 157.335Z" fill="#D0DCE3"/>
<path opacity="0.6875" d="M134.923 148.518C133.872 149.109 133.28 149.964 133.28 150.687C133.28 151.475 133.806 152.264 134.858 152.855C135.975 153.512 137.486 153.841 138.998 153.841C140.509 153.841 142.021 153.512 143.204 152.855C144.255 152.264 144.847 151.409 144.847 150.687C144.847 149.898 144.321 149.109 143.269 148.518C142.152 147.861 140.641 147.532 139.129 147.532C137.618 147.532 136.106 147.861 134.923 148.518ZM136.632 157.258L135.778 155.55C135.712 155.55 133.083 156.273 132.492 156.404C132.36 156.47 132.163 156.404 132.032 156.338L129.535 154.892C129.206 154.695 129.14 154.235 129.403 153.972L130.52 152.79C130.455 152.724 128.352 152.264 127.629 152.132C127.366 152.067 127.169 151.804 127.169 151.541V149.569C127.169 149.307 127.366 149.044 127.695 148.978L130.389 148.518C130.455 148.452 128.877 146.612 128.877 146.612L132.295 144.641L135.449 145.626C135.581 145.626 136.829 143.523 136.829 143.523H141.298C141.298 143.523 142.547 145.626 142.612 145.626L145.832 144.575L149.25 146.546C149.25 146.546 147.672 148.386 147.738 148.452L150.433 148.912C150.761 148.978 150.958 149.241 150.958 149.569V151.475C150.958 151.804 150.761 152.067 150.433 152.067L147.738 152.527C147.738 152.592 148.461 153.447 148.79 153.907C149.053 154.235 148.987 154.63 148.592 154.827L146.03 156.273C145.898 156.338 145.701 156.404 145.57 156.338C145.044 156.207 142.415 155.484 142.349 155.484L141.495 157.193C141.364 157.39 141.166 157.521 140.969 157.521H137.223C136.961 157.587 136.763 157.455 136.632 157.258Z" fill="#CEDBE1"/>
<path opacity="0.7188" d="M134.859 148.452C133.742 149.109 133.216 149.898 133.216 150.687C133.216 151.475 133.742 152.264 134.859 152.855C135.976 153.512 137.488 153.841 139.065 153.841C140.576 153.841 142.154 153.512 143.271 152.855C144.388 152.198 144.914 151.409 144.914 150.621C144.914 149.832 144.388 149.044 143.271 148.452C142.154 147.795 140.642 147.466 139.065 147.466C137.553 147.401 136.042 147.795 134.859 148.452ZM136.633 157.193L135.779 155.484C135.648 155.484 133.085 156.207 132.493 156.338C132.362 156.404 132.165 156.338 132.033 156.273L129.536 154.827C129.207 154.63 129.142 154.17 129.405 153.907L130.587 152.724C130.522 152.658 128.353 152.198 127.696 152.067C127.433 152.001 127.236 151.738 127.236 151.475V149.569C127.236 149.307 127.433 149.044 127.762 148.978L130.522 148.518C130.587 148.452 129.01 146.546 129.01 146.546L132.362 144.575L135.516 145.626C135.648 145.626 136.896 143.523 136.896 143.523H141.299C141.299 143.523 142.548 145.626 142.679 145.626L145.834 144.575L149.185 146.546C149.185 146.546 147.608 148.452 147.674 148.518L150.368 148.978C150.697 149.044 150.894 149.307 150.894 149.635V151.475C150.894 151.804 150.697 152.067 150.368 152.067L147.608 152.527C147.608 152.592 148.331 153.447 148.66 153.907C148.922 154.235 148.857 154.63 148.462 154.827L145.965 156.273C145.834 156.338 145.637 156.404 145.505 156.338C144.914 156.207 142.351 155.484 142.219 155.484L141.365 157.193C141.234 157.39 141.036 157.521 140.839 157.521H137.159C136.962 157.521 136.699 157.39 136.633 157.193Z" fill="#CCD9E0"/>
<path opacity="0.75" d="M134.859 148.318C133.742 148.975 133.216 149.764 133.216 150.618C133.216 151.407 133.808 152.196 134.859 152.853C135.976 153.51 137.553 153.838 139.065 153.838C140.642 153.838 142.154 153.51 143.271 152.853C144.388 152.196 144.914 151.407 144.914 150.553C144.914 149.764 144.322 148.975 143.271 148.318C142.154 147.661 140.576 147.332 139.065 147.332C137.553 147.332 135.976 147.661 134.859 148.318ZM136.633 157.124L135.779 155.416C135.648 155.416 133.085 156.139 132.493 156.27C132.362 156.336 132.165 156.27 132.033 156.204L129.602 154.824C129.273 154.627 129.207 154.167 129.47 153.904L130.653 152.721C130.587 152.656 128.419 152.196 127.696 152.064C127.433 151.998 127.236 151.736 127.236 151.473V149.633C127.236 149.37 127.433 149.107 127.762 149.041L130.522 148.581C130.587 148.515 129.01 146.61 129.01 146.61L132.296 144.704L135.451 145.755C135.582 145.69 136.831 143.652 136.831 143.652H141.168C141.168 143.652 142.417 145.755 142.548 145.755L145.702 144.704L148.988 146.61C148.988 146.61 147.411 148.515 147.411 148.581L150.171 149.041C150.5 149.107 150.697 149.37 150.697 149.698V151.473C150.697 151.801 150.5 152.064 150.171 152.064L147.411 152.524C147.411 152.59 148.068 153.444 148.462 153.904C148.725 154.233 148.594 154.627 148.265 154.824L145.834 156.204C145.702 156.27 145.505 156.336 145.374 156.27C144.782 156.073 142.219 155.416 142.088 155.416L141.234 157.124C141.102 157.321 140.905 157.453 140.708 157.453H137.093C136.962 157.453 136.699 157.321 136.633 157.124Z" fill="#CAD7DF"/>
<path opacity="0.7812" d="M134.792 148.253C133.675 148.91 133.083 149.764 133.083 150.553C133.083 151.341 133.675 152.196 134.726 152.787C135.909 153.444 137.421 153.773 138.932 153.773C140.509 153.773 142.021 153.444 143.204 152.787C144.321 152.13 144.912 151.275 144.912 150.487C144.912 149.698 144.321 148.844 143.269 148.253C142.152 147.595 140.575 147.267 139.064 147.267C137.486 147.267 135.909 147.595 134.792 148.253ZM136.632 157.059L135.778 155.35C135.646 155.35 133.083 156.073 132.426 156.204C132.295 156.27 132.098 156.204 131.966 156.139L129.6 154.758C129.272 154.561 129.206 154.101 129.469 153.838L130.652 152.59C130.586 152.524 128.417 152.064 127.629 151.933C127.366 151.867 127.169 151.604 127.169 151.341V149.567C127.169 149.304 127.366 149.041 127.695 148.975L130.52 148.515C130.586 148.45 129.009 146.544 129.009 146.544L132.229 144.704L135.383 145.755C135.515 145.69 136.763 143.652 136.763 143.652H141.101C141.101 143.652 142.349 145.755 142.481 145.755L145.635 144.704L148.855 146.544C148.855 146.544 147.278 148.45 147.278 148.515L150.038 148.975C150.367 149.041 150.564 149.304 150.564 149.633V151.341C150.564 151.67 150.367 151.933 150.038 151.933L147.278 152.393C147.278 152.458 147.935 153.313 148.33 153.838C148.593 154.167 148.461 154.561 148.132 154.758L145.767 156.139C145.635 156.204 145.438 156.27 145.307 156.204C144.649 156.007 142.087 155.35 142.021 155.35L141.167 157.059C141.035 157.256 140.838 157.387 140.641 157.387H137.092C136.961 157.387 136.698 157.256 136.632 157.059Z" fill="#C8D6DD"/>
<path opacity="0.8125" d="M134.728 148.198C133.61 148.855 133.019 149.709 133.019 150.564C133.019 151.418 133.61 152.207 134.728 152.864C135.911 153.521 137.422 153.849 138.999 153.915C140.576 153.915 142.088 153.587 143.271 152.864C144.388 152.207 144.979 151.352 144.979 150.498C144.979 149.644 144.388 148.855 143.271 148.198C142.088 147.541 140.576 147.212 138.999 147.146C137.422 147.146 135.911 147.541 134.728 148.198ZM136.633 157.004L135.779 155.295C135.648 155.295 133.085 155.952 132.428 156.15C132.296 156.215 132.099 156.15 131.968 156.084L129.667 154.77C129.339 154.572 129.273 154.112 129.536 153.849L130.719 152.601C130.653 152.535 128.485 152.075 127.696 151.878C127.433 151.812 127.236 151.549 127.236 151.287V149.578C127.236 149.315 127.433 149.052 127.762 148.986L130.587 148.526C130.653 148.461 129.076 146.489 129.076 146.489L132.23 144.649L135.385 145.701C135.516 145.635 136.831 143.598 136.831 143.598H141.102C141.102 143.598 142.351 145.701 142.482 145.701L145.637 144.649L148.791 146.489C148.791 146.489 147.214 148.461 147.214 148.526L150.04 148.986C150.368 149.052 150.565 149.315 150.565 149.644V151.287C150.565 151.615 150.368 151.878 150.04 151.878L147.214 152.338C147.148 152.404 147.871 153.258 148.265 153.784C148.528 154.112 148.397 154.507 148.068 154.704L145.768 156.018C145.637 156.084 145.439 156.15 145.308 156.084C144.651 155.887 142.088 155.23 141.957 155.23L141.102 156.938C140.971 157.135 140.774 157.267 140.576 157.267H137.028C136.896 157.332 136.699 157.201 136.633 157.004Z" fill="#C5D4DC"/>
<path opacity="0.8438" d="M134.662 148.124C133.545 148.781 132.953 149.635 132.953 150.489C132.953 151.344 133.545 152.198 134.662 152.855C135.845 153.512 137.356 153.907 138.934 153.907C140.511 153.907 142.022 153.578 143.205 152.855C144.322 152.198 144.914 151.344 144.914 150.489C144.914 149.635 144.322 148.781 143.205 148.124C142.022 147.466 140.511 147.072 138.934 147.072C137.422 147.072 135.845 147.401 134.662 148.124ZM136.633 156.864L135.779 155.155C135.648 155.155 133.085 155.812 132.428 156.01C132.296 156.075 132.099 156.01 131.968 155.944L129.733 154.63C129.405 154.432 129.339 153.972 129.602 153.71L130.785 152.461C130.719 152.395 128.55 151.935 127.696 151.738C127.433 151.672 127.236 151.409 127.236 151.147V149.504C127.236 149.241 127.433 148.978 127.762 148.912L130.653 148.452C130.719 148.386 129.142 146.415 129.142 146.415L132.23 144.641L135.385 145.692C135.516 145.626 136.831 143.523 136.831 143.523H141.036C141.036 143.523 142.285 145.626 142.482 145.692L145.637 144.641L148.725 146.481C148.725 146.481 147.082 148.452 147.148 148.518L149.974 148.978C150.303 149.044 150.5 149.307 150.5 149.635V151.212C150.5 151.541 150.303 151.804 149.974 151.804L147.148 152.264C147.082 152.329 147.805 153.25 148.2 153.71C148.462 154.038 148.331 154.432 148.002 154.63L145.768 155.944C145.637 156.01 145.439 156.075 145.308 156.01C144.651 155.812 142.088 155.155 141.956 155.155L141.102 156.864C140.971 157.061 140.774 157.193 140.576 157.193H137.093C136.896 157.258 136.699 157.127 136.633 156.864Z" fill="#C3D2DB"/>
<path opacity="0.875" d="M134.595 148.066C133.412 148.724 132.821 149.644 132.821 150.498C132.821 151.352 133.412 152.207 134.529 152.864C135.712 153.521 137.289 153.915 138.801 153.915C140.378 153.915 141.955 153.587 143.138 152.864C144.321 152.207 144.912 151.287 144.912 150.432C144.912 149.578 144.321 148.724 143.204 148.066C142.021 147.409 140.509 147.015 138.932 147.015C137.355 147.015 135.778 147.344 134.595 148.066ZM136.632 156.807L135.778 155.098C135.646 155.098 133.083 155.755 132.361 155.952C132.229 156.018 132.032 155.952 131.901 155.887L129.732 154.638C129.403 154.441 129.338 153.981 129.6 153.718L130.849 152.469C130.783 152.404 128.615 151.944 127.76 151.747C127.498 151.681 127.3 151.418 127.3 151.155V149.578C127.3 149.315 127.498 149.052 127.826 148.986L130.718 148.526C130.783 148.461 129.14 146.489 129.14 146.489L132.163 144.715L135.318 145.766C135.449 145.701 136.764 143.598 136.764 143.598H140.904C140.904 143.598 142.218 145.701 142.35 145.766L145.57 144.715L148.593 146.489C148.593 146.489 146.95 148.461 147.015 148.526L149.907 148.986C150.236 149.052 150.433 149.315 150.433 149.644V151.155C150.433 151.484 150.236 151.747 149.907 151.747L147.015 152.207C146.95 152.272 147.673 153.192 148.067 153.718C148.33 154.047 148.198 154.441 147.87 154.638L145.701 155.887C145.57 155.952 145.372 156.018 145.241 155.952C144.518 155.755 142.021 155.098 141.889 155.098L141.035 156.807C140.904 157.004 140.707 157.135 140.509 157.135H137.092C136.895 157.135 136.698 157.004 136.632 156.807Z" fill="#C1D1D9"/>
<path opacity="0.9062" d="M134.529 147.935C133.346 148.592 132.755 149.512 132.755 150.366C132.755 151.221 133.346 152.075 134.463 152.798C135.646 153.455 137.224 153.849 138.801 153.849C140.378 153.849 141.955 153.521 143.138 152.798C144.321 152.141 144.912 151.221 144.912 150.366C144.912 149.512 144.321 148.658 143.138 147.935C141.955 147.278 140.378 146.883 138.801 146.883C137.289 146.883 135.778 147.278 134.529 147.935ZM136.632 156.741L135.778 155.032C135.646 155.032 133.083 155.69 132.361 155.887C132.229 155.952 132.032 155.887 131.901 155.821L129.798 154.572C129.469 154.375 129.403 153.915 129.666 153.652L130.915 152.404C130.849 152.338 128.68 151.878 127.76 151.681C127.498 151.615 127.3 151.352 127.3 151.089V149.578C127.3 149.315 127.498 149.052 127.826 148.986L130.783 148.526C130.849 148.461 129.206 146.423 129.206 146.423L132.163 144.715L135.318 145.766C135.449 145.701 136.764 143.598 136.764 143.598H140.838C140.838 143.598 142.152 145.701 142.284 145.766L145.504 144.715L148.461 146.423C148.461 146.423 146.818 148.395 146.884 148.526L149.776 148.986C150.104 149.052 150.301 149.315 150.301 149.644V151.089C150.301 151.418 150.104 151.681 149.776 151.681L146.884 152.141C146.818 152.207 147.541 153.127 148.001 153.652C148.264 153.981 148.133 154.375 147.804 154.572L145.701 155.821C145.57 155.887 145.372 155.952 145.241 155.887C144.518 155.69 141.955 155.032 141.824 155.032L140.969 156.741C140.838 156.938 140.641 157.07 140.444 157.07H137.092C136.895 157.07 136.698 156.938 136.632 156.741Z" fill="#BFCFD8"/>
<path opacity="0.9375" d="M134.463 147.869C133.281 148.592 132.689 149.446 132.689 150.366C132.689 151.221 133.281 152.141 134.463 152.798C135.646 153.521 137.224 153.849 138.801 153.849C140.378 153.849 141.955 153.521 143.138 152.798C144.321 152.075 144.912 151.221 144.912 150.301C144.912 149.446 144.321 148.526 143.138 147.869C141.955 147.146 140.378 146.818 138.801 146.818C137.289 146.818 135.712 147.146 134.463 147.869ZM136.566 156.675L135.712 154.967C135.581 154.967 133.018 155.624 132.295 155.821C132.163 155.887 131.966 155.821 131.835 155.755L129.798 154.572C129.469 154.375 129.403 153.915 129.666 153.652L130.915 152.338C130.849 152.272 128.68 151.812 127.76 151.615C127.498 151.549 127.3 151.287 127.3 151.024V149.578C127.3 149.315 127.498 149.052 127.826 148.986L130.783 148.526C130.849 148.461 129.206 146.423 129.206 146.423L132.163 144.715L135.384 145.766C135.515 145.701 136.895 143.598 136.895 143.598H140.969C140.969 143.598 142.284 145.701 142.415 145.766L145.635 144.715L148.527 146.423C148.527 146.423 146.884 148.461 146.95 148.526L149.907 148.986C150.236 149.052 150.433 149.315 150.433 149.644V151.024C150.433 151.352 150.236 151.615 149.907 151.615L146.95 152.075C146.884 152.141 147.607 153.061 148.067 153.587C148.33 153.915 148.198 154.309 147.87 154.507L145.833 155.69C145.701 155.755 145.504 155.821 145.372 155.755C144.584 155.558 142.087 154.901 141.955 154.901L141.101 156.61C140.969 156.807 140.772 156.938 140.575 156.938H137.289C136.895 157.004 136.698 156.872 136.566 156.675Z" fill="#BCCDD7"/>
<path opacity="0.9688" d="M134.465 147.804C133.282 148.526 132.625 149.446 132.625 150.301C132.625 151.221 133.216 152.075 134.399 152.798C135.582 153.521 137.159 153.849 138.736 153.849C140.314 153.849 141.891 153.521 143.139 152.798C144.322 152.075 144.979 151.155 144.979 150.235C144.979 149.315 144.388 148.461 143.205 147.738C142.022 147.015 140.445 146.686 138.868 146.686C137.225 146.752 135.648 147.081 134.465 147.804ZM136.568 156.61L135.713 154.901C135.582 154.901 133.019 155.558 132.23 155.755C132.099 155.821 131.902 155.755 131.77 155.69L129.799 154.572C129.47 154.375 129.405 153.915 129.667 153.652L130.916 152.338C130.85 152.272 128.682 151.812 127.696 151.549C127.433 151.484 127.236 151.221 127.236 150.958V149.578C127.236 149.315 127.433 149.052 127.762 148.986L130.785 148.461C130.85 148.395 129.207 146.358 129.207 146.358L132.099 144.715L135.319 145.766C135.451 145.701 136.831 143.598 136.831 143.598H140.839C140.839 143.598 142.154 145.701 142.351 145.766L145.571 144.715L148.397 146.358C148.397 146.358 146.754 148.395 146.82 148.461L149.777 148.921C150.105 148.986 150.303 149.249 150.303 149.578V150.892C150.303 151.221 150.105 151.484 149.777 151.484L146.82 151.944C146.754 152.009 147.477 152.929 147.937 153.521C148.2 153.849 148.068 154.244 147.74 154.441L145.768 155.624C145.637 155.69 145.44 155.755 145.308 155.69C144.519 155.492 142.022 154.835 141.891 154.835L141.036 156.544C140.905 156.741 140.708 156.872 140.511 156.872H137.225C136.896 156.938 136.699 156.807 136.568 156.61Z" fill="#BACCD5"/>
<path d="M143.138 152.79C145.57 151.409 145.57 149.109 143.138 147.729C140.707 146.349 136.764 146.349 134.332 147.729C131.901 149.109 131.901 151.409 134.332 152.79C136.764 154.17 140.707 154.17 143.138 152.79ZM148.264 146.349C148.264 146.349 146.621 148.386 146.687 148.518L149.71 149.044C150.038 149.109 150.236 149.372 150.236 149.701V150.884C150.236 151.212 150.038 151.475 149.71 151.475L146.687 152.001C146.621 152.067 147.344 152.987 147.804 153.578C148.067 153.907 147.935 154.301 147.607 154.498L145.635 155.615C145.504 155.681 145.307 155.747 145.175 155.681C144.387 155.484 141.89 154.827 141.758 154.827L140.904 156.535C140.772 156.733 140.575 156.864 140.378 156.864H137.158C136.961 156.864 136.698 156.733 136.632 156.535L135.778 154.827C135.646 154.827 133.083 155.484 132.295 155.681C132.163 155.747 131.966 155.681 131.835 155.615L129.929 154.498C129.6 154.301 129.535 153.841 129.798 153.578L131.046 152.264C130.98 152.198 128.812 151.672 127.76 151.475C127.498 151.409 127.3 151.147 127.3 150.884V149.569C127.3 149.307 127.498 149.044 127.826 148.978L130.849 148.452C130.915 148.386 129.272 146.284 129.272 146.284L132.098 144.641L135.318 145.692C135.515 145.626 136.829 143.523 136.829 143.523H140.772C140.772 143.523 142.087 145.626 142.284 145.692L145.504 144.641L148.264 146.349Z" fill="#B8CAD4"/>
<path d="M130.85 145.558V148.515L129.01 146.675V143.652L130.85 145.558Z" fill="#DFE6F0"/>
<path d="M148.396 143.652V146.675L146.556 148.581V145.558L148.396 143.652Z" fill="#DFE6F0"/>
<path d="M145.045 147.604V150.562C145.045 149.642 144.454 148.722 143.205 147.999C140.708 146.553 136.699 146.553 134.202 147.999C132.953 148.722 132.296 149.642 132.296 150.627V147.67C132.296 146.75 132.888 145.764 134.202 145.041C136.699 143.596 140.708 143.596 143.205 145.041C144.454 145.764 145.045 146.684 145.045 147.604Z" fill="#DFE6F0"/>
<path d="M130.587 149.377V152.4L126.973 151.808V148.785L130.587 149.377Z" fill="#DFE6F0"/>
<path d="M150.367 148.785V151.808L146.752 152.4V149.377L150.367 148.785Z" fill="#DFE6F0"/>
<path d="M130.783 149.704V152.661C130.718 152.529 130.652 152.464 130.586 152.332V149.375C130.652 149.506 130.718 149.572 130.783 149.704Z" fill="#DFE6F0"/>
<path d="M146.754 149.375V152.332C146.688 152.464 146.622 152.529 146.556 152.661V149.704C146.622 149.572 146.688 149.506 146.754 149.375Z" fill="#DFE6F0"/>
<path d="M135.582 152.331V155.288C135.384 155.222 135.253 155.222 135.056 155.156V152.199C135.253 152.265 135.45 152.265 135.582 152.331Z" fill="#DFE6F0"/>
<path d="M142.22 152.199V155.156C142.023 155.222 141.892 155.222 141.695 155.288V152.331C141.892 152.265 142.089 152.265 142.22 152.199Z" fill="#DFE6F0"/>
<path d="M135.123 152.199V155.156L131.837 156.208V153.251L135.123 152.199Z" fill="#DFE6F0"/>
<path d="M131.835 153.252V156.21L128.943 154.567V151.609L131.835 153.252Z" fill="#E9EDF4"/>
<path d="M145.504 153.251V156.208L142.218 155.156V152.199L145.504 153.251Z" fill="#DFE6F0"/>
<path d="M148.396 151.609V154.567L145.504 156.21V153.252L148.396 151.609Z" fill="#E9EDF4"/>
<path d="M136.634 154.431V157.388L135.648 155.285L135.582 152.328L136.634 154.431Z" fill="#DFE6F0"/>
<path d="M141.694 152.328V155.285L140.708 157.388L140.642 154.431L141.694 152.328Z" fill="#DFE6F0"/>
<path d="M140.643 154.434L140.709 157.391H136.634V154.434H140.643Z" fill="#E9EDF4"/>
<path d="M148.397 143.654L146.556 145.56C146.622 145.691 146.688 145.757 146.754 145.888L150.368 146.48V148.846L146.754 149.437C146.688 149.568 146.622 149.634 146.556 149.766L148.397 151.671L145.505 153.314L142.219 152.263C142.022 152.329 141.891 152.329 141.693 152.394L140.642 154.497H136.568L135.582 152.329C135.385 152.263 135.253 152.263 135.056 152.197L131.77 153.249L128.944 151.606L130.784 149.7C130.719 149.634 130.653 149.503 130.587 149.371L126.973 148.78V146.414L130.587 145.823C130.653 145.691 130.719 145.625 130.784 145.494L129.01 143.654L131.902 142.011L135.187 143.062C135.385 142.997 135.516 142.997 135.713 142.931L136.765 140.828H140.839L141.825 142.931C142.022 142.997 142.153 142.997 142.351 143.062L145.636 142.011L148.397 143.654ZM143.139 150.226C145.636 148.78 145.636 146.48 143.139 145.034C140.642 143.588 136.633 143.588 134.136 145.034C131.639 146.48 131.639 148.78 134.136 150.226C136.633 151.671 140.708 151.671 143.139 150.226Z" fill="#F6F8FC"/>
<defs>
<radialGradient id="paint0_radial" cx="0" cy="0" r="1" gradientUnits="userSpaceOnUse" gradientTransform="translate(10.924 106.655) rotate(13.1858) scale(10.7032 6.76583)">
<stop stop-color="#93ACC9"/>
<stop offset="1" stop-color="white"/>
</radialGradient>
<radialGradient id="paint1_radial" cx="0" cy="0" r="1" gradientUnits="userSpaceOnUse" gradientTransform="translate(33.1956 97.3743) rotate(13.1858) scale(16.8345 10.6415)">
<stop stop-color="#93ACC9"/>
<stop offset="1" stop-color="white"/>
</radialGradient>
<radialGradient id="paint2_radial" cx="0" cy="0" r="1" gradientUnits="userSpaceOnUse" gradientTransform="translate(44.0754 90.3589) rotate(13.1858) scale(16.8345 10.6415)">
<stop stop-color="#93ACC9"/>
<stop offset="1" stop-color="white"/>
</radialGradient>
<radialGradient id="paint3_radial" cx="0" cy="0" r="1" gradientUnits="userSpaceOnUse" gradientTransform="translate(55.2471 84.0779) rotate(13.1858) scale(16.8345 10.6415)">
<stop stop-color="#93ACC9"/>
<stop offset="1" stop-color="white"/>
</radialGradient>
<radialGradient id="paint4_radial" cx="0" cy="0" r="1" gradientUnits="userSpaceOnUse" gradientTransform="translate(67.3862 76.7271) rotate(13.1858) scale(16.8341 10.6413)">
<stop stop-color="#93ACC9"/>
<stop offset="1" stop-color="white"/>
</radialGradient>
<linearGradient id="paint5_linear" x1="55.9588" y1="36.0319" x2="90.8987" y2="59.4575" gradientUnits="userSpaceOnUse">
<stop stop-color="#EDEFF7"/>
<stop offset="1" stop-color="#CCD6FC"/>
</linearGradient>
<linearGradient id="paint6_linear" x1="43.4731" y1="61.5175" x2="65.7657" y2="86.6583" gradientUnits="userSpaceOnUse">
<stop stop-color="#EDEFF7"/>
<stop offset="1" stop-color="#CCD6FC"/>
</linearGradient>
<linearGradient id="paint7_linear" x1="31.774" y1="59.8778" x2="60.8039" y2="84.9279" gradientUnits="userSpaceOnUse">
<stop stop-color="#EDEFF7"/>
<stop offset="1" stop-color="#CCD6FC"/>
</linearGradient>
<linearGradient id="paint8_linear" x1="21.589" y1="82.6903" x2="35.4016" y2="105.246" gradientUnits="userSpaceOnUse">
<stop stop-color="#EDEFF7"/>
<stop offset="1" stop-color="#CCD6FC"/>
</linearGradient>
<radialGradient id="paint9_radial" cx="0" cy="0" r="1" gradientUnits="userSpaceOnUse" gradientTransform="translate(146.479 124.431) rotate(13.1858) scale(25.1319 15.8865)">
<stop stop-color="#93ACC9"/>
<stop offset="0.1579" stop-color="#9AB1CC"/>
<stop offset="0.382" stop-color="#ACBFD6"/>
<stop offset="0.6457" stop-color="#CBD7E5"/>
<stop offset="0.9373" stop-color="#F5F7FA"/>
<stop offset="1" stop-color="white"/>
</radialGradient>
<linearGradient id="paint10_linear" x1="125.564" y1="126.67" x2="160.798" y2="126.67" gradientUnits="userSpaceOnUse">
<stop stop-color="#F5F7FA"/>
<stop offset="1" stop-color="#C3CFE2"/>
</linearGradient>
<linearGradient id="paint11_linear" x1="134.523" y1="114.282" x2="151.822" y2="114.282" gradientUnits="userSpaceOnUse">
<stop stop-color="#93A6EC"/>
<stop offset="1" stop-color="#435EBE"/>
</linearGradient>
<linearGradient id="paint12_linear" x1="140.133" y1="96.0551" x2="146.229" y2="96.0551" gradientUnits="userSpaceOnUse">
<stop stop-color="#7C94E7"/>
<stop offset="1" stop-color="#435EBE"/>
</linearGradient>
<linearGradient id="paint13_linear" x1="127.744" y1="104.722" x2="158.601" y2="104.722" gradientUnits="userSpaceOnUse">
<stop stop-color="#F5F7FA"/>
<stop offset="0.2748" stop-color="#F0F4F9"/>
<stop offset="0.6019" stop-color="#E2EBF8"/>
<stop offset="0.9543" stop-color="#CADBF5"/>
<stop offset="1" stop-color="#C6D9F5"/>
</linearGradient>
<linearGradient id="paint14_linear" x1="125.564" y1="82.5489" x2="160.798" y2="82.5489" gradientUnits="userSpaceOnUse">
<stop stop-color="#F5F7FA"/>
<stop offset="1" stop-color="#C3CFE2"/>
</linearGradient>
<radialGradient id="paint15_radial" cx="0" cy="0" r="1" gradientUnits="userSpaceOnUse" gradientTransform="translate(99.1018 122.011) rotate(-149.999) scale(42.0763 11.4162)">
<stop stop-color="white"/>
<stop offset="0.0894" stop-color="#F8F8F8"/>
<stop offset="0.2165" stop-color="#E6E6E6"/>
<stop offset="0.3661" stop-color="#C7C7C7"/>
<stop offset="0.5329" stop-color="#9C9C9C"/>
<stop offset="0.7139" stop-color="#666666"/>
<stop offset="0.9039" stop-color="#242424"/>
<stop offset="1"/>
</radialGradient>
<radialGradient id="paint16_radial" cx="0" cy="0" r="1" gradientUnits="userSpaceOnUse" gradientTransform="translate(99.1018 122.011) rotate(-149.999) scale(42.0763 11.4162)">
<stop stop-color="#93ACC9"/>
<stop offset="0.1579" stop-color="#9AB1CC"/>
<stop offset="0.382" stop-color="#ACBFD6"/>
<stop offset="0.6457" stop-color="#CBD7E5"/>
<stop offset="0.9373" stop-color="#F5F7FA"/>
<stop offset="1" stop-color="white"/>
</radialGradient>
<linearGradient id="paint17_linear" x1="83.3901" y1="36.6098" x2="133.644" y2="118.488" gradientUnits="userSpaceOnUse">
<stop stop-color="#F5F7FA"/>
<stop offset="1" stop-color="#DFE6F0"/>
</linearGradient>
<linearGradient id="paint18_linear" x1="102.985" y1="89.5822" x2="89.531" y2="127.936" gradientUnits="userSpaceOnUse">
<stop stop-color="#8DB3C7"/>
<stop offset="1" stop-color="white"/>
</linearGradient>
<linearGradient id="paint19_linear" x1="16.7416" y1="112.778" x2="23.4448" y2="133.959" gradientUnits="userSpaceOnUse">
<stop stop-color="#617BD7"/>
<stop offset="1" stop-color="#435EBE"/>
</linearGradient>
<linearGradient id="paint20_linear" x1="87.1388" y1="89.7537" x2="87.8695" y2="90.9721" gradientUnits="userSpaceOnUse">
<stop stop-color="#E4EFE9"/>
<stop offset="0.1914" stop-color="#DDE8E7"/>
<stop offset="0.4774" stop-color="#C8D6E0"/>
<stop offset="0.8209" stop-color="#A7B7D5"/>
<stop offset="1" stop-color="#93A5CF"/>
</linearGradient>
<linearGradient id="paint21_linear" x1="22.1276" y1="115.734" x2="35.4913" y2="141.736" gradientUnits="userSpaceOnUse">
<stop stop-color="#617BD7"/>
<stop offset="1" stop-color="#435EBE"/>
</linearGradient>
<linearGradient id="paint22_linear" x1="74.3231" y1="94.8461" x2="77.2672" y2="99.9017" gradientUnits="userSpaceOnUse">
<stop stop-color="#F5F7FA"/>
<stop offset="1" stop-color="#DFE6F0"/>
</linearGradient>
<linearGradient id="paint23_linear" x1="59.3803" y1="140.9" x2="80.5011" y2="140.9" gradientUnits="userSpaceOnUse">
<stop stop-color="#F5F7FA"/>
<stop offset="1" stop-color="#C3CFE2"/>
</linearGradient>
</defs>
</svg>
