<svg width="40" height="40" viewBox="0 0 40 40" fill="none" xmlns="http://www.w3.org/2000/svg">
<g clip-path="url(#clip0)">
<path d="M9.81819 33.4553L6.1091 31.3462L17.9636 24.8008L19.1273 29.1644L9.81819 33.4553Z" fill="#3D56A6"/>
<path d="M9.81824 33.8207C9.74551 33.8207 9.67278 33.8207 9.67278 33.7479L5.96369 31.6388C5.89096 31.5661 5.81824 31.4934 5.81824 31.3479C5.81824 31.2025 5.89096 31.1298 5.96369 31.057L17.8182 24.5116C17.891 24.4388 18.0364 24.4388 18.1091 24.5116C18.1819 24.5843 18.2546 24.657 18.3273 24.7298L19.491 29.0934C19.5637 29.2388 19.491 29.3843 19.2728 29.457L9.96369 33.7479C9.96369 33.8207 9.89096 33.8207 9.81824 33.8207ZM6.76369 31.3479L9.81824 33.0934L18.691 28.9479L17.7455 25.3116L6.76369 31.3479Z" fill="#3D56A6"/>
<path d="M15.6364 36.8772C15.6364 36.8772 17.2364 37.7499 20.2909 39.7136C24 37.6772 38.9091 29.459 38.9091 29.459L30.1091 24.2227L15.6364 36.8772Z" fill="#3D56A6"/>
<path d="M20.291 40.0029C20.2182 40.0029 20.1455 40.0029 20.1455 39.9301C17.091 37.9665 15.5637 37.1665 15.491 37.1665C15.4182 37.0938 15.3455 37.0211 15.3455 36.8756C15.3455 36.8029 15.3455 36.6574 15.491 36.5847L29.9637 23.8574C30.1092 23.7847 30.2546 23.712 30.3273 23.8574L39.1273 29.0938C39.2001 29.1665 39.2728 29.2392 39.2728 29.3847C39.2728 29.5301 39.2001 29.6029 39.1273 29.6756C39.1273 29.6756 24.2182 37.8938 20.5092 39.9301C20.4364 40.0029 20.3637 40.0029 20.291 40.0029ZM16.2182 36.8029C16.8728 37.1665 18.2546 37.9665 20.291 39.2756C23.7819 37.312 35.6364 30.8392 38.1819 29.3847L30.1092 24.5847L16.2182 36.8029Z" fill="#3D56A6"/>
<path d="M15.6364 34.7656L22.5455 30.7656V32.8747L15.6364 36.8747V34.7656Z" fill="#3D56A6"/>
<path d="M15.6364 37.1658C15.5637 37.1658 15.491 37.1658 15.491 37.0931C15.4182 37.0204 15.3455 36.9477 15.3455 36.8022V34.6931C15.3455 34.5477 15.4182 34.4749 15.491 34.4022L22.4001 30.4022C22.4728 30.3295 22.6182 30.3295 22.7637 30.4022C22.8364 30.4749 22.9092 30.5477 22.9092 30.6931V32.8022C22.9092 32.9477 22.8364 33.0204 22.7637 33.0931L15.8546 37.0931C15.7819 37.1658 15.7092 37.1658 15.6364 37.1658ZM16.0001 34.984V36.2931L22.2546 32.6567V31.3477L16.0001 34.984Z" fill="#3D56A6"/>
<path d="M19.7091 21.9641C19.5637 21.8914 19.3455 21.746 19.2 21.6005C19.1273 21.5278 19.1273 21.5278 19.0546 21.455C18.9091 21.3823 18.8364 21.3096 18.6909 21.1641C18.6182 21.0914 18.5455 21.0914 18.4728 21.0187C18.4 20.946 18.2546 20.8732 18.1818 20.7278C18.1091 20.655 18.0364 20.5823 17.9637 20.5096C17.8909 20.4369 17.8182 20.2914 17.6728 20.2187C17.6 20.146 17.5273 20.0732 17.5273 20.0005C17.3818 19.855 17.2364 19.7096 17.1637 19.4914L17.0909 19.4187C16.9455 19.2005 16.8 18.9823 16.6546 18.7641C16.6546 18.6914 16.5818 18.6187 16.5818 18.6187C16.5091 18.4732 16.3637 18.255 16.2909 18.1096C16.2182 18.0369 16.2182 17.9641 16.1455 17.8914C16.0728 17.6732 15.9273 17.5278 15.8546 17.3096C15.8546 17.3096 15.8546 17.2369 15.7818 17.2369C15.6364 16.946 15.5637 16.7278 15.4909 16.4369C15.4909 16.3641 15.4182 16.2914 15.4182 16.2187C15.3455 16.0005 15.2728 15.7096 15.2 15.4914C15.2 15.4914 15.2 15.4914 15.2 15.4187C15.1273 15.1278 15.1273 14.9096 15.0546 14.6187C15.0546 14.546 15.0546 14.4732 15.0546 14.4005C15.0546 14.1096 14.9818 13.8914 14.9818 13.6732C14.9818 12.2187 15.4909 11.2005 16.3637 10.6914L9.45457 14.9096C8.58184 15.4187 8.07275 16.4369 8.07275 17.8914C8.07275 18.1096 8.07275 18.4005 8.14548 18.6187C8.14548 18.6914 8.14548 18.7641 8.14548 18.8369C8.14548 19.1278 8.21821 19.346 8.29094 19.6369C8.29094 19.6369 8.29094 19.6369 8.29094 19.7096C8.36366 19.9278 8.43639 20.2187 8.50912 20.4369C8.50912 20.5096 8.58184 20.5823 8.58184 20.655C8.65457 20.946 8.80003 21.1641 8.87275 21.455C8.87275 21.455 8.87275 21.5278 8.94548 21.5278C9.01821 21.746 9.16366 21.8914 9.23639 22.1096C9.23639 22.1823 9.30912 22.255 9.38184 22.3278C9.45457 22.4732 9.60003 22.6914 9.67275 22.8369C9.67275 22.9096 9.74548 22.9823 9.74548 22.9823C9.89094 23.2005 10.0364 23.4187 10.1818 23.6369L10.2546 23.7096C10.4 23.855 10.5455 24.0005 10.6182 24.2187L10.6909 24.2914L10.7637 24.3641C10.8364 24.4369 10.9091 24.5823 11.0546 24.655C11.1273 24.7278 11.2 24.8005 11.2728 24.8732C11.3455 24.946 11.4909 25.0187 11.5637 25.1641C11.6364 25.2369 11.7091 25.3096 11.7818 25.3096C11.9273 25.3823 12 25.455 12.1455 25.6005C12.2182 25.6732 12.2182 25.6732 12.2909 25.746C12.4364 25.8914 12.6546 25.9641 12.8 26.1096C14.1091 26.8369 15.2728 26.9096 16.1455 26.4005L23.0546 22.4005C22.1818 22.7641 20.9455 22.6914 19.7091 21.9641Z" fill="#E8EDFC"/>
<path d="M14.8364 26.9086C14.1091 26.9086 13.3819 26.6904 12.5819 26.2541C12.3637 26.1814 12.2182 26.0359 12.0728 25.8904L11.9273 25.745C11.7819 25.6723 11.7091 25.5995 11.5637 25.4541L11.4182 25.3086C11.2728 25.1632 11.2 25.0904 11.0546 25.0177C10.9819 24.945 10.9091 24.8723 10.8364 24.7995C10.7637 24.7268 10.6182 24.5814 10.5455 24.5086L10.4728 24.4359L10.4 24.3632C10.2546 24.145 10.1091 23.9995 9.96368 23.8541L9.89095 23.7814C9.7455 23.5632 9.60005 23.345 9.45459 23.1268L9.38186 22.9814C9.23641 22.7632 9.16368 22.6177 9.01823 22.3995L8.87277 22.1814C8.80005 21.9632 8.65459 21.745 8.58186 21.5995L8.50914 21.5268C8.36368 21.2359 8.29095 21.0177 8.21823 20.7268L8.1455 20.5814C8.07277 20.2904 8.00005 20.0723 7.92732 19.7814C7.85459 19.4904 7.78186 19.1995 7.78186 18.9086V18.6904C7.78186 18.3995 7.70914 18.1814 7.70914 17.8904C7.70914 16.3632 8.29095 15.1995 9.23641 14.6177L16.1455 10.6177C16.291 10.545 16.5091 10.545 16.5819 10.7632C16.6546 10.9086 16.6546 11.1268 16.4364 11.1995C15.6364 11.6359 15.2728 12.5814 15.2728 13.8904C15.2728 14.1086 15.2728 14.3995 15.3455 14.6177V14.7632C15.3455 14.9814 15.4182 15.2723 15.491 15.4904C15.5637 15.7814 15.6364 15.9995 15.7091 16.2177L15.7819 16.4359C15.8546 16.6541 16 16.945 16.0728 17.1632L15.8546 17.4541L16.1455 17.3086C16.2182 17.5268 16.291 17.6723 16.4364 17.8904L16.5091 18.0359C16.5819 18.2541 16.7273 18.3995 16.8 18.545L16.8728 18.6904C17.0182 18.9086 17.1637 19.1268 17.3091 19.2723L17.3819 19.345C17.5273 19.4904 17.6 19.6359 17.7455 19.7814L17.891 19.9995C17.9637 20.0723 18.0364 20.2177 18.1819 20.2904C18.2546 20.3632 18.3273 20.4359 18.3273 20.4359C18.4 20.5086 18.5455 20.5814 18.6182 20.7268L18.7637 20.8723C18.8364 20.945 18.9819 21.0177 19.0546 21.0904L19.2 21.2359C19.3455 21.3814 19.491 21.4541 19.7091 21.5268C20.8728 22.1814 21.891 22.3268 22.691 21.8177C22.8364 21.745 23.0546 21.745 23.1273 21.9632C23.2 22.1086 23.2 22.3268 22.9819 22.3995L16.0728 26.3995C15.8546 26.8359 15.3455 26.9086 14.8364 26.9086ZM9.30914 21.3086C9.38186 21.5268 9.45459 21.6723 9.60005 21.8904L9.67277 22.1086C9.7455 22.2541 9.89095 22.3995 9.96368 22.6177L10.0364 22.7632C10.1819 22.9814 10.3273 23.1995 10.4728 23.345L10.5455 23.4177C10.691 23.5632 10.7637 23.7086 10.9091 23.8541L10.9819 23.9268L11.0546 23.9995L11.1273 24.0723C11.2 24.145 11.2728 24.2904 11.4182 24.3632C11.491 24.4359 11.5637 24.5086 11.5637 24.5086C11.6364 24.5814 11.7819 24.6541 11.8546 24.7995L12 24.945C12.0728 25.0177 12.2182 25.0904 12.291 25.1632L12.4364 25.3086C12.5819 25.4541 12.7273 25.5268 12.9455 25.5995C14.1091 26.2541 15.1273 26.3995 15.9273 25.8904L21.3091 22.7632C20.7273 22.6904 20.1455 22.4723 19.5637 22.1086C19.4182 22.0359 19.2 21.8904 19.0546 21.745C18.9091 21.8904 18.9091 21.8177 18.8364 21.8177L18.7637 21.745C18.6182 21.6723 18.5455 21.5995 18.4 21.4541C18.3273 21.3814 18.3273 21.3814 18.2546 21.3086C18.1091 21.1632 18.0364 21.0904 17.891 21.0177C17.8182 20.945 17.7455 20.8723 17.6728 20.7995C17.6 20.7268 17.4546 20.5814 17.3819 20.5086L17.3091 20.3632C17.1637 20.2177 17.0182 19.9995 16.8728 19.8541L16.8 19.7814C16.6546 19.5632 16.5091 19.345 16.3637 19.1268L16.291 18.9086C16.2182 18.7632 16.0728 18.545 16 18.3995L15.8546 18.1814C15.7819 17.9632 15.6364 17.745 15.5637 17.5995L15.8546 17.3814L15.5637 17.5268C15.4182 17.2359 15.3455 17.0177 15.2728 16.7268L15.2 16.5814C15.1273 16.2904 15.0546 15.9995 14.9819 15.7814C14.9091 15.4904 14.8364 15.1995 14.8364 14.9086V14.6904C14.8364 14.3995 14.7637 14.1814 14.7637 13.8904C14.7637 13.2359 14.8364 12.5814 15.0546 12.0723L9.67277 15.1995C8.87277 15.6359 8.50914 16.5814 8.50914 17.8904C8.50914 18.1086 8.50914 18.3995 8.58186 18.6177V18.7632C8.58186 18.9814 8.65459 19.2723 8.72732 19.4904C8.80005 19.7814 8.87277 19.9995 8.9455 20.2177L9.01823 20.4359C9.09095 20.6541 9.23641 20.945 9.30914 21.1632L9.01823 21.3814L9.30914 21.3086Z" fill="#3D56A6"/>
<path d="M3.27274 4.94773L10.1818 0.875L11.7818 2.83864L4.87274 6.83864L3.27274 4.94773Z" fill="white"/>
<path d="M4.87276 7.20286C4.80003 7.20286 4.65457 7.13014 4.58185 7.05741L3.05457 5.1665C2.98185 5.02105 2.90912 4.94832 2.98185 4.87559C2.98185 4.80286 3.05457 4.73014 3.1273 4.65741L10.0364 0.65741C10.1818 0.511956 10.3273 0.584683 10.4728 0.730137L12.0728 2.69377C12.1455 2.7665 12.1455 2.83923 12.1455 2.98468C12.1455 3.05741 12.0728 3.13014 12 3.20286L5.01821 7.13014C4.94548 7.20286 4.94548 7.20286 4.87276 7.20286ZM3.78185 5.02105L4.94548 6.47559L11.2728 2.7665L10.1091 1.31196L3.78185 5.02105Z" fill="#3D56A6"/>
<path d="M4.87271 6.83871L11.7818 2.83871L16.8 2.40234L9.89089 6.40234L4.87271 6.83871Z" fill="white"/>
<path d="M4.87273 7.2027C4.72728 7.2027 4.58182 7.12997 4.58182 6.98452C4.50909 6.83906 4.58182 6.69361 4.65455 6.54815L11.5636 2.54815C11.6364 2.54815 11.6364 2.47543 11.7091 2.47543L16.7273 2.03906C16.8727 2.03906 17.0182 2.11179 17.0909 2.25724C17.1636 2.4027 17.0909 2.54815 16.9455 2.62088L10.0364 6.62088C9.96364 6.62088 9.96364 6.69361 9.89091 6.69361L4.87273 7.2027ZM11.8545 3.2027L6.32728 6.4027L9.81819 6.11179L15.3455 2.91179L11.8545 3.2027Z" fill="#3D56A6"/>
<path d="M23.6364 30.2563L30.5454 26.1836L32.1454 28.1472L25.2364 32.1472L23.6364 30.2563Z" fill="#E8EDFC"/>
<path d="M25.2364 32.5097C25.1636 32.5097 25.0182 32.437 24.9455 32.3642L23.3455 30.4006C23.2727 30.3279 23.2727 30.2552 23.2727 30.1097C23.2727 30.037 23.3455 29.9642 23.4182 29.8915L30.3273 25.8915C30.4727 25.8188 30.6182 25.8188 30.7636 25.9642L32.3636 27.9279C32.4364 28.0006 32.4364 28.0733 32.4364 28.2188C32.4364 28.2915 32.3636 28.3642 32.2909 28.437L25.3818 32.437C25.3091 32.5097 25.2364 32.5097 25.2364 32.5097ZM24.1455 30.3279L25.3091 31.7824L31.6364 28.0733L30.4727 26.6188L24.1455 30.3279Z" fill="#3D56A6"/>
<path d="M25.2365 32.1445L32.1455 28.1445L29.1637 32.29L22.2546 36.29L25.2365 32.1445Z" fill="#E8EDFC"/>
<path d="M22.2546 36.5821C22.1818 36.5821 22.0364 36.5094 22.0364 36.4367C21.9636 36.2912 21.8909 36.1458 22.0364 36.0003L24.9455 31.8549C24.9455 31.7821 25.0182 31.7821 25.0182 31.7821L31.9273 27.7821C32.0727 27.7094 32.2182 27.7094 32.3636 27.8549C32.4364 28.0003 32.5091 28.1458 32.3636 28.2912L29.4546 32.4367C29.4546 32.5094 29.3818 32.5094 29.3818 32.5094L22.4727 36.5094C22.4 36.5821 22.3273 36.5821 22.2546 36.5821ZM25.4546 32.4367L23.4909 35.2003L29.0182 32.0003L30.9818 29.2367L25.4546 32.4367Z" fill="#3D56A6"/>
<path d="M23.6364 23.5649L30.5455 19.4922V26.1831L23.6364 30.2558V23.5649Z" fill="#E8EDFC"/>
<path d="M23.6364 30.5484C23.5637 30.5484 23.491 30.5484 23.491 30.4757C23.4182 30.403 23.3455 30.3303 23.3455 30.1848V23.4939C23.3455 23.3484 23.4182 23.2757 23.491 23.203L30.4001 19.203C30.4728 19.1303 30.6182 19.1303 30.7637 19.203C30.8364 19.2757 30.9092 19.3484 30.9092 19.4939V26.1848C30.9092 26.3303 30.8364 26.403 30.7637 26.4757L23.7819 30.5484C23.7819 30.5484 23.7092 30.5484 23.6364 30.5484ZM24.0001 23.7121V29.603L30.2546 25.9666V20.0757L24.0001 23.7121Z" fill="#3D56A6"/>
<path d="M15.709 7.71094L22.6181 3.71094V5.7473L15.709 9.82003V7.71094Z" fill="white"/>
<path d="M15.709 10.1112C15.6363 10.1112 15.5636 10.1112 15.5636 10.0384C15.4908 9.9657 15.4181 9.89297 15.4181 9.74751V7.63842C15.4181 7.49297 15.4908 7.42024 15.5636 7.34751L22.4727 3.34751C22.5454 3.27479 22.6908 3.27479 22.8363 3.34751C22.909 3.42024 22.9818 3.49297 22.9818 3.63842V5.74751C22.9818 5.89297 22.909 5.9657 22.8363 6.03842L15.9272 10.0384C15.8545 10.1112 15.7818 10.1112 15.709 10.1112ZM16.0727 7.92933V9.23842L22.3272 5.60206V4.29297L16.0727 7.92933Z" fill="#3D56A6"/>
<path d="M9.89084 4.36328L16.7999 0.363281L22.6181 3.70874L15.709 7.70874L9.89084 4.36328Z" fill="white"/>
<path d="M15.7091 8.07408C15.6363 8.07408 15.5636 8.07408 15.5636 8.00135L9.74543 4.6559C9.6727 4.58317 9.59998 4.51044 9.59998 4.36499C9.59998 4.21953 9.6727 4.1468 9.74543 4.07408L16.6545 0.0740767C16.7272 0.00134943 16.8727 0.00134943 17.0182 0.0740767L22.8363 3.41953C22.9091 3.49226 22.9818 3.56499 22.9818 3.71044C22.9818 3.85589 22.9091 3.92862 22.8363 4.00135L15.9272 8.00135C15.8545 8.00135 15.7818 8.07408 15.7091 8.07408ZM10.6182 4.36499L15.7818 7.3468L22.0363 3.71044L16.8 0.728622L10.6182 4.36499Z" fill="#3D56A6"/>
<path d="M15.709 9.81882L22.6181 5.74609L27.709 12.0734L20.7999 16.0734L15.709 9.81882Z" fill="white"/>
<path d="M20.7999 16.3631C20.7272 16.3631 20.5818 16.2904 20.509 16.2177L15.4908 9.96311C15.4181 9.89038 15.4181 9.81766 15.4181 9.6722C15.4181 9.59948 15.4908 9.52675 15.5636 9.45402L22.4727 5.45402C22.6181 5.38129 22.7636 5.38129 22.909 5.52675L27.9272 11.7813C27.9999 11.854 27.9999 11.9267 27.9999 12.0722C27.9999 12.1449 27.9272 12.2177 27.8545 12.2904L20.9454 16.2904C20.8727 16.3631 20.7999 16.3631 20.7999 16.3631ZM16.2181 9.89038L20.7999 15.6358L27.1272 11.9995L22.5454 6.18129L16.2181 9.89038Z" fill="#3D56A6"/>
<path d="M20.8 16.0751L27.7091 12.0751L29.2364 11.9297L22.3273 15.9297L20.8 16.0751Z" fill="white"/>
<path d="M20.8001 16.3664C20.6546 16.3664 20.5092 16.2937 20.5092 16.1482C20.4364 16.0028 20.5092 15.8573 20.6546 15.7846L27.5637 11.7846C27.6364 11.7846 27.6364 11.7119 27.7091 11.7119L29.3091 11.5664C29.4546 11.5664 29.6001 11.6391 29.6728 11.7846C29.7455 11.93 29.6728 12.0755 29.5273 12.1482L22.5455 16.2209C22.4728 16.2209 22.4728 16.2937 22.4001 16.2937L20.8001 16.3664Z" fill="#3D56A6"/>
<path d="M22.3274 15.9258L29.2365 11.9258L32.1456 19.344L25.2365 23.4167L22.3274 15.9258Z" fill="#E8EDFC"/>
<path d="M25.2365 23.7093C25.1638 23.7093 25.1638 23.7093 25.091 23.7093C25.0183 23.7093 24.9456 23.6366 24.8729 23.4911L21.9638 16.0002C21.891 15.8548 21.9638 15.6366 22.1092 15.5638L29.091 11.6366C29.1638 11.5638 29.3092 11.5638 29.382 11.6366C29.4547 11.6366 29.5274 11.7093 29.6001 11.8548L32.5092 19.3457C32.582 19.4911 32.5092 19.7093 32.3638 19.782L25.4547 23.782C25.382 23.7093 25.3092 23.7093 25.2365 23.7093ZM22.7638 16.0729L25.382 22.9093L31.7092 19.2729L29.091 12.3638L22.7638 16.0729Z" fill="#3D56A6"/>
<path d="M23.6363 23.5633L25.2363 23.4178L22.3273 15.9269L20.7273 16.0724L15.7091 9.81783V7.70874L9.89089 4.36328V6.47237L4.87271 6.83601L3.27271 4.9451L0.363617 9.09055L1.96362 11.0542V17.7451L0.363617 17.8906L3.27271 25.3815L4.87271 25.236L9.89089 31.4906V33.5996L15.7091 36.9451V34.836L20.8 34.3996L22.4 36.3633L25.3091 32.2178L23.7091 30.2542L23.6363 23.5633ZM12.8 25.9633C10.2545 24.5087 8.14543 20.8724 8.14543 17.8906C8.14543 14.9087 10.2545 13.7451 12.8 15.1996C15.3454 16.7269 17.4545 20.3633 17.4545 23.2724C17.4545 26.1815 15.3454 27.4178 12.8 25.9633Z" fill="white"/>
<path d="M15.6364 37.165C15.5637 37.165 15.491 37.165 15.491 37.0923L9.67277 33.7468C9.60004 33.6741 9.52731 33.6013 9.52731 33.4559V31.4923L4.65459 25.4559L3.27277 25.6014C3.12731 25.6014 2.98186 25.5286 2.90913 25.3832L4.10639e-05 17.965C-0.0726862 17.8923 4.10639e-05 17.7468 4.10639e-05 17.6741C0.0727683 17.5286 0.218223 17.4559 0.29095 17.4559L1.52731 17.3104V11.0559L4.10639e-05 9.23771C-0.0726862 9.09226 -0.0726862 8.9468 4.10639e-05 8.80135L2.90913 4.6559C2.98186 4.58317 3.05459 4.51044 3.20004 4.51044C3.27277 4.51044 3.41822 4.58317 3.49095 4.6559L4.9455 6.47408L9.52731 6.11044V4.36499C9.52731 4.21953 9.60004 4.1468 9.67277 4.07408C9.7455 4.00135 9.89095 4.00135 10.0364 4.07408L15.8546 7.41953C15.9273 7.49226 16 7.56499 16 7.71044V9.67408L20.8728 15.7104L22.2546 15.565C22.4 15.565 22.5455 15.6377 22.6182 15.7832L25.5273 23.2741C25.6 23.3468 25.5273 23.4923 25.5273 23.565C25.4546 23.6377 25.3819 23.7104 25.2364 23.7104L24 23.8559V30.1104L25.5273 32.0013C25.6 32.1468 25.6 32.2923 25.5273 32.4377L22.6182 36.5832C22.5455 36.6559 22.4728 36.7286 22.3273 36.7286C22.2546 36.7286 22.1091 36.6559 22.0364 36.5832L20.5819 34.765L16 35.0559V36.8013C16 36.9468 15.9273 37.0195 15.8546 37.0923C15.7819 37.165 15.7091 37.165 15.6364 37.165ZM10.1819 33.3104L15.3455 36.2923V34.765C15.3455 34.6195 15.491 34.4741 15.6364 34.4013L20.7273 33.965C20.8728 33.965 20.9455 34.0377 21.0182 34.1104L22.3273 35.7104L24.8728 32.1468L23.491 30.4013C23.4182 30.3286 23.4182 30.2559 23.4182 30.1832V23.4923C23.4182 23.3468 23.5637 23.2013 23.7091 23.1286L24.8 23.0559L22.1819 16.2195L20.8728 16.365C20.7273 16.365 20.6546 16.2923 20.5819 16.2195L15.5637 9.96499C15.491 9.89226 15.491 9.81953 15.491 9.7468V7.8559L10.3273 4.87408V6.40135C10.3273 6.5468 10.1819 6.69226 10.0364 6.76499L4.87277 7.20135C4.72731 7.20135 4.65459 7.12862 4.58186 7.05589L3.27277 5.4559L0.727314 9.01953L2.18186 10.765C2.25459 10.8377 2.25459 10.9104 2.25459 10.9832V17.6741C2.25459 17.8195 2.10913 17.965 1.96368 18.0377L0.872768 18.1104L3.49095 24.9468L4.80004 24.8013C4.9455 24.8013 5.01822 24.8741 5.09095 24.9468L10.1091 31.2014C10.1819 31.2741 10.1819 31.3468 10.1819 31.4195V33.3104ZM14.8364 26.9104C14.1091 26.9104 13.3819 26.6923 12.5819 26.2559C9.89095 24.7286 7.78186 20.9468 7.78186 17.8923C7.78186 16.365 8.36368 15.2014 9.30913 14.6195C10.3273 14.0377 11.5637 14.1832 12.9455 14.9832C15.6364 16.5104 17.7455 20.2923 17.7455 23.3468C17.7455 24.8741 17.1637 26.0377 16.2182 26.6195C15.8546 26.8377 15.3455 26.9104 14.8364 26.9104ZM12.9455 25.6741C14.1091 26.3286 15.1273 26.4741 15.9273 26.0377C16.7273 25.6013 17.091 24.6559 17.091 23.3468C17.091 20.5104 15.1273 17.0195 12.5819 15.565C11.4182 14.9104 10.4 14.765 9.60004 15.2014C8.80004 15.6377 8.43641 16.5832 8.43641 17.8923C8.43641 20.7286 10.4728 24.2195 12.9455 25.6741Z" fill="#3D56A6"/>
</g>
<defs>
<clipPath id="clip0">
<rect width="39.2727" height="40" fill="white"/>
</clipPath>
</defs>
</svg>
