<svg width="23" height="21" viewBox="0 0 23 21" fill="none" xmlns="http://www.w3.org/2000/svg">
<path d="M10.8585 6.6084L12.8116 7.15527C12.9679 7.19434 13.046 7.31152 13.046 7.46777C13.046 7.66309 12.8898 7.81934 12.7335 7.81934H11.4444C11.2882 7.81934 11.171 7.78027 11.0538 7.70215C10.8585 7.62402 10.6241 7.66309 10.5069 7.78027L9.80382 8.4834C9.60851 8.67871 9.60851 9.03027 9.88194 9.18652C10.2335 9.45996 10.6632 9.57715 11.0929 9.65527V10.3193C11.0929 10.6709 11.4054 10.9443 11.7179 10.9443H12.3429C12.6944 10.9443 12.9679 10.6709 12.9679 10.3193V9.65527C14.1788 9.49902 15.0773 8.44434 14.921 7.19434C14.8038 6.2959 14.1007 5.59277 13.2413 5.31934L11.2882 4.77246C11.1319 4.7334 11.0538 4.57715 11.0538 4.45996C11.0538 4.26465 11.2101 4.1084 11.3663 4.1084H12.6554C12.8116 4.1084 12.9288 4.14746 13.046 4.22559C13.2413 4.30371 13.4757 4.26465 13.5929 4.14746L14.296 3.44434C14.4913 3.24902 14.4913 2.89746 14.2179 2.74121C13.8663 2.46777 13.4366 2.35059 13.0069 2.27246V1.56934C13.0069 1.25684 12.6944 0.944336 12.3819 0.944336H11.7569C11.4054 0.944336 11.1319 1.25684 11.1319 1.56934V2.27246C9.92101 2.42871 9.02257 3.4834 9.17882 4.7334C9.29601 5.63184 9.99913 6.33496 10.8585 6.6084ZM21.6398 13.7959C21.2101 13.3662 20.546 13.4053 20.0773 13.7959L16.6788 16.6475C16.2491 17.0381 15.7413 17.1943 15.1944 17.1943H10.8194C10.5069 17.1943 10.2335 16.9209 10.2335 16.5693C10.2335 16.2568 10.5069 15.9443 10.8194 15.9443H13.7101C14.296 15.9443 14.8429 15.5537 14.9601 14.9287C15.0773 14.1475 14.4913 13.4443 13.7882 13.4443H7.88976C6.87413 13.4443 5.93663 13.835 5.15538 14.499L3.43663 15.9443H1.40538C1.05382 15.9443 0.819443 16.2568 0.819443 16.5693V20.3193C0.819443 20.6709 1.05382 20.9443 1.40538 20.9443H14.5694C15.0773 20.9443 15.6241 20.7881 16.0148 20.3975L21.6007 15.6709C22.1866 15.2021 22.2257 14.3037 21.6398 13.7959Z" fill="url(#paint0_linear_5077_80757)"/>
<defs>
<linearGradient id="paint0_linear_5077_80757" x1="11.4444" y1="0.444336" x2="11.4444" y2="20.4443" gradientUnits="userSpaceOnUse">
<stop stop-color="#F1BD36"/>
<stop offset="1" stop-color="#F19536"/>
</linearGradient>
</defs>
</svg>
