<svg width="16" height="22" viewBox="0 0 16 22" fill="none" xmlns="http://www.w3.org/2000/svg">
<path d="M14.9288 1.10059L13.4445 2.81934L11.296 1.10059C11.2179 1.02246 11.0226 0.944336 10.9445 0.944336C10.8273 0.944336 10.632 1.02246 10.5538 1.10059L8.44446 2.81934L6.29602 1.10059C6.2179 1.02246 6.02258 0.944336 5.94446 0.944336C5.82727 0.944336 5.63196 1.02246 5.55383 1.10059L3.44446 2.81934L1.92102 1.10059C1.5304 0.788086 0.944458 1.06152 0.944458 1.56934V20.3193C0.944458 20.8662 1.5304 21.1396 1.92102 20.8271L3.44446 19.0693L5.55383 20.8271C5.63196 20.9053 5.82727 20.9834 5.94446 20.9834C6.02258 20.9834 6.2179 20.9053 6.29602 20.8271L8.44446 19.0693L10.5538 20.8271C10.632 20.9053 10.8273 20.9834 10.9445 20.9834C11.0226 20.9834 11.2179 20.9053 11.296 20.8271L13.4445 19.0693L14.9288 20.8271C15.3195 21.1396 15.9445 20.8662 15.9445 20.3193V1.56934C15.9445 1.06152 15.3585 0.788086 14.9288 1.10059ZM13.4445 15.0068C13.4445 15.2021 13.2882 15.3193 13.132 15.3193H3.75696C3.56165 15.3193 3.44446 15.2021 3.44446 15.0068V14.3818C3.44446 14.2256 3.56165 14.0693 3.75696 14.0693H13.132C13.2882 14.0693 13.4445 14.2256 13.4445 14.3818V15.0068ZM13.4445 11.2568C13.4445 11.4521 13.2882 11.5693 13.132 11.5693H3.75696C3.56165 11.5693 3.44446 11.4521 3.44446 11.2568V10.6318C3.44446 10.4756 3.56165 10.3193 3.75696 10.3193H13.132C13.2882 10.3193 13.4445 10.4756 13.4445 10.6318V11.2568ZM13.4445 7.50684C13.4445 7.70215 13.2882 7.81934 13.132 7.81934H3.75696C3.56165 7.81934 3.44446 7.70215 3.44446 7.50684V6.88184C3.44446 6.72559 3.56165 6.56934 3.75696 6.56934H13.132C13.2882 6.56934 13.4445 6.72559 13.4445 6.88184V7.50684Z" fill="url(#paint0_linear_5077_80765)"/>
<defs>
<linearGradient id="paint0_linear_5077_80765" x1="8.44446" y1="0.444336" x2="8.44446" y2="20.4443" gradientUnits="userSpaceOnUse">
<stop stop-color="#ACDB47"/>
<stop offset="1" stop-color="#89BA21"/>
</linearGradient>
</defs>
</svg>
