<svg width="19" height="18" viewBox="0 0 19 18" fill="none" xmlns="http://www.w3.org/2000/svg">
<path d="M4.60071 13.1641C4.99133 13.5547 5.69446 13.2812 5.69446 12.6953V5.19531C5.69446 4.64844 4.99133 4.375 4.60071 4.76562L0.850708 8.51562C0.772583 8.63281 0.694458 8.82812 0.694458 8.94531C0.694458 9.10156 0.772583 9.29688 0.850708 9.41406L4.60071 13.1641ZM17.5695 15.1953H1.31946C0.967896 15.1953 0.694458 15.5078 0.694458 15.8203V17.0703C0.694458 17.4219 0.967896 17.6953 1.31946 17.6953H17.5695C17.882 17.6953 18.1945 17.4219 18.1945 17.0703V15.8203C18.1945 15.5078 17.882 15.1953 17.5695 15.1953ZM17.6866 10.1953H8.66321C8.38977 10.1953 8.19446 10.4297 8.19446 10.7031V12.2266C8.19446 12.5 8.38977 12.6953 8.66321 12.6953H17.6866C17.9601 12.6953 18.1945 12.5 18.1945 12.2266V10.7031C18.1945 10.4297 17.9601 10.1953 17.6866 10.1953ZM17.6866 5.19531H8.66321C8.38977 5.19531 8.19446 5.42969 8.19446 5.70312V7.22656C8.19446 7.5 8.38977 7.69531 8.66321 7.69531H17.6866C17.9601 7.69531 18.1945 7.5 18.1945 7.22656V5.70312C18.1945 5.42969 17.9601 5.19531 17.6866 5.19531ZM17.5695 0.195312H1.31946C0.967896 0.195312 0.694458 0.507812 0.694458 0.820312V2.07031C0.694458 2.42188 0.967896 2.69531 1.31946 2.69531H17.5695C17.882 2.69531 18.1945 2.42188 18.1945 2.07031V0.820312C18.1945 0.507812 17.882 0.195312 17.5695 0.195312Z" fill="url(#paint0_linear)"/>
<defs>
<linearGradient id="paint0_linear" x1="9.44446" y1="-1.55469" x2="9.44446" y2="18.4453" gradientUnits="userSpaceOnUse">
<stop stop-color="#F97F7F"/>
<stop offset="1" stop-color="#DB3E3E"/>
</linearGradient>
</defs>
</svg>
