<svg width="21" height="18" viewBox="0 0 21 18" fill="none" xmlns="http://www.w3.org/2000/svg">
<path d="M18.4523 3.94531H3.56946C3.2179 3.94531 2.94446 3.67188 2.94446 3.32031C2.94446 3.00781 3.2179 2.69531 3.56946 2.69531H18.5695C18.882 2.69531 19.1945 2.42188 19.1945 2.07031C19.1945 1.05469 18.3351 0.195312 17.3195 0.195312H2.94446C1.53821 0.195312 0.444458 1.32812 0.444458 2.69531V15.1953C0.444458 16.6016 1.53821 17.6953 2.94446 17.6953H18.4523C19.546 17.6953 20.4445 16.875 20.4445 15.8203V5.82031C20.4445 4.80469 19.546 3.94531 18.4523 3.94531ZM16.6945 12.0703C15.9913 12.0703 15.4445 11.5234 15.4445 10.8203C15.4445 10.1562 15.9913 9.57031 16.6945 9.57031C17.3585 9.57031 17.9445 10.1562 17.9445 10.8203C17.9445 11.5234 17.3585 12.0703 16.6945 12.0703Z" fill="#68BF8D"/>
</svg>
