<svg width="42" height="34" viewBox="0 0 42 34" fill="none" xmlns="http://www.w3.org/2000/svg">
<path d="M21.0079 33.8508C20.7166 33.8529 20.4318 33.778 20.1791 33.6345C18.0162 32.3817 1.98741 22.334 1.38352 22.0278C0.923104 21.8136 0.608311 21.3725 0.554774 20.8671V6.772C0.541925 6.2452 0.803184 5.75053 1.24218 5.46143L1.35782 5.39504C2.90824 4.43353 8.09914 1.26631 8.91932 0.810177C9.10777 0.698821 9.32192 0.63886 9.54034 0.636719C9.74592 0.63886 9.94722 0.690255 10.1292 0.786621C10.1292 0.786621 17.3931 5.52139 18.5024 5.94326C19.2819 6.30088 20.132 6.48076 20.9907 6.46577C21.963 6.48505 22.9223 6.25163 23.7768 5.78693C24.8625 5.21516 31.803 0.812319 31.8779 0.812319C32.0535 0.707387 32.2548 0.651709 32.4583 0.65385C32.6767 0.65385 32.893 0.715953 33.0793 0.827309C34.0237 1.34983 40.4588 5.28797 40.7329 5.46143C41.1847 5.73339 41.4588 6.22593 41.4545 6.75487V20.85C41.4031 21.3575 41.0884 21.7986 40.6258 22.0106C40.0198 22.3426 24.0445 32.3903 21.8388 33.6174C21.5861 33.7673 21.3012 33.8486 21.0079 33.8508Z" fill="url(#paint0_linear)"/>
<path d="M20.9263 33.8502H21.0098C21.301 33.8523 21.5858 33.7774 21.8385 33.6339C24.0036 32.3811 40.0217 22.3334 40.6256 22.0272C41.0881 21.8152 41.4029 21.374 41.4543 20.8665V6.77139C41.4564 6.53369 41.4029 6.29599 41.2958 6.08398L20.9241 17.2688V33.8502" fill="url(#paint1_linear)"/>
<path d="M20.8549 33.652H20.7723C20.4842 33.6541 20.2024 33.58 19.9524 33.438C17.8104 32.1986 1.96297 22.2579 1.36551 21.955C0.907887 21.7452 0.596445 21.3088 0.545597 20.8067V6.86173C0.543478 6.62656 0.596443 6.39139 0.702375 6.18164L20.8571 17.2473V33.652" fill="url(#paint2_linear)"/>
<defs>
<linearGradient id="paint0_linear" x1="0.656219" y1="17.3572" x2="80.2814" y2="16.7404" gradientUnits="userSpaceOnUse">
<stop offset="1e-07" stop-color="#FFB900"/>
<stop offset="0.3376" stop-color="#F38000"/>
<stop offset="0.5673" stop-color="#F83C72"/>
<stop offset="0.78" stop-color="#FC1CBE"/>
<stop offset="0.93" stop-color="#FE08ED"/>
<stop offset="1" stop-color="#FF00FF"/>
</linearGradient>
<linearGradient id="paint1_linear" x1="12.0448" y1="30.621" x2="93.226" y2="-14.3282" gradientUnits="userSpaceOnUse">
<stop stop-color="#EE0A3F"/>
<stop offset="1" stop-color="#EE0A3F" stop-opacity="0"/>
</linearGradient>
<linearGradient id="paint2_linear" x1="16.3772" y1="23.873" x2="55.1887" y2="-7.39192" gradientUnits="userSpaceOnUse">
<stop stop-color="#ED6600"/>
<stop offset="1" stop-color="#F98200"/>
</linearGradient>
</defs>
</svg>
