<svg width="37" height="42" viewBox="0 0 37 42" fill="none" xmlns="http://www.w3.org/2000/svg">
<g clip-path="url(#clip0)">
<path d="M1.78356 11.9617H10.0577C10.3104 9.15968 11.0906 6.64338 12.2114 4.69846C13.6948 2.12722 15.8045 0.544922 18.1889 0.544922C20.5734 0.544922 22.6721 2.13821 24.1665 4.69846C25.2873 6.63239 26.0675 9.15968 26.3202 11.9617H34.5834C35.5613 11.9617 36.4404 12.7638 36.3634 13.7418L34.7042 36.8939C34.4954 39.7948 32.6714 41.454 30.0233 41.454H6.35465C3.40981 41.454 1.84949 39.3992 1.67367 36.8939L0.00346644 13.7527C-0.0624628 12.7748 0.805606 11.9617 1.78356 11.9617ZM12.1235 11.9617H24.2325C23.9907 9.53327 23.3204 7.37959 22.3645 5.73136C21.2656 3.80842 19.7713 2.6107 18.1889 2.6107C16.5957 2.6107 15.1123 3.80842 13.9915 5.74234C13.0355 7.37959 12.3762 9.54426 12.1235 11.9617Z" fill="#EA501F"/>
<path d="M12.1785 33.3339C11.7939 33.0702 11.695 32.5537 11.9587 32.1691C12.2224 31.7846 12.7389 31.6857 13.1234 31.9494C13.3652 32.1142 13.6179 32.279 13.8926 32.4438C15.8265 33.6196 17.6066 34.202 19.09 34.202C20.4306 34.202 21.5184 33.6965 22.2107 32.6746C22.2546 32.5977 22.2986 32.5537 22.3096 32.5208C22.5074 32.2021 22.6502 31.8615 22.7491 31.5318C22.9469 30.8506 22.9139 30.1473 22.6392 29.51C22.3425 28.8397 21.7712 28.1914 20.8811 27.653C20.2877 27.2904 19.5515 26.9717 18.6615 26.73C16.3979 26.0927 14.7277 25.1916 13.8267 23.9829C12.8377 22.6533 12.7608 21.0491 13.8157 19.1041C14.5189 17.8185 15.9584 17.0164 17.7824 16.8735C19.3538 16.7527 21.2437 17.1263 23.1667 18.1042C23.5842 18.313 23.749 18.8184 23.5293 19.236C23.3095 19.6535 22.815 19.8184 22.3975 19.5986C20.7602 18.7635 19.1999 18.4448 17.9033 18.5437C16.6616 18.6426 15.7167 19.1261 15.2991 19.8953C14.5959 21.1809 14.6068 22.1918 15.1782 22.961C15.8375 23.8511 17.2111 24.5433 19.123 25.0817C20.1559 25.3784 21.0349 25.752 21.7602 26.1915C22.9579 26.9168 23.76 27.8288 24.1886 28.8177C24.6281 29.8396 24.683 30.9165 24.3863 31.9714C24.2545 32.4438 24.0457 32.9163 23.76 33.3778C23.6941 33.4767 23.6501 33.5537 23.6172 33.6086C22.5953 35.114 21.024 35.8612 19.112 35.8722C17.3209 35.8722 15.2332 35.2129 13.0355 33.8723C12.7608 33.7185 12.4751 33.5427 12.1785 33.3339Z" fill="white"/>
</g>
<defs>
<clipPath id="clip0">
<rect width="36.3677" height="40.9091" fill="white" transform="translate(0 0.544922)"/>
</clipPath>
</defs>
</svg>
