<svg width="37" height="42" viewBox="0 0 37 42" fill="none" xmlns="http://www.w3.org/2000/svg">
<path d="M31.9438 8.54529C31.9438 8.29785 31.7784 8.21538 31.5303 8.21538C31.3649 8.21538 28.4707 8.1329 28.4707 8.1329C28.4707 8.1329 26.7342 6.40086 26.0726 5.74104V41.454L36.4091 38.8147C36.4091 38.8147 31.9438 8.71024 31.9438 8.54529ZM23.6746 5.74104C23.5919 5.32865 23.2611 4.66882 23.0957 4.25643C22.2688 2.60687 20.9457 1.69961 19.4573 1.69961C19.3746 1.69961 19.3746 1.69961 19.3746 1.69961C19.2919 1.69961 19.1265 1.78209 19.1265 1.78209C19.0438 1.69961 18.9611 1.69961 18.9611 1.61714C18.2996 0.874834 17.4727 0.544922 16.3977 0.544922C14.4131 0.6274 12.4285 2.02953 10.8573 4.58634C9.69964 6.40086 8.87272 8.62777 8.62465 10.3598C6.30928 11.1021 4.73813 11.597 4.73813 11.597C3.58044 12.0094 3.49775 12.0094 3.41506 13.0816C3.33237 13.9064 0.272766 37.1652 0.272766 37.1652L25.2457 41.454V5.32865C25.163 5.32865 24.9976 5.32865 24.915 5.41112C24.8323 5.41112 24.4188 5.4936 23.6746 5.74104ZM19.1265 7.14316C17.8035 7.55555 16.315 8.05042 14.9092 8.46281C15.3227 6.89573 16.0669 5.32865 17.0592 4.33891C17.39 3.92652 17.8861 3.51413 18.465 3.2667C19.0438 4.42139 19.1265 6.07095 19.1265 7.14316ZM16.3977 1.94705H16.4804C16.8111 1.94705 17.3073 2.112 17.6381 2.19448C17.0592 2.52439 16.5631 2.93678 16.0669 3.43165C14.7439 4.7513 13.8342 6.89573 13.4208 8.8752C12.2631 9.28759 11.0227 9.6175 9.94772 9.94741C10.6919 6.81325 13.3381 2.02953 16.3977 1.94705ZM12.5939 20.0922C12.6766 22.2366 18.2996 22.649 18.6304 27.6802C18.8784 31.5567 16.5631 34.2784 13.1727 34.4434C9.1208 34.6908 6.97081 32.3814 6.97081 32.3814L7.79773 28.7524C7.79773 28.7524 10.0304 30.402 11.7669 30.237C12.9246 30.237 13.4208 29.2473 13.3381 28.5874C13.1727 25.7832 8.62465 25.9481 8.29388 21.4119C8.04581 17.6179 10.6093 13.7414 16.1496 13.329C18.2996 13.2465 19.3746 13.7414 19.3746 13.7414L18.1342 18.5251C18.1342 18.5251 16.7285 17.8653 14.9919 17.9478C12.5939 18.1127 12.5112 19.6798 12.5939 20.0922ZM20.4496 6.73077C20.4496 5.74104 20.2842 4.33891 19.8707 3.18422C21.3592 3.43165 22.1034 5.16369 22.4342 6.15343C21.8554 6.31838 21.1938 6.56582 20.4496 6.73077Z" fill="#95BF47"/>
</svg>
