<svg width="18" height="18" viewBox="0 0 18 18" fill="none" xmlns="http://www.w3.org/2000/svg">
<g clip-path="url(#clip0)">
<path d="M3.98918 10.8775L3.36269 13.2164L1.07262 13.2649C0.388125 11.9955 0 10.5431 0 8.99979C0 7.5074 0.362813 6.1001 1.00617 4.86084H1.00652L3.04523 5.23455L3.9382 7.26096C3.75117 7.80588 3.64922 8.39088 3.64922 8.99979C3.64992 9.66037 3.76945 10.2935 3.98918 10.8775Z" fill="#FBBB00"/>
<path d="M17.8429 7.31885C17.9463 7.86342 18.0001 8.42557 18.0001 9.00002C18.0001 9.64443 17.9322 10.273 17.8032 10.8791C17.3651 12.9421 16.2205 14.7435 14.6346 16.0186L14.6342 16.0183L12.0664 15.8871L11.7029 13.6181C12.7551 13.0012 13.5774 12.0354 14.0109 10.8791H9.198V7.31885H14.0808H17.8429Z" fill="#518EF8"/>
<path d="M14.6338 16.0181L14.6342 16.0185C13.0922 17.2584 11.1329 18.0002 9.00001 18.0002C5.57263 18.0002 2.59279 16.0846 1.07263 13.2654L3.98919 10.8779C4.74927 12.9064 6.70607 14.3503 9.00001 14.3503C9.98615 14.3503 10.9097 14.0838 11.7025 13.6184L14.6338 16.0181Z" fill="#28B446"/>
<path d="M14.7446 2.07211L11.8291 4.45922C11.0089 3.94629 10.0389 3.65027 9.00007 3.65027C6.65409 3.65027 4.66073 5.16059 3.93897 7.26152L1.00694 4.86105H1.00659C2.50425 1.97297 5.52171 0 9.00007 0C11.1836 0 13.1861 0.778008 14.7446 2.07211Z" fill="#F14336"/>
</g>
<defs>
<clipPath id="clip0">
<rect width="18" height="18" fill="white"/>
</clipPath>
</defs>
</svg>
