<svg width="17" height="13" viewBox="0 0 17 13" fill="none" xmlns="http://www.w3.org/2000/svg">
<path d="M15.3906 3.27539L13.8672 0.837891C13.7266 0.626953 13.4922 0.486328 13.2344 0.486328H3.76562C3.50781 0.486328 3.25 0.626953 3.10938 0.837891L1.60938 3.27539C0.90625 4.37695 1.375 5.87695 2.5 6.3457V11.666C2.5 12.1348 2.82812 12.4863 3.25 12.4863H13.75C14.1484 12.4863 14.5 12.1348 14.5 11.666V6.3457C15.625 5.87695 16.0703 4.37695 15.3906 3.27539ZM13.375 11.3613H3.625V9.11133H13.375V11.3613ZM13.3516 7.98633H3.625V6.48633C4.1875 6.39258 4.67969 6.11133 5.03125 5.71289C5.45312 6.18164 6.0625 6.48633 6.76562 6.48633C7.44531 6.48633 8.05469 6.18164 8.47656 5.71289C8.89844 6.18164 9.53125 6.48633 10.2109 6.48633C10.9141 6.48633 11.5234 6.18164 11.9453 5.71289C12.2969 6.11133 12.7891 6.39258 13.3516 6.48633V7.98633ZM14.4766 4.86914C14.4062 5.0332 14.2188 5.31445 13.8438 5.36133C13.7969 5.36133 13.7266 5.38477 13.6797 5.38477C13.3281 5.38477 13.0234 5.2207 12.7891 4.96289L11.9453 4.02539L11.125 4.96289C10.8906 5.2207 10.5625 5.36133 10.2109 5.36133C9.88281 5.36133 9.55469 5.2207 9.32031 4.96289L8.5 4.02539L7.65625 4.96289C7.42188 5.2207 7.09375 5.36133 6.76562 5.36133C6.41406 5.36133 6.10938 5.2207 5.875 4.96289L5.03125 4.02539L4.1875 4.96289C3.95312 5.2207 3.64844 5.36133 3.29688 5.36133C3.25 5.36133 3.17969 5.36133 3.13281 5.36133C2.75781 5.31445 2.57031 5.0332 2.5 4.86914C2.38281 4.61133 2.33594 4.23633 2.54688 3.88477L3.95312 1.61133H13.0234L14.4297 3.88477C14.6406 4.23633 14.5938 4.61133 14.4766 4.86914Z" fill="#3D56A6"/>
</svg>
