<svg width="11" height="13" viewBox="0 0 11 13" fill="none" xmlns="http://www.w3.org/2000/svg">
<path d="M7.58594 7.61133C6.90625 7.61133 6.60156 7.98633 5.5 7.98633C4.375 7.98633 4.07031 7.61133 3.39062 7.61133C1.65625 7.61133 0.25 9.04102 0.25 10.7754V11.3613C0.25 11.9941 0.742188 12.4863 1.375 12.4863H9.625C10.2344 12.4863 10.75 11.9941 10.75 11.3613V10.7754C10.75 9.04102 9.32031 7.61133 7.58594 7.61133ZM9.625 11.3613H1.375V10.7754C1.375 9.65039 2.26562 8.73633 3.39062 8.73633C3.74219 8.73633 4.28125 9.11133 5.5 9.11133C6.69531 9.11133 7.23438 8.73633 7.58594 8.73633C8.71094 8.73633 9.625 9.65039 9.625 10.7754V11.3613ZM5.5 7.23633C7.35156 7.23633 8.875 5.73633 8.875 3.86133C8.875 2.00977 7.35156 0.486328 5.5 0.486328C3.625 0.486328 2.125 2.00977 2.125 3.86133C2.125 5.73633 3.625 7.23633 5.5 7.23633ZM5.5 1.61133C6.71875 1.61133 7.75 2.64258 7.75 3.86133C7.75 5.10352 6.71875 6.11133 5.5 6.11133C4.25781 6.11133 3.25 5.10352 3.25 3.86133C3.25 2.64258 4.25781 1.61133 5.5 1.61133Z" fill="#3D56A6"/>
</svg>
