<svg width="13" height="11" viewBox="0 0 13 11" fill="none" xmlns="http://www.w3.org/2000/svg">
<path d="M6.375 2.11133V3.33008H4.125C3.49219 3.33008 3 3.8457 3 4.45508V6.54102C3 7.15039 3.49219 7.66602 4.125 7.66602H6.375V8.86133C6.375 9.86914 7.57031 10.3613 8.27344 9.6582L11.6484 6.2832C12.0938 5.86133 12.0938 5.13477 11.6484 4.68945L8.27344 1.31445C7.57031 0.611328 6.375 1.12695 6.375 2.11133ZM10.875 5.48633L7.5 8.86133V6.54102H4.125V4.45508H7.5V2.11133L10.875 5.48633ZM2.25 0.986328C1.00781 0.986328 0 1.99414 0 3.23633V7.73633C0 8.97852 1.00781 9.98633 2.25 9.98633H4.21875C4.35938 9.98633 4.5 9.86914 4.5 9.70508V9.14258C4.5 9.00195 4.35938 8.86133 4.21875 8.86133H2.25C1.61719 8.86133 1.125 8.36914 1.125 7.73633V3.23633C1.125 2.62695 1.61719 2.11133 2.25 2.11133H4.21875C4.35938 2.11133 4.5 1.99414 4.5 1.83008V1.26758C4.5 1.12695 4.35938 0.986328 4.21875 0.986328H2.25Z" fill="#EB5757"/>
</svg>
