<svg width="48" height="24" viewBox="0 0 48 24" fill="none" xmlns="http://www.w3.org/2000/svg">
<rect width="48" height="23.3333" rx="4" fill="#3D56A6"/>
<path fill-rule="evenodd" clip-rule="evenodd" d="M11.5973 17.9903C14.0853 17.9903 16.1023 15.9734 16.1023 13.4854C16.1023 10.9974 14.0853 8.98043 11.5973 8.98043C9.1093 8.98043 7.09237 10.9974 7.09237 13.4854C7.09237 15.9734 9.1093 17.9903 11.5973 17.9903ZM11.5973 20.4161C15.425 20.4161 18.528 17.3131 18.528 13.4854C18.528 9.65766 15.425 6.55469 11.5973 6.55469C7.7696 6.55469 4.66663 9.65766 4.66663 13.4854C4.66663 17.3131 7.7696 20.4161 11.5973 20.4161Z" fill="white"/>
<path fill-rule="evenodd" clip-rule="evenodd" d="M27.5355 17.9903C30.0236 17.9903 32.0405 15.9734 32.0405 13.4854C32.0405 10.9974 30.0236 8.98043 27.5355 8.98043C25.0475 8.98043 23.0306 10.9974 23.0306 13.4854C23.0306 15.9734 25.0475 17.9903 27.5355 17.9903ZM27.5355 20.4161C31.3633 20.4161 34.4662 17.3131 34.4662 13.4854C34.4662 9.65766 31.3633 6.55469 27.5355 6.55469C23.7078 6.55469 20.6049 9.65766 20.6049 13.4854C20.6049 17.3131 23.7078 20.4161 27.5355 20.4161Z" fill="white"/>
<path d="M32.0405 3.26255C32.0405 3.07116 32.1957 2.91602 32.3871 2.91602H34.1197C34.3111 2.91602 34.4663 3.07116 34.4663 3.26255V13.312C34.4663 13.5034 34.3111 13.6586 34.1197 13.6586H32.3871C32.1957 13.6586 32.0405 13.5034 32.0405 13.312V3.26255Z" fill="white"/>
<path d="M36.543 3.26255C36.543 3.07116 36.6981 2.91602 36.8895 2.91602H38.6222C38.8136 2.91602 38.9687 3.07116 38.9687 3.26255V4.82196C38.9687 5.01334 38.8136 5.16849 38.6222 5.16849H36.8895C36.6981 5.16849 36.543 5.01334 36.543 4.82196V3.26255Z" fill="white"/>
<path d="M36.543 8.11411C36.543 7.92273 36.6981 7.76758 36.8895 7.76758H38.6222C38.8136 7.76758 38.9687 7.92273 38.9687 8.11411V20.0696C38.9687 20.2609 38.8136 20.4161 38.6222 20.4161H36.8895C36.6981 20.4161 36.543 20.2609 36.543 20.0696V8.11411Z" fill="white"/>
<path d="M41.0455 3.26255C41.0455 3.07116 41.2007 2.91602 41.3921 2.91602H43.1247C43.3161 2.91602 43.4713 3.07116 43.4713 3.26255V4.82196C43.4713 5.01334 43.3161 5.16849 43.1247 5.16849H41.3921C41.2007 5.16849 41.0455 5.01334 41.0455 4.82196V3.26255Z" fill="white"/>
<path d="M41.0455 8.11411C41.0455 7.92273 41.2007 7.76758 41.3921 7.76758H43.1247C43.3161 7.76758 43.4713 7.92273 43.4713 8.11411V20.0696C43.4713 20.2609 43.3161 20.4161 43.1247 20.4161H41.3921C41.2007 20.4161 41.0455 20.2609 41.0455 20.0696V8.11411Z" fill="white"/>
</svg>
