<svg width="134" height="65" viewBox="0 0 134 65" fill="none" xmlns="http://www.w3.org/2000/svg">
<rect width="133.714" height="65" rx="6" fill="white"/>
<path fill-rule="evenodd" clip-rule="evenodd" d="M32.307 50.1176C39.2379 50.1176 44.8565 44.499 44.8565 37.5681C44.8565 30.6372 39.2379 25.0186 32.307 25.0186C25.3761 25.0186 19.7575 30.6372 19.7575 37.5681C19.7575 44.499 25.3761 50.1176 32.307 50.1176ZM32.307 56.875C42.97 56.875 51.614 48.231 51.614 37.5681C51.614 26.9052 42.97 18.2612 32.307 18.2612C21.6441 18.2612 13.0001 26.9052 13.0001 37.5681C13.0001 48.231 21.6441 56.875 32.307 56.875Z" fill="#3D56A6"/>
<path fill-rule="evenodd" clip-rule="evenodd" d="M76.7062 50.1176C83.637 50.1176 89.2556 44.499 89.2556 37.5681C89.2556 30.6373 83.637 25.0187 76.7062 25.0187C69.7753 25.0187 64.1567 30.6373 64.1567 37.5681C64.1567 44.499 69.7753 50.1176 76.7062 50.1176ZM76.7062 56.8751C87.3691 56.8751 96.0131 48.2311 96.0131 37.5681C96.0131 26.9052 87.3691 18.2612 76.7062 18.2612C66.0432 18.2612 57.3992 26.9052 57.3992 37.5681C57.3992 48.2311 66.0432 56.8751 76.7062 56.8751Z" fill="#3D56A6"/>
<path d="M89.2558 9.09041C89.2558 8.55726 89.688 8.12506 90.2211 8.12506H95.0479C95.581 8.12506 96.0132 8.55726 96.0132 9.09041V37.0854C96.0132 37.6186 95.581 38.0508 95.0479 38.0508H90.2211C89.688 38.0508 89.2558 37.6186 89.2558 37.0854V9.09041Z" fill="#3D56A6"/>
<path d="M101.799 9.09038C101.799 8.55723 102.231 8.12503 102.764 8.12503H107.591C108.124 8.12503 108.556 8.55723 108.556 9.09038V13.4344C108.556 13.9676 108.124 14.3998 107.591 14.3998H102.764C102.231 14.3998 101.799 13.9676 101.799 13.4344V9.09038Z" fill="#3D56A6"/>
<path d="M101.799 22.6052C101.799 22.0721 102.231 21.6399 102.764 21.6399H107.591C108.124 21.6399 108.556 22.0721 108.556 22.6052V55.9096C108.556 56.4428 108.124 56.875 107.591 56.875H102.764C102.231 56.875 101.799 56.4428 101.799 55.9096V22.6052Z" fill="#3D56A6"/>
<path d="M114.341 9.09038C114.341 8.55723 114.774 8.12503 115.307 8.12503H120.133C120.667 8.12503 121.099 8.55723 121.099 9.09038V13.4344C121.099 13.9676 120.667 14.3998 120.133 14.3998H115.307C114.774 14.3998 114.341 13.9676 114.341 13.4344V9.09038Z" fill="#3D56A6"/>
<path d="M114.341 22.6052C114.341 22.0721 114.773 21.6399 115.307 21.6399H120.133C120.666 21.6399 121.099 22.0721 121.099 22.6052V55.9096C121.099 56.4428 120.666 56.875 120.133 56.875H115.307C114.773 56.875 114.341 56.4428 114.341 55.9096V22.6052Z" fill="#3D56A6"/>
</svg>
