<svg width="176" height="40" viewBox="0 0 176 40" fill="none" xmlns="http://www.w3.org/2000/svg">
<path d="M86.1137 7.16969V8.39976V10.9803V25.4874C86.1137 29.1389 83.1504 32.5324 79.5075 32.812C75.0345 33.156 71.3313 29.3626 71.8217 24.8638C72.17 21.6768 74.6732 19.0532 77.8473 18.5801C79.5161 18.3307 81.1031 18.6618 82.4278 19.4016C83.0084 19.7242 83.7224 19.3285 83.7224 18.6618V12.7695C83.7224 12.3867 83.4643 12.0513 83.0987 11.9394C81.3913 11.4233 79.5462 11.2169 77.6365 11.3889C70.7249 11.9997 65.181 17.6253 64.652 24.5412C64.0111 32.9367 70.6131 39.9558 78.8709 39.9988C86.7976 40.0376 93.2834 33.2765 93.2834 25.3498V10.976V8.39546V0C89.3265 0 86.1137 3.21281 86.1137 7.16969Z" fill="#3D56A6"/>
<path d="M45.9729 18.4853C49.9298 18.4853 53.1469 21.7024 53.1469 25.6593C53.1469 29.6162 49.9298 32.8333 45.9729 32.8333C42.016 32.8333 38.7946 29.6205 38.7946 25.6636C38.7946 21.7067 42.016 18.4853 45.9729 18.4853ZM45.9729 11.3242C38.0548 11.3242 31.6378 17.7412 31.6378 25.6593C31.6378 33.5773 38.0548 39.9987 45.9729 39.9987C53.8909 39.9987 60.308 33.5816 60.308 25.6636C60.308 17.7455 53.8909 11.3242 45.9729 11.3242Z" fill="#3D56A6"/>
<path d="M106.036 39.9987H100.595C100.122 39.9987 99.7347 39.6116 99.7347 39.1385V12.1844C99.7347 11.7113 100.122 11.3242 100.595 11.3242H106.036C106.509 11.3242 106.896 11.7113 106.896 12.1844V39.1385C106.896 39.6116 106.509 39.9987 106.036 39.9987Z" fill="#3D56A6"/>
<path d="M119.648 39.9987H114.207C113.734 39.9987 113.347 39.6116 113.347 39.1385V12.1844C113.347 11.7113 113.734 11.3242 114.207 11.3242H119.648C120.121 11.3242 120.508 11.7113 120.508 12.1844V39.1385C120.508 39.6116 120.121 39.9987 119.648 39.9987Z" fill="#3D56A6"/>
<path d="M106.036 9.17428H100.595C100.122 9.17428 99.7347 8.78719 99.7347 8.31409V4.19808C99.7347 3.72498 100.122 3.33789 100.595 3.33789H106.036C106.509 3.33789 106.896 3.72498 106.896 4.19808V8.31839C106.896 8.7915 106.509 9.17428 106.036 9.17428Z" fill="#3D56A6"/>
<path d="M119.648 9.17428H114.207C113.734 9.17428 113.347 8.78719 113.347 8.31409V4.19808C113.347 3.72498 113.734 3.33789 114.207 3.33789H119.648C120.121 3.33789 120.508 3.72498 120.508 4.19808V8.31839C120.508 8.7915 120.121 9.17428 119.648 9.17428Z" fill="#3D56A6"/>
<path d="M11.991 29.1563C11.991 27.9606 11.1438 26.494 10.1072 25.8961L1.88382 21.1436C0.847287 20.5458 0 21.0361 0 22.2317V31.7325C0 32.9282 0.847287 34.3948 1.88382 34.9926L10.1115 39.7452C11.1481 40.343 11.9954 39.8527 11.9954 38.6571V29.1563H11.991Z" fill="#3D56A6"/>
<path opacity="0.3" d="M9.89206 26.2703L1.66434 21.5221C1.44069 21.393 1.22564 21.3242 1.045 21.3242C0.494478 21.3242 0.434265 21.9608 0.434265 22.2317V24.8037C0.434265 24.5327 0.494478 23.8962 1.045 23.8962C1.22564 23.8962 1.44069 23.965 1.66434 24.094L9.89206 28.8423C10.7953 29.3627 11.5565 30.6831 11.5565 31.7239V29.1519C11.5565 28.1154 10.7953 26.795 9.89206 26.2703Z" fill="url(#paint0_linear)"/>
<path d="M11.5221 23.4493C12.5587 24.0471 14.2532 24.0471 15.2855 23.4493L23.5132 18.6967C24.5497 18.0989 24.5497 17.1226 23.5132 16.5247L15.2898 11.7765C14.2532 11.1787 12.5587 11.1787 11.5264 11.7765L3.29443 16.5247C2.2579 17.1226 2.2579 18.0989 3.29443 18.6967L11.5221 23.4493Z" fill="#3D56A6"/>
<path opacity="0.3" d="M3.51396 18.323L4.25372 18.7531L11.6686 14.4737C12.0987 14.2242 12.7051 14.0823 13.333 14.0823C13.961 14.0823 14.5674 14.2242 14.9975 14.4737L22.4855 18.7961L23.2983 18.3273C23.6553 18.1209 23.8575 17.8628 23.8575 17.6177C23.8575 17.3725 23.6553 17.1145 23.2983 16.908L15.0706 12.1512C14.6405 11.9017 14.0341 11.7598 13.4061 11.7598C12.7782 11.7598 12.1718 11.9017 11.7417 12.1512L3.51396 16.9037C3.15698 17.1101 2.95483 17.3682 2.95483 17.6134C2.95483 17.8585 3.15698 18.1166 3.51396 18.323Z" fill="url(#paint1_linear)"/>
<path d="M16.7005 25.8961C15.664 26.494 14.8167 27.9606 14.8167 29.1563V38.6571C14.8167 39.8527 15.664 40.343 16.7005 39.7452L24.9282 34.9926C25.9648 34.3948 26.8121 32.9282 26.8121 31.7325V22.2317C26.8121 21.0361 25.9648 20.5458 24.9282 21.1436L16.7005 25.8961Z" fill="url(#paint2_linear)"/>

<rect x="130" y="20" width="46" height="20" rx="3" fill="#3D56A6"/>
<path d="M140.643 32.0137H137.338L136.646 34H135.105L138.328 25.4688H139.658L142.887 34H141.34L140.643 32.0137ZM137.754 30.8184H140.227L138.99 27.2793L137.754 30.8184ZM143.815 30.7832C143.815 29.8066 144.042 29.0234 144.495 28.4336C144.948 27.8398 145.555 27.543 146.317 27.543C146.989 27.543 147.532 27.7773 147.946 28.2461V25H149.37V34H148.081L148.01 33.3438C147.585 33.8594 147.016 34.1172 146.305 34.1172C145.563 34.1172 144.962 33.8184 144.501 33.2207C144.044 32.623 143.815 31.8105 143.815 30.7832ZM145.239 30.9062C145.239 31.5508 145.362 32.0547 145.608 32.418C145.858 32.7773 146.212 32.957 146.669 32.957C147.251 32.957 147.676 32.6973 147.946 32.1777V29.4707C147.684 28.9629 147.262 28.709 146.68 28.709C146.219 28.709 145.864 28.8926 145.614 29.2598C145.364 29.623 145.239 30.1719 145.239 30.9062ZM152.554 27.6602L152.595 28.3223C153.04 27.8027 153.65 27.543 154.423 27.543C155.271 27.543 155.851 27.8672 156.163 28.5156C156.624 27.8672 157.273 27.543 158.109 27.543C158.808 27.543 159.327 27.7363 159.667 28.123C160.011 28.5098 160.187 29.0801 160.195 29.834V34H158.771V29.875C158.771 29.4727 158.683 29.1777 158.507 28.9902C158.331 28.8027 158.04 28.709 157.634 28.709C157.31 28.709 157.044 28.7969 156.837 28.9727C156.634 29.1445 156.491 29.3711 156.409 29.6523L156.415 34H154.991V29.8281C154.972 29.082 154.591 28.709 153.849 28.709C153.279 28.709 152.874 28.9414 152.636 29.4062V34H151.212V27.6602H152.554ZM163.531 34H162.107V27.6602H163.531V34ZM162.019 26.0137C162.019 25.7949 162.088 25.6133 162.225 25.4688C162.365 25.3242 162.564 25.252 162.822 25.252C163.08 25.252 163.279 25.3242 163.42 25.4688C163.56 25.6133 163.631 25.7949 163.631 26.0137C163.631 26.2285 163.56 26.4082 163.42 26.5527C163.279 26.6934 163.08 26.7637 162.822 26.7637C162.564 26.7637 162.365 26.6934 162.225 26.5527C162.088 26.4082 162.019 26.2285 162.019 26.0137ZM166.768 27.6602L166.809 28.3926C167.278 27.8262 167.893 27.543 168.655 27.543C169.975 27.543 170.647 28.2988 170.67 29.8105V34H169.247V29.8926C169.247 29.4902 169.159 29.1934 168.983 29.002C168.811 28.8066 168.528 28.709 168.133 28.709C167.559 28.709 167.131 28.9688 166.85 29.4883V34H165.426V27.6602H166.768Z" fill="white"/>
<defs>
<linearGradient id="paint0_linear" x1="0.434523" y1="26.5264" x2="11.5581" y2="26.5264" gradientUnits="userSpaceOnUse">
<stop stop-color="white" stop-opacity="0.4"/>
<stop offset="1" stop-color="white" stop-opacity="0"/>
</linearGradient>
<linearGradient id="paint1_linear" x1="2.95337" y1="15.2768" x2="23.8582" y2="15.2768" gradientUnits="userSpaceOnUse">
<stop stop-color="white" stop-opacity="0.4"/>
<stop offset="1" stop-color="white" stop-opacity="0"/>
</linearGradient>
<linearGradient id="paint2_linear" x1="20.8144" y1="20.8887" x2="20.8144" y2="40.0001" gradientUnits="userSpaceOnUse">
<stop stop-color="#FFC061"/>
<stop offset="1" stop-color="#FEAC31"/>
</linearGradient>
<linearGradient id="paint3_linear" x1="15.253" y1="26.3091" x2="26.3765" y2="26.3091" gradientUnits="userSpaceOnUse">
<stop stop-color="white" stop-opacity="0.4"/>
<stop offset="1" stop-color="white" stop-opacity="0"/>
</linearGradient>
</defs>
</svg>
