<svg width="63" height="55" viewBox="0 0 63 55" fill="none" xmlns="http://www.w3.org/2000/svg">
<path opacity="0.2" d="M10.742 47.7921L0 41.7067L17.8224 30.8895L37.114 20.8706L37.7387 54.9998L10.742 47.7921Z" fill="#A9A9AB"/>
<path d="M37.7386 54.9997L12.7202 40.5555V14.4438L37.7386 28.8938V54.9997Z" fill="#B76F3F"/>
<path opacity="0.1" d="M12.7202 14.4438V40.5555L37.7386 54.9997L13.4433 40.1448L12.7202 14.4438Z" fill="#8C4320"/>
<path opacity="0.5" d="M23.231 46.7107V20.5122L27.205 22.8087V49.227L23.231 46.7107Z" fill="#9C480C"/>
<path d="M37.7386 28.8941L12.7202 14.4442L37.7386 0L62.7628 14.4442L37.7386 28.8941Z" fill="#EFD995"/>
<path d="M60.9175 14.4442L37.8138 27.7372L12.7202 14.4442L37.7386 28.8941L62.7628 14.4442L37.7386 0L60.9175 14.4442Z" fill="#FFEDB4"/>
<path d="M23.8904 8.08102L52.9117 24.7465L57.308 22.2475L24.0061 7.96533L23.8904 8.08102Z" fill="#DAC176"/>
<path d="M27.9801 5.6748L38.3577 11.471L34.2333 13.8427L24.0061 7.96551L27.9801 5.6748Z" fill="#E6E1E4"/>
<path d="M57.4179 22.1377L53.0216 24.6309L38.3923 16.2258L42.6324 13.8657L57.4179 22.1377Z" fill="#E6E1E4"/>
<path d="M26.8694 22.6525L52.7323 8.2373L52.6687 8.61909L27.2049 22.8087L26.8694 22.6525Z" fill="#E1CD8E"/>
<path d="M42.6324 13.8655L38.3923 16.2256L34.2332 13.8424L38.3576 11.4707L42.6324 13.8655Z" fill="#F9F9F9"/>
<path d="M34.233 13.8423L38.3921 16.2255L26.8634 22.6522L22.8894 20.3557L34.233 13.8423Z" fill="#F1F1F1"/>
<path d="M52.7382 8.2373L42.6325 13.8657L38.3577 11.4709L48.3361 5.74414L52.7382 8.2373Z" fill="#F1F1F1"/>
<path d="M22.8953 46.5486V20.356L26.8693 22.6524V49.0707L22.8953 46.5486Z" fill="#B3A4AD"/>
<path d="M37.7385 54.9997L62.7627 40.5555V14.4438L37.7385 28.8938V54.9997Z" fill="#D9AF6A"/>
<path opacity="0.2" d="M37.7385 54.9998L62.7627 40.5557V40.1045L37.7385 54.5544V54.9998Z" fill="#9D6F40"/>
<path d="M39.2253 36.4606L46.352 32.3419V26.3838L39.3584 30.1264L39.2253 30.5024V36.4606Z" fill="#AA5C26"/>
<path d="M53.1951 46.0684V19.9683L48.9087 22.4383V48.5384L53.1951 46.0684Z" fill="#DAC176"/>
<path d="M53.3569 46.1611V19.8701L49.0706 22.3459V48.6369L53.3569 46.1611Z" fill="#D6D6D6"/>
<path d="M20.246 28.9866L14.4382 25.6257V17.0703L20.246 20.4312V28.9866ZM14.9704 25.3192L19.7138 28.0611V20.7377L14.9704 17.9958V25.3192Z" fill="#A45823"/>
<path d="M16.2373 24.8163L18.2156 25.9559V23.6131L16.2373 22.4678V24.8163Z" fill="#A45823"/>
<path d="M15.2712 21.9295L19.1758 24.1855L17.2264 20.1016L15.2712 21.9295Z" fill="#A45823"/>
<path d="M39.503 30.2359L46.6296 26.1172L46.485 26.0073L39.3584 30.126L39.503 30.2359Z" fill="#FEFEFE"/>
<path d="M39.503 36.194V30.2359L39.3584 30.126V36.0783L39.503 36.194Z" fill="#8B8B8B"/>
<path d="M39.5032 36.1945L46.6298 32.0758V26.1177L39.5032 30.2363V36.1945Z" fill="#D6D6D6"/>
<path d="M39.9021 31.046L46.2305 27.3902V27.0142L39.9021 30.67V31.046Z" fill="#6F6F6F"/>
<path d="M42.5227 31.2023L46.2306 29.062V28.686L42.5227 30.8206V31.2023Z" fill="#8E8E8E"/>
<path d="M39.9253 35.2108L41.8574 34.0943V30.8896L39.9253 32.0061V35.2108Z" fill="#8E8E8E"/>
<path d="M42.5227 32.0178L46.2306 29.8832V29.5015L42.5227 31.6418V32.0178Z" fill="#8E8E8E"/>
<path d="M42.5227 32.8391L46.2306 30.6988V30.3228L42.5227 32.4631V32.8391Z" fill="#8E8E8E"/>
<path d="M42.5227 33.6608L46.2306 31.5205V31.1445L42.5227 33.2848V33.6608Z" fill="#8E8E8E"/>
<path d="M49.9443 17.9556L52.8192 19.8703L49.0708 22.0337V22.3461L53.3572 19.8703L49.9443 17.9556Z" fill="#F1F1F1"/>
</svg>
