<svg width="22" height="23" viewBox="0 0 22 23" fill="none" xmlns="http://www.w3.org/2000/svg">
<path d="M2.52087 3.48047L4.42754 3.81047L5.31029 14.3274C5.38087 15.1863 6.09862 15.8454 6.96029 15.8426H16.9602C17.7825 15.8445 18.48 15.2395 18.5965 14.4255L19.4664 8.41397C19.5635 7.74205 19.097 7.11872 18.426 7.02155C18.3673 7.0133 4.73371 7.00872 4.73371 7.00872" stroke="#6C798F" stroke-width="1.5" stroke-linecap="round" stroke-linejoin="round"/>
<path d="M12.948 10.3958H15.4899" stroke="#6C798F" stroke-width="1.5" stroke-linecap="round" stroke-linejoin="round"/>
<path fill-rule="evenodd" clip-rule="evenodd" d="M6.55812 19.0195C6.83403 19.0195 7.05678 19.2432 7.05678 19.5182C7.05678 19.7941 6.83403 20.0178 6.55812 20.0178C6.2822 20.0178 6.05945 19.7941 6.05945 19.5182C6.05945 19.2432 6.2822 19.0195 6.55812 19.0195Z" fill="#6C798F" stroke="#6C798F" stroke-width="1.5" stroke-linecap="round" stroke-linejoin="round"/>
<path fill-rule="evenodd" clip-rule="evenodd" d="M16.8984 19.0195C17.1744 19.0195 17.398 19.2432 17.398 19.5182C17.398 19.7941 17.1744 20.0178 16.8984 20.0178C16.6225 20.0178 16.3998 19.7941 16.3998 19.5182C16.3998 19.2432 16.6225 19.0195 16.8984 19.0195Z" fill="#6C798F" stroke="#6C798F" stroke-width="1.5" stroke-linecap="round" stroke-linejoin="round"/>
</svg>
