<svg width="22" height="22" viewBox="0 0 22 22" fill="none" xmlns="http://www.w3.org/2000/svg">
<path fill-rule="evenodd" clip-rule="evenodd" d="M8.23391 5.77821C8.20457 5.77821 8.17524 5.78188 8.14591 5.78921C5.42341 6.45929 3.20874 9.40913 3.20874 12.3645C3.20874 16.0825 6.23374 19.1075 9.95266 19.1075C13.3049 19.1075 16.1062 16.7195 16.6141 13.4287C16.6177 13.4012 16.6306 13.3215 16.5554 13.2325C16.4839 13.1491 16.3702 13.0996 16.2511 13.0996C14.9577 13.0996 13.9704 13.129 13.1995 13.151C11.3332 13.2069 10.5613 13.228 9.79866 12.6624C8.64916 11.8108 8.55199 10.3478 8.55199 6.04496C8.55199 5.96796 8.51899 5.90379 8.45299 5.85246C8.39157 5.80388 8.31366 5.77821 8.23391 5.77821ZM9.95266 20.4825C5.47566 20.4825 1.83374 16.8405 1.83374 12.3645C1.83374 8.81513 4.51774 5.26579 7.81682 4.45363C8.33199 4.32804 8.88566 4.44538 9.30182 4.76988C9.69874 5.08154 9.92699 5.54629 9.92699 6.04496C9.92699 10.0645 10.0627 11.1462 10.6172 11.5578C10.9812 11.8264 11.4798 11.8236 13.1601 11.7769C13.9411 11.754 14.9412 11.7246 16.2511 11.7246C16.7736 11.7246 17.2658 11.9483 17.5995 12.3379C17.9093 12.7 18.045 13.173 17.9735 13.6386C17.3612 17.6032 13.9878 20.4825 9.95266 20.4825Z" fill="#6C798F"/>
<mask id="mask0" mask-type="alpha" maskUnits="userSpaceOnUse" x="11" y="0" width="10" height="11">
<path fill-rule="evenodd" clip-rule="evenodd" d="M11.4346 0.916992H20.9853V10.3489H11.4346V0.916992Z" fill="white"/>
</mask>
<g mask="url(#mask0)">
<path fill-rule="evenodd" clip-rule="evenodd" d="M12.8433 2.29359C12.7424 4.60267 12.8918 7.58551 12.9615 8.76709C12.9652 8.83767 13.0165 8.88901 13.0862 8.89267C14.0285 8.94676 17.2753 9.09709 19.6101 8.75334C19.6156 7.46634 18.7347 5.72101 17.4083 4.39551C16.0479 3.03701 14.4383 2.29359 12.8634 2.29359H12.8433ZM15.8719 10.3493C14.6711 10.3493 13.6142 10.3007 13.0064 10.2658C12.2419 10.2209 11.6333 9.61134 11.5893 8.84684C11.5178 7.635 11.3628 4.55592 11.4728 2.17442C11.5031 1.48234 12.0623 0.931422 12.7461 0.919505C14.705 0.862672 16.7263 1.77201 18.3799 3.42292C19.9914 5.0335 21.0144 7.15009 20.9851 8.81567C20.9741 9.46559 20.502 10.0083 19.864 10.1045C18.6192 10.2924 17.1617 10.3493 15.8719 10.3493Z" fill="#6C798F"/>
</g>
</svg>
