<svg width="20" height="20" viewBox="0 0 20 20" fill="none" xmlns="http://www.w3.org/2000/svg">
<path d="M8.37896 14.6766C9.27378 15.5718 10.7247 15.5721 11.6199 14.6777C11.6202 14.6773 11.6206 14.677 11.621 14.6766L14.0738 12.2238C14.3566 11.9108 14.3323 11.4278 14.0193 11.1449C13.7279 10.8814 13.2842 10.8821 12.9934 11.146L10.7584 13.3818L10.7637 1.59727C10.7637 1.17546 10.4218 0.833496 9.99996 0.833496C9.57815 0.833496 9.23619 1.17546 9.23619 1.59727L9.22938 13.3671L7.00611 11.146C6.70747 10.8477 6.22372 10.8477 5.92544 11.1464C5.62717 11.445 5.62717 11.9287 5.9258 12.227L8.37896 14.6766Z" fill="#3D56A6"/>
<path d="M18.4029 13.0557C17.9811 13.0557 17.6391 13.3976 17.6391 13.8194V16.8752C17.6391 17.297 17.2971 17.639 16.8753 17.639H3.12498C2.70317 17.639 2.36121 17.297 2.36121 16.8752V13.8198C2.36121 13.398 2.01925 13.056 1.59744 13.056C1.17527 13.0557 0.833313 13.3976 0.833313 13.8198V16.8752C0.833313 18.141 1.85919 19.1669 3.12498 19.1669H16.875C18.1408 19.1669 19.1666 18.141 19.1666 16.8752V13.8198C19.1666 13.3976 18.8247 13.0557 18.4029 13.0557Z" fill="#3D56A6"/>
</svg>
