<svg width="22" height="22" viewBox="0 0 22 22" fill="none" xmlns="http://www.w3.org/2000/svg">
<path fill-rule="evenodd" clip-rule="evenodd" d="M8.79222 13.9395C12.1738 13.9395 15.0641 14.4519 15.0641 16.4988C15.0641 18.5457 12.1931 19.0728 8.79222 19.0728C5.40972 19.0728 2.52039 18.565 2.52039 16.5171C2.52039 14.4693 5.39047 13.9395 8.79222 13.9395Z" stroke="#6C798F" stroke-width="1.5" stroke-linecap="round" stroke-linejoin="round"/>
<path fill-rule="evenodd" clip-rule="evenodd" d="M8.79223 11.0177C6.57206 11.0177 4.77173 9.21827 4.77173 6.9981C4.77173 4.77793 6.57206 2.97852 8.79223 2.97852C11.0115 2.97852 12.8118 4.77793 12.8118 6.9981C12.8201 9.21002 11.0326 11.0094 8.82064 11.0177H8.79223Z" stroke="#6C798F" stroke-width="1.5" stroke-linecap="round" stroke-linejoin="round"/>
<path d="M15.1095 9.97386C16.5771 9.76761 17.7073 8.50811 17.7101 6.98369C17.7101 5.48127 16.6147 4.23461 15.1782 3.99902" stroke="#6C798F" stroke-width="1.5" stroke-linecap="round" stroke-linejoin="round"/>
<path d="M17.0458 13.5039C18.4675 13.7157 19.4603 14.2143 19.4603 15.241C19.4603 15.9477 18.9928 16.4061 18.2374 16.693" stroke="#6C798F" stroke-width="1.5" stroke-linecap="round" stroke-linejoin="round"/>
</svg>
