<svg width="26" height="26" viewBox="0 0 26 26" fill="none" xmlns="http://www.w3.org/2000/svg">
<circle cx="13" cy="13" r="13" fill="#F4F6FD"/>
<path d="M15.125 17.625C15.125 16.5938 14.2812 15.75 13.25 15.75C12.1953 15.75 11.375 16.5938 11.375 17.625C11.375 18.6797 12.1953 19.5 13.25 19.5C14.2812 19.5 15.125 18.6797 15.125 17.625ZM11.5859 8.10938L11.8906 14.4844C11.9141 14.7656 12.1719 15 12.4531 15H14.0234C14.3047 15 14.5625 14.7656 14.5859 14.4844L14.8906 8.10938C14.9141 7.78125 14.6562 7.5 14.3281 7.5H12.1484C11.8203 7.5 11.5625 7.78125 11.5859 8.10938Z" fill="#6C798F"/>
</svg>
