<svg width="22" height="23" viewBox="0 0 22 23" fill="none" xmlns="http://www.w3.org/2000/svg">
<path d="M8.39407 19.5401V16.729C8.39406 16.0139 8.97698 15.4329 9.69922 15.4281H12.3448C13.0705 15.4281 13.6588 16.0105 13.6588 16.729V16.729V19.5489C13.6586 20.1559 14.148 20.6521 14.7611 20.6663H16.5248C18.283 20.6663 19.7083 19.2553 19.7083 17.5147V17.5147V9.51769C19.6989 8.83293 19.3741 8.18991 18.8264 7.77162L12.7945 2.9612C11.7378 2.12361 10.2356 2.12361 9.17893 2.9612L3.17348 7.78035C2.6237 8.19695 2.2984 8.84104 2.29163 9.52642V17.5147C2.29163 19.2553 3.71693 20.6663 5.47513 20.6663H7.23884C7.86712 20.6663 8.37644 20.1621 8.37644 19.5401V19.5401" stroke="#6C798F" stroke-width="1.5" stroke-linecap="round" stroke-linejoin="round"/>
</svg>
