<svg width="36" height="40" viewBox="0 0 36 40" fill="none" xmlns="http://www.w3.org/2000/svg">
<g clip-path="url(#clip0)">
<path d="M20.2664 11.2341L12.878 2.97575C12.3558 2.39242 11.6046 2.05908 10.8162 2.05908C10.027 2.05908 9.27671 2.39242 8.75452 2.97575L1.36359 11.2341C0.920822 11.7291 0.675781 12.3674 0.675781 13.0282V33.9999C0.675781 36.9449 3.09746 39.3332 6.08358 39.3332H15.5472C18.5342 39.3332 20.955 36.9449 20.955 33.9999V13.0282C20.9542 12.3674 20.71 11.7291 20.2664 11.2341ZM10.8154 14.0007C9.32234 14.0007 8.1115 12.8066 8.1115 11.3341C8.1115 9.86075 9.32234 8.66742 10.8154 8.66742C12.3093 8.66742 13.5193 9.86075 13.5193 11.3341C13.5193 12.8066 12.3085 14.0007 10.8154 14.0007Z" fill="white"/>
<path d="M25.2682 11.5151L24.5373 10.2676C23.5596 11.5517 22.3446 12.6409 20.9546 13.4776V15.0309C21.0011 15.0051 21.0484 14.9817 21.0949 14.9567C22.6868 14.0692 24.1012 12.9026 25.2682 11.5151Z" fill="#E0E5F4"/>
<path d="M20.9545 12.6675H20.9215C20.941 12.7866 20.9519 12.9066 20.9545 13.0266V34C20.9545 35.6733 20.156 37.2491 18.7998 38.2541C20.352 38.8933 22.118 38.7808 23.5739 37.9516L24.4611 37.4475L20.9545 12.6675Z" fill="#EDF0FA"/>
<path d="M20.2664 11.2341L12.878 2.97575C12.3558 2.39242 11.6046 2.05908 10.8162 2.05908C10.0271 2.05908 9.27672 2.39242 8.75453 2.97575L5.93994 6.12242C12.9726 6.99158 18.2494 12.8882 18.2511 19.8782V38.6158C19.925 37.6649 20.9559 35.9049 20.955 33.9999V13.0282C20.9542 12.3674 20.71 11.7291 20.2664 11.2341Z" fill="#EDF0FA"/>
<path d="M20.2782 36.0001C11.319 36.0001 4.05481 28.8368 4.05481 20.0001V8.2251L1.36358 11.2334C0.920822 11.7293 0.675781 12.3676 0.675781 13.0284V34.0001C0.675781 36.9451 3.09746 39.3334 6.08357 39.3334H15.5472C17.75 39.3326 19.7323 38.0143 20.5579 36.0001H20.2782Z" fill="#E0E5F4"/>
<path d="M13.3961 14.5857C12.7742 14.5015 12.1912 14.2423 11.7146 13.8398C11.2026 14.0332 10.6398 14.054 10.1143 13.8998C10.1438 13.959 10.1624 14.024 10.1954 14.0815C10.8553 15.0999 11.947 15.7682 13.1646 15.8999C13.5888 15.9707 14.0189 16.0057 14.4489 16.004C15.4933 15.9899 16.5309 15.8324 17.5314 15.5374C17.3877 15.1099 17.2247 14.6915 17.0413 14.284C15.8626 14.6407 14.6188 14.744 13.3961 14.5857Z" fill="#E0E5F4"/>
<path d="M20.9137 12.5808C20.7507 12.6816 20.5876 12.7808 20.4186 12.8791C20.1981 13.005 19.9758 13.1216 19.7545 13.2341C18.8901 13.675 17.9809 14.0266 17.043 14.2841C17.2263 14.6925 17.3894 15.11 17.533 15.5375C18.5141 15.2575 19.4655 14.8825 20.3721 14.42C20.5665 14.3216 20.76 14.22 20.9535 14.1091V13.0291C20.9526 12.8783 20.9391 12.7283 20.9137 12.5808Z" fill="#E0E5F4"/>
<path d="M10.8157 23.3332C11.5627 23.3332 12.1677 23.9298 12.1677 24.6665C12.1677 25.0348 12.4702 25.3332 12.8436 25.3332C13.2171 25.3332 13.5196 25.0348 13.5196 24.6665C13.5154 23.454 12.6822 22.3973 11.4917 22.0948V21.3332C11.4917 20.9648 11.1892 20.6665 10.8157 20.6665C10.4422 20.6665 10.1397 20.9648 10.1397 21.3332V22.0948C8.82243 22.429 7.96395 23.6773 8.13548 25.0082C8.307 26.3382 9.45532 27.3348 10.8157 27.3332C11.5627 27.3332 12.1677 27.9298 12.1677 28.6665C12.1677 29.4032 11.5627 29.9998 10.8157 29.9998C10.0688 29.9998 9.46377 29.4032 9.46377 28.6665C9.46377 28.2982 9.16127 27.9998 8.78779 27.9998C8.41432 27.9998 8.11182 28.2982 8.11182 28.6665C8.11604 29.879 8.95002 30.9357 10.1397 31.2382V31.9998C10.1397 32.3682 10.4422 32.6665 10.8157 32.6665C11.1892 32.6665 11.4917 32.3682 11.4917 31.9998V31.2407C12.8132 30.9098 13.6759 29.659 13.5044 28.3257C13.332 26.9923 12.1795 25.994 10.8157 25.9998C10.0688 25.9998 9.46377 25.4032 9.46377 24.6665C9.46377 23.9307 10.0688 23.3332 10.8157 23.3332Z" fill="#99A8DB"/>
<path d="M12.8436 16.6672H8.78779C8.41431 16.6672 8.11182 16.9656 8.11182 17.3339C8.11182 17.7022 8.41431 18.0006 8.78779 18.0006H12.8436C13.2171 18.0006 13.5196 17.7022 13.5196 17.3339C13.5196 16.9656 13.2163 16.6672 12.8436 16.6672Z" fill="#99A8DB"/>
<path d="M12.8436 35.3333H8.78779C8.41431 35.3333 8.11182 35.6316 8.11182 35.9999C8.11182 36.3683 8.41431 36.6666 8.78779 36.6666H12.8436C13.2171 36.6666 13.5196 36.3683 13.5196 35.9999C13.5196 35.6316 13.2163 35.3333 12.8436 35.3333Z" fill="#99A8DB"/>
<path d="M34.3336 25.6671L24.4111 8.7179C25.0212 8.1204 25.5611 7.45623 26.0208 6.73957C27.148 4.93957 27.3491 3.23123 26.5869 1.92957C25.071 -0.660433 20.2835 -0.6396 15.6868 1.97707C15.0768 2.32957 14.4895 2.71957 13.9293 3.1454L13.3834 2.53457C12.7328 1.8079 11.7974 1.39123 10.8147 1.3904C9.83205 1.39123 8.89667 1.8079 8.24604 2.53457L0.855953 10.7929C0.305033 11.4104 0 12.2054 0 13.0287V34.0004C0.00422484 37.3129 2.72502 39.9971 6.08377 40.0004H15.5474C16.743 40.0021 17.9116 39.6537 18.9062 39.0004C20.5631 39.5762 22.3933 39.4054 23.9117 38.5337L32.1071 33.8671C35.0197 32.2104 36.0168 28.5379 34.3336 25.6671ZM20.4186 10.0587C20.3511 10.0971 20.2835 10.1304 20.2159 10.1679L16.0138 5.4704L21.3954 7.25457C21.8745 7.41373 22.2784 7.73957 22.5311 8.17123L22.7034 8.4654C21.9937 9.0654 21.229 9.59873 20.4186 10.0587ZM16.3628 3.13207C20.1711 0.9629 24.3165 0.717067 25.4149 2.59873C25.9177 3.4554 25.7234 4.67873 24.8691 6.04207C24.5311 6.5704 24.1424 7.0654 23.7073 7.51957L23.7005 7.5079C23.2831 6.79457 22.6156 6.25623 21.8238 5.99373L15.2669 3.8204C15.6192 3.57707 15.9843 3.3479 16.362 3.13457V3.13207H16.3628ZM6.08377 38.6671C3.47197 38.6637 1.35533 36.5762 1.35195 34.0004V13.0287C1.35195 12.5304 1.53615 12.0487 1.87076 11.6746L9.26085 3.41707C9.6546 2.97623 10.2207 2.72373 10.8156 2.72373C11.4104 2.72373 11.9774 2.97707 12.3703 3.41707L18.9628 10.7854C17.4553 11.4862 15.8085 11.8471 14.1422 11.8404C14.1726 11.6737 14.1904 11.5037 14.1946 11.3346C14.2335 10.3712 13.8304 9.44123 13.0978 8.8029C12.3644 8.16457 11.38 7.88457 10.4151 8.04123C10.4092 8.04123 10.4024 8.04123 10.3965 8.04123C8.84428 8.23123 7.62837 9.44956 7.45938 10.9837C7.29123 12.5179 8.21478 13.9637 9.69009 14.4771C11.1654 14.9904 12.8046 14.4354 13.6496 13.1362C13.9158 13.1637 14.1828 13.1779 14.4506 13.1796C16.3375 13.1229 18.1896 12.6629 19.8787 11.8312C20.1364 12.1787 20.2767 12.5979 20.2784 13.0287V34.0004C20.275 36.5762 18.1584 38.6637 15.5466 38.6671H6.08377ZM12.8131 11.6279C12.2165 11.4754 11.7003 11.1071 11.3665 10.5962C11.1578 10.2204 11.0682 9.79206 11.1096 9.36623C11.647 9.4279 12.1354 9.7054 12.4582 10.1337C12.7801 10.5612 12.9094 11.1021 12.8131 11.6279ZM9.77205 9.6329C9.7729 10.2029 9.91992 10.7637 10.1996 11.2621C10.6474 11.9937 11.3454 12.5454 12.1675 12.8179C11.5972 13.3262 10.7843 13.4712 10.0695 13.1929C9.35464 12.9146 8.86202 12.2596 8.79865 11.5037C8.73528 10.7487 9.11213 10.0229 9.77036 9.63206H9.77205V9.6329ZM33.6356 29.8762C33.3146 31.0729 32.5203 32.0929 31.4311 32.7096L23.2358 37.3762C22.297 37.9137 21.1977 38.1129 20.1263 37.9396C21.0963 36.8504 21.6303 35.4504 21.6303 34.0004V13.0287C21.6286 12.3862 21.4411 11.7579 21.0896 11.2171H21.0946C21.9033 10.7562 22.6696 10.2287 23.3879 9.63956L33.1633 26.3337C33.7945 27.4054 33.9643 28.6812 33.6356 29.8762Z" fill="#99A8DB"/>
<path d="M23.6583 27.2051C23.3524 27.2051 23.0846 27.0026 23.0051 26.7109C22.9257 26.4193 23.055 26.1118 23.3203 25.9609L28.0031 23.2942C28.2127 23.1734 28.4712 23.1726 28.6816 23.2909C28.892 23.4092 29.0213 23.6309 29.0213 23.8701C29.0205 24.1092 28.8903 24.3301 28.6791 24.4484L23.9963 27.1151C23.894 27.1743 23.7774 27.2051 23.6583 27.2051Z" fill="#99A8DB"/>
<path d="M24.5167 31.3333C24.2108 31.3333 23.943 31.1308 23.8635 30.8391C23.7841 30.5475 23.9134 30.24 24.1787 30.0891L30.0326 26.7558C30.3563 26.5716 30.7694 26.6816 30.9562 27C31.1429 27.3191 31.0314 27.7266 30.7086 27.9108L24.8547 31.2441C24.7516 31.3033 24.635 31.3333 24.5167 31.3333Z" fill="#99A8DB"/>
<path d="M24.3116 22.9848C24.0057 22.9848 23.7379 22.7823 23.6585 22.4906C23.579 22.1989 23.7083 21.8914 23.9736 21.7406L26.315 20.4073C26.5246 20.2864 26.7831 20.2856 26.9935 20.4039C27.2039 20.5223 27.3332 20.7448 27.3332 20.9831C27.3324 21.2223 27.2023 21.4431 26.991 21.5614L24.6496 22.8948C24.5465 22.9539 24.4299 22.9848 24.3116 22.9848Z" fill="#99A8DB"/>
</g>
<defs>
<clipPath id="clip0">
<rect width="35.1515" height="40" fill="white"/>
</clipPath>
</defs>
</svg>
