<svg width="22" height="22" viewBox="0 0 22 22" fill="none" xmlns="http://www.w3.org/2000/svg">
<mask id="mask0" mask-type="alpha" maskUnits="userSpaceOnUse" x="1" y="5" width="19" height="16">
<path fill-rule="evenodd" clip-rule="evenodd" d="M1.83337 5.99512H19.7871V20.8283H1.83337V5.99512Z" fill="white"/>
</mask>
<g mask="url(#mask0)">
<path fill-rule="evenodd" clip-rule="evenodd" d="M6.15594 7.37012C5.75169 7.37012 4.40053 7.53328 4.01278 9.62695L3.30511 15.127C3.07503 16.6697 3.25286 17.7862 3.83494 18.4618C4.40969 19.1291 5.43819 19.4536 6.97819 19.4536H14.6305C15.5912 19.4536 16.9029 19.262 17.6949 18.3472C18.3238 17.6221 18.5401 16.5423 18.3384 15.137L17.6244 9.58937C17.32 8.22262 16.517 7.37012 15.4867 7.37012H6.15594ZM14.6305 20.8286H6.97819C5.01378 20.8286 3.64519 20.3474 2.79361 19.3583C1.93836 18.3665 1.65236 16.8787 1.94386 14.9372L2.65519 9.41337C3.12269 6.88062 4.83228 5.99512 6.15594 5.99512H15.4867C16.8159 5.99512 18.4319 6.87787 18.9774 9.35378L19.7006 14.9519C19.96 16.7586 19.6355 18.2079 18.7344 19.2474C17.8379 20.2814 16.4189 20.8286 14.6305 20.8286Z" fill="#6C798F"/>
</g>
<path fill-rule="evenodd" clip-rule="evenodd" d="M14.7564 7.16898C14.3769 7.16898 14.0689 6.86098 14.0689 6.48148C14.0689 4.67657 12.6004 3.20898 10.7964 3.20898H10.7826C9.92005 3.20898 9.07947 3.5564 8.46989 4.16232C7.85755 4.7719 7.50647 5.61798 7.50647 6.48148C7.50647 6.86098 7.19847 7.16898 6.81897 7.16898C6.43947 7.16898 6.13147 6.86098 6.13147 6.48148C6.13147 5.25407 6.63014 4.05415 7.49914 3.1879C8.36539 2.32715 9.5598 1.83398 10.7799 1.83398H10.7991C13.3594 1.83398 15.4439 3.91848 15.4439 6.48148C15.4439 6.86098 15.1359 7.16898 14.7564 7.16898Z" fill="#6C798F"/>
<path fill-rule="evenodd" clip-rule="evenodd" d="M13.5147 11.2979H13.4725C13.093 11.2979 12.785 10.9899 12.785 10.6104C12.785 10.2309 13.093 9.92285 13.4725 9.92285C13.852 9.92285 14.1811 10.2309 14.1811 10.6104C14.1811 10.9899 13.8942 11.2979 13.5147 11.2979Z" fill="#6C798F"/>
<path fill-rule="evenodd" clip-rule="evenodd" d="M8.16955 11.2979H8.1283C7.7488 11.2979 7.4408 10.9899 7.4408 10.6104C7.4408 10.2309 7.7488 9.92285 8.1283 9.92285C8.5078 9.92285 8.83688 10.2309 8.83688 10.6104C8.83688 10.9899 8.54905 11.2979 8.16955 11.2979Z" fill="#6C798F"/>
</svg>
