<svg width="22" height="22" viewBox="0 0 22 22" fill="none" xmlns="http://www.w3.org/2000/svg">
<path fill-rule="evenodd" clip-rule="evenodd" d="M19.0728 6.98797L18.5022 5.99788C18.0195 5.16012 16.9498 4.87111 16.1109 5.35181V5.35181C15.7116 5.58705 15.2351 5.65379 14.7865 5.53732C14.3379 5.42084 13.9541 5.13071 13.7196 4.73091C13.5688 4.47679 13.4878 4.18735 13.4847 3.89186V3.89186C13.4983 3.41811 13.3196 2.95902 12.9892 2.61918C12.6589 2.27935 12.205 2.0877 11.7311 2.08789H10.5816C10.1172 2.08789 9.67206 2.27291 9.34452 2.60202C9.01698 2.93113 8.8341 3.3772 8.83633 3.84151V3.84151C8.82257 4.80017 8.04146 5.57006 7.08271 5.56997C6.78721 5.5669 6.49777 5.48585 6.24365 5.33503V5.33503C5.40474 4.85433 4.33504 5.14334 3.85235 5.9811L3.23984 6.98797C2.75773 7.82468 3.0428 8.89371 3.87752 9.37927V9.37927C4.4201 9.69252 4.75434 10.2714 4.75434 10.898C4.75434 11.5245 4.4201 12.1034 3.87752 12.4166V12.4166C3.04386 12.8989 2.75848 13.9654 3.23984 14.7996V14.7996L3.81879 15.798C4.04495 16.2061 4.42441 16.5073 4.8732 16.6348C5.32199 16.7624 5.80311 16.7058 6.21009 16.4777V16.4777C6.61018 16.2442 7.08694 16.1803 7.53442 16.3C7.98189 16.4197 8.36299 16.7133 8.593 17.1154C8.74383 17.3695 8.82487 17.6589 8.82794 17.9544V17.9544C8.82794 18.9229 9.61306 19.708 10.5816 19.708H11.7311C12.6963 19.708 13.4801 18.928 13.4847 17.9628V17.9628C13.4824 17.497 13.6665 17.0497 13.9958 16.7203C14.3252 16.391 14.7725 16.2069 15.2383 16.2092C15.5331 16.2171 15.8213 16.2978 16.0774 16.4441V16.4441C16.9141 16.9262 17.9831 16.6411 18.4687 15.8064V15.8064L19.0728 14.7996C19.3066 14.3982 19.3708 13.9202 19.2511 13.4713C19.1314 13.0225 18.8378 12.6399 18.4351 12.4083V12.4083C18.0325 12.1766 17.7388 11.794 17.6191 11.3452C17.4994 10.8964 17.5636 10.4183 17.7974 10.017C17.9495 9.75146 18.1696 9.53133 18.4351 9.37927V9.37927C19.2648 8.89397 19.5492 7.83119 19.0728 6.99636V6.99636V6.98797Z" stroke="#6C798F" stroke-width="1.5" stroke-linecap="round" stroke-linejoin="round"/>
<ellipse cx="11.1606" cy="10.8989" rx="2.41648" ry="2.41648" stroke="#6C798F" stroke-width="1.5" stroke-linecap="round" stroke-linejoin="round"/>
</svg>
