<svg width="21" height="24" viewBox="0 0 21 24" fill="none" xmlns="http://www.w3.org/2000/svg">
<g clip-path="url(#clip0)">
<path d="M10.3644 0.625C7.17629 0.625 4.57031 3.28164 4.57031 6.53171C4.57031 9.78178 7.17629 12.4384 10.3644 12.4384C13.5525 12.4384 16.1585 9.78178 16.1585 6.53171C16.1585 3.28164 13.5525 0.625 10.3644 0.625Z" fill="white"/>
<path d="M20.308 17.159C20.1559 16.7719 19.9539 16.411 19.7258 16.0758C18.5621 14.3217 16.7654 13.161 14.7415 12.8776C14.4887 12.8519 14.2102 12.9033 14.0078 13.0583C12.9453 13.8581 11.6798 14.2708 10.3645 14.2708C9.04912 14.2708 7.78367 13.8581 6.72113 13.0588C6.5187 12.9043 6.24023 12.8267 5.98743 12.8781C3.96309 13.162 2.14166 14.3227 1.00309 16.0763C0.775472 16.4115 0.573038 16.7986 0.42097 17.1595C0.344936 17.3145 0.37012 17.4947 0.446153 17.6498C0.648588 18.0107 0.901388 18.3721 1.12949 18.6816C1.48351 19.1719 1.86319 19.6103 2.29324 20.023C2.64726 20.3839 3.05213 20.7196 3.457 21.0548C5.45567 22.5769 7.8597 23.3763 10.3393 23.3763C12.8189 23.3763 15.2224 22.5765 17.2216 21.0548C17.6264 20.7453 18.0313 20.3844 18.3853 20.023C18.7902 19.6103 19.1951 19.1719 19.5491 18.6816C19.8019 18.3464 20.03 18.0112 20.2324 17.6498C20.3588 17.4942 20.384 17.3135 20.308 17.159Z" fill="white"/>
</g>
<defs>
<clipPath id="clip0">
<rect width="19.9756" height="22.75" fill="white" transform="translate(0.375 0.625)"/>
</clipPath>
</defs>
</svg>
