<svg width="22" height="23" viewBox="0 0 22 23" fill="none" xmlns="http://www.w3.org/2000/svg">
<path d="M8.39407 19.5392V16.728C8.39406 16.013 8.97698 15.432 9.69922 15.4272H12.3448C13.0705 15.4272 13.6588 16.0096 13.6588 16.728V16.728V19.5479C13.6586 20.155 14.148 20.6511 14.7611 20.6654H16.5248C18.283 20.6654 19.7083 19.2543 19.7083 17.5137V17.5137V9.51671C19.6989 8.83196 19.3741 8.18893 18.8264 7.77064L12.7945 2.96022C11.7378 2.12263 10.2356 2.12263 9.17893 2.96022L3.17348 7.77937C2.6237 8.19597 2.2984 8.84006 2.29163 9.52544V17.5137C2.29163 19.2543 3.71693 20.6654 5.47513 20.6654H7.23884C7.86712 20.6654 8.37644 20.1611 8.37644 19.5392V19.5392" stroke="#6C798F" stroke-width="1.5" stroke-linecap="round" stroke-linejoin="round"/>
</svg>
