<svg width="900" height="221" viewBox="0 0 900 221" fill="none" xmlns="http://www.w3.org/2000/svg">
<g opacity="0.2">
<path opacity="0.4" d="M376.922 50.7713L291.658 1L206.159 50.7713V151.257L291.658 201.264L376.922 151.257V50.7713Z" fill="url(#paint0_linear)"/>
<path opacity="0.2" d="M591.493 125.782L506.229 76.0104L420.966 125.782V226.504L506.229 276.275L591.493 226.504V125.782Z" fill="url(#paint1_linear)"/>
<path d="M378.099 252.45V201.972" stroke="white" stroke-width="0.6716" stroke-miterlimit="10"/>
<path opacity="0.25" d="M420.496 126.489L335.232 76.7177L249.733 126.489V226.975L335.232 276.746L420.496 226.975V126.489Z" stroke="url(#paint2_linear)" stroke-width="0.6752" stroke-miterlimit="10"/>
<path opacity="0.25" d="M377.628 50.2992L335.232 25.2956L292.836 50.2992V100.778L335.232 125.782L377.628 100.778V50.2992Z" stroke="url(#paint3_linear)" stroke-width="0.6752" stroke-miterlimit="10"/>
<path opacity="0.55" d="M291.658 100.542L233.716 66.8112L175.775 100.542V168.712L233.716 202.444L291.658 168.712V100.542Z" stroke="white" stroke-width="0.6752" stroke-miterlimit="10"/>
<path opacity="0.4" d="M335.703 176.732L292.836 151.729L249.969 176.732V227.447L292.836 252.451L335.703 227.447V176.732Z" fill="url(#paint4_linear)"/>
<path opacity="0.4" d="M506.229 126.018L463.362 101.014L420.495 126.018V176.732L463.362 201.736L506.229 176.732V126.018Z" fill="url(#paint5_linear)"/>
<path opacity="0.4" d="M591.964 177.204L549.097 152.2L506.23 177.204V227.683L549.097 252.922L591.964 227.683V177.204Z" fill="url(#paint6_linear)"/>
<path d="M420.496 176.732L378.099 151.729L335.703 176.732V227.447L378.099 252.451L420.496 227.447V176.732Z" stroke="url(#paint7_linear)" stroke-width="0.6716" stroke-miterlimit="10"/>
<path d="M762.021 26.4748L719.624 1.47125L677.228 26.4748V77.1896L719.624 102.193L762.021 77.1896V26.4748Z" stroke="url(#paint8_linear)" stroke-width="0.6716" stroke-miterlimit="10"/>
<path d="M850.792 148.817L808.396 123.813L766 148.817V199.531L808.396 224.535L850.792 199.531V148.817Z" stroke="url(#paint9_linear)" stroke-width="0.6716" stroke-miterlimit="10"/>
<path opacity="0.25" d="M463.362 101.014L420.494 76.0104L377.627 101.014V151.729L420.494 176.732L463.362 151.729V101.014Z" stroke="white" stroke-width="0.6752" stroke-miterlimit="10"/>
<path opacity="0.3" d="M981.734 175.817L938.867 150.813L896 175.817V226.296L938.867 251.299L981.734 226.296V175.817Z" fill="url(#paint10_linear)"/>
<path opacity="0.3" d="M934.735 83.8167L891.867 58.8131L849 83.8167V134.296L891.867 159.299L934.735 134.296V83.8167Z" fill="url(#paint11_linear)"/>
<path opacity="0.3" d="M842.734 107.285L799.867 82.2815L757 107.285V158L799.867 183.003L842.734 158V107.285Z" fill="url(#paint12_linear)"/>
<path opacity="0.3" d="M624.703 76.2463L581.835 51.2427L538.733 76.2463V126.961L581.835 151.965L624.703 126.961V76.2463Z" fill="url(#paint13_linear)"/>
<path opacity="0.4" d="M164.233 75.7741L121.366 50.7706L78.4983 75.7741V126.253L121.366 151.257L164.233 126.253V75.7741Z" fill="url(#paint14_linear)"/>
<path opacity="0.25" d="M733.049 169.892L690.181 144.652L647.078 169.892V220.371L690.181 245.374L733.049 220.371V169.892Z" fill="url(#paint15_linear)"/>
<path opacity="0.35" d="M506.466 126.018L463.598 101.014L420.496 126.018V176.732L463.598 201.736L506.466 176.732V126.018Z" stroke="white" stroke-width="0.6752" stroke-miterlimit="10"/>
<path opacity="0.35" d="M549.097 50.2992L506.229 25.2956L463.362 50.2992V100.778L506.229 125.782L549.097 100.778V50.2992Z" stroke="white" stroke-width="0.6752" stroke-miterlimit="10"/>
<path opacity="0.25" d="M121.367 151.493L78.4996 126.253L35.6323 151.493V201.971L78.4996 226.975L121.367 201.971V151.493Z" stroke="white" stroke-width="0.6752" stroke-miterlimit="10"/>
<path opacity="0.15" d="M677.228 76.9538L634.361 52.1861L591.494 76.9538V127.197L634.361 151.964L677.228 127.197V76.9538Z" stroke="white" stroke-width="0.672" stroke-miterlimit="10"/>
<path opacity="0.25" d="M677.228 226.504L634.361 201.5L591.494 226.504V277.219L634.361 302.222L677.228 277.219V226.504Z" stroke="white" stroke-width="0.6752" stroke-miterlimit="10"/>
<path d="M164.233 76.0102L121.366 51.0067L78.4983 76.0102V126.725L121.366 151.729L164.233 126.725V76.0102Z" stroke="url(#paint16_linear)" stroke-width="0.6752" stroke-miterlimit="10"/>
<path opacity="0.25" d="M163.998 126.489L78.4989 76.7177L-7.00012 126.489V226.975L78.4989 276.746L163.998 226.975V126.489Z" stroke="white" stroke-width="0.6752" stroke-miterlimit="10"/>
<path opacity="0.25" d="M676.992 176.732L591.728 126.961L506.465 176.732V277.218L591.728 327.225L676.992 277.218V176.732Z" stroke="white" stroke-width="0.6752" stroke-miterlimit="10"/>
<path opacity="0.75" d="M376.922 50.7713L291.658 1L206.159 50.7713V151.257L291.658 201.264L376.922 151.257V50.7713Z" stroke="white" stroke-width="0.6757" stroke-miterlimit="10"/>
<path opacity="0.75" d="M376.922 50.7713L291.658 1L206.159 50.7713L291.658 100.542L376.922 50.7713Z" stroke="white" stroke-width="0.6757" stroke-miterlimit="10" stroke-linecap="round" stroke-linejoin="round"/>
</g>
<defs>
<linearGradient id="paint0_linear" x1="376.84" y1="101.061" x2="206.245" y2="101.061" gradientUnits="userSpaceOnUse">
<stop stop-color="white"/>
<stop offset="1" stop-color="white" stop-opacity="0"/>
</linearGradient>
<linearGradient id="paint1_linear" x1="506.202" y1="81.6263" x2="506.202" y2="253.463" gradientUnits="userSpaceOnUse">
<stop stop-color="white" stop-opacity="0.4"/>
<stop offset="1" stop-color="white" stop-opacity="0"/>
</linearGradient>
<linearGradient id="paint2_linear" x1="421.326" y1="176.686" x2="248.935" y2="176.686" gradientUnits="userSpaceOnUse">
<stop stop-color="white"/>
<stop offset="1" stop-color="#00DEFF" stop-opacity="0"/>
</linearGradient>
<linearGradient id="paint3_linear" x1="378.427" y1="75.54" x2="291.967" y2="75.54" gradientUnits="userSpaceOnUse">
<stop stop-color="white"/>
<stop offset="1" stop-color="#00DEFF" stop-opacity="0"/>
</linearGradient>
<linearGradient id="paint4_linear" x1="335.667" y1="202.039" x2="249.87" y2="202.039" gradientUnits="userSpaceOnUse">
<stop stop-color="white"/>
<stop offset="1" stop-color="white" stop-opacity="0"/>
</linearGradient>
<linearGradient id="paint5_linear" x1="506.202" y1="151.327" x2="420.404" y2="151.327" gradientUnits="userSpaceOnUse">
<stop stop-color="white"/>
<stop offset="1" stop-color="white" stop-opacity="0"/>
</linearGradient>
<linearGradient id="paint6_linear" x1="570.866" y1="164.73" x2="527.241" y2="240.179" gradientUnits="userSpaceOnUse">
<stop stop-color="white" stop-opacity="0.6"/>
<stop offset="1" stop-color="white" stop-opacity="0"/>
</linearGradient>
<linearGradient id="paint7_linear" x1="421.322" y1="202.039" x2="334.876" y2="202.039" gradientUnits="userSpaceOnUse">
<stop stop-color="white" stop-opacity="0.2"/>
<stop offset="1" stop-color="white" stop-opacity="0"/>
</linearGradient>
<linearGradient id="paint8_linear" x1="676.462" y1="51.8331" x2="762.908" y2="51.8331" gradientUnits="userSpaceOnUse">
<stop stop-color="white" stop-opacity="0.7"/>
<stop offset="1" stop-color="white" stop-opacity="0"/>
</linearGradient>
<linearGradient id="paint9_linear" x1="765.234" y1="174.175" x2="851.68" y2="174.175" gradientUnits="userSpaceOnUse">
<stop stop-color="white" stop-opacity="0.7"/>
<stop offset="1" stop-color="white" stop-opacity="0"/>
</linearGradient>
<linearGradient id="paint10_linear" x1="938.829" y1="153.544" x2="938.829" y2="239.91" gradientUnits="userSpaceOnUse">
<stop stop-color="white"/>
<stop offset="1" stop-color="white" stop-opacity="0"/>
</linearGradient>
<linearGradient id="paint11_linear" x1="891.836" y1="61.5442" x2="891.836" y2="147.91" gradientUnits="userSpaceOnUse">
<stop stop-color="white"/>
<stop offset="1" stop-color="white" stop-opacity="0"/>
</linearGradient>
<linearGradient id="paint12_linear" x1="799.824" y1="85.1135" x2="799.824" y2="171.479" gradientUnits="userSpaceOnUse">
<stop stop-color="white"/>
<stop offset="1" stop-color="white" stop-opacity="0"/>
</linearGradient>
<linearGradient id="paint13_linear" x1="581.744" y1="54.0594" x2="581.744" y2="140.425" gradientUnits="userSpaceOnUse">
<stop stop-color="white"/>
<stop offset="1" stop-color="white" stop-opacity="0"/>
</linearGradient>
<linearGradient id="paint14_linear" x1="121.427" y1="53.4641" x2="121.427" y2="139.83" gradientUnits="userSpaceOnUse">
<stop stop-color="white"/>
<stop offset="1" stop-color="white" stop-opacity="0"/>
</linearGradient>
<linearGradient id="paint15_linear" x1="690.088" y1="147.543" x2="690.088" y2="233.909" gradientUnits="userSpaceOnUse">
<stop offset="0.2258" stop-color="white"/>
<stop offset="1" stop-color="white" stop-opacity="0.2"/>
</linearGradient>
<linearGradient id="paint16_linear" x1="156.013" y1="66.6535" x2="86.5057" y2="136.058" gradientUnits="userSpaceOnUse">
<stop stop-color="white"/>
<stop offset="1" stop-color="#00DEFF" stop-opacity="0"/>
</linearGradient>
</defs>
</svg>
