<svg width="1024" height="1024" viewBox="0 0 1024 1024" fill="none" xmlns="http://www.w3.org/2000/svg">
<rect width="1024" height="1024" rx="512" fill="#EF5DA8"/>
<path fill-rule="evenodd" clip-rule="evenodd" d="M293.451 623.156C337.05 623.156 372.394 587.812 372.394 544.213C372.394 500.614 337.05 465.27 293.451 465.27C249.852 465.27 214.508 500.614 214.508 544.213C214.508 587.812 249.852 623.156 293.451 623.156ZM293.451 665.664C360.527 665.664 414.902 611.289 414.902 544.213C414.902 477.137 360.527 422.762 293.451 422.762C226.376 422.762 172 477.137 172 544.213C172 611.289 226.376 665.664 293.451 665.664Z" fill="white"/>
<path fill-rule="evenodd" clip-rule="evenodd" d="M572.746 623.156C616.345 623.156 651.689 587.812 651.689 544.213C651.689 500.614 616.345 465.27 572.746 465.27C529.147 465.27 493.803 500.614 493.803 544.213C493.803 587.812 529.147 623.156 572.746 623.156ZM572.746 665.664C639.822 665.664 694.197 611.288 694.197 544.213C694.197 477.137 639.822 422.762 572.746 422.762C505.671 422.762 451.295 477.137 451.295 544.213C451.295 611.288 505.671 665.664 572.746 665.664Z" fill="white"/>
<path d="M651.689 365.073C651.689 361.719 654.408 359 657.762 359H688.125C691.478 359 694.197 361.719 694.197 365.073V541.177C694.197 544.53 691.478 547.249 688.125 547.249H657.762C654.408 547.249 651.689 544.53 651.689 541.177V365.073Z" fill="white"/>
<path d="M730.591 365.073C730.591 361.719 733.309 359 736.663 359H767.026C770.38 359 773.098 361.719 773.098 365.073V392.399C773.098 395.753 770.38 398.472 767.026 398.472H736.663C733.309 398.472 730.591 395.753 730.591 392.399V365.073Z" fill="white"/>
<path d="M730.59 450.088C730.59 446.735 733.309 444.016 736.663 444.016H767.026C770.379 444.016 773.098 446.735 773.098 450.088V659.591C773.098 662.945 770.379 665.664 767.026 665.664H736.663C733.309 665.664 730.59 662.945 730.59 659.591V450.088Z" fill="white"/>
<path d="M809.492 365.073C809.492 361.719 812.211 359 815.564 359H845.927C849.281 359 852 361.719 852 365.073V392.399C852 395.753 849.281 398.472 845.927 398.472H815.564C812.211 398.472 809.492 395.753 809.492 392.399V365.073Z" fill="white"/>
<path d="M809.492 450.088C809.492 446.735 812.211 444.016 815.565 444.016H845.928C849.281 444.016 852 446.735 852 450.088V659.591C852 662.945 849.281 665.664 845.928 665.664H815.565C812.211 665.664 809.492 662.945 809.492 659.591V450.088Z" fill="white"/>
</svg>
