<svg width="109" height="96" viewBox="0 0 109 96" fill="none" xmlns="http://www.w3.org/2000/svg">
<g clip-path="url(#clip0)">
<path opacity="0.2" d="M18.57 82.6201L0 72.1001L30.81 53.4001L64.16 36.0801L65.24 95.0801L18.57 82.6201Z" fill="#A9A9AB"/>
<path d="M65.24 95.0807L21.99 70.1107V24.9707L65.24 49.9507V95.0807Z" fill="#B76F3F"/>
<path opacity="0.1" d="M21.99 24.9707V70.1107L65.24 95.0807L23.24 69.4007L21.99 24.9707Z" fill="#8C4320"/>
<path opacity="0.5" d="M40.16 80.7509V35.4609L47.03 39.4309V85.1009L40.16 80.7509Z" fill="#9C480C"/>
<path d="M65.24 49.95L21.99 24.97L65.24 0L108.5 24.97L65.24 49.95Z" fill="#EFD995"/>
<path d="M105.31 24.97L65.37 47.95L21.99 24.97L65.24 49.95L108.5 24.97L65.24 0L105.31 24.97Z" fill="#FFEDB4"/>
<path d="M41.3 13.9695L91.47 42.7795L99.07 38.4595L41.5 13.7695L41.3 13.9695Z" fill="#DAC176"/>
<path d="M48.37 9.81055L66.31 19.8305L59.18 23.9305L41.5 13.7705L48.37 9.81055Z" fill="#E6E1E4"/>
<path d="M99.26 38.2707L91.66 42.5807L66.37 28.0507L73.7 23.9707L99.26 38.2707Z" fill="#E6E1E4"/>
<path d="M46.45 39.1602L91.16 14.2402L91.05 14.9002L47.03 39.4302L46.45 39.1602Z" fill="#E1CD8E"/>
<path d="M73.7 23.9701L66.37 28.0501L59.18 23.9301L66.31 19.8301L73.7 23.9701Z" fill="#F9F9F9"/>
<path d="M59.18 23.9297L66.37 28.0497L46.44 39.1597L39.57 35.1897L59.18 23.9297Z" fill="#F1F1F1"/>
<path d="M91.17 14.2397L73.7 23.9697L66.31 19.8297L83.56 9.92969L91.17 14.2397Z" fill="#F1F1F1"/>
<path d="M39.58 80.4695V35.1895L46.45 39.1595V84.8295L39.58 80.4695Z" fill="#B3A4AD"/>
<path d="M65.24 95.0807L108.5 70.1107V24.9707L65.24 49.9507V95.0807Z" fill="#D9AF6A"/>
<path opacity="0.2" d="M65.24 95.0801L108.5 70.1101V69.3301L65.24 94.3101V95.0801Z" fill="#9D6F40"/>
<path d="M67.81 63.0294L80.13 55.9094V45.6094L68.04 52.0794L67.81 52.7294V63.0294Z" fill="#AA5C26"/>
<path d="M91.96 79.6395V34.5195L84.55 38.7895V83.9095L91.96 79.6395Z" fill="#DAC176"/>
<path d="M92.24 79.7996V34.3496L84.83 38.6296V84.0796L92.24 79.7996Z" fill="#D6D6D6"/>
<path d="M35 50.1098L24.96 44.2998V29.5098L35 35.3198V50.1098ZM25.88 43.7698L34.08 48.5098V35.8498L25.88 31.1098V43.7698Z" fill="#A45823"/>
<path d="M28.0699 42.8998L31.4899 44.8698V40.8198L28.0699 38.8398V42.8998Z" fill="#A45823"/>
<path d="M26.4 37.91L33.15 41.81L29.78 34.75L26.4 37.91Z" fill="#A45823"/>
<path d="M68.29 52.2709L80.61 45.1509L80.36 44.9609L68.04 52.0809L68.29 52.2709Z" fill="#FEFEFE"/>
<path d="M68.29 62.5701V52.2701L68.04 52.0801V62.3701L68.29 62.5701Z" fill="#8B8B8B"/>
<path d="M68.29 62.5704L80.61 55.4504V45.1504L68.29 52.2704V62.5704Z" fill="#D6D6D6"/>
<path d="M68.98 53.6692L79.92 47.3492V46.6992L68.98 53.0192V53.6692Z" fill="#6F6F6F"/>
<path d="M73.51 53.9398L79.92 50.2398V49.5898L73.51 53.2798V53.9398Z" fill="#8E8E8E"/>
<path d="M69.02 60.8704L72.36 58.9404V53.4004L69.02 55.3304V60.8704Z" fill="#8E8E8E"/>
<path d="M73.51 55.35L79.92 51.66V51L73.51 54.7V55.35Z" fill="#8E8E8E"/>
<path d="M73.51 56.7699L79.92 53.0699V52.4199L73.51 56.1199V56.7699Z" fill="#8E8E8E"/>
<path d="M73.51 58.1898L79.92 54.4898V53.8398L73.51 57.5398V58.1898Z" fill="#8E8E8E"/>
<path d="M86.34 31.0391L91.31 34.3491L84.83 38.0891V38.6291L92.24 34.3491L86.34 31.0391Z" fill="#F1F1F1"/>
</g>
<defs>
<clipPath id="clip0">
<rect width="108.5" height="95.08" fill="white"/>
</clipPath>
</defs>
</svg>
