<svg width="92" height="95" viewBox="0 0 92 95" fill="none" xmlns="http://www.w3.org/2000/svg">
<path opacity="0.24" d="M89.8144 59.7251C90.7339 60.3018 91.2839 61.3177 91.2635 62.4024C91.2437 63.4871 90.6562 64.4821 89.7164 65.0242L39.0927 94.2234C37.0969 95.3752 33.6106 95.2305 31.3058 93.9009L3.08497 77.6151C0.780214 76.2849 0.529697 74.273 2.52612 73.1211L56.178 38.6289L89.8144 59.7251Z" fill="url(#paint0_linear)"/>
<path d="M45.9954 27.8192L46.0037 30.2467C49.1409 28.6843 51.3554 29.9368 50.9942 33.0396C50.6137 36.3074 49.4437 39.4536 46.0411 41.4172L46.0494 43.8667C49.8369 41.6808 52.9069 36.3658 52.9069 31.9945C52.9069 27.6233 49.7824 25.6333 45.9954 27.8192Z" fill="#637ED2"/>
<path d="M78.8869 62.8276L46.0004 43.8496L2.77661 68.7931L0 69.0111V71.5541H0.000550586C-0.00715762 72.4418 0.63868 73.3801 1.90668 74.1115L30.127 90.3967C32.4317 91.7269 35.918 91.871 37.9139 90.7192L82.567 64.9508V62.5387L78.8869 62.8276Z" fill="#3D56A6"/>
<path d="M82.568 62.5397L37.9149 88.3082C35.919 89.46 32.4327 89.3153 30.1279 87.9857L1.90766 71.6999C-0.397093 70.3698 -0.64761 68.3578 1.34881 67.206L46.0019 41.4375L82.568 62.5397Z" fill="#243A81"/>
<path d="M88.1543 55.1014C88.0453 54.6661 86.9887 50.2051 86.9887 50.2051L86.6666 50.0307L86.9887 48.8832L50.5741 27.2852L42.4623 40.5128L83.0333 62.965L85.8138 60.1066C85.8138 60.1066 88.2633 55.5367 88.1543 55.1014Z" fill="#637ED2"/>
<path d="M74.6072 60.5067L44.8899 43.3574L5.83129 65.8971L3.32227 66.0936V68.3918H3.32282C3.31566 69.1941 3.89928 70.0416 5.0456 70.7031L30.546 85.4189C32.6289 86.6208 35.7788 86.7512 37.5825 85.7105L80.1538 61.1291V58.9493L74.6072 60.5067Z" fill="#5B991C"/>
<path d="M80.1545 58.9494L37.5832 83.5308C35.7795 84.5715 32.629 84.4411 30.5467 83.2392L5.04629 68.5234C2.96342 67.3215 2.73768 65.5038 4.54085 64.4626L44.8906 41.1777L80.1545 58.9494Z" fill="#67B935"/>
<path d="M74.6072 57.6785L44.8899 40.5293L5.83129 63.069L3.32227 63.2654V65.5636H3.32282C3.31566 66.366 3.89928 67.2135 5.0456 67.875L30.546 82.5907C32.6289 83.7926 35.7788 83.923 37.5825 82.8823L80.1538 58.301V56.1211L74.6072 57.6785Z" fill="#5B991C"/>
<path d="M80.1545 56.1213L37.5832 80.7027C35.7795 81.7434 32.629 81.613 30.5467 80.4111L5.04629 65.6953C2.96342 64.4934 2.73768 62.6757 4.54085 61.6345L44.8906 38.3496L80.1545 56.1213Z" fill="#67B935"/>
<path d="M74.6072 54.8499L44.8899 37.7012L5.83129 60.2409L3.32227 60.4373V62.7355H3.32282C3.31566 63.5378 3.89928 64.3853 5.0456 65.0468L30.546 79.7625C32.6289 80.9645 35.7788 81.0949 37.5825 80.0542L80.1538 55.4728V53.293L74.6072 54.8499Z" fill="#5B991C"/>
<path d="M80.1545 53.2931L37.5832 77.8745C35.7795 78.9152 32.629 78.7848 30.5467 77.5829L5.04629 62.8672C2.96342 61.6652 2.73768 59.8475 4.54085 58.8063L44.8906 35.5215L80.1545 53.2931Z" fill="#67B935"/>
<path d="M78.8869 49.2026L46.0004 30.2246L2.77661 55.1681L0 55.3855V57.9286H0.000550586C-0.00715762 58.8163 0.63868 59.7546 1.90668 60.4859L30.127 76.7712C32.4317 78.1013 35.918 78.2455 37.9139 77.0937L82.567 51.3252V48.9131L78.8869 49.2026Z" fill="#3D56A6"/>
<path d="M82.568 48.9147L37.9149 74.6832C35.919 75.835 32.4327 75.6903 30.1279 74.3607L1.90766 58.0749C-0.397093 56.7448 -0.64761 54.7328 1.34881 53.581L46.0019 27.8125L82.568 48.9147Z" fill="#637ED2"/>
<path d="M73.457 50.7343C73.1944 50.7343 72.9383 50.5978 72.7974 50.354C72.5876 49.9903 72.712 49.5258 73.076 49.3156L75.8361 47.7229C76.2 47.5133 76.6647 47.6376 76.875 48.0014C77.0848 48.3652 76.9604 48.8296 76.5964 49.0399L73.8364 50.6325C73.7169 50.7013 73.5858 50.7343 73.457 50.7343Z" fill="#EFF8FF"/>
<path d="M33.5395 72.9078C33.4421 72.9078 33.3429 72.8891 33.2471 72.849C33.1167 72.7945 32.9895 72.7323 32.87 72.6629L27.4665 69.5448C27.1026 69.3346 26.9782 68.8701 27.1879 68.5063C27.3977 68.1426 27.863 68.0182 28.2269 68.2279L33.6304 71.346C33.6937 71.3829 33.7619 71.4159 33.8319 71.4456C34.2195 71.6069 34.4028 72.0521 34.2415 72.4395C34.1204 72.7317 33.8374 72.9078 33.5395 72.9078ZM39.357 70.4127C39.0944 70.4127 38.8384 70.2762 38.6974 70.0324C38.4871 69.6686 38.6121 69.2041 38.976 68.9939L44.6591 65.7145C45.0231 65.5043 45.4878 65.6292 45.6981 65.993C45.9084 66.3568 45.7834 66.8212 45.4195 67.0315L39.7364 70.3114C39.6169 70.3796 39.4858 70.4127 39.357 70.4127ZM22.1627 66.3667C22.0339 66.3667 21.9029 66.3336 21.7834 66.2649L16.1002 62.9855C15.7363 62.7752 15.6119 62.3108 15.8216 61.947C16.0314 61.5838 16.4967 61.4589 16.8606 61.6685L22.5438 64.9479C22.9077 65.1576 23.0321 65.6226 22.8224 65.9864C22.6814 66.2302 22.4254 66.3667 22.1627 66.3667ZM50.7239 63.8533C50.4612 63.8533 50.2052 63.7168 50.0642 63.4731C49.8539 63.1093 49.9789 62.6448 50.3428 62.4346L56.026 59.1546C56.3899 58.9444 56.8546 59.0693 57.0649 59.4331C57.2747 59.7969 57.1503 60.2613 56.7864 60.4716L51.1032 63.7515C50.9832 63.8203 50.8527 63.8533 50.7239 63.8533ZM10.7959 59.8073C10.6671 59.8073 10.536 59.7743 10.4165 59.7055L4.7334 56.4261C4.36946 56.2159 4.24503 55.7514 4.4548 55.3877C4.66512 55.0239 5.12982 54.8995 5.49376 55.1092L11.1769 58.3886C11.5408 58.5988 11.6653 59.0633 11.4555 59.4271C11.3146 59.6708 11.0591 59.8073 10.7959 59.8073ZM62.0901 57.2934C61.8275 57.2934 61.5715 57.157 61.4305 56.9132C61.2208 56.5494 61.3452 56.0849 61.7091 55.8747L67.3923 52.5948C67.7562 52.3851 68.2209 52.5095 68.4313 52.8732C68.641 53.237 68.5166 53.7015 68.1526 53.9117L62.4695 57.1916C62.35 57.261 62.2195 57.2934 62.0901 57.2934ZM9.1056 52.9569C8.84297 52.9569 8.58695 52.8204 8.446 52.5766C8.23567 52.2128 8.36066 51.7484 8.72459 51.5381L14.4077 48.2587C14.7717 48.0485 15.2369 48.1734 15.4467 48.5372C15.657 48.901 15.532 49.366 15.1681 49.5757L9.48495 52.8551C9.36548 52.9238 9.23444 52.9569 9.1056 52.9569ZM20.4724 46.397C20.2098 46.397 19.9538 46.2605 19.8128 46.0167C19.6025 45.6529 19.7275 45.1879 20.0914 44.9782L25.7746 41.6983C26.1385 41.4881 26.6032 41.613 26.8135 41.9768C27.0233 42.3405 26.8989 42.8056 26.535 43.0152L20.8518 46.2952C20.7323 46.3645 20.6013 46.397 20.4724 46.397ZM31.8393 39.8376C31.5767 39.8376 31.3206 39.7012 31.1797 39.4574C30.9699 39.0936 31.0944 38.6286 31.4583 38.4189L37.1414 35.139C37.5054 34.9293 37.9701 35.0537 38.1804 35.4174C38.3902 35.7812 38.2657 36.2462 37.9018 36.4559L32.2187 39.7358C32.0986 39.8046 31.9681 39.8376 31.8393 39.8376Z" fill="#EFF8FF"/>
<path d="M43.2067 33.2773C42.9441 33.2773 42.688 33.1408 42.5471 32.897C42.3368 32.5333 42.4617 32.0682 42.8257 31.8586L45.5857 30.2659C45.9497 30.0562 46.4149 30.1806 46.6247 30.5444C46.835 30.9081 46.71 31.3732 46.3461 31.5828L43.586 33.1755C43.4666 33.2448 43.3361 33.2773 43.2067 33.2773Z" fill="#EFF8FF"/>
<path d="M18.5548 66.1396L12.6206 62.7149C12.0871 62.4073 11.5992 62.3825 11.221 62.5894L11.2155 62.5867L8.77197 64.0115C8.77197 64.0115 9.47232 65.9761 9.47232 66.0394C9.47232 66.0581 9.87865 65.8716 10.4496 65.5997V77.0795C10.4496 78.6771 11.4214 80.5333 12.62 81.2251L16.9719 83.7362L17.648 86.112L19.9274 84.789C19.9604 84.7719 19.9924 84.7532 20.0238 84.7334L20.0271 84.7312V84.7307C20.456 84.45 20.7252 83.849 20.7252 83.0087V70.2841C20.7257 68.687 19.754 66.8313 18.5548 66.1396Z" fill="#243A81"/>
<path d="M16.1559 86.0429L10.2217 82.6182C9.02305 81.9265 8.05127 80.0702 8.05127 78.4726V65.748C8.05127 64.1504 9.02305 63.4163 10.2217 64.108L16.1559 67.5327C17.3545 68.2245 18.3263 70.0807 18.3263 71.6783V84.4029C18.3263 86.0005 17.3545 86.7347 16.1559 86.0429Z" fill="#637ED2"/>
<path d="M26.9953 60.2067L25.8418 60.7053C25.6199 60.5171 25.3667 60.3388 25.0798 60.1737C22.2421 58.5365 17.2857 58.7417 14.0092 60.6321L8.05072 64.0705L18.3263 70.0003L24.2848 66.5619C26.0345 65.552 26.9507 64.2665 26.9931 63.0376L26.9947 63.0354V60.2067H26.9953Z" fill="#243A81"/>
<path d="M18.3263 67.3562L8.05072 61.4264L14.0092 57.988C17.2857 56.0971 22.2421 55.8918 25.0798 57.5296C27.9175 59.1668 27.5613 62.0274 24.2848 63.9183L18.3263 67.3562Z" fill="#637ED2"/>
<path d="M18.3263 67.3555L8.05072 61.4258V64.0701V67.3555L10.1881 65.7106L18.3263 71.9546V67.3555Z" fill="#637ED2"/>
<path d="M23.5012 60.4789V59.2753L22.8769 59.2709C22.7359 59.1471 22.5713 59.0299 22.3824 58.9209C20.8915 58.0602 18.4733 58.0602 16.9823 58.9209C16.8166 59.0167 16.6707 59.119 16.5418 59.2264L15.8641 59.2214V60.4789C15.8641 61.043 16.2368 61.6065 16.9823 62.0369C18.4733 62.8976 20.8915 62.8976 22.3824 62.0369C23.1285 61.6071 23.5012 61.043 23.5012 60.4789Z" fill="#ECC067"/>
<path d="M19.6841 61.4793C21.7929 61.4793 23.5024 60.4927 23.5024 59.2758C23.5024 58.0588 21.7929 57.0723 19.6841 57.0723C17.5753 57.0723 15.8658 58.0588 15.8658 59.2758C15.8658 60.4927 17.5753 61.4793 19.6841 61.4793Z" fill="#FFDA93"/>
<path d="M14.5074 50.4886C15.1055 50.4886 15.5904 50.2087 15.5904 49.8634C15.5904 49.5182 15.1055 49.2383 14.5074 49.2383C13.9093 49.2383 13.4244 49.5182 13.4244 49.8634C13.4244 50.2087 13.9093 50.4886 14.5074 50.4886Z" fill="white"/>
<path d="M88.9609 53.3905C88.9609 49.5382 86.534 47.5356 83.3653 48.6109L83.3675 48.6093C83.0779 48.6698 82.567 48.9158 82.567 48.9158L82.5097 48.9681C82.3572 49.0435 82.2042 49.125 82.0494 49.2147L82.0577 51.6421C85.1949 50.0798 87.4094 51.3323 87.0482 54.4351C86.6678 57.7029 85.4978 60.8491 82.0951 62.8127L82.1034 65.2204C82.2543 65.1334 82.4035 65.041 82.5516 64.9446L82.567 64.9529C82.567 64.9529 82.6936 64.8681 82.7503 64.8126L82.7487 64.8131C86.2333 62.4313 88.9609 57.5103 88.9609 53.3905Z" fill="#3D56A6"/>
<path d="M50.9061 59.8565L27.4968 46.3471L32.5699 43.4199L55.9792 56.9288L50.9061 59.8565Z" fill="#243A81"/>
<path d="M56.6151 30.4547L57.5131 31.978L58.6501 32.1348L57.4779 30.1465L56.6151 30.4547Z" fill="url(#paint1_linear)"/>
<path d="M71.7293 21.666L72.6234 23.1833L72.1868 24.6471L70.6914 22.4497L71.7293 21.666Z" fill="url(#paint2_linear)"/>
<path d="M68.6053 21.4066C64.6631 21.4412 59.8939 24.2501 57.9531 27.6797C56.0123 31.1094 57.6343 33.8621 61.5765 33.8269C65.5187 33.7922 70.2879 30.9833 72.2287 27.5537C74.1695 24.1241 72.5475 21.3719 68.6053 21.4066Z" fill="url(#paint3_linear)"/>
<path d="M67.7111 19.8909C71.6533 19.8563 73.2758 22.6085 71.3345 26.0381C69.3937 29.4677 64.6245 32.2766 60.6823 32.3112C56.7401 32.3459 55.1175 29.5937 57.0589 26.1641C58.9997 22.7345 63.7689 19.9256 67.7111 19.8909Z" fill="url(#paint4_linear)"/>
<path d="M67.5872 20.1097C71.3907 20.0761 72.956 22.7314 71.0835 26.0405C69.2109 29.3496 64.6091 32.0594 60.8056 32.093C57.0022 32.1266 55.4369 29.4713 57.3094 26.1622C59.1825 22.8531 63.7838 20.1433 67.5872 20.1097Z" fill="url(#paint5_linear)"/>
<path opacity="0.82" d="M67.1456 20.8889C70.4541 20.8598 71.8151 23.1695 70.1865 26.0477C68.5579 28.9259 64.5551 31.283 61.2472 31.3121C57.9387 31.3413 56.5777 29.0316 58.2063 26.1534C59.8355 23.2752 63.8377 20.9181 67.1456 20.8889Z" fill="url(#paint6_linear)"/>
<path opacity="0.82" d="M58.35 26.1522C59.9671 23.2949 63.923 20.9517 67.2172 20.8889C67.1935 20.8889 67.1698 20.8884 67.1461 20.8889C63.8377 20.9181 59.8355 23.2751 58.2069 26.1533C56.5782 29.0315 57.9393 31.3413 61.2477 31.3121C61.272 31.3121 61.2956 31.311 61.3199 31.3104C58.0632 31.306 56.7329 29.0095 58.35 26.1522Z" fill="white"/>
<path opacity="0.59" d="M66.828 21.4514C69.7797 21.4255 70.9942 23.486 69.5413 26.0543C68.0883 28.6227 64.5172 30.7255 61.5655 30.7514C58.6138 30.7772 57.3992 28.7168 58.8522 26.1484C60.3052 23.5806 63.8763 21.4778 66.828 21.4514Z" fill="url(#paint7_linear)"/>
<path opacity="0.82" d="M65.2836 24.6747L65.4245 24.9141L65.8881 24.8745L65.6486 24.5977L65.2836 24.6747Z" fill="#FAA925"/>
<path d="M66.6892 22.2734L66.8307 22.5128L66.6633 22.8018L66.4078 22.7665L66.6892 22.2734Z" fill="#FAA925"/>
<g opacity="0.82">
<path opacity="0.82" d="M61.7322 30.0108L62.0868 29.3872C61.5214 29.33 61.1965 29.1473 61.1128 28.8413C61.0291 28.5342 61.1541 28.0901 61.4856 27.5073L61.6161 27.2778L63.2849 27.2679L63.1858 27.4435C62.9413 27.8727 62.9694 28.0863 63.2695 28.0846C63.3945 28.0835 63.5161 28.0417 63.6367 27.9575C63.7556 27.8738 63.8553 27.7632 63.9324 27.6267C63.988 27.5293 63.9715 27.3852 63.8828 27.1936L63.1896 25.9934C62.9353 25.5559 62.9551 25.0793 63.2491 24.5636C63.4627 24.1878 63.7936 23.8565 64.2418 23.5703C64.69 23.2847 65.18 23.1031 65.7119 23.0255L66.0015 22.5186L66.8312 22.5137L66.5498 23.0068C67.047 23.0629 67.3504 23.2522 67.4578 23.5747C67.5657 23.8977 67.4589 24.3413 67.1379 24.9037L65.4256 24.9142L65.6183 24.5592C65.6574 24.4811 65.6529 24.4139 65.6072 24.3573C65.561 24.3011 65.4894 24.2725 65.3898 24.2731C65.2785 24.2731 65.1657 24.3039 65.0528 24.3644C64.9399 24.425 64.8568 24.5031 64.8028 24.5972C64.723 24.7364 64.7643 24.9428 64.9256 25.2136L65.6111 26.3582C65.7317 26.5608 65.7818 26.7881 65.762 27.0385C65.7416 27.2899 65.6585 27.5431 65.5136 27.7968C65.365 28.0588 65.1646 28.302 64.913 28.5249C64.6608 28.7489 64.3602 28.9393 64.0117 29.0978C63.6615 29.2546 63.2953 29.3526 62.9149 29.3905L62.5642 30.0053L61.7322 30.0108Z" fill="url(#paint8_linear)"/>
</g>
<path d="M61.5913 29.7705L61.9459 29.147C61.3804 29.0898 61.0556 28.9071 60.9719 28.6011C60.8882 28.294 61.0132 27.8499 61.3447 27.2671L61.4751 27.0376L63.144 27.0277L63.0449 27.2032C62.8004 27.6325 62.8285 27.846 63.1286 27.8444C63.2535 27.8433 63.3752 27.8014 63.4958 27.7172C63.6147 27.6336 63.7144 27.523 63.7915 27.3865C63.8471 27.2891 63.8306 27.1449 63.7419 26.9534L63.0487 25.7531C62.7943 25.3156 62.8142 24.8391 63.1082 24.3234C63.3218 23.9475 63.6522 23.6162 64.1009 23.3301C64.5491 23.0444 65.0391 22.8628 65.571 22.7852L65.8606 22.2784L66.6903 22.2734L66.409 22.7665C66.9061 22.8227 67.2095 23.012 67.3169 23.3345C67.4248 23.6575 67.318 24.1011 66.997 24.6635L65.2847 24.674L65.4774 24.319C65.5165 24.2408 65.5121 24.1737 65.4664 24.117C65.4201 24.0609 65.3485 24.0323 65.2489 24.0328C65.1376 24.0328 65.0248 24.0636 64.9119 24.1242C64.799 24.1847 64.7159 24.2629 64.6619 24.357C64.5821 24.4962 64.6234 24.7026 64.7847 24.9733L65.4702 26.118C65.5908 26.3205 65.6409 26.5478 65.6211 26.7982C65.6007 27.0497 65.5176 27.3029 65.3727 27.5566C65.2241 27.8185 65.0237 28.0618 64.7721 28.2846C64.5199 28.5086 64.2193 28.699 63.8708 28.8575C63.5206 29.0144 63.1544 29.1123 62.774 29.1503L62.4233 29.765L61.5913 29.7705Z" fill="#FFE169"/>
<path d="M62.4216 29.7656L62.5719 30.0001L61.7323 30.0111L61.5913 29.7711L62.4216 29.7656Z" fill="#FAA925"/>
<path d="M75.8823 17.3377L77.6359 17.5705L78.4607 16.7725L76.1714 16.4688L75.8823 17.3377Z" fill="url(#paint9_linear)"/>
<path d="M78.2812 0.0253906L80.0277 0.257078L80.9114 1.50302L78.2587 1.32416L78.2812 0.0253906Z" fill="url(#paint10_linear)"/>
<path d="M76.1521 2.32524C73.7483 5.44889 73.0193 10.9334 74.5241 14.5755C76.0283 18.2181 79.1963 18.6385 81.6002 15.5149C84.0041 12.3912 84.733 6.9067 83.2283 3.26464C81.7241 -0.377413 78.556 -0.797862 76.1521 2.32524Z" fill="url(#paint11_linear)"/>
<path d="M74.4062 2.09304C76.8101 -1.03061 79.9782 -0.60961 81.4824 3.03245C82.9866 6.67505 82.2576 12.1596 79.8543 15.2827C77.4504 18.4063 74.2824 17.9853 72.7781 14.3433C71.2734 10.7012 72.0024 5.21669 74.4062 2.09304Z" fill="url(#paint12_linear)"/>
<path d="M74.502 2.32593C76.8211 -0.687653 79.8779 -0.281513 81.3292 3.23232C82.7806 6.7467 82.0775 12.0381 79.7584 15.0517C77.4394 18.0652 74.3825 17.6591 72.9312 14.1453C71.4798 10.6309 72.1829 5.33896 74.502 2.32593Z" fill="url(#paint13_linear)"/>
<path opacity="0.82" d="M74.8445 3.15281C76.8618 0.531613 79.5201 0.884922 80.7826 3.94143C82.0451 6.99794 81.4334 11.6009 79.416 14.2221C77.3987 16.8433 74.7404 16.49 73.478 13.4335C72.2155 10.3769 72.8272 5.77402 74.8445 3.15281Z" fill="url(#paint14_linear)"/>
<path opacity="0.82" d="M73.5655 13.3205C72.3124 10.286 72.9064 5.72821 74.8886 3.09766C74.8737 3.11637 74.8588 3.13453 74.8445 3.15379C72.8272 5.77499 72.2155 10.3779 73.478 13.4344C74.7405 16.4909 77.3993 16.8442 79.4161 14.223C79.4309 14.2038 79.4447 14.1845 79.4596 14.1653C77.4477 16.7248 74.8186 16.355 73.5655 13.3205Z" fill="white"/>
<path opacity="0.59" d="M75.0906 3.75054C76.8905 1.41221 79.2624 1.72699 80.3889 4.45385C81.5154 7.18127 80.9698 11.2878 79.1699 13.6261C77.37 15.9645 74.9981 15.6497 73.8716 12.9228C72.7451 10.196 73.2907 6.08942 75.0906 3.75054Z" fill="url(#paint15_linear)"/>
<path opacity="0.82" d="M76.6757 6.95181L76.9521 6.98869L77.2065 6.59961L76.8403 6.61722L76.6757 6.95181Z" fill="#FAA925"/>
<path d="M75.6528 4.36719L75.9286 4.40406L76.053 4.71389L75.8675 4.89275L75.6528 4.36719Z" fill="#FAA925"/>
<g opacity="0.82">
<path opacity="0.82" d="M78.6893 13.0378L78.4167 12.3741C78.023 12.7836 77.6789 12.9266 77.386 12.8039C77.0926 12.6806 76.82 12.3086 76.5651 11.6884L76.4649 11.4441L77.4862 10.1249L77.5633 10.3109C77.7505 10.7683 77.9361 10.8778 78.1194 10.6406C78.1959 10.5415 78.2378 10.4199 78.2455 10.2735C78.2526 10.1288 78.2273 9.98185 78.1673 9.83711C78.1249 9.7331 78.001 9.65771 77.7957 9.60928L76.423 9.41446C75.9215 9.34512 75.5586 9.03529 75.334 8.48606C75.1694 8.08598 75.1126 7.62205 75.1639 7.09264C75.2151 6.56378 75.3747 6.06628 75.6412 5.60016L75.4204 5.06029L75.9281 4.4043L76.1428 4.92986C76.4935 4.5727 76.8294 4.45107 77.1498 4.56554C77.4708 4.68001 77.7544 5.03717 77.9994 5.63648L76.9516 6.99028L76.7908 6.61991C76.7534 6.54121 76.6978 6.50324 76.6246 6.50379C76.5513 6.50544 76.4847 6.54451 76.4241 6.62321C76.3559 6.71071 76.3102 6.81858 76.2881 6.9446C76.2661 7.07118 76.276 7.18454 76.3173 7.2847C76.3779 7.43329 76.5656 7.5285 76.8784 7.56812L78.2031 7.73487C78.4371 7.76514 78.6469 7.8653 78.8319 8.0359C79.0174 8.20705 79.1655 8.42883 79.2756 8.69904C79.3902 8.97751 79.4584 9.28514 79.4788 9.62084C79.4997 9.95764 79.4639 10.3115 79.3742 10.6835C79.2817 11.0555 79.133 11.4044 78.9282 11.7269L79.1958 12.3818L78.6893 13.0378Z" fill="url(#paint16_linear)"/>
</g>
<path d="M78.4134 13.0007L78.1408 12.337C77.7472 12.7465 77.4031 12.8895 77.1101 12.7668C76.8167 12.6435 76.5436 12.2715 76.2892 11.6513L76.189 11.407L77.2103 10.0878L77.2874 10.2738C77.4746 10.7312 77.6602 10.8407 77.8435 10.6035C77.9201 10.5044 77.9619 10.3828 77.9696 10.2364C77.9773 10.0917 77.9514 9.94475 77.8914 9.80001C77.849 9.696 77.7251 9.6206 77.5198 9.57218L76.1472 9.37736C75.6456 9.30802 75.2827 8.99818 75.0581 8.44896C74.8935 8.04887 74.8368 7.58495 74.888 7.05553C74.9392 6.52667 75.0988 6.02917 75.3653 5.56305L75.1445 5.02318L75.6522 4.36719L75.8669 4.89275C76.2176 4.53559 76.5535 4.41397 76.8739 4.52843C77.1949 4.6429 77.4785 5.00006 77.7235 5.59937L76.6757 6.95317L76.515 6.5828C76.4775 6.50411 76.4219 6.46613 76.3487 6.46668C76.276 6.46833 76.2088 6.50741 76.1483 6.5861C76.08 6.67361 76.0343 6.78147 76.0123 6.90749C75.9902 7.03407 76.0002 7.14744 76.0415 7.2476C76.102 7.39618 76.2898 7.49139 76.6025 7.53101L77.9272 7.69776C78.1612 7.72803 78.371 7.82819 78.556 7.99879C78.7415 8.16994 78.8896 8.39172 78.9998 8.66193C79.1143 8.9404 79.1826 9.24803 79.2029 9.58373C79.2238 9.92053 79.1881 10.2744 79.0983 10.6464C79.0058 11.0184 78.8572 11.3673 78.6523 11.6898L78.9199 12.3447L78.4134 13.0007Z" fill="#FFE169"/>
<path d="M78.921 12.3438L79.198 12.3702L78.6892 13.0377L78.4134 13.0008L78.921 12.3438Z" fill="#FAA925"/>
<path d="M39.6174 27.7283L41.371 27.9617L42.1958 27.1632L39.9064 26.8594L39.6174 27.7283Z" fill="url(#paint17_linear)"/>
<path d="M42.0163 10.416L43.7628 10.6477L44.6465 11.8942L41.9938 11.7153L42.0163 10.416Z" fill="url(#paint18_linear)"/>
<path d="M39.8872 12.7161C37.4833 15.8397 36.7544 21.3243 38.2591 24.9663C39.7633 28.6089 42.9314 29.0294 45.3352 25.9057C47.7391 22.7821 48.4681 17.2975 46.9633 13.6555C45.4586 10.0134 42.2905 9.59244 39.8872 12.7161Z" fill="url(#paint19_linear)"/>
<path d="M38.1413 12.4837C40.5451 9.36002 43.7132 9.78101 45.2174 13.4231C46.7216 17.0657 45.9926 22.5502 43.5893 25.6733C41.1855 28.797 38.0174 28.376 36.5132 24.7339C35.0084 21.0919 35.7374 15.6073 38.1413 12.4837Z" fill="url(#paint20_linear)"/>
<path d="M38.2371 12.7166C40.5562 9.70297 43.613 10.1091 45.0644 13.6229C46.5157 17.1373 45.8126 22.4287 43.4935 25.4423C41.1745 28.4559 38.1176 28.0497 36.6663 24.5359C35.2144 21.0221 35.918 15.7301 38.2371 12.7166Z" fill="url(#paint21_linear)"/>
<path opacity="0.82" d="M38.579 13.5434C40.5963 10.9222 43.2546 11.2755 44.5171 14.3321C45.7795 17.3886 45.1678 21.9915 43.1505 24.6127C41.1332 27.2339 38.4749 26.8806 37.2124 23.8241C35.9499 20.7676 36.5622 16.1646 38.579 13.5434Z" fill="url(#paint22_linear)"/>
<path opacity="0.82" d="M37.3 23.7111C36.0469 20.6766 36.6409 16.1188 38.623 13.4883C38.6082 13.507 38.5933 13.5252 38.579 13.5444C36.5617 16.1656 35.95 20.7685 37.2124 23.825C38.4749 26.8816 41.1337 27.2349 43.1505 24.6137C43.1654 24.5944 43.1791 24.5751 43.194 24.5559C41.1827 27.1149 38.5537 26.7456 37.3 23.7111Z" fill="white"/>
<path opacity="0.59" d="M38.8256 14.1412C40.6255 11.8028 42.9974 12.1176 44.1239 14.8445C45.2504 17.5719 44.7043 21.6784 42.9049 24.0168C41.1051 26.3556 38.7331 26.0403 37.6066 23.3134C36.4801 20.5866 37.0258 16.48 38.8256 14.1412Z" fill="url(#paint23_linear)"/>
<path opacity="0.82" d="M40.4108 17.343L40.6866 17.3793L40.941 16.9902L40.5754 17.0078L40.4108 17.343Z" fill="#FAA925"/>
<path d="M39.3873 14.7578L39.6637 14.7947L39.7875 15.1045L39.602 15.2834L39.3873 14.7578Z" fill="#FAA925"/>
<g opacity="0.82">
<path opacity="0.82" d="M42.4243 23.4284L42.1518 22.7647C41.7581 23.1742 41.414 23.3173 41.1211 23.1945C40.8276 23.0713 40.5551 22.6992 40.3001 22.079L40.1999 21.8347L41.2213 20.5156L41.2984 20.7016C41.4856 21.1589 41.6711 21.2684 41.8544 21.0312C41.931 20.9322 41.9728 20.8105 41.9805 20.6641C41.9882 20.5194 41.9624 20.3725 41.9023 20.2277C41.86 20.1237 41.7361 20.0483 41.5307 19.9999L40.1581 19.8051C39.6565 19.7357 39.2937 19.4259 39.069 18.8767C38.9044 18.4766 38.8477 18.0127 38.8989 17.4833C38.9501 16.9544 39.1098 16.4569 39.3763 15.9908L39.1555 15.4509L39.6631 14.7949L39.8778 15.3205C40.2286 14.9633 40.5644 14.8417 40.8849 14.9562C41.2059 15.0706 41.4894 15.4278 41.7344 16.0271L40.6867 17.3809L40.5259 17.0105C40.4884 16.9318 40.4328 16.8939 40.3596 16.8944C40.2864 16.8961 40.2198 16.9351 40.1592 17.0138C40.0909 17.1013 40.0452 17.2092 40.0232 17.3352C40.0012 17.4618 40.0111 17.5752 40.0524 17.6753C40.1129 17.8239 40.3007 17.9191 40.6134 17.9587L41.9381 18.1255C42.1721 18.1558 42.3819 18.2559 42.5669 18.4265C42.7525 18.5977 42.9006 18.8195 43.0107 19.0897C43.1252 19.3681 43.1935 19.6758 43.2138 20.0115C43.2348 20.3483 43.199 20.7021 43.1092 21.0741C43.0167 21.4462 42.8681 21.7951 42.6633 22.1176L42.9308 22.7724L42.4243 23.4284Z" fill="url(#paint24_linear)"/>
</g>
<path d="M42.1479 23.3913L41.8753 22.7276C41.4816 23.1371 41.1375 23.2802 40.8446 23.1574C40.5512 23.0342 40.2781 22.6621 40.0237 22.0419L39.9235 21.7976L40.9448 20.4784L41.0219 20.6645C41.2091 21.1218 41.3947 21.2313 41.578 20.9941C41.6545 20.895 41.6964 20.7734 41.7041 20.627C41.7118 20.4823 41.6859 20.3354 41.6259 20.1906C41.5835 20.0866 41.4596 20.0112 41.2543 19.9628L39.8817 19.768C39.3801 19.6986 39.0172 19.3888 38.7926 18.8396C38.628 18.4395 38.5713 17.9756 38.6225 17.4462C38.6737 16.9173 38.8333 16.4198 39.0998 15.9537L38.879 15.4138L39.3867 14.7578L39.6014 15.2834C39.9521 14.9262 40.288 14.8046 40.6084 14.9191C40.9294 15.0335 41.213 15.3907 41.458 15.99L40.4102 17.3438L40.2494 16.9734C40.212 16.8947 40.1564 16.8568 40.0832 16.8573C40.0105 16.859 39.9433 16.898 39.8828 16.9767C39.8145 17.0642 39.7688 17.1721 39.7468 17.2981C39.7247 17.4247 39.7346 17.5381 39.7759 17.6382C39.8365 17.7868 40.0243 17.882 40.337 17.9216L41.6617 18.0884C41.8957 18.1187 42.1055 18.2188 42.2905 18.3894C42.476 18.5606 42.6241 18.7823 42.7342 19.0526C42.8487 19.331 42.917 19.6387 42.9374 19.9744C42.9583 20.3111 42.9225 20.665 42.8328 21.037C42.7403 21.409 42.5916 21.758 42.3868 22.0804L42.6544 22.7353L42.1479 23.3913Z" fill="#FFE169"/>
<path d="M42.6555 22.7344L42.933 22.7602L42.4243 23.4278L42.1479 23.3909L42.6555 22.7344Z" fill="#FAA925"/>
<path d="M56.1223 13.1583L56.7604 13.9007L57.3953 13.8754L56.5622 12.9062L56.1223 13.1583Z" fill="url(#paint25_linear)"/>
<path d="M63.5002 6.89453L64.1356 7.63417L64.0409 8.47452L63.0113 7.42285L63.5002 6.89453Z" fill="url(#paint26_linear)"/>
<path d="M61.7725 7.06007C59.6274 7.46345 57.3028 9.45949 56.5804 11.5183C55.8575 13.5765 57.0104 14.9182 59.1555 14.5148C61.3006 14.1114 63.6252 12.1154 64.3476 10.0566C65.0705 7.99782 63.9175 6.65613 61.7725 7.06007Z" fill="url(#paint27_linear)"/>
<path d="M61.1371 6.31968C63.2822 5.91629 64.4351 7.25743 63.7122 9.3162C62.9893 11.3744 60.6647 13.3705 58.5202 13.7744C56.3751 14.1778 55.2221 12.8366 55.9451 10.7779C56.668 8.71965 58.9926 6.72362 61.1371 6.31968Z" fill="url(#paint28_linear)"/>
<path d="M61.0914 6.45205C63.161 6.06241 64.2732 7.35678 63.5756 9.34291C62.8786 11.329 60.6355 13.2546 58.5659 13.6443C56.4962 14.0339 55.3841 12.7395 56.0816 10.7534C56.7787 8.76727 59.0218 6.84113 61.0914 6.45205Z" fill="url(#paint29_linear)"/>
<path opacity="0.82" d="M60.9268 6.91962C62.7267 6.58062 63.6941 7.70659 63.0879 9.43406C62.4811 11.1615 60.5304 12.8367 58.7305 13.1752C56.9306 13.5142 55.9633 12.3882 56.5695 10.6607C57.1762 8.93326 59.1269 7.25807 60.9268 6.91962Z" fill="url(#paint30_linear)"/>
<path opacity="0.82" d="M56.6476 10.6455C57.2499 8.9307 59.1765 7.26762 60.9659 6.91211C60.9526 6.91431 60.94 6.91651 60.9268 6.91871C59.1269 7.25771 57.1762 8.93235 56.5694 10.6598C55.9627 12.3873 56.9306 13.5133 58.7305 13.1743C58.7437 13.1721 58.7564 13.1688 58.7696 13.1666C56.995 13.4819 56.0453 12.3603 56.6476 10.6455Z" fill="white"/>
<path opacity="0.59" d="M60.8084 7.25678C62.4145 6.95465 63.2778 7.959 62.7366 9.50046C62.1953 11.0419 60.4549 12.5361 58.8488 12.8382C57.2428 13.1403 56.3794 12.136 56.9207 10.5945C57.4619 9.0536 59.2023 7.55891 60.8084 7.25678Z" fill="url(#paint31_linear)"/>
<path opacity="0.82" d="M60.2815 9.16158L60.3817 9.27825L60.6306 9.21166L60.4731 9.08398L60.2815 9.16158Z" fill="#FAA925"/>
<path d="M60.8134 7.71875L60.9136 7.83542L60.8508 8.00932L60.7076 8.01483L60.8134 7.71875Z" fill="#FAA925"/>
<g opacity="0.82">
<path opacity="0.82" d="M58.8675 12.4163L58.9997 12.0415C58.6858 12.0657 58.4909 11.9975 58.4155 11.839C58.3401 11.6799 58.3643 11.4257 58.4882 11.0757L58.5372 10.9375L59.4456 10.7691L59.4087 10.8742C59.3174 11.1318 59.3537 11.2457 59.5167 11.2154C59.5849 11.2028 59.6471 11.1681 59.7044 11.1103C59.7611 11.0531 59.8046 10.9832 59.8332 10.9012C59.8542 10.8423 59.831 10.7658 59.7639 10.6701L59.2689 10.0834C59.0872 9.86989 59.052 9.60794 59.1615 9.29865C59.2414 9.07302 59.3889 8.86059 59.6053 8.66027C59.8217 8.4605 60.0711 8.31412 60.353 8.22001L60.4609 7.91568L60.9124 7.83203L60.8072 8.12811C61.0836 8.10995 61.2675 8.18369 61.3572 8.34879C61.4475 8.51444 61.4327 8.76649 61.3126 9.10439L60.3805 9.27719L60.451 9.06476C60.4648 9.01854 60.4554 8.98221 60.4251 8.9558C60.3943 8.92938 60.3524 8.92113 60.2985 8.93103C60.2379 8.94204 60.1796 8.96956 60.1239 9.01358C60.0683 9.05761 60.0303 9.10824 60.0105 9.16492C59.9808 9.24857 60.0232 9.35699 60.1377 9.48907L60.6233 10.046C60.7087 10.1445 60.7582 10.2634 60.772 10.4021C60.7852 10.5413 60.7648 10.6871 60.7109 10.8396C60.6553 10.997 60.5699 11.1489 60.4548 11.2952C60.3392 11.4422 60.1939 11.5748 60.0193 11.6953C59.8437 11.8147 59.6538 11.9039 59.45 11.9617L59.319 12.331L58.8675 12.4163Z" fill="url(#paint32_linear)"/>
</g>
<path d="M58.7674 12.3005L58.8995 11.9257C58.5857 11.9499 58.3908 11.8817 58.3153 11.7232C58.2399 11.5641 58.2641 11.3099 58.388 10.9599L58.437 10.8223L59.3455 10.6539L59.3086 10.759C59.2172 11.0165 59.2535 11.1305 59.4165 11.1002C59.4848 11.0875 59.547 11.0529 59.6043 10.9951C59.661 10.9379 59.7045 10.868 59.7331 10.786C59.754 10.7271 59.7309 10.6506 59.6637 10.5548L59.1688 9.96818C58.9871 9.75465 58.9518 9.4927 59.0614 9.18341C59.1412 8.95778 59.2888 8.74481 59.5052 8.54504C59.7215 8.34527 59.971 8.19888 60.2529 8.10478L60.3608 7.80045L60.8123 7.7168L60.7071 8.01287C60.9835 7.99471 61.1674 8.06845 61.2571 8.23355C61.3474 8.3992 61.3326 8.65125 61.2125 8.98915L60.2804 9.16195L60.3509 8.94953C60.3646 8.9033 60.3553 8.86698 60.325 8.84056C60.2942 8.81415 60.2523 8.80589 60.1984 8.8158C60.1378 8.8268 60.0794 8.85432 60.0238 8.89835C59.9682 8.94237 59.9302 8.993 59.9104 9.04969C59.8807 9.13333 59.9231 9.24175 60.0376 9.37383L60.5232 9.93076C60.6085 10.0293 60.6581 10.1481 60.6719 10.2868C60.6851 10.426 60.6647 10.5719 60.6107 10.7243C60.5551 10.8817 60.4698 11.0336 60.3547 11.18C60.2391 11.3269 60.0937 11.4596 59.9192 11.5801C59.7436 11.6995 59.5536 11.7887 59.3499 11.8464L59.2189 12.2157L58.7674 12.3005Z" fill="#FFE169"/>
<path d="M59.2189 12.2168L59.324 12.3296L58.8676 12.4177L58.7674 12.301L59.2189 12.2168Z" fill="#FAA925"/>
<path d="M50.442 38.2308C50.8769 38.3463 51.2822 38.5202 51.6522 38.7503L49.441 37.375C49.811 37.6056 50.1457 37.8918 50.442 38.2308Z" fill="url(#paint33_linear)"/>
<path d="M51.6813 40.7529L52.0838 40.9686L51.6527 38.7519C51.2827 38.5219 50.8775 38.348 50.4425 38.2324C51.0113 38.8829 51.4346 39.7304 51.6813 40.7529Z" fill="url(#paint34_linear)"/>
<path d="M51.6813 40.7529L52.0838 40.9686L51.6527 38.7519C51.2827 38.5219 50.8775 38.348 50.4425 38.2324C51.0113 38.8829 51.4346 39.7304 51.6813 40.7529Z" fill="url(#paint35_linear)"/>
<path d="M42.9496 38.1734C45.4531 36.8366 47.6785 36.7888 49.245 37.7909L49.441 37.3765C47.8195 36.3683 45.5318 36.4305 42.9611 37.8025C39.15 39.8376 35.7881 44.1813 34.2261 48.6648L34.4683 48.8046C35.9522 44.4256 39.2287 40.1595 42.9496 38.1734Z" fill="url(#paint36_linear)"/>
<path d="M49.6562 38.0907C49.9277 38.1177 50.1898 38.165 50.4419 38.2322C50.1457 37.8932 49.8109 37.607 49.4409 37.377L49.2449 37.7914C49.3875 37.8822 49.5246 37.9823 49.6562 38.0907Z" fill="url(#paint37_linear)"/>
<path d="M49.6562 38.0907C49.9277 38.1177 50.1898 38.165 50.4419 38.2322C50.1457 37.8932 49.8109 37.607 49.4409 37.377L49.2449 37.7914C49.3875 37.8822 49.5246 37.9823 49.6562 38.0907Z" fill="url(#paint38_linear)"/>
<path d="M51.6813 40.7521L51.2182 40.5039C51.4979 41.3723 51.6323 42.3926 51.5937 43.5489C51.4588 47.6246 49.2257 52.2704 46.1154 55.525L46.3588 55.6654C49.5219 52.299 51.7831 47.5481 51.9213 43.3738C51.9533 42.4047 51.8679 41.5281 51.6813 40.7521Z" fill="url(#paint39_linear)"/>
<path d="M51.6813 40.7521L51.2182 40.5039C51.4979 41.3723 51.6323 42.3926 51.5937 43.5489C51.4588 47.6246 49.2257 52.2704 46.1154 55.525L46.3588 55.6654C49.5219 52.299 51.7831 47.5481 51.9213 43.3738C51.9533 42.4047 51.8679 41.5281 51.6813 40.7521Z" fill="url(#paint40_linear)"/>
<path d="M49.6562 38.0898C50.3527 38.6644 50.8874 39.4778 51.2183 40.5041L51.6813 40.7523C51.4352 39.7298 51.0112 38.8829 50.4419 38.2313C50.1898 38.1641 49.9277 38.1168 49.6562 38.0898Z" fill="url(#paint41_linear)"/>
<path d="M49.6562 38.0898C50.3527 38.6644 50.8874 39.4778 51.2183 40.5041L51.6813 40.7523C51.4352 39.7298 51.0112 38.8829 50.4419 38.2313C50.1898 38.1641 49.9277 38.1168 49.6562 38.0898Z" fill="url(#paint42_linear)"/>
<path d="M49.6562 38.0898C50.3527 38.6644 50.8874 39.4778 51.2183 40.5041L51.6813 40.7523C51.4352 39.7298 51.0112 38.8829 50.4419 38.2313C50.1898 38.1641 49.9277 38.1168 49.6562 38.0898Z" fill="url(#paint43_linear)"/>
<path d="M42.9055 39.4973C42.9369 39.4808 42.9677 39.4648 42.9991 39.4489C44.2759 38.7835 45.4679 38.5051 46.5069 38.5717C47.4335 38.2261 48.3101 38.0604 49.1167 38.0626L49.2455 37.7908C47.6785 36.7886 45.4531 36.837 42.9501 38.1732C39.2298 40.1594 35.9533 44.426 34.4694 48.805L35.3498 49.3129C36.538 45.3093 39.5089 41.3106 42.9055 39.4973Z" fill="url(#paint44_linear)"/>
<path d="M42.9055 39.4973C42.9369 39.4808 42.9677 39.4648 42.9991 39.4489C44.2759 38.7835 45.4679 38.5051 46.5069 38.5717C47.4335 38.2261 48.3101 38.0604 49.1167 38.0626L49.2455 37.7908C47.6785 36.7886 45.4531 36.837 42.9501 38.1732C39.2298 40.1594 35.9533 44.426 34.4694 48.805L35.3498 49.3129C36.538 45.3093 39.5089 41.3106 42.9055 39.4973Z" fill="url(#paint45_linear)"/>
<path d="M49.6562 38.0904C49.5246 37.982 49.3875 37.8824 49.2449 37.791L49.1161 38.0629C49.3 38.0634 49.48 38.0728 49.6562 38.0904Z" fill="url(#paint46_linear)"/>
<path d="M49.6562 38.0904C49.5246 37.982 49.3875 37.8824 49.2449 37.791L49.1161 38.0629C49.3 38.0634 49.48 38.0728 49.6562 38.0904Z" fill="url(#paint47_linear)"/>
<path d="M49.6562 38.0904C49.5246 37.982 49.3875 37.8824 49.2449 37.791L49.1161 38.0629C49.3 38.0634 49.48 38.0728 49.6562 38.0904Z" fill="url(#paint48_linear)"/>
<path d="M51.2183 40.5043L48.6189 39.1125L49.1161 38.0625C48.3095 38.0609 47.433 38.226 46.5063 38.5716C48.9405 38.7268 50.5366 40.774 50.4243 44.1739C50.301 47.9018 48.1598 52.1773 45.2356 55.0181L46.1154 55.5255C49.2257 52.2708 51.4594 47.6255 51.5938 43.5493C51.6317 42.393 51.498 41.3727 51.2183 40.5043Z" fill="url(#paint49_linear)"/>
<path d="M51.2183 40.5043L48.6189 39.1125L49.1161 38.0625C48.3095 38.0609 47.433 38.226 46.5063 38.5716C48.9405 38.7268 50.5366 40.774 50.4243 44.1739C50.301 47.9018 48.1598 52.1773 45.2356 55.0181L46.1154 55.5255C49.2257 52.2708 51.4594 47.6255 51.5938 43.5493C51.6317 42.393 51.498 41.3727 51.2183 40.5043Z" fill="url(#paint50_linear)"/>
<path d="M51.2183 40.5043L48.6189 39.1125L49.1161 38.0625C48.3095 38.0609 47.433 38.226 46.5063 38.5716C48.9405 38.7268 50.5366 40.774 50.4243 44.1739C50.301 47.9018 48.1598 52.1773 45.2356 55.0181L46.1154 55.5255C49.2257 52.2708 51.4594 47.6255 51.5938 43.5493C51.6317 42.393 51.498 41.3727 51.2183 40.5043Z" fill="url(#paint51_linear)"/>
<path d="M49.6562 38.09C49.48 38.0724 49.3 38.0631 49.1161 38.0625L48.6189 39.1125L51.2182 40.5043C50.8873 39.4779 50.3521 38.664 49.6562 38.09Z" fill="url(#paint52_linear)"/>
<path d="M49.6562 38.09C49.48 38.0724 49.3 38.0631 49.1161 38.0625L48.6189 39.1125L51.2182 40.5043C50.8873 39.4779 50.3521 38.664 49.6562 38.09Z" fill="url(#paint53_linear)"/>
<path d="M49.6562 38.09C49.48 38.0724 49.3 38.0631 49.1161 38.0625L48.6189 39.1125L51.2182 40.5043C50.8873 39.4779 50.3521 38.664 49.6562 38.09Z" fill="url(#paint54_linear)"/>
<path d="M49.6562 38.09C49.48 38.0724 49.3 38.0631 49.1161 38.0625L48.6189 39.1125L51.2182 40.5043C50.8873 39.4779 50.3521 38.664 49.6562 38.09Z" fill="url(#paint55_linear)"/>
<path d="M42.8741 40.4515C43.1847 40.2858 43.4897 40.146 43.7876 40.0305C44.2407 39.714 44.7026 39.4284 45.1723 39.1775C45.6265 38.9348 46.0719 38.7339 46.5063 38.5721C45.4674 38.5055 44.2759 38.784 42.9986 39.4493C39.591 41.3133 36.6261 45.3659 35.4836 49.391L35.999 49.6881C36.9559 45.9602 39.7077 42.1421 42.8741 40.4515Z" fill="url(#paint56_linear)"/>
<path d="M42.8741 40.4515C43.1847 40.2858 43.4897 40.146 43.7876 40.0305C44.2407 39.714 44.7026 39.4284 45.1723 39.1775C45.6265 38.9348 46.0719 38.7339 46.5063 38.5721C45.4674 38.5055 44.2759 38.784 42.9986 39.4493C39.591 41.3133 36.6261 45.3659 35.4836 49.391L35.999 49.6881C36.9559 45.9602 39.7077 42.1421 42.8741 40.4515Z" fill="url(#paint57_linear)"/>
<path opacity="0.82" d="M42.8741 40.4515C43.1847 40.2858 43.4897 40.146 43.7876 40.0305C44.2407 39.714 44.7026 39.4284 45.1723 39.1775C45.6265 38.9348 46.0719 38.7339 46.5063 38.5721C45.4674 38.5055 44.2759 38.784 42.9986 39.4493C39.591 41.3133 36.6261 45.3659 35.4836 49.391L35.999 49.6881C36.9559 45.9602 39.7077 42.1421 42.8741 40.4515Z" fill="url(#paint58_linear)"/>
<path d="M50.4243 44.1726C50.5366 40.7733 48.9405 38.7261 46.5063 38.5703C46.0719 38.7321 45.6265 38.933 45.1723 39.1757C44.7032 39.4261 44.2407 39.7122 43.7875 40.0287C47.1868 38.7128 49.7146 40.6148 49.5824 44.6222C49.4674 48.1025 47.3812 52.1182 44.5859 54.642L45.2361 55.0174C48.1597 52.176 50.301 47.9005 50.4243 44.1726Z" fill="url(#paint59_linear)"/>
<path d="M50.4243 44.1726C50.5366 40.7733 48.9405 38.7261 46.5063 38.5703C46.0719 38.7321 45.6265 38.933 45.1723 39.1757C44.7032 39.4261 44.2407 39.7122 43.7875 40.0287C47.1868 38.7128 49.7146 40.6148 49.5824 44.6222C49.4674 48.1025 47.3812 52.1182 44.5859 54.642L45.2361 55.0174C48.1597 52.176 50.301 47.9005 50.4243 44.1726Z" fill="url(#paint60_linear)"/>
<path d="M50.4243 44.1726C50.5366 40.7733 48.9405 38.7261 46.5063 38.5703C46.0719 38.7321 45.6265 38.933 45.1723 39.1757C44.7032 39.4261 44.2407 39.7122 43.7875 40.0287C47.1868 38.7128 49.7146 40.6148 49.5824 44.6222C49.4674 48.1025 47.3812 52.1182 44.5859 54.642L45.2361 55.0174C48.1597 52.176 50.301 47.9005 50.4243 44.1726Z" fill="url(#paint61_linear)"/>
<path opacity="0.82" d="M50.4243 44.1726C50.5366 40.7733 48.9405 38.7261 46.5063 38.5703C46.0719 38.7321 45.6265 38.933 45.1723 39.1757C44.7032 39.4261 44.2407 39.7122 43.7875 40.0287C47.1868 38.7128 49.7146 40.6148 49.5824 44.6222C49.4674 48.1025 47.3812 52.1182 44.5859 54.642L45.2361 55.0174C48.1597 52.176 50.301 47.9005 50.4243 44.1726Z" fill="url(#paint62_linear)"/>
<path d="M42.9055 39.4976C42.9369 39.4811 42.9677 39.4652 42.9986 39.4492C42.9677 39.4652 42.9369 39.4811 42.9055 39.4976Z" fill="url(#paint63_linear)"/>
<path d="M42.9055 39.4976C42.9369 39.4811 42.9677 39.4652 42.9986 39.4492C42.9677 39.4652 42.9369 39.4811 42.9055 39.4976Z" fill="url(#paint64_linear)"/>
<path opacity="0.82" d="M42.9055 39.4976C42.9369 39.4811 42.9677 39.4652 42.9986 39.4492C42.9677 39.4652 42.9369 39.4811 42.9055 39.4976Z" fill="white"/>
<path d="M42.9986 39.4492C42.9678 39.4652 42.9364 39.4811 42.9055 39.4976C39.509 41.311 36.538 45.3096 35.3488 49.3127L35.4836 49.3908C36.6261 45.3657 39.591 41.3132 42.9986 39.4492Z" fill="url(#paint65_linear)"/>
<path d="M42.9986 39.4492C42.9678 39.4652 42.9364 39.4811 42.9055 39.4976C39.509 41.311 36.538 45.3096 35.3488 49.3127L35.4836 49.3908C36.6261 45.3657 39.591 41.3132 42.9986 39.4492Z" fill="url(#paint66_linear)"/>
<path opacity="0.82" d="M42.9986 39.4492C42.9678 39.4652 42.9364 39.4811 42.9055 39.4976C39.509 41.311 36.538 45.3096 35.3488 49.3127L35.4836 49.3908C36.6261 45.3657 39.591 41.3132 42.9986 39.4492Z" fill="url(#paint67_linear)"/>
<path opacity="0.82" d="M42.9986 39.4492C42.9678 39.4652 42.9364 39.4811 42.9055 39.4976C39.509 41.311 36.538 45.3096 35.3488 49.3127L35.4836 49.3908C36.6261 45.3657 39.591 41.3132 42.9986 39.4492Z" fill="white"/>
<path d="M43.7876 40.0293C43.4891 40.1449 43.1841 40.2846 42.8741 40.4503C39.7077 42.1409 36.9564 45.9591 35.999 49.6875L36.4653 49.9566C37.8451 46.0537 40.5826 42.2675 43.7876 40.0293Z" fill="url(#paint68_linear)"/>
<path d="M43.7876 40.0293C43.4891 40.1449 43.1841 40.2846 42.8741 40.4503C39.7077 42.1409 36.9564 45.9591 35.999 49.6875L36.4653 49.9566C37.8451 46.0537 40.5826 42.2675 43.7876 40.0293Z" fill="url(#paint69_linear)"/>
<path opacity="0.82" d="M43.7876 40.0293C43.4891 40.1449 43.1841 40.2846 42.8741 40.4503C39.7077 42.1409 36.9564 45.9591 35.999 49.6875L36.4653 49.9566C37.8451 46.0537 40.5826 42.2675 43.7876 40.0293Z" fill="url(#paint70_linear)"/>
<path opacity="0.59" d="M43.7876 40.0293C43.4891 40.1449 43.1841 40.2846 42.8741 40.4503C39.7077 42.1409 36.9564 45.9591 35.999 49.6875L36.4653 49.9566C37.8451 46.0537 40.5826 42.2675 43.7876 40.0293Z" fill="url(#paint71_linear)"/>
<path d="M49.5824 44.6224C49.7151 40.6149 47.1868 38.713 43.7875 40.0288C40.5826 42.267 37.8445 46.0533 36.4653 49.9562L39.6757 51.8086L39.689 51.4333L41.8687 50.2776L41.8594 50.5753C41.8577 50.6138 41.8577 50.6501 41.8572 50.6865L42.2183 50.495L42.209 50.7927C42.1991 51.0656 42.2183 51.2726 42.2673 51.4146C42.3108 51.4035 42.3576 51.3848 42.4083 51.3579C42.5718 51.2709 42.7023 51.1328 42.802 50.9402C42.9005 50.7498 42.955 50.5357 42.9622 50.3045C42.9682 50.1383 42.8477 49.9611 42.6004 49.7713L40.87 48.6734C40.2368 48.2749 39.9362 47.6366 39.9681 46.7599C39.9901 46.121 40.1966 45.4611 40.5875 44.7787C40.979 44.0974 41.4965 43.5245 42.1402 43.0584L42.1721 42.1966L43.2556 41.622L43.6053 41.8394L43.5865 42.3452C44.0958 42.2202 44.4983 42.2967 44.7934 42.5741C44.9272 42.6236 45.0473 42.6985 45.1524 42.8003C45.5153 43.1497 45.6793 43.8041 45.6441 44.76L43.4082 45.946L43.0585 45.7286L43.0673 45.1315C43.0668 45.1122 43.0651 45.094 43.0624 45.0764C43.0178 45.0863 42.9704 45.1045 42.9209 45.1304C42.775 45.2069 42.6483 45.3241 42.5421 45.4804C42.4358 45.6372 42.3797 45.7963 42.3742 45.9564C42.3659 46.1732 42.5283 46.3939 42.8592 46.6168L44.2902 47.4929C44.3095 47.505 44.3282 47.5182 44.3469 47.5309L44.6398 47.7103C44.9366 47.8936 45.1579 48.1561 45.3033 48.4984C45.4486 48.8423 45.513 49.2303 45.4976 49.6618C45.4822 50.107 45.3864 50.5621 45.2097 51.0271C45.0324 51.4932 44.7692 51.9484 44.4212 52.3947C44.0705 52.8393 43.6576 53.2191 43.1852 53.5289L43.1742 53.8272L44.5853 54.6411C47.3812 52.1184 49.4674 48.1027 49.5824 44.6224Z" fill="url(#paint72_linear)"/>
<path d="M49.5824 44.6224C49.7151 40.6149 47.1868 38.713 43.7875 40.0288C40.5826 42.267 37.8445 46.0533 36.4653 49.9562L39.6757 51.8086L39.689 51.4333L41.8687 50.2776L41.8594 50.5753C41.8577 50.6138 41.8577 50.6501 41.8572 50.6865L42.2183 50.495L42.209 50.7927C42.1991 51.0656 42.2183 51.2726 42.2673 51.4146C42.3108 51.4035 42.3576 51.3848 42.4083 51.3579C42.5718 51.2709 42.7023 51.1328 42.802 50.9402C42.9005 50.7498 42.955 50.5357 42.9622 50.3045C42.9682 50.1383 42.8477 49.9611 42.6004 49.7713L40.87 48.6734C40.2368 48.2749 39.9362 47.6366 39.9681 46.7599C39.9901 46.121 40.1966 45.4611 40.5875 44.7787C40.979 44.0974 41.4965 43.5245 42.1402 43.0584L42.1721 42.1966L43.2556 41.622L43.6053 41.8394L43.5865 42.3452C44.0958 42.2202 44.4983 42.2967 44.7934 42.5741C44.9272 42.6236 45.0473 42.6985 45.1524 42.8003C45.5153 43.1497 45.6793 43.8041 45.6441 44.76L43.4082 45.946L43.0585 45.7286L43.0673 45.1315C43.0668 45.1122 43.0651 45.094 43.0624 45.0764C43.0178 45.0863 42.9704 45.1045 42.9209 45.1304C42.775 45.2069 42.6483 45.3241 42.5421 45.4804C42.4358 45.6372 42.3797 45.7963 42.3742 45.9564C42.3659 46.1732 42.5283 46.3939 42.8592 46.6168L44.2902 47.4929C44.3095 47.505 44.3282 47.5182 44.3469 47.5309L44.6398 47.7103C44.9366 47.8936 45.1579 48.1561 45.3033 48.4984C45.4486 48.8423 45.513 49.2303 45.4976 49.6618C45.4822 50.107 45.3864 50.5621 45.2097 51.0271C45.0324 51.4932 44.7692 51.9484 44.4212 52.3947C44.0705 52.8393 43.6576 53.2191 43.1852 53.5289L43.1742 53.8272L44.5853 54.6411C47.3812 52.1184 49.4674 48.1027 49.5824 44.6224Z" fill="url(#paint73_linear)"/>
<path d="M49.5824 44.6224C49.7151 40.6149 47.1868 38.713 43.7875 40.0288C40.5826 42.267 37.8445 46.0533 36.4653 49.9562L39.6757 51.8086L39.689 51.4333L41.8687 50.2776L41.8594 50.5753C41.8577 50.6138 41.8577 50.6501 41.8572 50.6865L42.2183 50.495L42.209 50.7927C42.1991 51.0656 42.2183 51.2726 42.2673 51.4146C42.3108 51.4035 42.3576 51.3848 42.4083 51.3579C42.5718 51.2709 42.7023 51.1328 42.802 50.9402C42.9005 50.7498 42.955 50.5357 42.9622 50.3045C42.9682 50.1383 42.8477 49.9611 42.6004 49.7713L40.87 48.6734C40.2368 48.2749 39.9362 47.6366 39.9681 46.7599C39.9901 46.121 40.1966 45.4611 40.5875 44.7787C40.979 44.0974 41.4965 43.5245 42.1402 43.0584L42.1721 42.1966L43.2556 41.622L43.6053 41.8394L43.5865 42.3452C44.0958 42.2202 44.4983 42.2967 44.7934 42.5741C44.9272 42.6236 45.0473 42.6985 45.1524 42.8003C45.5153 43.1497 45.6793 43.8041 45.6441 44.76L43.4082 45.946L43.0585 45.7286L43.0673 45.1315C43.0668 45.1122 43.0651 45.094 43.0624 45.0764C43.0178 45.0863 42.9704 45.1045 42.9209 45.1304C42.775 45.2069 42.6483 45.3241 42.5421 45.4804C42.4358 45.6372 42.3797 45.7963 42.3742 45.9564C42.3659 46.1732 42.5283 46.3939 42.8592 46.6168L44.2902 47.4929C44.3095 47.505 44.3282 47.5182 44.3469 47.5309L44.6398 47.7103C44.9366 47.8936 45.1579 48.1561 45.3033 48.4984C45.4486 48.8423 45.513 49.2303 45.4976 49.6618C45.4822 50.107 45.3864 50.5621 45.2097 51.0271C45.0324 51.4932 44.7692 51.9484 44.4212 52.3947C44.0705 52.8393 43.6576 53.2191 43.1852 53.5289L43.1742 53.8272L44.5853 54.6411C47.3812 52.1184 49.4674 48.1027 49.5824 44.6224Z" fill="url(#paint74_linear)"/>
<path opacity="0.82" d="M49.5824 44.6224C49.7151 40.6149 47.1868 38.713 43.7875 40.0288C40.5826 42.267 37.8445 46.0533 36.4653 49.9562L39.6757 51.8086L39.689 51.4333L41.8687 50.2776L41.8594 50.5753C41.8577 50.6138 41.8577 50.6501 41.8572 50.6865L42.2183 50.495L42.209 50.7927C42.1991 51.0656 42.2183 51.2726 42.2673 51.4146C42.3108 51.4035 42.3576 51.3848 42.4083 51.3579C42.5718 51.2709 42.7023 51.1328 42.802 50.9402C42.9005 50.7498 42.955 50.5357 42.9622 50.3045C42.9682 50.1383 42.8477 49.9611 42.6004 49.7713L40.87 48.6734C40.2368 48.2749 39.9362 47.6366 39.9681 46.7599C39.9901 46.121 40.1966 45.4611 40.5875 44.7787C40.979 44.0974 41.4965 43.5245 42.1402 43.0584L42.1721 42.1966L43.2556 41.622L43.6053 41.8394L43.5865 42.3452C44.0958 42.2202 44.4983 42.2967 44.7934 42.5741C44.9272 42.6236 45.0473 42.6985 45.1524 42.8003C45.5153 43.1497 45.6793 43.8041 45.6441 44.76L43.4082 45.946L43.0585 45.7286L43.0673 45.1315C43.0668 45.1122 43.0651 45.094 43.0624 45.0764C43.0178 45.0863 42.9704 45.1045 42.9209 45.1304C42.775 45.2069 42.6483 45.3241 42.5421 45.4804C42.4358 45.6372 42.3797 45.7963 42.3742 45.9564C42.3659 46.1732 42.5283 46.3939 42.8592 46.6168L44.2902 47.4929C44.3095 47.505 44.3282 47.5182 44.3469 47.5309L44.6398 47.7103C44.9366 47.8936 45.1579 48.1561 45.3033 48.4984C45.4486 48.8423 45.513 49.2303 45.4976 49.6618C45.4822 50.107 45.3864 50.5621 45.2097 51.0271C45.0324 51.4932 44.7692 51.9484 44.4212 52.3947C44.0705 52.8393 43.6576 53.2191 43.1852 53.5289L43.1742 53.8272L44.5853 54.6411C47.3812 52.1184 49.4674 48.1027 49.5824 44.6224Z" fill="url(#paint75_linear)"/>
<path opacity="0.59" d="M49.5824 44.6224C49.7151 40.6149 47.1868 38.713 43.7875 40.0288C40.5826 42.267 37.8445 46.0533 36.4653 49.9562L39.6757 51.8086L39.689 51.4333L41.8687 50.2776L41.8594 50.5753C41.8577 50.6138 41.8577 50.6501 41.8572 50.6865L42.2183 50.495L42.209 50.7927C42.1991 51.0656 42.2183 51.2726 42.2673 51.4146C42.3108 51.4035 42.3576 51.3848 42.4083 51.3579C42.5718 51.2709 42.7023 51.1328 42.802 50.9402C42.9005 50.7498 42.955 50.5357 42.9622 50.3045C42.9682 50.1383 42.8477 49.9611 42.6004 49.7713L40.87 48.6734C40.2368 48.2749 39.9362 47.6366 39.9681 46.7599C39.9901 46.121 40.1966 45.4611 40.5875 44.7787C40.979 44.0974 41.4965 43.5245 42.1402 43.0584L42.1721 42.1966L43.2556 41.622L43.6053 41.8394L43.5865 42.3452C44.0958 42.2202 44.4983 42.2967 44.7934 42.5741C44.9272 42.6236 45.0473 42.6985 45.1524 42.8003C45.5153 43.1497 45.6793 43.8041 45.6441 44.76L43.4082 45.946L43.0585 45.7286L43.0673 45.1315C43.0668 45.1122 43.0651 45.094 43.0624 45.0764C43.0178 45.0863 42.9704 45.1045 42.9209 45.1304C42.775 45.2069 42.6483 45.3241 42.5421 45.4804C42.4358 45.6372 42.3797 45.7963 42.3742 45.9564C42.3659 46.1732 42.5283 46.3939 42.8592 46.6168L44.2902 47.4929C44.3095 47.505 44.3282 47.5182 44.3469 47.5309L44.6398 47.7103C44.9366 47.8936 45.1579 48.1561 45.3033 48.4984C45.4486 48.8423 45.513 49.2303 45.4976 49.6618C45.4822 50.107 45.3864 50.5621 45.2097 51.0271C45.0324 51.4932 44.7692 51.9484 44.4212 52.3947C44.0705 52.8393 43.6576 53.2191 43.1852 53.5289L43.1742 53.8272L44.5853 54.6411C47.3812 52.1184 49.4674 48.1027 49.5824 44.6224Z" fill="url(#paint76_linear)"/>
<path d="M43.0586 45.7298L43.4082 45.9472L43.4143 45.541L43.0586 45.7298Z" fill="url(#paint77_linear)"/>
<path d="M43.0586 45.7298L43.4082 45.9472L43.4143 45.541L43.0586 45.7298Z" fill="url(#paint78_linear)"/>
<path d="M43.0586 45.7298L43.4082 45.9472L43.4143 45.541L43.0586 45.7298Z" fill="url(#paint79_linear)"/>
<path opacity="0.82" d="M43.0586 45.7298L43.4082 45.9472L43.4143 45.541L43.0586 45.7298Z" fill="url(#paint80_linear)"/>
<path opacity="0.59" d="M43.0586 45.7298L43.4082 45.9472L43.4143 45.541L43.0586 45.7298Z" fill="url(#paint81_linear)"/>
<path opacity="0.82" d="M43.0586 45.7298L43.4082 45.9472L43.4143 45.541L43.0586 45.7298Z" fill="#FAA925"/>
<path d="M43.6047 41.8404L43.2557 41.623L43.2402 42.0336L43.6047 41.8404Z" fill="#FAA925"/>
<path d="M42.9143 44.8761C42.8152 44.8337 42.7018 44.8459 42.5713 44.9152C42.4254 44.9917 42.2988 45.1089 42.1925 45.2652C42.0862 45.422 42.0301 45.5811 42.0246 45.7412C42.0158 45.9784 42.2107 46.2206 42.6076 46.4649L42.8593 46.619C42.5284 46.3961 42.3659 46.1754 42.3742 45.9586C42.3797 45.7979 42.4359 45.6394 42.5421 45.4826C42.6484 45.3268 42.775 45.2091 42.9209 45.1326C42.9705 45.1062 43.0173 45.0885 43.0624 45.0786C43.0481 44.9796 42.9986 44.9124 42.9143 44.8761Z" fill="url(#paint82_linear)"/>
<path d="M42.9143 44.8761C42.8152 44.8337 42.7018 44.8459 42.5713 44.9152C42.4254 44.9917 42.2988 45.1089 42.1925 45.2652C42.0862 45.422 42.0301 45.5811 42.0246 45.7412C42.0158 45.9784 42.2107 46.2206 42.6076 46.4649L42.8593 46.619C42.5284 46.3961 42.3659 46.1754 42.3742 45.9586C42.3797 45.7979 42.4359 45.6394 42.5421 45.4826C42.6484 45.3268 42.775 45.2091 42.9209 45.1326C42.9705 45.1062 43.0173 45.0885 43.0624 45.0786C43.0481 44.9796 42.9986 44.9124 42.9143 44.8761Z" fill="url(#paint83_linear)"/>
<path d="M42.9143 44.8761C42.8152 44.8337 42.7018 44.8459 42.5713 44.9152C42.4254 44.9917 42.2988 45.1089 42.1925 45.2652C42.0862 45.422 42.0301 45.5811 42.0246 45.7412C42.0158 45.9784 42.2107 46.2206 42.6076 46.4649L42.8593 46.619C42.5284 46.3961 42.3659 46.1754 42.3742 45.9586C42.3797 45.7979 42.4359 45.6394 42.5421 45.4826C42.6484 45.3268 42.775 45.2091 42.9209 45.1326C42.9705 45.1062 43.0173 45.0885 43.0624 45.0786C43.0481 44.9796 42.9986 44.9124 42.9143 44.8761Z" fill="url(#paint84_linear)"/>
<path opacity="0.82" d="M42.9143 44.8761C42.8152 44.8337 42.7018 44.8459 42.5713 44.9152C42.4254 44.9917 42.2988 45.1089 42.1925 45.2652C42.0862 45.422 42.0301 45.5811 42.0246 45.7412C42.0158 45.9784 42.2107 46.2206 42.6076 46.4649L42.8593 46.619C42.5284 46.3961 42.3659 46.1754 42.3742 45.9586C42.3797 45.7979 42.4359 45.6394 42.5421 45.4826C42.6484 45.3268 42.775 45.2091 42.9209 45.1326C42.9705 45.1062 43.0173 45.0885 43.0624 45.0786C43.0481 44.9796 42.9986 44.9124 42.9143 44.8761Z" fill="url(#paint85_linear)"/>
<path opacity="0.59" d="M42.9143 44.8761C42.8152 44.8337 42.7018 44.8459 42.5713 44.9152C42.4254 44.9917 42.2988 45.1089 42.1925 45.2652C42.0862 45.422 42.0301 45.5811 42.0246 45.7412C42.0158 45.9784 42.2107 46.2206 42.6076 46.4649L42.8593 46.619C42.5284 46.3961 42.3659 46.1754 42.3742 45.9586C42.3797 45.7979 42.4359 45.6394 42.5421 45.4826C42.6484 45.3268 42.775 45.2091 42.9209 45.1326C42.9705 45.1062 43.0173 45.0885 43.0624 45.0786C43.0481 44.9796 42.9986 44.9124 42.9143 44.8761Z" fill="url(#paint86_linear)"/>
<path d="M42.9143 44.8761C42.8152 44.8337 42.7018 44.8459 42.5713 44.9152C42.4254 44.9917 42.2988 45.1089 42.1925 45.2652C42.0862 45.422 42.0301 45.5811 42.0246 45.7412C42.0158 45.9784 42.2107 46.2206 42.6076 46.4649L42.8593 46.619C42.5284 46.3961 42.3659 46.1754 42.3742 45.9586C42.3797 45.7979 42.4359 45.6394 42.5421 45.4826C42.6484 45.3268 42.775 45.2091 42.9209 45.1326C42.9705 45.1062 43.0173 45.0885 43.0624 45.0786C43.0481 44.9796 42.9986 44.9124 42.9143 44.8761Z" fill="url(#paint87_linear)"/>
<path d="M43.3774 42.4067C43.449 42.383 43.5189 42.3621 43.5866 42.3456L43.6053 41.8398L43.5838 42.3329L43.3774 42.4067Z" fill="url(#paint88_linear)"/>
<path d="M43.3774 42.4067C43.449 42.383 43.5189 42.3621 43.5866 42.3456L43.6053 41.8398L43.5838 42.3329L43.3774 42.4067Z" fill="url(#paint89_linear)"/>
<path d="M43.3774 42.4067C43.449 42.383 43.5189 42.3621 43.5866 42.3456L43.6053 41.8398L43.5838 42.3329L43.3774 42.4067Z" fill="url(#paint90_linear)"/>
<path opacity="0.82" d="M43.3774 42.4067C43.449 42.383 43.5189 42.3621 43.5866 42.3456L43.6053 41.8398L43.5838 42.3329L43.3774 42.4067Z" fill="url(#paint91_linear)"/>
<path opacity="0.59" d="M43.3774 42.4067C43.449 42.383 43.5189 42.3621 43.5866 42.3456L43.6053 41.8398L43.5838 42.3329L43.3774 42.4067Z" fill="url(#paint92_linear)"/>
<path d="M43.3774 42.4067C43.449 42.383 43.5189 42.3621 43.5866 42.3456L43.6053 41.8398L43.5838 42.3329L43.3774 42.4067Z" fill="url(#paint93_linear)"/>
<path d="M44.4218 52.397C44.7698 51.9507 45.033 51.4961 45.2103 51.0294C45.387 50.5644 45.4828 50.1093 45.4982 49.6641C45.5142 49.2332 45.4498 48.8446 45.3039 48.5007C45.158 48.1584 44.9372 47.8953 44.6404 47.7126L44.3475 47.5332C44.6156 47.7143 44.8182 47.9636 44.9542 48.2833C45.0996 48.6273 45.164 49.0152 45.1486 49.4467C45.1332 49.8919 45.0374 50.347 44.8606 50.8121C44.6834 51.2782 44.4202 51.7333 44.0722 52.1796C43.7215 52.6243 43.3085 53.004 42.8361 53.3139L42.8246 53.6275L43.1748 53.8295L43.1858 53.5312C43.6582 53.2208 44.0711 52.8417 44.4218 52.397Z" fill="url(#paint94_linear)"/>
<path d="M44.4218 52.397C44.7698 51.9507 45.033 51.4961 45.2103 51.0294C45.387 50.5644 45.4828 50.1093 45.4982 49.6641C45.5142 49.2332 45.4498 48.8446 45.3039 48.5007C45.158 48.1584 44.9372 47.8953 44.6404 47.7126L44.3475 47.5332C44.6156 47.7143 44.8182 47.9636 44.9542 48.2833C45.0996 48.6273 45.164 49.0152 45.1486 49.4467C45.1332 49.8919 45.0374 50.347 44.8606 50.8121C44.6834 51.2782 44.4202 51.7333 44.0722 52.1796C43.7215 52.6243 43.3085 53.004 42.8361 53.3139L42.8246 53.6275L43.1748 53.8295L43.1858 53.5312C43.6582 53.2208 44.0711 52.8417 44.4218 52.397Z" fill="url(#paint95_linear)"/>
<path d="M44.4218 52.397C44.7698 51.9507 45.033 51.4961 45.2103 51.0294C45.387 50.5644 45.4828 50.1093 45.4982 49.6641C45.5142 49.2332 45.4498 48.8446 45.3039 48.5007C45.158 48.1584 44.9372 47.8953 44.6404 47.7126L44.3475 47.5332C44.6156 47.7143 44.8182 47.9636 44.9542 48.2833C45.0996 48.6273 45.164 49.0152 45.1486 49.4467C45.1332 49.8919 45.0374 50.347 44.8606 50.8121C44.6834 51.2782 44.4202 51.7333 44.0722 52.1796C43.7215 52.6243 43.3085 53.004 42.8361 53.3139L42.8246 53.6275L43.1748 53.8295L43.1858 53.5312C43.6582 53.2208 44.0711 52.8417 44.4218 52.397Z" fill="url(#paint96_linear)"/>
<path opacity="0.82" d="M44.4218 52.397C44.7698 51.9507 45.033 51.4961 45.2103 51.0294C45.387 50.5644 45.4828 50.1093 45.4982 49.6641C45.5142 49.2332 45.4498 48.8446 45.3039 48.5007C45.158 48.1584 44.9372 47.8953 44.6404 47.7126L44.3475 47.5332C44.6156 47.7143 44.8182 47.9636 44.9542 48.2833C45.0996 48.6273 45.164 49.0152 45.1486 49.4467C45.1332 49.8919 45.0374 50.347 44.8606 50.8121C44.6834 51.2782 44.4202 51.7333 44.0722 52.1796C43.7215 52.6243 43.3085 53.004 42.8361 53.3139L42.8246 53.6275L43.1748 53.8295L43.1858 53.5312C43.6582 53.2208 44.0711 52.8417 44.4218 52.397Z" fill="url(#paint97_linear)"/>
<path opacity="0.59" d="M44.4218 52.397C44.7698 51.9507 45.033 51.4961 45.2103 51.0294C45.387 50.5644 45.4828 50.1093 45.4982 49.6641C45.5142 49.2332 45.4498 48.8446 45.3039 48.5007C45.158 48.1584 44.9372 47.8953 44.6404 47.7126L44.3475 47.5332C44.6156 47.7143 44.8182 47.9636 44.9542 48.2833C45.0996 48.6273 45.164 49.0152 45.1486 49.4467C45.1332 49.8919 45.0374 50.347 44.8606 50.8121C44.6834 51.2782 44.4202 51.7333 44.0722 52.1796C43.7215 52.6243 43.3085 53.004 42.8361 53.3139L42.8246 53.6275L43.1748 53.8295L43.1858 53.5312C43.6582 53.2208 44.0711 52.8417 44.4218 52.397Z" fill="url(#paint98_linear)"/>
<path d="M44.4218 52.397C44.7698 51.9507 45.033 51.4961 45.2103 51.0294C45.387 50.5644 45.4828 50.1093 45.4982 49.6641C45.5142 49.2332 45.4498 48.8446 45.3039 48.5007C45.158 48.1584 44.9372 47.8953 44.6404 47.7126L44.3475 47.5332C44.6156 47.7143 44.8182 47.9636 44.9542 48.2833C45.0996 48.6273 45.164 49.0152 45.1486 49.4467C45.1332 49.8919 45.0374 50.347 44.8606 50.8121C44.6834 51.2782 44.4202 51.7333 44.0722 52.1796C43.7215 52.6243 43.3085 53.004 42.8361 53.3139L42.8246 53.6275L43.1748 53.8295L43.1858 53.5312C43.6582 53.2208 44.0711 52.8417 44.4218 52.397Z" fill="url(#paint99_linear)"/>
<path d="M45.2945 44.5447L43.6196 45.4329L43.988 45.5787L43.4082 45.948L45.6442 44.7621C45.6794 43.8056 45.5153 43.1518 45.1525 42.8024C45.0468 42.7005 44.9267 42.6257 44.7935 42.5762C44.7968 42.5789 44.8001 42.5817 44.8034 42.585C45.1657 42.935 45.3298 43.5888 45.2945 44.5447Z" fill="url(#paint100_linear)"/>
<path d="M45.2945 44.5447L43.6196 45.4329L43.988 45.5787L43.4082 45.948L45.6442 44.7621C45.6794 43.8056 45.5153 43.1518 45.1525 42.8024C45.0468 42.7005 44.9267 42.6257 44.7935 42.5762C44.7968 42.5789 44.8001 42.5817 44.8034 42.585C45.1657 42.935 45.3298 43.5888 45.2945 44.5447Z" fill="url(#paint101_linear)"/>
<path d="M45.2945 44.5447L43.6196 45.4329L43.988 45.5787L43.4082 45.948L45.6442 44.7621C45.6794 43.8056 45.5153 43.1518 45.1525 42.8024C45.0468 42.7005 44.9267 42.6257 44.7935 42.5762C44.7968 42.5789 44.8001 42.5817 44.8034 42.585C45.1657 42.935 45.3298 43.5888 45.2945 44.5447Z" fill="url(#paint102_linear)"/>
<path opacity="0.82" d="M45.2945 44.5447L43.6196 45.4329L43.988 45.5787L43.4082 45.948L45.6442 44.7621C45.6794 43.8056 45.5153 43.1518 45.1525 42.8024C45.0468 42.7005 44.9267 42.6257 44.7935 42.5762C44.7968 42.5789 44.8001 42.5817 44.8034 42.585C45.1657 42.935 45.3298 43.5888 45.2945 44.5447Z" fill="url(#paint103_linear)"/>
<path opacity="0.59" d="M45.2945 44.5447L43.6196 45.4329L43.988 45.5787L43.4082 45.948L45.6442 44.7621C45.6794 43.8056 45.5153 43.1518 45.1525 42.8024C45.0468 42.7005 44.9267 42.6257 44.7935 42.5762C44.7968 42.5789 44.8001 42.5817 44.8034 42.585C45.1657 42.935 45.3298 43.5888 45.2945 44.5447Z" fill="url(#paint104_linear)"/>
<path d="M45.2945 44.5447L43.6196 45.4329L43.988 45.5787L43.4082 45.948L45.6442 44.7621C45.6794 43.8056 45.5153 43.1518 45.1525 42.8024C45.0468 42.7005 44.9267 42.6257 44.7935 42.5762C44.7968 42.5789 44.8001 42.5817 44.8034 42.585C45.1657 42.935 45.3298 43.5888 45.2945 44.5447Z" fill="url(#paint105_linear)"/>
<path d="M42.2669 51.4157C42.2184 51.2742 42.1986 51.0668 42.2085 50.7938L42.2179 50.4961L41.8567 50.6876C41.8539 51.244 41.9905 51.4867 42.2669 51.4157Z" fill="url(#paint106_linear)"/>
<path d="M42.2669 51.4157C42.2184 51.2742 42.1986 51.0668 42.2085 50.7938L42.2179 50.4961L41.8567 50.6876C41.8539 51.244 41.9905 51.4867 42.2669 51.4157Z" fill="url(#paint107_linear)"/>
<path d="M42.2669 51.4157C42.2184 51.2742 42.1986 51.0668 42.2085 50.7938L42.2179 50.4961L41.8567 50.6876C41.8539 51.244 41.9905 51.4867 42.2669 51.4157Z" fill="url(#paint108_linear)"/>
<path opacity="0.82" d="M42.2669 51.4157C42.2184 51.2742 42.1986 51.0668 42.2085 50.7938L42.2179 50.4961L41.8567 50.6876C41.8539 51.244 41.9905 51.4867 42.2669 51.4157Z" fill="url(#paint109_linear)"/>
<path opacity="0.59" d="M42.2669 51.4157C42.2184 51.2742 42.1986 51.0668 42.2085 50.7938L42.2179 50.4961L41.8567 50.6876C41.8539 51.244 41.9905 51.4867 42.2669 51.4157Z" fill="url(#paint110_linear)"/>
<path d="M42.2669 51.4157C42.2184 51.2742 42.1986 51.0668 42.2085 50.7938L42.2179 50.4961L41.8567 50.6876C41.8539 51.244 41.9905 51.4867 42.2669 51.4157Z" fill="url(#paint111_linear)"/>
<path d="M43.6196 45.4336L43.4143 45.542L43.4082 45.9482L43.988 45.5789L43.6196 45.4336Z" fill="url(#paint112_linear)"/>
<path d="M43.6196 45.4336L43.4143 45.542L43.4082 45.9482L43.988 45.5789L43.6196 45.4336Z" fill="url(#paint113_linear)"/>
<path d="M43.6196 45.4336L43.4143 45.542L43.4082 45.9482L43.988 45.5789L43.6196 45.4336Z" fill="url(#paint114_linear)"/>
<path opacity="0.82" d="M43.6196 45.4336L43.4143 45.542L43.4082 45.9482L43.988 45.5789L43.6196 45.4336Z" fill="url(#paint115_linear)"/>
<path opacity="0.59" d="M43.6196 45.4336L43.4143 45.542L43.4082 45.9482L43.988 45.5789L43.6196 45.4336Z" fill="url(#paint116_linear)"/>
<path opacity="0.82" d="M43.6196 45.4336L43.4143 45.542L43.4082 45.9482L43.988 45.5789L43.6196 45.4336Z" fill="#FAA925"/>
<path d="M43.6196 45.4336L43.4143 45.542L43.4082 45.9482L43.988 45.5789L43.6196 45.4336Z" fill="url(#paint117_linear)"/>
<path d="M43.2249 42.4612C43.2766 42.4408 43.3273 42.4232 43.3774 42.4067L43.5838 42.3329L43.6053 41.8398L43.2408 42.033L43.2249 42.4612Z" fill="#FAA925"/>
<path d="M43.2249 42.4612C43.2766 42.4408 43.3273 42.4232 43.3774 42.4067L43.5838 42.3329L43.6053 41.8398L43.2408 42.033L43.2249 42.4612Z" fill="url(#paint118_linear)"/>
<path d="M44.0722 52.1788C44.4202 51.7325 44.6834 51.278 44.8606 50.8113C45.0374 50.3463 45.1332 49.8911 45.1486 49.4459C45.1646 49.015 45.1001 48.6265 44.9542 48.2825C44.8182 47.9628 44.6156 47.713 44.3475 47.5324C44.3288 47.5198 44.3106 47.5066 44.2908 47.4945L42.8598 46.6184L42.6082 46.4643C42.2112 46.2199 42.0163 45.9778 42.0251 45.7406C42.0306 45.5799 42.0868 45.4214 42.1931 45.2646C42.2993 45.1088 42.426 44.991 42.5719 44.9145C42.7018 44.8452 42.8152 44.8336 42.9149 44.8755C42.9986 44.9118 43.0481 44.9789 43.063 45.0774C43.0657 45.0951 43.0674 45.1132 43.0679 45.1325L43.0591 45.7296L43.4148 45.5408L43.6202 45.4319L45.295 44.5436C45.3303 43.5872 45.1662 42.9334 44.8034 42.5839C44.8001 42.5806 44.7968 42.5784 44.7935 42.5751C44.4989 42.2972 44.0964 42.2207 43.5866 42.3462C43.5189 42.3627 43.4489 42.3836 43.3774 42.4073C43.3273 42.4238 43.2766 42.4414 43.2249 42.4617L43.2408 42.0336L43.2557 41.623L42.1721 42.1976L42.1402 43.0594C41.4966 43.5255 40.979 44.0984 40.5875 44.7797C40.1966 45.4621 39.9902 46.122 39.9681 46.7609C39.9362 47.6376 40.2368 48.2759 40.87 48.6744L42.6005 49.7723C42.8477 49.9621 42.9683 50.1393 42.9622 50.3055C42.9551 50.5372 42.9 50.7507 42.802 50.9412C42.7023 51.1343 42.5719 51.2725 42.4083 51.3589C42.3577 51.3858 42.3109 51.404 42.2674 51.4155C41.9904 51.4871 41.8539 51.2444 41.8577 50.6875C41.8577 50.6517 41.8583 50.6148 41.86 50.5763L41.8693 50.2786L39.6895 51.4343L39.6763 51.8096L42.8251 53.6268L42.8367 53.3131C43.3091 53.0027 43.7215 52.6235 44.0722 52.1788Z" fill="#FFE169"/>
<path d="M46.3588 55.6654L46.399 55.6885L50.16 55.1271C52.467 52.0046 54.018 48.182 54.1319 44.7486C54.2283 41.8379 53.2736 39.7587 51.6526 38.75L52.0837 40.9667L51.6813 40.751C51.8685 41.5269 51.9533 42.4036 51.9213 43.3733C51.7831 47.5481 49.5219 52.299 46.3588 55.6654Z" fill="url(#paint119_linear)"/>
<defs>
<linearGradient id="paint0_linear" x1="1.17867" y1="66.8152" x2="91.2641" y2="66.8152" gradientUnits="userSpaceOnUse">
<stop stop-color="#3BBFFF"/>
<stop offset="0.2913" stop-color="#2F93F0"/>
<stop offset="0.6027" stop-color="#256BE2"/>
<stop offset="0.8498" stop-color="#1E52D9"/>
<stop offset="1" stop-color="#1C49D6"/>
</linearGradient>
<linearGradient id="paint1_linear" x1="57.2447" y1="31.5234" x2="58.0202" y2="31.0663" gradientUnits="userSpaceOnUse">
<stop stop-color="#FCE559"/>
<stop offset="1" stop-color="#F6AA28"/>
</linearGradient>
<linearGradient id="paint2_linear" x1="71.3273" y1="23.528" x2="72.4399" y2="22.8722" gradientUnits="userSpaceOnUse">
<stop stop-color="#FCE559"/>
<stop offset="1" stop-color="#F6AA28"/>
</linearGradient>
<linearGradient id="paint3_linear" x1="57.5581" y1="32.0526" x2="72.6196" y2="23.1751" gradientUnits="userSpaceOnUse">
<stop stop-color="#FCE559"/>
<stop offset="1" stop-color="#F6AA28"/>
</linearGradient>
<linearGradient id="paint4_linear" x1="57.0583" y1="26.165" x2="67.8177" y2="32.2534" gradientUnits="userSpaceOnUse">
<stop stop-color="#FCE559"/>
<stop offset="1" stop-color="#F6AA28"/>
</linearGradient>
<linearGradient id="paint5_linear" x1="62.5639" y1="21.4892" x2="66.3252" y2="30.686" gradientUnits="userSpaceOnUse">
<stop stop-color="#FCE559"/>
<stop offset="1" stop-color="#F6AA28"/>
</linearGradient>
<linearGradient id="paint6_linear" x1="66.8065" y1="29.3271" x2="62.7502" y2="21.8822" gradientUnits="userSpaceOnUse">
<stop stop-color="#FCD835"/>
<stop offset="1" stop-color="#FAA925"/>
</linearGradient>
<linearGradient id="paint7_linear" x1="66.5252" y1="28.9804" x2="62.9062" y2="22.338" gradientUnits="userSpaceOnUse">
<stop stop-color="#FFC533"/>
<stop offset="1" stop-color="#F8BA26"/>
</linearGradient>
<linearGradient id="paint8_linear" x1="60.7409" y1="28.2152" x2="67.8619" y2="24.2832" gradientUnits="userSpaceOnUse">
<stop stop-color="#FCD835"/>
<stop offset="1" stop-color="#FAA925"/>
</linearGradient>
<linearGradient id="paint9_linear" x1="77.1124" y1="17.5011" x2="77.2308" y2="16.6092" gradientUnits="userSpaceOnUse">
<stop stop-color="#FCE559"/>
<stop offset="1" stop-color="#F6AA28"/>
</linearGradient>
<linearGradient id="paint10_linear" x1="79.5001" y1="1.48929" x2="79.6701" y2="0.20952" gradientUnits="userSpaceOnUse">
<stop stop-color="#FCE559"/>
<stop offset="1" stop-color="#F6AA28"/>
</linearGradient>
<linearGradient id="paint11_linear" x1="77.7247" y1="17.5828" x2="80.0253" y2="0.257828" gradientUnits="userSpaceOnUse">
<stop stop-color="#FCE559"/>
<stop offset="1" stop-color="#F6AA28"/>
</linearGradient>
<linearGradient id="paint12_linear" x1="72.7781" y1="14.3438" x2="84.2049" y2="9.62394" gradientUnits="userSpaceOnUse">
<stop stop-color="#FCE559"/>
<stop offset="1" stop-color="#F6AA28"/>
</linearGradient>
<linearGradient id="paint13_linear" x1="72.4906" y1="7.12897" x2="82.0536" y2="9.84037" gradientUnits="userSpaceOnUse">
<stop stop-color="#FCE559"/>
<stop offset="1" stop-color="#F6AA28"/>
</linearGradient>
<linearGradient id="paint14_linear" x1="81.2809" y1="8.62381" x2="72.9157" y2="7.2262" gradientUnits="userSpaceOnUse">
<stop stop-color="#FCD835"/>
<stop offset="1" stop-color="#FAA925"/>
</linearGradient>
<linearGradient id="paint15_linear" x1="80.8335" y1="8.63184" x2="73.3699" y2="7.38486" gradientUnits="userSpaceOnUse">
<stop stop-color="#FFC533"/>
<stop offset="1" stop-color="#F8BA26"/>
</linearGradient>
<linearGradient id="paint16_linear" x1="76.6638" y1="12.7105" x2="77.9602" y2="4.68284" gradientUnits="userSpaceOnUse">
<stop stop-color="#FCD835"/>
<stop offset="1" stop-color="#FAA925"/>
</linearGradient>
<linearGradient id="paint17_linear" x1="40.8472" y1="27.892" x2="40.9657" y2="27" gradientUnits="userSpaceOnUse">
<stop stop-color="#FCE559"/>
<stop offset="1" stop-color="#F6AA28"/>
</linearGradient>
<linearGradient id="paint18_linear" x1="43.235" y1="11.8801" x2="43.405" y2="10.6003" gradientUnits="userSpaceOnUse">
<stop stop-color="#FCE559"/>
<stop offset="1" stop-color="#F6AA28"/>
</linearGradient>
<linearGradient id="paint19_linear" x1="41.4595" y1="27.9733" x2="43.7601" y2="10.6483" gradientUnits="userSpaceOnUse">
<stop stop-color="#FCE559"/>
<stop offset="1" stop-color="#F6AA28"/>
</linearGradient>
<linearGradient id="paint20_linear" x1="36.5129" y1="24.7346" x2="47.9397" y2="20.0148" gradientUnits="userSpaceOnUse">
<stop stop-color="#FCE559"/>
<stop offset="1" stop-color="#F6AA28"/>
</linearGradient>
<linearGradient id="paint21_linear" x1="36.2255" y1="17.5198" x2="45.7885" y2="20.2312" gradientUnits="userSpaceOnUse">
<stop stop-color="#FCE559"/>
<stop offset="1" stop-color="#F6AA28"/>
</linearGradient>
<linearGradient id="paint22_linear" x1="45.0157" y1="19.0146" x2="36.6505" y2="17.617" gradientUnits="userSpaceOnUse">
<stop stop-color="#FCD835"/>
<stop offset="1" stop-color="#FAA925"/>
</linearGradient>
<linearGradient id="paint23_linear" x1="44.5683" y1="19.0227" x2="37.1047" y2="17.7757" gradientUnits="userSpaceOnUse">
<stop stop-color="#FFC533"/>
<stop offset="1" stop-color="#F8BA26"/>
</linearGradient>
<linearGradient id="paint24_linear" x1="40.3986" y1="23.1013" x2="41.695" y2="15.0737" gradientUnits="userSpaceOnUse">
<stop stop-color="#FCD835"/>
<stop offset="1" stop-color="#FAA925"/>
</linearGradient>
<linearGradient id="paint25_linear" x1="56.5696" y1="13.6792" x2="56.9476" y2="13.3544" gradientUnits="userSpaceOnUse">
<stop stop-color="#FCE559"/>
<stop offset="1" stop-color="#F6AA28"/>
</linearGradient>
<linearGradient id="paint26_linear" x1="63.4631" y1="7.94833" x2="64.0053" y2="7.48234" gradientUnits="userSpaceOnUse">
<stop stop-color="#FCE559"/>
<stop offset="1" stop-color="#F6AA28"/>
</linearGradient>
<linearGradient id="paint27_linear" x1="56.7924" y1="13.9394" x2="64.1327" y2="7.63151" gradientUnits="userSpaceOnUse">
<stop stop-color="#FCE559"/>
<stop offset="1" stop-color="#F6AA28"/>
</linearGradient>
<linearGradient id="paint28_linear" x1="55.9449" y1="10.7781" x2="62.403" y2="13.0455" gradientUnits="userSpaceOnUse">
<stop stop-color="#FCE559"/>
<stop offset="1" stop-color="#F6AA28"/>
</linearGradient>
<linearGradient id="paint29_linear" x1="58.4884" y1="7.6938" x2="61.4356" y2="12.339" gradientUnits="userSpaceOnUse">
<stop stop-color="#FCE559"/>
<stop offset="1" stop-color="#F6AA28"/>
</linearGradient>
<linearGradient id="paint30_linear" x1="61.5662" y1="11.5509" x2="58.629" y2="7.88921" gradientUnits="userSpaceOnUse">
<stop stop-color="#FCD835"/>
<stop offset="1" stop-color="#FAA925"/>
</linearGradient>
<linearGradient id="paint31_linear" x1="61.3788" y1="11.3892" x2="58.7583" y2="8.12218" gradientUnits="userSpaceOnUse">
<stop stop-color="#FFC533"/>
<stop offset="1" stop-color="#F8BA26"/>
</linearGradient>
<linearGradient id="paint32_linear" x1="58.1519" y1="11.5344" x2="61.6482" y2="8.69676" gradientUnits="userSpaceOnUse">
<stop stop-color="#FCD835"/>
<stop offset="1" stop-color="#FAA925"/>
</linearGradient>
<linearGradient id="paint33_linear" x1="49.5379" y1="39.6833" x2="50.5461" y2="38.0624" gradientUnits="userSpaceOnUse">
<stop stop-color="#FCE559"/>
<stop offset="1" stop-color="#F6AA28"/>
</linearGradient>
<linearGradient id="paint34_linear" x1="50.7435" y1="40.4341" x2="51.7516" y2="38.8133" gradientUnits="userSpaceOnUse">
<stop stop-color="#FCE559"/>
<stop offset="1" stop-color="#F6AA28"/>
</linearGradient>
<linearGradient id="paint35_linear" x1="38.0962" y1="60.7496" x2="51.7433" y2="38.8082" gradientUnits="userSpaceOnUse">
<stop stop-color="#FCE559"/>
<stop offset="1" stop-color="#F6AA28"/>
</linearGradient>
<linearGradient id="paint36_linear" x1="33.5448" y1="46.0644" x2="51.8126" y2="46.6679" gradientUnits="userSpaceOnUse">
<stop stop-color="#FCE559"/>
<stop offset="1" stop-color="#F6AA28"/>
</linearGradient>
<linearGradient id="paint37_linear" x1="48.9851" y1="39.3408" x2="49.9932" y2="37.72" gradientUnits="userSpaceOnUse">
<stop stop-color="#FCE559"/>
<stop offset="1" stop-color="#F6AA28"/>
</linearGradient>
<linearGradient id="paint38_linear" x1="33.5283" y1="46.5683" x2="51.7959" y2="47.1718" gradientUnits="userSpaceOnUse">
<stop stop-color="#FCE559"/>
<stop offset="1" stop-color="#F6AA28"/>
</linearGradient>
<linearGradient id="paint39_linear" x1="40.295" y1="62.1165" x2="53.9419" y2="40.1749" gradientUnits="userSpaceOnUse">
<stop stop-color="#FCE559"/>
<stop offset="1" stop-color="#F6AA28"/>
</linearGradient>
<linearGradient id="paint40_linear" x1="33.2023" y1="56.4071" x2="51.4707" y2="57.0106" gradientUnits="userSpaceOnUse">
<stop stop-color="#FCE559"/>
<stop offset="1" stop-color="#F6AA28"/>
</linearGradient>
<linearGradient id="paint41_linear" x1="50.2351" y1="40.1173" x2="51.2431" y2="38.4965" gradientUnits="userSpaceOnUse">
<stop stop-color="#FCE559"/>
<stop offset="1" stop-color="#F6AA28"/>
</linearGradient>
<linearGradient id="paint42_linear" x1="37.5877" y1="60.4326" x2="51.2346" y2="38.4911" gradientUnits="userSpaceOnUse">
<stop stop-color="#FCE559"/>
<stop offset="1" stop-color="#F6AA28"/>
</linearGradient>
<linearGradient id="paint43_linear" x1="33.4616" y1="48.6089" x2="51.7283" y2="49.2123" gradientUnits="userSpaceOnUse">
<stop stop-color="#FCE559"/>
<stop offset="1" stop-color="#F6AA28"/>
</linearGradient>
<linearGradient id="paint44_linear" x1="33.5222" y1="46.7475" x2="51.7899" y2="47.351" gradientUnits="userSpaceOnUse">
<stop stop-color="#FCE559"/>
<stop offset="1" stop-color="#F6AA28"/>
</linearGradient>
<linearGradient id="paint45_linear" x1="39.368" y1="40.9849" x2="50.5967" y2="50.4604" gradientUnits="userSpaceOnUse">
<stop stop-color="#FCE559"/>
<stop offset="1" stop-color="#F6AA28"/>
</linearGradient>
<linearGradient id="paint46_linear" x1="48.6923" y1="39.1584" x2="49.7005" y2="37.5376" gradientUnits="userSpaceOnUse">
<stop stop-color="#FCE559"/>
<stop offset="1" stop-color="#F6AA28"/>
</linearGradient>
<linearGradient id="paint47_linear" x1="33.5326" y1="46.4403" x2="51.8" y2="47.0437" gradientUnits="userSpaceOnUse">
<stop stop-color="#FCE559"/>
<stop offset="1" stop-color="#F6AA28"/>
</linearGradient>
<linearGradient id="paint48_linear" x1="45.147" y1="34.1372" x2="56.3754" y2="43.6122" gradientUnits="userSpaceOnUse">
<stop stop-color="#FCE559"/>
<stop offset="1" stop-color="#F6AA28"/>
</linearGradient>
<linearGradient id="paint49_linear" x1="38.0516" y1="60.7217" x2="51.6986" y2="38.7801" gradientUnits="userSpaceOnUse">
<stop stop-color="#FCE559"/>
<stop offset="1" stop-color="#F6AA28"/>
</linearGradient>
<linearGradient id="paint50_linear" x1="33.2817" y1="54.0058" x2="51.55" y2="54.6093" gradientUnits="userSpaceOnUse">
<stop stop-color="#FCE559"/>
<stop offset="1" stop-color="#F6AA28"/>
</linearGradient>
<linearGradient id="paint51_linear" x1="40.1723" y1="40.0322" x2="51.4002" y2="49.5069" gradientUnits="userSpaceOnUse">
<stop stop-color="#FCE559"/>
<stop offset="1" stop-color="#F6AA28"/>
</linearGradient>
<linearGradient id="paint52_linear" x1="49.8117" y1="39.8542" x2="50.8198" y2="38.2334" gradientUnits="userSpaceOnUse">
<stop stop-color="#FCE559"/>
<stop offset="1" stop-color="#F6AA28"/>
</linearGradient>
<linearGradient id="paint53_linear" x1="37.1641" y1="60.1699" x2="50.8112" y2="38.228" gradientUnits="userSpaceOnUse">
<stop stop-color="#FCE559"/>
<stop offset="1" stop-color="#F6AA28"/>
</linearGradient>
<linearGradient id="paint54_linear" x1="33.4747" y1="48.1965" x2="51.7419" y2="48.7999" gradientUnits="userSpaceOnUse">
<stop stop-color="#FCE559"/>
<stop offset="1" stop-color="#F6AA28"/>
</linearGradient>
<linearGradient id="paint55_linear" x1="44.7918" y1="34.5577" x2="56.02" y2="44.0328" gradientUnits="userSpaceOnUse">
<stop stop-color="#FCE559"/>
<stop offset="1" stop-color="#F6AA28"/>
</linearGradient>
<linearGradient id="paint56_linear" x1="33.4882" y1="47.7785" x2="51.756" y2="48.382" gradientUnits="userSpaceOnUse">
<stop stop-color="#FCE559"/>
<stop offset="1" stop-color="#F6AA28"/>
</linearGradient>
<linearGradient id="paint57_linear" x1="38.666" y1="41.8171" x2="49.895" y2="51.2928" gradientUnits="userSpaceOnUse">
<stop stop-color="#FCE559"/>
<stop offset="1" stop-color="#F6AA28"/>
</linearGradient>
<linearGradient id="paint58_linear" x1="50.1258" y1="47.9762" x2="39.7099" y2="40.9989" gradientUnits="userSpaceOnUse">
<stop stop-color="#FCD835"/>
<stop offset="1" stop-color="#FAA925"/>
</linearGradient>
<linearGradient id="paint59_linear" x1="37.001" y1="60.067" x2="50.648" y2="38.1254" gradientUnits="userSpaceOnUse">
<stop stop-color="#FCE559"/>
<stop offset="1" stop-color="#F6AA28"/>
</linearGradient>
<linearGradient id="paint60_linear" x1="33.3011" y1="53.452" x2="51.5681" y2="54.0555" gradientUnits="userSpaceOnUse">
<stop stop-color="#FCE559"/>
<stop offset="1" stop-color="#F6AA28"/>
</linearGradient>
<linearGradient id="paint61_linear" x1="39.7151" y1="40.5725" x2="50.9431" y2="50.0473" gradientUnits="userSpaceOnUse">
<stop stop-color="#FCE559"/>
<stop offset="1" stop-color="#F6AA28"/>
</linearGradient>
<linearGradient id="paint62_linear" x1="49.8508" y1="48.3833" x2="39.4358" y2="41.4066" gradientUnits="userSpaceOnUse">
<stop stop-color="#FCD835"/>
<stop offset="1" stop-color="#FAA925"/>
</linearGradient>
<linearGradient id="paint63_linear" x1="33.5973" y1="44.4685" x2="51.8657" y2="45.072" gradientUnits="userSpaceOnUse">
<stop stop-color="#FCE559"/>
<stop offset="1" stop-color="#F6AA28"/>
</linearGradient>
<linearGradient id="paint64_linear" x1="41.6583" y1="38.2711" x2="52.8871" y2="47.7472" gradientUnits="userSpaceOnUse">
<stop stop-color="#FCE559"/>
<stop offset="1" stop-color="#F6AA28"/>
</linearGradient>
<linearGradient id="paint65_linear" x1="33.4978" y1="47.4864" x2="51.7658" y2="48.0899" gradientUnits="userSpaceOnUse">
<stop stop-color="#FCE559"/>
<stop offset="1" stop-color="#F6AA28"/>
</linearGradient>
<linearGradient id="paint66_linear" x1="37.6766" y1="42.9898" x2="48.9035" y2="52.4638" gradientUnits="userSpaceOnUse">
<stop stop-color="#FCE559"/>
<stop offset="1" stop-color="#F6AA28"/>
</linearGradient>
<linearGradient id="paint67_linear" x1="49.5233" y1="48.8767" x2="39.1069" y2="41.899" gradientUnits="userSpaceOnUse">
<stop stop-color="#FCD835"/>
<stop offset="1" stop-color="#FAA925"/>
</linearGradient>
<linearGradient id="paint68_linear" x1="33.4637" y1="48.5171" x2="51.7316" y2="49.1206" gradientUnits="userSpaceOnUse">
<stop stop-color="#FCE559"/>
<stop offset="1" stop-color="#F6AA28"/>
</linearGradient>
<linearGradient id="paint69_linear" x1="37.7667" y1="42.8819" x2="48.994" y2="52.3562" gradientUnits="userSpaceOnUse">
<stop stop-color="#FCE559"/>
<stop offset="1" stop-color="#F6AA28"/>
</linearGradient>
<linearGradient id="paint70_linear" x1="49.4243" y1="49.0227" x2="39.0082" y2="42.0452" gradientUnits="userSpaceOnUse">
<stop stop-color="#FCD835"/>
<stop offset="1" stop-color="#FAA925"/>
</linearGradient>
<linearGradient id="paint71_linear" x1="48.8174" y1="48.7597" x2="39.524" y2="42.5342" gradientUnits="userSpaceOnUse">
<stop stop-color="#FFC533"/>
<stop offset="1" stop-color="#F8BA26"/>
</linearGradient>
<linearGradient id="paint72_linear" x1="36.0944" y1="59.5035" x2="49.7415" y2="37.5618" gradientUnits="userSpaceOnUse">
<stop stop-color="#FCE559"/>
<stop offset="1" stop-color="#F6AA28"/>
</linearGradient>
<linearGradient id="paint73_linear" x1="33.3108" y1="53.1426" x2="51.5783" y2="53.7461" gradientUnits="userSpaceOnUse">
<stop stop-color="#FCE559"/>
<stop offset="1" stop-color="#F6AA28"/>
</linearGradient>
<linearGradient id="paint74_linear" x1="38.6661" y1="41.8155" x2="49.8942" y2="51.2905" gradientUnits="userSpaceOnUse">
<stop stop-color="#FCE559"/>
<stop offset="1" stop-color="#F6AA28"/>
</linearGradient>
<linearGradient id="paint75_linear" x1="49.547" y1="48.8371" x2="39.1318" y2="41.8603" gradientUnits="userSpaceOnUse">
<stop stop-color="#FCD835"/>
<stop offset="1" stop-color="#FAA925"/>
</linearGradient>
<linearGradient id="paint76_linear" x1="48.9401" y1="48.5741" x2="39.6475" y2="42.3492" gradientUnits="userSpaceOnUse">
<stop stop-color="#FFC533"/>
<stop offset="1" stop-color="#F8BA26"/>
</linearGradient>
<linearGradient id="paint77_linear" x1="35.1076" y1="58.8908" x2="48.7546" y2="36.949" gradientUnits="userSpaceOnUse">
<stop stop-color="#FCE559"/>
<stop offset="1" stop-color="#F6AA28"/>
</linearGradient>
<linearGradient id="paint78_linear" x1="33.3785" y1="51.1007" x2="51.646" y2="51.7041" gradientUnits="userSpaceOnUse">
<stop stop-color="#FCE559"/>
<stop offset="1" stop-color="#F6AA28"/>
</linearGradient>
<linearGradient id="paint79_linear" x1="38.8685" y1="41.5766" x2="50.097" y2="51.052" gradientUnits="userSpaceOnUse">
<stop stop-color="#FCE559"/>
<stop offset="1" stop-color="#F6AA28"/>
</linearGradient>
<linearGradient id="paint80_linear" x1="49.7728" y1="48.5016" x2="39.3575" y2="41.5246" gradientUnits="userSpaceOnUse">
<stop stop-color="#FCD835"/>
<stop offset="1" stop-color="#FAA925"/>
</linearGradient>
<linearGradient id="paint81_linear" x1="49.166" y1="48.2386" x2="39.8732" y2="42.0135" gradientUnits="userSpaceOnUse">
<stop stop-color="#FFC533"/>
<stop offset="1" stop-color="#F8BA26"/>
</linearGradient>
<linearGradient id="paint82_linear" x1="34.6438" y1="58.6027" x2="48.2907" y2="36.6611" gradientUnits="userSpaceOnUse">
<stop stop-color="#FCE559"/>
<stop offset="1" stop-color="#F6AA28"/>
</linearGradient>
<linearGradient id="paint83_linear" x1="33.3901" y1="50.7464" x2="51.6577" y2="51.3499" gradientUnits="userSpaceOnUse">
<stop stop-color="#FCE559"/>
<stop offset="1" stop-color="#F6AA28"/>
</linearGradient>
<linearGradient id="paint84_linear" x1="38.6336" y1="41.8557" x2="49.8617" y2="51.3307" gradientUnits="userSpaceOnUse">
<stop stop-color="#FCE559"/>
<stop offset="1" stop-color="#F6AA28"/>
</linearGradient>
<linearGradient id="paint85_linear" x1="49.6533" y1="48.6801" x2="39.2383" y2="41.7033" gradientUnits="userSpaceOnUse">
<stop stop-color="#FCD835"/>
<stop offset="1" stop-color="#FAA925"/>
</linearGradient>
<linearGradient id="paint86_linear" x1="49.0464" y1="48.4171" x2="39.754" y2="42.1923" gradientUnits="userSpaceOnUse">
<stop stop-color="#FFC533"/>
<stop offset="1" stop-color="#F8BA26"/>
</linearGradient>
<linearGradient id="paint87_linear" x1="38.1439" y1="52.5592" x2="44.7779" y2="42.5327" gradientUnits="userSpaceOnUse">
<stop stop-color="#FCD835"/>
<stop offset="1" stop-color="#FAA925"/>
</linearGradient>
<linearGradient id="paint88_linear" x1="33.6882" y1="58.0074" x2="47.3356" y2="36.0657" gradientUnits="userSpaceOnUse">
<stop stop-color="#FCE559"/>
<stop offset="1" stop-color="#F6AA28"/>
</linearGradient>
<linearGradient id="paint89_linear" x1="33.4973" y1="47.4851" x2="51.7661" y2="48.0886" gradientUnits="userSpaceOnUse">
<stop stop-color="#FCE559"/>
<stop offset="1" stop-color="#F6AA28"/>
</linearGradient>
<linearGradient id="paint90_linear" x1="40.6416" y1="39.4753" x2="51.8695" y2="48.9498" gradientUnits="userSpaceOnUse">
<stop stop-color="#FCE559"/>
<stop offset="1" stop-color="#F6AA28"/>
</linearGradient>
<linearGradient id="paint91_linear" x1="51.6697" y1="45.6682" x2="41.255" y2="38.6918" gradientUnits="userSpaceOnUse">
<stop stop-color="#FCD835"/>
<stop offset="1" stop-color="#FAA925"/>
</linearGradient>
<linearGradient id="paint92_linear" x1="51.0629" y1="45.4052" x2="41.7707" y2="39.1808" gradientUnits="userSpaceOnUse">
<stop stop-color="#FFC533"/>
<stop offset="1" stop-color="#F8BA26"/>
</linearGradient>
<linearGradient id="paint93_linear" x1="37.1156" y1="51.8778" x2="43.7498" y2="41.8512" gradientUnits="userSpaceOnUse">
<stop stop-color="#FCD835"/>
<stop offset="1" stop-color="#FAA925"/>
</linearGradient>
<linearGradient id="paint94_linear" x1="37.8041" y1="60.5685" x2="51.4513" y2="38.6268" gradientUnits="userSpaceOnUse">
<stop stop-color="#FCE559"/>
<stop offset="1" stop-color="#F6AA28"/>
</linearGradient>
<linearGradient id="paint95_linear" x1="33.2057" y1="56.3178" x2="51.4737" y2="56.9213" gradientUnits="userSpaceOnUse">
<stop stop-color="#FCE559"/>
<stop offset="1" stop-color="#F6AA28"/>
</linearGradient>
<linearGradient id="paint96_linear" x1="36.7162" y1="44.1284" x2="47.9441" y2="53.6031" gradientUnits="userSpaceOnUse">
<stop stop-color="#FCE559"/>
<stop offset="1" stop-color="#F6AA28"/>
</linearGradient>
<linearGradient id="paint97_linear" x1="47.2885" y1="52.2102" x2="36.8736" y2="45.2337" gradientUnits="userSpaceOnUse">
<stop stop-color="#FCD835"/>
<stop offset="1" stop-color="#FAA925"/>
</linearGradient>
<linearGradient id="paint98_linear" x1="46.6816" y1="51.9472" x2="37.3894" y2="45.7226" gradientUnits="userSpaceOnUse">
<stop stop-color="#FFC533"/>
<stop offset="1" stop-color="#F8BA26"/>
</linearGradient>
<linearGradient id="paint99_linear" x1="41.2967" y1="54.6454" x2="47.9307" y2="44.6188" gradientUnits="userSpaceOnUse">
<stop stop-color="#FCD835"/>
<stop offset="1" stop-color="#FAA925"/>
</linearGradient>
<linearGradient id="paint100_linear" x1="35.5647" y1="59.176" x2="49.2117" y2="37.2342" gradientUnits="userSpaceOnUse">
<stop stop-color="#FCE559"/>
<stop offset="1" stop-color="#F6AA28"/>
</linearGradient>
<linearGradient id="paint101_linear" x1="33.4157" y1="49.9716" x2="51.6834" y2="50.5751" gradientUnits="userSpaceOnUse">
<stop stop-color="#FCE559"/>
<stop offset="1" stop-color="#F6AA28"/>
</linearGradient>
<linearGradient id="paint102_linear" x1="39.924" y1="40.3272" x2="51.1521" y2="49.8022" gradientUnits="userSpaceOnUse">
<stop stop-color="#FCE559"/>
<stop offset="1" stop-color="#F6AA28"/>
</linearGradient>
<linearGradient id="paint103_linear" x1="50.6981" y1="47.1209" x2="40.2831" y2="40.1441" gradientUnits="userSpaceOnUse">
<stop stop-color="#FCD835"/>
<stop offset="1" stop-color="#FAA925"/>
</linearGradient>
<linearGradient id="paint104_linear" x1="50.0913" y1="46.8579" x2="40.7988" y2="40.6331" gradientUnits="userSpaceOnUse">
<stop stop-color="#FFC533"/>
<stop offset="1" stop-color="#F8BA26"/>
</linearGradient>
<linearGradient id="paint105_linear" x1="38.9691" y1="53.1057" x2="45.6031" y2="43.079" gradientUnits="userSpaceOnUse">
<stop stop-color="#FCD835"/>
<stop offset="1" stop-color="#FAA925"/>
</linearGradient>
<linearGradient id="paint106_linear" x1="36.6027" y1="59.8205" x2="50.2493" y2="37.8788" gradientUnits="userSpaceOnUse">
<stop stop-color="#FCE559"/>
<stop offset="1" stop-color="#F6AA28"/>
</linearGradient>
<linearGradient id="paint107_linear" x1="33.2244" y1="55.7703" x2="51.4912" y2="56.3738" gradientUnits="userSpaceOnUse">
<stop stop-color="#FCE559"/>
<stop offset="1" stop-color="#F6AA28"/>
</linearGradient>
<linearGradient id="paint108_linear" x1="35.8723" y1="45.1273" x2="47.1004" y2="54.6025" gradientUnits="userSpaceOnUse">
<stop stop-color="#FCE559"/>
<stop offset="1" stop-color="#F6AA28"/>
</linearGradient>
<linearGradient id="paint109_linear" x1="46.7851" y1="52.9611" x2="36.3701" y2="45.9842" gradientUnits="userSpaceOnUse">
<stop stop-color="#FCD835"/>
<stop offset="1" stop-color="#FAA925"/>
</linearGradient>
<linearGradient id="paint110_linear" x1="46.1783" y1="52.6981" x2="36.8859" y2="46.4732" gradientUnits="userSpaceOnUse">
<stop stop-color="#FFC533"/>
<stop offset="1" stop-color="#F8BA26"/>
</linearGradient>
<linearGradient id="paint111_linear" x1="40.1742" y1="53.902" x2="46.808" y2="43.8754" gradientUnits="userSpaceOnUse">
<stop stop-color="#FCD835"/>
<stop offset="1" stop-color="#FAA925"/>
</linearGradient>
<linearGradient id="paint112_linear" x1="35.3196" y1="59.0238" x2="48.9669" y2="37.082" gradientUnits="userSpaceOnUse">
<stop stop-color="#FCE559"/>
<stop offset="1" stop-color="#F6AA28"/>
</linearGradient>
<linearGradient id="paint113_linear" x1="33.3786" y1="51.1024" x2="51.6458" y2="51.7058" gradientUnits="userSpaceOnUse">
<stop stop-color="#FCE559"/>
<stop offset="1" stop-color="#F6AA28"/>
</linearGradient>
<linearGradient id="paint114_linear" x1="39.0113" y1="41.4085" x2="50.2398" y2="50.8837" gradientUnits="userSpaceOnUse">
<stop stop-color="#FCE559"/>
<stop offset="1" stop-color="#F6AA28"/>
</linearGradient>
<linearGradient id="paint115_linear" x1="49.8278" y1="48.4205" x2="39.4124" y2="41.4436" gradientUnits="userSpaceOnUse">
<stop stop-color="#FCD835"/>
<stop offset="1" stop-color="#FAA925"/>
</linearGradient>
<linearGradient id="paint116_linear" x1="49.2209" y1="48.1575" x2="39.9281" y2="41.9326" gradientUnits="userSpaceOnUse">
<stop stop-color="#FFC533"/>
<stop offset="1" stop-color="#F8BA26"/>
</linearGradient>
<linearGradient id="paint117_linear" x1="38.7849" y1="52.984" x2="45.419" y2="42.9574" gradientUnits="userSpaceOnUse">
<stop stop-color="#FCD835"/>
<stop offset="1" stop-color="#FAA925"/>
</linearGradient>
<linearGradient id="paint118_linear" x1="37.0295" y1="51.8207" x2="43.6636" y2="41.7941" gradientUnits="userSpaceOnUse">
<stop stop-color="#FCD835"/>
<stop offset="1" stop-color="#FAA925"/>
</linearGradient>
<linearGradient id="paint119_linear" x1="42.423" y1="47.2198" x2="54.1384" y2="47.2198" gradientUnits="userSpaceOnUse">
<stop stop-color="#FCE559"/>
<stop offset="1" stop-color="#F6AA28"/>
</linearGradient>
</defs>
</svg>
